<svg width="564" height="440" viewBox="0 0 564 440" fill="none" xmlns="http://www.w3.org/2000/svg">
<path d="M257.031 72.877C238.228 4.66743 153.497 -17.3066 104.939 33.6716C104.241 34.4048 103.544 35.149 102.848 35.9042C33.2317 111.58 66.1181 298.07 211.407 345.337C356.695 392.604 507.815 306.289 516.304 229.124C524.793 151.96 457.77 127.722 353.744 149.297C294.974 161.493 268.737 115.339 257.031 72.877Z" fill="#CCE1F7"/>
<path d="M403.619 88.5874C384.179 91.7511 378.792 108.974 393.801 121.192C398.762 125.23 405.848 128.585 415.94 130.259C454.388 136.638 474.79 119.627 459.378 97.5715C449.866 83.9548 422.882 85.4456 403.619 88.5874Z" fill="#CCE1F7"/>
<path d="M50.2864 203.684C38.2021 188.133 20.5026 191.648 16.9613 210.675C15.7906 216.963 16.2379 224.79 19.5996 234.453C32.4061 271.262 57.1089 281.029 69.0906 256.937C76.491 242.071 62.2633 219.097 50.2864 203.684Z" fill="#CCE1F7"/>
<path d="M315.125 54.1829L317.145 43.8863L307.497 41.9922C307.485 39.4274 307.054 36.8818 306.22 34.4562L314.163 29.116L308.311 20.4056L300.703 25.5172C298.481 23.2568 295.824 21.4694 292.893 20.2626L294.788 10.6088L284.491 8.58887L282.535 18.5335C280.401 18.6521 278.294 19.0633 276.272 19.7555L270.946 11.8064L262.237 17.6585L267.348 25.2667C265.088 27.4891 263.3 30.1462 262.094 33.0778L253.662 31.4207L251.64 41.7173L260.371 43.4281C260.519 46.164 261.147 48.8525 262.226 51.3711L254.615 56.4827L260.467 65.1931L268.418 59.853C270.668 61.812 273.272 63.3241 276.088 64.3084L274.181 74.016L284.478 76.0359L286.545 65.5133C288.841 65.2598 291.087 64.6672 293.21 63.7548L298.321 71.3642L307.03 65.5133L301.69 57.5703C303.095 55.9581 304.272 54.1614 305.189 52.2302L315.125 54.1829ZM289.264 50.0587C287.685 51.1193 285.827 51.6879 283.925 51.6926C282.023 51.6973 280.162 51.1379 278.578 50.0851C276.994 49.0323 275.758 47.5334 275.025 45.778C274.293 44.0226 274.098 42.0894 274.464 40.223C274.83 38.3565 275.742 36.6407 277.084 35.2923C278.425 33.944 280.136 33.0237 282.001 32.6479C283.866 32.2721 285.8 32.4576 287.559 33.181C289.318 33.9044 290.823 35.1332 291.884 36.712C293.303 38.8301 293.825 41.4249 293.334 43.9271C292.843 46.4292 291.379 48.6344 289.264 50.0587Z" fill="#CCE1F7"/>
<path d="M539.907 35.6011L541.007 29.9799L535.734 28.9461C535.728 27.5442 535.492 26.1527 535.037 24.8268L539.381 21.9086L536.183 17.1489L532.028 19.9424C530.814 18.707 529.362 17.7301 527.76 17.0707L528.795 11.7966L523.173 10.6968L522.108 16.131C520.942 16.1962 519.791 16.4207 518.686 16.7982L515.768 12.4528L511.002 15.6508L513.796 19.8056C512.56 21.0197 511.584 22.4712 510.924 24.0728L506.316 23.1685L505.21 28.7897L509.982 29.7258C510.063 31.2212 510.406 32.6907 510.995 34.0675L506.84 36.861L510.038 41.6207L514.384 38.7026C515.613 39.7732 517.036 40.5998 518.575 41.138L517.533 46.4427L523.16 47.5425L524.289 41.7918C525.544 41.6531 526.772 41.329 527.932 40.8301L530.725 44.9849L535.491 41.7869L532.573 37.4439C533.34 36.5625 533.983 35.5808 534.484 34.5258L539.907 35.6011ZM525.773 33.3527C524.91 33.9318 523.895 34.2422 522.856 34.2445C521.816 34.2469 520.8 33.941 519.935 33.3657C519.069 32.7904 518.394 31.9715 517.994 31.0124C517.594 30.0533 517.487 28.9972 517.688 27.9775C517.888 26.9579 518.386 26.0205 519.119 25.2838C519.852 24.5472 520.787 24.0444 521.805 23.839C522.824 23.6336 523.88 23.7349 524.842 24.1299C525.803 24.525 526.625 25.1961 527.205 26.0585C527.981 27.2162 528.266 28.6343 527.997 30.0018C527.729 31.3692 526.929 32.5743 525.773 33.3527Z" fill="#CCE1F7"/>
<path d="M302.049 386.867C220.271 386.867 148.778 383.326 109.979 378.044C109.147 377.932 108.304 378.136 107.618 378.616C106.933 379.096 106.456 379.816 106.283 380.631C106.111 381.446 106.257 382.295 106.69 383.008C107.124 383.721 107.814 384.245 108.62 384.473C135.099 391.971 172.583 392.493 196.531 395.053C237.814 399.467 297.836 398.245 302.049 412.526C306.262 426.807 306.68 441.927 264.604 439.799C218.948 437.489 226.548 412.526 226.548 412.526C184.203 413.724 83.4347 403.883 72.2858 386.867C61.2655 370.044 81.46 366.154 81.9199 366.068H81.9264C98.9831 357.526 191.038 351 302.047 351C425.18 351 525 359.029 525 368.934C525 378.839 425.182 386.867 302.049 386.867Z" fill="#CCE1F7"/>
<path d="M104.941 325.655C93.7559 314.379 69.3037 287.94 53.9028 257.924C31.8017 214.846 9.63955 218.697 5.29045 233.924C-5.95195 273.307 60.2878 316.11 87.7559 331.921L104.941 325.655Z" fill="#3B73AB"/>
<path d="M98.8876 327.862C79.6044 313.399 63.2993 296.288 52.2194 283.374C43.6648 273.494 35.7077 263.112 28.3904 252.284C28.2326 252.057 27.9929 251.901 27.7219 251.848C27.451 251.795 27.1701 251.85 26.9387 252C26.7073 252.151 26.5434 252.386 26.4819 252.655C26.4203 252.924 26.4658 253.206 26.6087 253.442C33.9701 264.34 41.9763 274.789 50.5844 284.732C61.5286 297.491 77.5466 314.324 96.5133 328.724L98.8876 327.862Z" fill="#00528A"/>
<path d="M102.169 310.502C96.9858 300.157 87.1572 278.486 83.5132 256.402C78.068 223.408 62.6793 221.26 56.606 230.358C39.9257 255.344 79.9022 301.307 92.655 314.913L102.169 310.502Z" fill="#00528A"/>
<path d="M98.5454 312.177C89.9867 299.853 82.7763 286.646 77.0382 272.783C73.496 264.48 70.4531 255.973 67.9258 247.307C67.9004 247.214 67.857 247.126 67.7979 247.05C67.7389 246.974 67.6654 246.91 67.5817 246.862C67.4979 246.814 67.4056 246.783 67.3099 246.771C67.2142 246.759 67.117 246.766 67.0239 246.791C66.9309 246.816 66.8437 246.86 66.7674 246.919C66.6911 246.978 66.6272 247.051 66.5793 247.135C66.5314 247.219 66.5005 247.311 66.4883 247.407C66.4761 247.503 66.4829 247.6 66.5083 247.693C69.0502 256.413 72.1106 264.975 75.6733 273.33C81.4224 287.215 88.6368 300.447 97.1939 312.801L98.5454 312.177Z" fill="#01305A"/>
<path d="M468.993 158.181C479.307 146.093 501.701 117.896 514.807 86.8081C533.615 42.1941 556.004 44.3717 561.487 59.2312C575.655 97.6595 512.809 145.31 486.605 163.137L468.993 158.181Z" fill="#3B73AB"/>
<path d="M475.19 159.925C493.337 144.056 508.314 125.77 518.393 112.064C526.183 101.57 533.34 90.621 539.826 79.2741C539.962 79.0277 540.19 78.8453 540.46 78.7668C540.73 78.6883 541.02 78.7202 541.267 78.8554C541.514 78.9906 541.697 79.2181 541.776 79.4881C541.856 79.7581 541.825 80.0485 541.69 80.2957C535.166 91.713 527.966 102.731 520.128 113.29C510.171 126.834 495.461 144.817 477.628 160.607L475.19 159.925Z" fill="#00528A"/>
<path d="M470.621 142.856C475.02 132.151 483.189 109.803 485.163 87.508C488.116 54.1962 503.301 50.9029 510.04 59.5242C528.549 83.1882 492.132 132.019 480.437 146.544L470.621 142.856Z" fill="#00528A"/>
<path d="M474.357 144.258C481.972 131.328 488.175 117.617 492.861 103.362C495.77 94.8165 498.166 86.1044 500.036 77.2727C500.073 77.0815 500.185 76.9128 500.346 76.8037C500.507 76.6946 500.706 76.6541 500.897 76.6911C501.088 76.728 501.257 76.8394 501.366 77.0008C501.475 77.1621 501.515 77.3601 501.478 77.5514C499.598 86.4389 497.188 95.2061 494.261 103.806C489.567 118.084 483.363 131.821 475.753 144.782L474.357 144.258Z" fill="#01305A"/>
<path d="M155.73 31.8778C157.653 13.8667 156.155 -3.54064 147.192 0.752244C138.228 5.04513 141.364 34.9572 153.563 54.684L156.109 62.3826C147.469 47.8506 130.231 35.5401 123.156 40.1422C116.126 44.7149 128.345 51.8734 140.594 56.5402C149.918 60.0962 155.208 64.5626 157.664 67.0922L169.684 103.472C155.937 80.4987 128.709 61.0958 117.514 68.3777C106.358 75.6327 125.747 86.9827 145.183 94.3965C159.871 99.9982 168.254 107.026 172.189 111.055L174.585 118.309C175.908 118.089 177.23 117.863 178.549 117.63L164.252 74.3472C165.679 69.1222 167.92 64.1548 170.895 59.6282C177.951 48.5776 183.502 35.5548 175.131 36.0693C167.867 36.5177 162.024 51.5691 161.656 66.4897L156.71 51.5202C155.52 45.0444 155.191 38.4399 155.73 31.8778Z" fill="#00528A"/>
<path d="M529.361 245.668C534.223 228.219 542.043 212.594 548.791 219.893C555.539 227.192 541.581 253.833 522.958 267.663L517.75 273.881C531.143 263.566 551.708 258.484 556.585 265.377C561.43 272.221 547.433 274.359 534.325 274.176C524.346 274.038 517.781 276.235 514.565 277.679L489.963 307.051C511.219 290.777 543.688 282.797 551.403 293.697C559.091 304.558 536.884 307.949 516.088 307.662C500.369 307.446 489.985 310.881 484.84 313.174L479.935 319.029C478.785 318.339 477.641 317.641 476.501 316.936L505.77 281.987C506.376 276.605 506.128 271.161 505.037 265.856C502.56 252.981 502.209 238.828 509.803 242.394C516.389 245.492 516.261 261.637 511.096 275.64L521.218 263.555C524.707 257.977 527.445 251.963 529.361 245.668Z" fill="#3B73AB"/>
<path d="M121.617 218.364H141.731C130.863 216.567 103.917 205 101.514 181.803C98.4702 152.421 88.0086 152.789 70.3788 149.715C52.749 146.642 47.894 151.66 36.7005 128.85C25.507 106.04 0.529297 103.165 0.529297 103.165C0.529297 103.165 23.2915 128 18.9351 146.874C14.5786 165.748 29.6728 173.287 41.7596 175.658C53.8464 178.03 50.9502 194.274 55.5425 204.708C57.6395 209.474 66.2191 214.404 74.9283 218.364H121.617Z" fill="#00528A"/>
<path d="M78.0496 189.436C78.9282 198.235 83.9873 208.7 91.5832 217.427C91.8508 217.734 92.1282 218.046 92.4117 218.359H94.7005C94.0468 217.669 93.426 216.989 92.8492 216.325C85.582 207.978 80.5498 197.61 79.7151 189.27C78.3893 175.992 68.1281 166.943 46.4425 159.931C33.8559 155.863 29.8795 140.501 29.8429 140.34C29.7893 140.124 29.6521 139.938 29.4615 139.824C29.271 139.709 29.0426 139.675 28.8268 139.728C28.6109 139.782 28.4252 139.919 28.3106 140.11C28.1959 140.3 28.1615 140.529 28.2152 140.744C28.3814 141.413 32.4421 157.168 45.9256 161.527C66.889 168.303 76.7982 176.912 78.0496 189.436Z" fill="#01305A"/>
<path d="M470.007 85.2534H93.2499C84.1362 85.2534 76.748 92.6416 76.748 101.755V322.827C76.748 331.941 84.1362 339.329 93.2499 339.329H470.007C479.121 339.329 486.509 331.941 486.509 322.827V101.755C486.509 92.6416 479.121 85.2534 470.007 85.2534Z" fill="#01305A"/>
<path d="M468.307 112.994V311.588C468.307 312.977 468.034 314.353 467.502 315.637C466.971 316.921 466.192 318.087 465.209 319.07C464.227 320.053 463.061 320.832 461.777 321.364C460.493 321.896 459.118 322.17 457.728 322.17H105.532C103.159 322.173 100.855 321.376 98.9916 319.907C98.514 319.53 98.0693 319.113 97.6621 318.66C95.9108 316.722 94.9437 314.2 94.9492 311.588V112.994C94.9499 110.188 96.065 107.496 98.0495 105.512C100.034 103.527 102.725 102.412 105.532 102.412H457.728C459.61 102.408 461.459 102.911 463.08 103.866C464.558 104.736 465.803 105.95 466.71 107.406C467.757 109.082 468.31 111.018 468.307 112.994Z" fill="white"/>
<path d="M237 242.114H226.276V256H199.866V242.114H158V224.758L192.251 175H220.16L189.714 220.939H200.671V208.556H226.273V220.937H236.997L237 242.114Z" fill="#3B73AB"/>
<path d="M241 215.5C241 188.561 256.408 173 278 173C299.592 173 315 188.561 315 215.5C315 242.439 299.593 258 278 258C256.407 258 241 242.439 241 215.5ZM287.338 215.5C287.338 199.824 283.37 194.947 278 194.947C272.63 194.947 268.662 199.824 268.662 215.5C268.662 231.176 272.631 236.055 278 236.055C283.369 236.055 287.338 231.177 287.338 215.5Z" fill="#3B73AB"/>
<path d="M400 242.114H389.141V256H362.397V242.114H320V224.758L354.685 175H382.948L352.116 220.939H363.213V208.556H389.14V220.937H400V242.114Z" fill="#3B73AB"/>
<path d="M524.313 330.494V331.908C524.314 336.131 523.482 340.313 521.866 344.215C520.25 348.117 517.882 351.662 514.895 354.648C511.909 357.634 508.364 360.003 504.462 361.618C500.56 363.234 496.378 364.066 492.155 364.065H70.1569C65.9339 364.065 61.7521 363.234 57.8504 361.618C53.9488 360.002 50.4036 357.634 47.4175 354.647C44.4313 351.661 42.0627 348.116 40.4468 344.214C38.831 340.313 37.9995 336.131 38 331.908V330.494H524.313Z" fill="#01305A"/>
<g style="mix-blend-mode:screen">
<path d="M228 330.494V330.817C228 333.363 229.705 335.427 231.809 335.427H331.089C333.193 335.427 334.898 333.363 334.898 330.817V330.494H228Z" fill="#01305A"/>
</g>
<path opacity="0.2" d="M468.305 112.994V124.711H94.9502V112.994C94.9531 110.188 96.069 107.498 98.053 105.514C100.037 103.53 102.727 102.415 105.533 102.412H457.728C460.533 102.415 463.222 103.531 465.205 105.515C467.188 107.499 468.303 110.189 468.305 112.994Z" fill="#01305A"/>
<path d="M378.115 111.171H180.1C179.591 111.171 179.179 111.583 179.179 112.092V116.174C179.179 116.683 179.591 117.095 180.1 117.095H378.115C378.624 117.095 379.037 116.683 379.037 116.174V112.092C379.037 111.583 378.624 111.171 378.115 111.171Z" fill="white"/>
<path d="M131.454 114.127V116.327C131.454 116.47 131.416 116.61 131.345 116.734C131.273 116.857 131.171 116.96 131.047 117.032C130.923 117.104 130.783 117.142 130.64 117.142C130.497 117.143 130.357 117.106 130.232 117.035L128.331 115.936L126.43 114.836C126.305 114.764 126.202 114.661 126.13 114.537C126.058 114.412 126.021 114.271 126.021 114.128C126.021 113.984 126.058 113.843 126.13 113.719C126.202 113.594 126.305 113.491 126.43 113.419L128.331 112.32L130.232 111.22C130.357 111.149 130.497 111.112 130.64 111.113C130.783 111.113 130.923 111.151 131.047 111.223C131.171 111.295 131.273 111.398 131.345 111.522C131.416 111.645 131.454 111.786 131.454 111.929V114.127Z" fill="#01305A"/>
<path d="M141.349 114.127V116.327C141.349 116.47 141.387 116.61 141.459 116.733C141.53 116.857 141.633 116.96 141.757 117.031C141.88 117.103 142.02 117.141 142.163 117.142C142.306 117.142 142.446 117.106 142.571 117.035L144.472 115.936L146.374 114.836C146.498 114.764 146.601 114.661 146.673 114.537C146.745 114.412 146.783 114.271 146.783 114.128C146.783 113.984 146.745 113.843 146.673 113.719C146.601 113.595 146.498 113.491 146.374 113.42L144.472 112.32L142.571 111.22C142.446 111.15 142.306 111.113 142.163 111.114C142.02 111.115 141.88 111.153 141.757 111.224C141.633 111.296 141.53 111.399 141.459 111.522C141.387 111.646 141.349 111.786 141.349 111.929V114.127Z" fill="#01305A"/>
<path opacity="0.2" d="M466.398 106.939H96.8594C97.8332 105.541 99.1311 104.4 100.642 103.613C102.153 102.825 103.832 102.415 105.536 102.418H457.728C459.431 102.415 461.109 102.825 462.619 103.612C464.129 104.4 465.426 105.541 466.398 106.939Z" fill="#01305A"/>
<path opacity="0.1" d="M391.876 305.208H166.343C164.225 305.208 162.194 304.366 160.697 302.869C159.2 301.372 158.358 299.341 158.358 297.223C158.359 295.106 159.2 293.075 160.697 291.578C162.195 290.081 164.226 289.24 166.343 289.24H391.876C393.994 289.24 396.025 290.081 397.522 291.578C399.02 293.076 399.861 295.107 399.861 297.224C399.861 299.342 399.019 301.372 397.522 302.869C396.025 304.367 393.994 305.208 391.876 305.208Z" fill="#01305A"/>
<path d="M428 283.183C426.626 285.71 425.119 288.17 423.485 290.553C412.676 306.14 404.637 302.799 400.31 297.991C398.92 296.438 397.768 294.705 396.888 292.844C395.962 290.912 395.327 288.864 395 286.763L397.008 287.207C399.386 288.246 403.327 289.68 406.251 289.247C406.614 289.193 406.971 289.105 407.315 288.984C409.934 288.036 413.505 283.128 415.918 279.392C417.5 276.945 418.589 275 418.589 275L428 283.183Z" fill="#FFC0AD"/>
<path d="M428 283.419C426.635 286.018 425.138 288.549 423.516 291C420.538 287.495 418.014 283.638 416 279.519C417.571 277.001 418.653 275 418.653 275L428 283.419Z" fill="#FDA084"/>
<path d="M409 289.99C409 289.99 406.751 296.336 396.945 293.062C395.992 291.135 395.337 289.095 395 287L397.069 287.442C399.52 288.478 403.581 289.908 406.594 289.476L409 289.99Z" fill="#FDA084"/>
<path d="M495.622 306.97C493.426 319.402 483.121 310.274 482.231 300.565C482.042 298.383 481.969 296.193 482.012 294.004C482.045 292 482.151 290.067 482.292 288.313C482.319 287.973 482.347 287.643 482.376 287.319C482.759 283.093 483.299 280.128 483.299 280.128L490.037 272C490.037 272 490.822 274.279 491.827 277.785C492.753 281.025 493.864 285.312 494.707 289.821C494.962 291.184 495.193 292.566 495.385 293.945C496.116 298.252 496.196 302.64 495.622 306.97Z" fill="#FFC0AD"/>
<path d="M492 277.674C490.113 281.211 487.007 285.9 483 288C483.026 287.667 483.052 287.343 483.08 287.026C483.441 282.88 483.951 279.973 483.951 279.973L490.31 272C490.31 272 491.051 274.235 492 277.674Z" fill="#FDA084"/>
<path d="M496 293.2C493.448 294.557 485.078 293.918 482 293.255C482.04 291.015 482.192 288.872 482.382 287L495.291 289.343C495.557 290.616 495.799 291.908 496 293.2Z" fill="#FDA084"/>
<path d="M426.393 252C426.393 252 416.609 269.017 415 274.777C415 274.777 421.684 285.781 427.75 287L429.997 279.496C429.997 279.496 430.235 256.014 426.393 252Z" fill="#929292"/>
<path d="M446.939 243.451L426 252.135L435.266 324.194C435.266 324.194 464.094 328.258 479 324.194V252.135L458.636 243L446.939 243.451Z" fill="#929292"/>
<path d="M443.125 282.782C447.324 287.179 452.607 290.356 458.427 291.983C458.49 292.001 458.556 292.005 458.62 291.994C458.684 291.984 458.746 291.96 458.8 291.923C458.854 291.887 458.899 291.839 458.933 291.783C458.968 291.726 458.989 291.664 458.997 291.598V291.589C459.009 291.482 458.984 291.375 458.925 291.285C458.866 291.195 458.777 291.13 458.675 291.1C453.005 289.516 447.857 286.421 443.766 282.138C443.709 282.077 443.635 282.034 443.555 282.014C443.474 281.993 443.39 281.996 443.311 282.021C443.232 282.047 443.161 282.094 443.107 282.158C443.053 282.222 443.018 282.3 443.006 282.384V282.394C442.995 282.464 443 282.535 443.02 282.603C443.041 282.67 443.077 282.732 443.125 282.782Z" fill="#7C7C7C"/>
<path d="M443 275.424V275.441C443 275.515 443.019 275.587 443.056 275.651C443.295 276.058 443.566 276.483 443.878 276.92C446.444 280.44 450.197 282.945 454.467 283.986C454.575 284.014 454.691 284 454.788 283.945C454.885 283.89 454.956 283.799 454.985 283.692C455.015 283.585 455 283.472 454.944 283.376C454.888 283.28 454.796 283.21 454.688 283.181C452.422 282.638 450.291 281.653 448.419 280.283C446.547 278.913 444.973 277.187 443.791 275.207C443.743 275.127 443.671 275.065 443.584 275.03C443.497 274.996 443.401 274.991 443.311 275.015C443.22 275.04 443.141 275.094 443.085 275.168C443.029 275.242 442.999 275.332 443 275.424Z" fill="#7C7C7C"/>
<path d="M444.001 257.608V257.616C444.005 257.674 444.021 257.731 444.049 257.782C444.077 257.833 444.115 257.878 444.162 257.914C444.209 257.949 444.262 257.975 444.32 257.989C444.377 258.002 444.437 258.004 444.495 257.994C448.737 257.155 452.742 255.42 456.229 252.91C458.362 251.423 460.277 249.655 461.917 247.655C461.95 247.612 461.974 247.563 461.987 247.511C462.001 247.459 462.004 247.404 461.996 247.351C461.988 247.298 461.969 247.247 461.941 247.2C461.913 247.154 461.875 247.114 461.831 247.082C461.787 247.05 461.737 247.026 461.684 247.013C461.631 247 461.575 246.997 461.521 247.005C461.466 247.013 461.414 247.031 461.367 247.058C461.32 247.086 461.278 247.122 461.246 247.166C456.921 252.274 450.963 255.804 444.336 257.185C444.237 257.204 444.149 257.257 444.087 257.335C444.025 257.412 443.995 257.509 444.001 257.608Z" fill="#7C7C7C"/>
<path d="M411.883 369.514L414 358H406.768L405 368.871C406.041 369.482 407.191 369.854 408.377 369.965C409.563 370.076 410.757 369.922 411.883 369.514Z" fill="#FFC0AD"/>
<path d="M406.851 369.101C406.851 369.101 405.14 366.894 403.802 367.004C402.464 367.114 392.229 375.304 388.697 376.013C385.165 376.722 385.883 379.275 386.547 380.576C387.212 381.878 414.771 379.765 414.771 379.765C414.771 379.765 415.434 371.685 414.505 369.227C413.575 366.769 409.625 369.654 406.851 369.101Z" fill="#00528A"/>
<path d="M401.305 374.98C401.41 375.009 401.521 375.007 401.624 374.974C401.728 374.942 401.819 374.88 401.885 374.798C401.952 374.716 401.992 374.616 401.999 374.512C402.006 374.408 401.981 374.304 401.926 374.214C401.226 373.066 400.24 372.102 399.057 371.409C398.455 371.108 397.779 370.968 397.101 371.006C396.423 371.044 395.768 371.257 395.206 371.624C395.095 371.709 395.022 371.833 395.004 371.969C394.986 372.104 395.025 372.241 395.111 372.35C395.198 372.459 395.325 372.531 395.466 372.551C395.607 372.571 395.751 372.537 395.866 372.456C396.267 372.207 396.73 372.066 397.207 372.047C397.684 372.028 398.157 372.132 398.579 372.348C399.567 372.952 400.391 373.772 400.986 374.741C401.056 374.857 401.171 374.943 401.305 374.98Z" fill="white"/>
<path d="M402.405 373.979C402.466 373.999 402.529 374.005 402.592 373.996C402.654 373.987 402.714 373.964 402.768 373.928C402.821 373.894 402.868 373.848 402.905 373.793C402.942 373.739 402.969 373.676 402.985 373.61C403 373.543 403.004 373.474 402.996 373.406C402.987 373.338 402.967 373.273 402.936 373.214C402.336 372.066 401.492 371.102 400.478 370.41C399.962 370.108 399.382 369.968 398.801 370.006C398.219 370.044 397.658 370.258 397.177 370.624C397.081 370.709 397.019 370.833 397.004 370.969C396.988 371.104 397.021 371.242 397.095 371.35C397.169 371.459 397.279 371.531 397.4 371.551C397.521 371.571 397.644 371.537 397.742 371.456C398.086 371.207 398.482 371.065 398.891 371.045C399.3 371.025 399.706 371.128 400.068 371.342C400.915 371.946 401.622 372.766 402.13 373.736C402.19 373.854 402.289 373.941 402.405 373.979Z" fill="white"/>
<path d="M399.305 375.98C399.41 376.009 399.521 376.007 399.624 375.974C399.728 375.942 399.819 375.881 399.885 375.798C399.952 375.716 399.992 375.616 399.999 375.512C400.006 375.408 399.981 375.304 399.926 375.214C399.226 374.066 398.24 373.103 397.057 372.41C396.455 372.108 395.779 371.968 395.101 372.006C394.422 372.044 393.768 372.258 393.206 372.625C393.095 372.71 393.022 372.833 393.004 372.969C392.986 373.105 393.025 373.242 393.111 373.351C393.198 373.46 393.325 373.532 393.466 373.552C393.607 373.571 393.751 373.537 393.866 373.457C394.267 373.208 394.73 373.067 395.207 373.048C395.684 373.029 396.157 373.133 396.579 373.349C397.568 373.951 398.393 374.771 398.986 375.741C399.056 375.857 399.171 375.943 399.305 375.98Z" fill="white"/>
<path d="M446.553 316.543C446.553 316.543 433.383 283.744 425.198 285.037C412.525 287.04 404.048 326.083 405.086 362.503L413.782 363C413.782 363 423.516 328.692 425.261 319.697C425.261 319.697 431.969 343.048 447.076 339.798C458.264 337.394 450.971 325.911 446.553 316.543Z" fill="#00AB5B"/>
<path d="M413.071 361L412 360.81C412.024 360.685 414.327 348.195 417.115 335.575C422.803 309.831 424.941 308.626 425.644 308.23C425.845 308.102 426.075 308.025 426.314 308.005C426.552 307.985 426.792 308.023 427.012 308.115C428.44 308.727 429.154 311.731 430.237 316.279C431.987 323.63 434.384 333.695 441 337.911L440.413 338.807C433.43 334.358 430.976 324.05 429.184 316.52C428.327 312.904 427.509 309.489 426.581 309.09C426.527 309.066 426.417 309.019 426.18 309.153C423.258 310.808 416.739 341.066 413.071 361Z" fill="#009444"/>
<path d="M404.195 360L414.797 360.804L415 360.819L414.419 364L404 363.337L404.195 360Z" fill="#009444"/>
<path d="M443.201 339.864C443.201 339.864 458.593 342.849 479 339.141C477.47 330.997 473.358 323.576 467.284 318L439.761 320.007C438.028 326.565 439.287 333.186 443.201 339.864Z" fill="#00AB5B"/>
<path d="M438.843 366.738C437.356 366.381 435.846 366.135 434.325 366C433.357 366.065 427.184 373.835 425.015 374.376C421.083 375.351 421.354 381.727 423.782 381.933C430.804 382.528 442.617 378.946 442.617 378.946C442.617 378.946 443.363 370.72 442.773 368.176C442.183 365.632 440.827 367.402 438.843 366.738Z" fill="#00528A"/>
<path d="M441.165 367.475L444 357H435.83L434 367.106C434 367.106 436.664 368.843 441.165 367.475Z" fill="#FFC0AD"/>
<path d="M433.383 373.993C433.486 374.009 433.593 373.998 433.689 373.962C433.785 373.926 433.866 373.867 433.921 373.793C433.977 373.718 434.004 373.632 434 373.544C433.995 373.457 433.959 373.372 433.897 373.302C433.101 372.405 432.051 371.686 430.84 371.21C430.23 371.01 429.565 370.951 428.918 371.041C428.27 371.131 427.664 371.365 427.164 371.72C427.063 371.799 427.004 371.909 427 372.026C426.996 372.142 427.048 372.254 427.144 372.339C427.24 372.423 427.372 372.472 427.511 372.475C427.65 372.479 427.785 372.436 427.887 372.356C428.246 372.114 428.675 371.957 429.131 371.901C429.587 371.844 430.053 371.89 430.481 372.033C431.495 372.452 432.376 373.065 433.051 373.823C433.131 373.913 433.25 373.974 433.383 373.993Z" fill="white"/>
<path d="M434.472 371.993C434.561 372.009 434.652 371.997 434.734 371.962C434.816 371.926 434.885 371.867 434.933 371.792C434.98 371.718 435.003 371.632 435 371.544C434.996 371.457 434.965 371.373 434.912 371.302C434.231 370.405 433.33 369.686 432.292 369.21C431.769 369.01 431.199 368.951 430.644 369.041C430.089 369.131 429.569 369.365 429.141 369.72C429.098 369.759 429.063 369.806 429.039 369.859C429.015 369.911 429.002 369.968 429 370.025C428.999 370.083 429.009 370.14 429.03 370.194C429.051 370.247 429.083 370.297 429.123 370.338C429.164 370.38 429.213 370.414 429.267 370.437C429.321 370.461 429.379 370.473 429.438 370.475C429.497 370.477 429.556 370.467 429.611 370.446C429.667 370.426 429.717 370.395 429.76 370.356C430.068 370.114 430.436 369.957 430.827 369.901C431.218 369.844 431.617 369.89 431.984 370.033C432.854 370.453 433.609 371.068 434.187 371.827C434.256 371.916 434.358 371.976 434.472 371.993Z" fill="white"/>
<path d="M431.473 374.993C431.562 375.009 431.653 374.997 431.735 374.962C431.817 374.926 431.886 374.867 431.933 374.792C431.98 374.718 432.003 374.631 432 374.544C431.996 374.457 431.965 374.372 431.912 374.302C431.231 373.405 430.333 372.686 429.296 372.21C428.774 372.01 428.205 371.951 427.651 372.041C427.097 372.131 426.579 372.365 426.151 372.719C426.106 372.758 426.069 372.806 426.043 372.859C426.018 372.912 426.003 372.969 426 373.028C425.998 373.087 426.007 373.145 426.029 373.2C426.05 373.255 426.082 373.305 426.123 373.348C426.165 373.391 426.215 373.425 426.27 373.448C426.325 373.472 426.385 373.484 426.445 373.485C426.505 373.486 426.565 373.475 426.621 373.453C426.677 373.431 426.727 373.398 426.77 373.356C427.077 373.115 427.444 372.957 427.834 372.901C428.224 372.844 428.623 372.89 428.989 373.034C429.858 373.451 430.611 374.065 431.188 374.823C431.257 374.914 431.359 374.975 431.473 374.993Z" fill="white"/>
<path d="M477.117 339.815C475.345 340.215 473.51 340.228 471.733 339.855C471.195 339.739 470.665 339.587 470.146 339.4C460.018 335.77 455.435 319.708 455.435 319.708C453.701 328.704 443.666 363 443.666 363L442.102 362.793L441.024 362.647L435.103 361.86C433.938 326.592 442.776 287.04 455.367 285.037C463.498 283.741 476.59 316.552 476.59 316.552C480.985 325.923 488.229 337.408 477.117 339.815Z" fill="#00AB5B"/>
<path d="M471 340.037C470.46 339.923 469.929 339.772 469.409 339.586C465.694 333.601 463.756 325.231 462.194 318.491C460.954 313.127 459.783 308.067 458.244 307.199C458.134 307.135 458.011 307.096 457.884 307.086C457.757 307.075 457.629 307.093 457.51 307.138C456.201 307.567 453.118 311.904 447.19 336.132C444.362 347.681 442.02 359.19 441.298 362.82C441.149 363.558 441.066 363.973 441.062 364L440 363.793C440 363.771 440.079 363.381 440.215 362.679C440.927 359.114 443.28 347.519 446.132 335.88C453.094 307.449 456.16 306.441 457.168 306.108C457.431 306.016 457.711 305.982 457.989 306.009C458.266 306.035 458.535 306.12 458.777 306.259C460.732 307.362 461.792 311.929 463.253 318.25C464.886 325.307 466.947 334.195 471 340.037Z" fill="#009444"/>
<path d="M434.541 359L444.803 361.13L445 361.17L444.098 365L434 363.065L434.541 359Z" fill="#009444"/>
<path d="M479.348 252L493 271.529C493 271.529 486.938 282.816 480.996 284C480.996 284 474.812 273.329 474.089 267.881C473.366 262.433 477.216 252.469 479.348 252Z" fill="#929292"/>
<path d="M440.978 217.748C440.978 217.748 435.373 212.105 437.469 209.444C439.565 206.784 442.295 209.323 443.126 206.784C443.957 204.245 444.289 200.977 447.685 202.308C451.08 203.639 451.243 205.816 454.49 203.88C457.738 201.944 457.028 205.211 459.876 206.662C462.723 208.114 464.717 207.871 464.256 210.654C463.795 213.436 466.992 214.012 465.683 217.086C464.374 220.16 462.845 218.609 462.845 218.609L440.978 217.748Z" fill="#01305A"/>
<path d="M442.192 225.457C442.192 225.457 440.08 222.547 438.509 224.953C436.939 227.359 439.158 234.466 443 232.73L442.192 225.457Z" fill="#FDA084"/>
<path d="M441.737 230C441.679 230.001 441.622 229.977 441.576 229.933C441.53 229.888 441.496 229.826 441.481 229.755C441.291 229.061 440.987 228.426 440.589 227.891C440.191 227.357 439.708 226.935 439.172 226.653C439.106 226.621 439.052 226.557 439.023 226.476C438.994 226.394 438.992 226.302 439.017 226.218C439.042 226.134 439.093 226.067 439.157 226.03C439.222 225.993 439.295 225.991 439.361 226.022C439.976 226.338 440.529 226.818 440.983 227.43C441.437 228.042 441.78 228.771 441.989 229.567C441.999 229.61 442.002 229.654 441.998 229.698C441.994 229.742 441.983 229.785 441.966 229.823C441.949 229.862 441.926 229.896 441.899 229.923C441.871 229.95 441.839 229.97 441.805 229.982C441.783 229.992 441.76 229.998 441.737 230Z" fill="#FF7972"/>
<path d="M440.189 229C440.153 229.001 440.117 228.989 440.087 228.967C440.066 228.952 440.048 228.932 440.034 228.909C440.019 228.886 440.009 228.859 440.004 228.832C439.999 228.804 439.999 228.775 440.003 228.748C440.008 228.72 440.017 228.693 440.031 228.67C440.211 228.384 440.454 228.16 440.736 228.019C440.781 227.996 440.833 227.994 440.879 228.015C440.926 228.035 440.963 228.076 440.984 228.128C441.004 228.18 441.005 228.239 440.988 228.292C440.97 228.345 440.934 228.388 440.889 228.412C440.674 228.519 440.487 228.688 440.346 228.902C440.33 228.933 440.306 228.957 440.279 228.975C440.251 228.992 440.22 229.001 440.189 229Z" fill="#FF7972"/>
<path d="M463.808 225.457C463.808 225.457 465.921 222.547 467.491 224.953C469.061 227.359 466.842 234.466 463 232.73L463.808 225.457Z" fill="#FDA084"/>
<path d="M464.263 230C464.321 230.001 464.378 229.977 464.424 229.933C464.47 229.888 464.504 229.826 464.519 229.755C464.709 229.061 465.013 228.426 465.411 227.891C465.809 227.357 466.292 226.935 466.828 226.653C466.894 226.621 466.948 226.557 466.977 226.476C467.006 226.394 467.008 226.302 466.983 226.218C466.958 226.134 466.907 226.067 466.843 226.03C466.778 225.993 466.705 225.991 466.639 226.022C466.024 226.338 465.471 226.818 465.017 227.43C464.563 228.042 464.22 228.771 464.011 229.567C464.001 229.61 463.998 229.654 464.002 229.699C464.006 229.743 464.017 229.785 464.034 229.824C464.051 229.862 464.074 229.896 464.102 229.923C464.13 229.95 464.161 229.97 464.195 229.982C464.217 229.992 464.24 229.998 464.263 230Z" fill="#FF7972"/>
<path d="M466.623 229C466.695 229.001 466.766 228.989 466.826 228.967C466.868 228.952 466.904 228.932 466.933 228.909C466.961 228.886 466.981 228.859 466.992 228.832C467.002 228.804 467.003 228.775 466.994 228.748C466.984 228.72 466.966 228.693 466.938 228.67C466.579 228.384 466.092 228.16 465.529 228.019C465.438 227.996 465.334 227.994 465.241 228.015C465.148 228.035 465.073 228.076 465.033 228.128C464.992 228.18 464.989 228.239 465.025 228.292C465.06 228.345 465.131 228.388 465.222 228.412C465.652 228.519 466.025 228.688 466.307 228.902C466.341 228.933 466.388 228.958 466.443 228.975C466.498 228.992 466.56 229.001 466.623 229Z" fill="#FF7972"/>
<path d="M458 238V245.118C458 245.118 455.962 248.741 453.204 248.988C450.446 249.234 448 245.868 448 245.868V238.504L458 238Z" fill="#FFC0AD"/>
<path d="M458 238V240.924C456.15 242.903 452.864 243.396 448 242.705V238.464L458 238Z" fill="#FDA084"/>
<path d="M441.13 225.06C441.23 226.569 441.411 228.072 441.672 229.561C442.568 234.601 444.586 239.558 448.935 241.148C458.781 244.746 462.301 236.105 463.707 231.068C463.862 230.51 464.001 229.887 464.125 229.222C464.348 228.021 464.522 226.682 464.658 225.334C464.819 223.698 464.925 222.042 464.992 220.588C465.062 219.092 464.67 217.612 463.87 216.359C463.07 215.105 461.905 214.141 460.539 213.605C456.502 212.017 450.368 210.762 444.555 214.139C443.5 214.749 442.618 215.63 441.997 216.695C441.375 217.76 441.036 218.972 441.013 220.212C440.982 221.578 441.001 223.252 441.13 225.06Z" fill="#FFC0AD"/>
<path d="M449 226C449 226.553 448.552 227 448 227C447.448 227 447 226.553 447 226C447 225.448 447.448 225 448 225C448.552 225 449 225.448 449 226Z" fill="#01305A"/>
<path d="M459 226.001C459 226.552 458.552 227 458 227C457.448 227 457 226.552 457 226.001C457 225.449 457.448 225 458 225C458.552 225 459 225.445 459 226.001Z" fill="#01305A"/>
<path d="M444.009 222.599C444.009 222.599 446.977 220.71 449.857 221.039L450 222.293C450 222.293 446.14 222.909 444.455 224C444.118 223.591 443.96 223.095 444.009 222.599Z" fill="#01305A"/>
<path d="M460.993 222.599C460.993 222.599 458.519 220.71 456.119 221.039L456 222.293C456 222.293 459.217 222.909 460.622 224C460.902 223.59 461.033 223.095 460.993 222.599Z" fill="#01305A"/>
<path d="M453.387 231C453.859 230.987 454.325 230.908 454.763 230.767C454.81 230.751 454.852 230.729 454.887 230.701C454.923 230.672 454.951 230.638 454.97 230.601C454.99 230.564 455 230.524 455 230.484C455 230.444 454.991 230.404 454.972 230.366C454.953 230.329 454.925 230.295 454.89 230.267C454.855 230.238 454.813 230.215 454.767 230.2C454.721 230.184 454.671 230.176 454.621 230.176C454.571 230.175 454.522 230.183 454.476 230.198C453.999 230.378 453.46 230.419 452.95 230.314C452.891 230.284 452.843 230.241 452.811 230.191C452.778 230.141 452.762 230.085 452.763 230.029C452.741 228.461 452.818 226.894 452.992 225.332C452.997 225.292 452.991 225.252 452.976 225.213C452.96 225.175 452.936 225.139 452.904 225.109C452.871 225.078 452.832 225.053 452.788 225.034C452.743 225.016 452.695 225.005 452.645 225.002C452.595 224.998 452.545 225.003 452.498 225.015C452.45 225.027 452.406 225.047 452.368 225.073C452.33 225.099 452.299 225.131 452.276 225.167C452.253 225.202 452.239 225.241 452.235 225.282C452.053 226.881 451.976 228.487 452.006 230.092C452.016 230.244 452.072 230.391 452.168 230.522C452.265 230.652 452.399 230.762 452.559 230.841C452.813 230.953 453.098 231.008 453.387 231Z" fill="#FDA084"/>
<path d="M452.871 234C452.388 234.001 451.923 234.152 451.575 234.42C451.226 234.688 451.021 235.054 451.002 235.44C450.982 235.826 451.15 236.204 451.471 236.494C451.791 236.783 452.239 236.963 452.721 236.995C452.811 236.995 452.902 237 452.996 237C453.09 237 453.178 237 453.265 236.995C453.749 236.966 454.199 236.789 454.523 236.5C454.846 236.211 455.016 235.833 454.999 235.446C454.981 235.058 454.777 234.691 454.428 234.422C454.079 234.152 453.614 234.001 453.129 234H452.871Z" fill="white"/>
<path d="M464.658 225H463.219C463.378 223.56 463.606 221.024 462.42 220.661C458.669 219.515 463.529 216.872 461.837 215.557C460.144 214.243 455.931 214.803 453.002 214.708C450.055 214.571 447.103 214.64 444.166 214.917C443.017 215.179 443.644 217.086 444.068 218.562C444.492 220.038 442.655 221.671 442.347 223.2C442.267 223.796 442.267 224.4 442.347 224.996H441.147C441.005 223.136 440.983 221.404 441.01 219.997C441.033 218.789 441.372 217.608 441.992 216.57C442.613 215.533 443.495 214.674 444.55 214.079C450.364 210.794 456.499 212.018 460.537 213.566C461.903 214.089 463.068 215.028 463.868 216.249C464.668 217.47 465.061 218.911 464.992 220.368C464.926 221.793 464.821 223.406 464.658 225Z" fill="#01305A"/>
<path d="M532.333 339.576C530.508 346.719 525.398 352.137 517.562 355.245C515.681 355.986 513.743 356.573 511.767 357C511.829 356.92 511.888 356.839 511.947 356.759C513.173 355.064 514.205 353.237 515.024 351.311C520.195 349.431 526.069 345.722 527.933 338.451C529.722 331.456 526.836 320.991 520.578 311.792C515.617 304.505 504.359 291.912 484.67 289.474C467.48 287.345 456.312 289.962 446.462 292.271C438.088 294.232 430.179 296.084 420.501 294.388C414.596 293.292 408.786 291.736 403.124 289.735C394.268 286.798 388.418 284.86 379.127 288.674C363.46 295.104 356.473 321.77 356.403 322.038L352 320.91C352.305 319.723 359.617 291.76 377.406 284.459C388.25 280.006 395.445 282.39 404.551 285.41C410.004 287.34 415.598 288.841 421.283 289.901C430.053 291.439 437.176 289.769 445.425 287.834C455.646 285.439 467.234 282.726 485.226 284.955C493.548 285.965 501.52 288.906 508.509 293.544C514.744 297.7 520.119 303.025 524.337 309.226C531.401 319.61 534.465 331.242 532.333 339.576Z" fill="#01305A"/>
<path d="M313 363.31L323.177 331.159C325.259 324.583 329.869 319.104 335.993 315.926C342.117 312.748 349.253 312.131 355.831 314.212C362.41 316.292 367.891 320.9 371.072 327.02C374.252 333.141 374.869 340.273 372.789 346.849L362.612 379L313 363.31Z" fill="#00AB5B"/>
<path d="M393.001 286.989C393.77 285.381 394.659 283.829 395.662 282.347C396.563 280.993 398.659 280.331 398.889 281.954C399.07 283.234 398.123 284.202 397.932 285.453C397.932 285.453 398.395 284.74 399.428 282.894C400.362 281.222 401.641 281.348 401.832 282.612C402.011 283.808 401.651 283.758 401.344 284.664C400.937 285.867 400.359 287.373 400.359 287.373C400.779 286.022 401.446 284.755 402.329 283.633C403.027 282.719 403.727 281.704 404.754 283.122C405.272 283.833 404.588 285.769 404.033 287.839C404.033 287.839 405.147 285.065 406.579 284.352C407.712 283.788 408.293 284.283 407.853 285.81C407.473 287.062 407.02 288.291 406.495 289.492C406.065 290.66 404.485 292.33 403.232 291.943C401.979 291.557 401.708 290.709 400.854 290.649C400 290.59 398.632 290.664 398.051 290.154C397.444 289.666 396.662 289.429 395.876 289.494C394.904 289.46 392.946 288.242 393.001 286.989Z" fill="#FFC0AD"/>
<path d="M481 289.32C481.52 287.464 482.173 285.65 482.954 283.892C483.651 282.289 485.417 281.137 485.917 282.846C486.313 284.196 485.77 285.489 485.78 286.866C485.78 286.866 486.136 286.025 486.891 283.868C487.57 281.918 488.897 281.846 489.299 283.176C489.679 284.433 489.299 284.44 489.138 285.464C488.916 286.826 488.582 288.528 488.582 288.528C488.789 287.006 489.262 285.534 489.979 284.183C490.535 283.085 491.084 281.88 492.37 283.238C493.016 283.919 492.636 286.115 492.409 288.433C492.409 288.433 492.677 285.662 494.022 284.662C495.086 283.868 496.174 283.914 495.977 285.631C495.796 287.04 495.536 288.437 495.199 289.815C494.951 291.143 493.613 293.197 492.27 292.985C490.928 292.773 490.512 291.903 489.63 291.978C488.748 292.053 487.364 292.355 486.687 291.9C485.987 291.474 485.151 291.346 484.359 291.542C483.345 291.672 481.149 290.679 481 289.32Z" fill="#FFC0AD"/>
<path d="M308 395C308 395.796 307.662 396.559 307.06 397.121C306.457 397.684 305.641 398 304.789 398H292V392H304.789C305.641 392 306.457 392.316 307.06 392.879C307.662 393.441 308 394.204 308 395Z" fill="#00528A"/>
<path d="M308 418C308 418.796 307.662 419.559 307.06 420.121C306.457 420.684 305.641 421 304.789 421H292V415H304.789C305.641 415 306.457 415.316 307.06 415.879C307.662 416.441 308 417.204 308 418Z" fill="#00528A"/>
<path d="M298 392H292V398H298V392Z" fill="#01305A"/>
<path d="M298 415H292V421H298V415Z" fill="#01305A"/>
<path d="M241 402.86L240.824 408C187.814 406.119 146.703 402.208 118.638 396.375C94.5695 391.377 79.496 384.948 72.5558 376.729C70.847 374.813 69.568 372.545 68.8066 370.081C68.0452 367.618 67.7499 365.648 68.0751 363.088L73.121 363.719C72.8823 365.571 73.1175 366.823 73.6759 368.603C74.2343 370.384 75.1718 372.018 76.4224 373.393C82.5117 380.608 97.0609 386.646 119.658 391.342C147.45 397.113 188.275 400.988 241 402.86Z" fill="#01305A"/>
<path d="M292 432H258.124C251.196 432 244.551 429.261 239.652 424.385C234.752 419.509 232 412.896 232 406C232 399.104 234.752 392.491 239.652 387.615C244.551 382.739 251.196 380 258.124 380H292V432Z" fill="#00AB5B"/>
<path d="M524 202.134V219.401C524 220.497 523.56 221.548 522.777 222.323C521.995 223.099 520.933 223.534 519.827 223.535H488.18L478.626 226.93C478.407 227.008 478.169 227.022 477.942 226.97C477.715 226.918 477.508 226.803 477.345 226.637C477.183 226.472 477.071 226.264 477.025 226.038C476.978 225.812 476.998 225.577 477.082 225.362L480.696 216.117V202.134C480.696 201.038 481.137 199.986 481.92 199.211C482.703 198.436 483.764 198 484.871 198H519.828C520.934 198.001 521.995 198.437 522.778 199.212C523.56 199.987 524 201.038 524 202.134Z" fill="#00AB5B"/>
<g style="mix-blend-mode:screen">
<path d="M494 214C495.657 214 497 212.657 497 211C497 209.344 495.657 208 494 208C492.343 208 491 209.344 491 211C491 212.657 492.343 214 494 214Z" fill="#009444"/>
<path d="M503 214C504.657 214 506 212.657 506 211C506 209.344 504.657 208 503 208C501.343 208 500 209.344 500 211C500 212.657 501.343 214 503 214Z" fill="#009444"/>
<path d="M513 214C514.657 214 516 212.657 516 211C516 209.344 514.657 208 513 208C511.343 208 510 209.344 510 211C510 212.657 511.343 214 513 214Z" fill="#009444"/>
</g>
</svg>
