<svg width="180" height="180" viewBox="0 0 180 180" fill="none" xmlns="http://www.w3.org/2000/svg">
<circle cx="90" cy="90" r="90" fill="#EDF5FA"/>
<g clip-path="url(#clip0)">
<path d="M116.435 74.6956H107.614L102.522 69.1304H83.0433V77.4782H74.6955V85.826H66.3477V113.652C66.3477 116.713 68.852 119.217 71.9129 119.217H116.435C119.495 119.217 122 116.713 122 113.652V80.2608C122 77.2 119.495 74.6956 116.435 74.6956ZM94.1737 110.869C86.4937 110.869 80.2606 104.636 80.2606 96.9564C80.2606 89.2764 86.4937 83.0434 94.1737 83.0434C101.854 83.0434 108.087 89.2765 108.087 96.9565C108.087 104.637 101.854 110.869 94.1737 110.869Z" fill="#CCDFED"/>
<path d="M66.3478 83.0434H71.9131V74.6955H80.2609V69.1303H71.9131V60.7825H66.3478V69.1303H58V74.6955H66.3478V83.0434Z" fill="#CCDFED"/>
<path d="M94.1739 88.052C89.2487 88.052 85.2695 92.0312 85.2695 96.9564C85.2695 101.882 89.2487 105.861 94.1739 105.861C99.0991 105.861 103.078 101.882 103.078 96.9564C103.078 92.0312 99.0991 88.052 94.1739 88.052Z" fill="#CCDFED"/>
</g>
<defs>
<clipPath id="clip0">
<rect width="64" height="64" fill="white" transform="translate(58 58)"/>
</clipPath>
</defs>
</svg>
