<svg width="16" height="16" viewBox="0 0 16 16" fill="none" xmlns="http://www.w3.org/2000/svg">
<g clip-path="url(#clip0)">
<path d="M7.99759 4.20386L2.29126 8.90812C2.29126 8.91476 2.28959 8.92453 2.28626 8.93784C2.28299 8.95105 2.28125 8.96065 2.28125 8.96746V13.731C2.28125 13.903 2.34413 14.0521 2.46986 14.1776C2.59555 14.3032 2.74439 14.3664 2.91642 14.3664H6.72718V10.5554H9.26804V14.3665H13.0788C13.2508 14.3665 13.3998 14.3035 13.5253 14.1776C13.6511 14.0522 13.7141 13.9031 13.7141 13.731V8.96746C13.7141 8.94104 13.7105 8.92109 13.7041 8.90812L7.99759 4.20386Z" fill="#063453"/>
<path d="M15.8897 7.83628L13.7164 6.03008V1.98097C13.7164 1.88841 13.6866 1.81228 13.6269 1.7527C13.5677 1.69319 13.4916 1.66344 13.3988 1.66344H11.4934C11.4007 1.66344 11.3246 1.69319 11.265 1.7527C11.2055 1.81228 11.1758 1.88844 11.1758 1.98097V3.91617L8.75433 1.89157C8.54285 1.71954 8.2914 1.63354 8.00025 1.63354C7.70913 1.63354 7.45771 1.71954 7.24602 1.89157L0.110279 7.83628C0.04413 7.88912 0.00787518 7.96024 0.0011317 8.04957C-0.00557701 8.13884 0.0175385 8.2168 0.0705478 8.28292L0.685837 9.01733C0.738847 9.07684 0.808228 9.11323 0.894259 9.12655C0.973686 9.13322 1.05311 9.11 1.13254 9.0571L8.00004 3.33064L14.8676 9.05706C14.9206 9.10322 14.99 9.12627 15.076 9.12627H15.1058C15.1917 9.1132 15.261 9.07656 15.3143 9.01719L15.9296 8.28288C15.9825 8.21663 16.0057 8.1388 15.9988 8.04943C15.9921 7.96034 15.9557 7.88922 15.8897 7.83628Z" fill="#063453"/>
</g>
<defs>
<clipPath id="clip0">
<rect width="16" height="16" fill="white"/>
</clipPath>
</defs>
</svg>
