<svg width="16" height="16" viewBox="0 0 16 16" fill="none" xmlns="http://www.w3.org/2000/svg">
<g clip-path="url(#clip0)">
<path d="M5.16536 12.6667H1.83203C1.55603 12.6667 1.33203 12.4427 1.33203 12.1667C1.33203 11.8907 1.55603 11.6667 1.83203 11.6667H5.16536C5.44136 11.6667 5.66536 11.8907 5.66536 12.1667C5.66536 12.4427 5.44136 12.6667 5.16536 12.6667Z" fill="#063453"/>
<path d="M14.385 12.6667H5.38499C5.13432 12.6667 4.92299 12.4813 4.88966 12.2327L3.33632 0.566C3.31766 0.423333 3.36032 0.278667 3.45566 0.170667C3.55099 0.0626667 3.68766 0 3.83166 0H12.8317C13.0823 0 13.2937 0.185333 13.327 0.434L14.8803 12.1007C14.899 12.2433 14.8563 12.388 14.761 12.496C14.6657 12.604 14.529 12.6667 14.385 12.6667Z" fill="#063453"/>
<path d="M5.38725 13.3334C5.26325 13.3334 5.14458 13.3101 5.03125 13.2734L5.33858 15.5668C5.37192 15.8181 5.58658 16.0001 5.83325 16.0001C5.85525 16.0001 5.87725 15.9988 5.90058 15.9954C6.17392 15.9588 6.36659 15.7074 6.32992 15.4334L6.04792 13.3334H5.38725Z" fill="#063453"/>
<path d="M14.3871 13.3332H14.0391L14.3384 15.5665C14.3717 15.8178 14.5864 15.9998 14.8331 15.9998C14.8551 15.9998 14.8771 15.9985 14.9004 15.9952C15.1737 15.9585 15.3664 15.7072 15.3297 15.4332L15.0224 13.1392C14.8337 13.2618 14.6157 13.3332 14.3871 13.3332Z" fill="#063453"/>
<path d="M2.94436 2.65137L0.675692 15.4127C0.627692 15.6847 0.808359 15.944 1.08036 15.9927C1.10969 15.9974 1.13903 16 1.16836 16C1.40569 16 1.61703 15.83 1.65969 15.5874L3.37903 5.91803L2.94436 2.65137Z" fill="#063453"/>
</g>
<defs>
<clipPath id="clip0">
<rect width="16" height="16" fill="white"/>
</clipPath>
</defs>
</svg>
