<svg width="16" height="16" viewBox="0 0 16 16" fill="none" xmlns="http://www.w3.org/2000/svg">
<g clip-path="url(#clip0)">
<path d="M6.5625 8.15625H7.50009V9.09384H6.5625V8.15625Z" fill="#77CCF9"/>
<path d="M0.949781 7.21603H8.9175C9.08437 4.66853 11.5751 2.90209 14.0637 3.63375V3.00019C14.0637 2.74128 13.8538 2.53141 13.5949 2.53141H9.37659V1.12503C9.37659 0.866125 9.16672 0.65625 8.90781 0.65625H5.15594C4.89703 0.65625 4.68716 0.866125 4.68716 1.12503V2.53141H0.468781C0.209875 2.53141 0 2.74128 0 3.00019V6.40788C0.074 6.86544 0.471656 7.21603 0.949781 7.21603ZM5.62472 1.59381H8.43903V2.53141H5.62472V1.59381Z" fill="#77CCF9"/>
<path d="M10.8916 10.9508C9.89947 10.3678 9.16434 9.36137 8.96366 8.15394H8.43828V9.56359C8.43828 9.8225 8.22841 10.0324 7.9695 10.0324H6.09434C5.83544 10.0324 5.62556 9.8225 5.62556 9.56359V8.15394H0.949781C0.603906 8.15394 0.279625 8.06059 0 7.89844V14.0484C0 14.3073 0.209875 14.5172 0.468781 14.5172H10.9095C10.8771 14.2704 10.8981 14.4239 10.8916 10.9508Z" fill="#77CCF9"/>
<path d="M15.0976 5.30646C13.8973 4.10618 11.9444 4.10618 10.7441 5.30646C9.1641 6.88643 9.74998 9.57331 11.827 10.3596V11.4382H14.0147V10.3596C16.091 9.57359 16.6777 6.88662 15.0976 5.30646ZM12.9209 9.62262C12.9208 9.62262 12.9209 9.62262 12.9209 9.62262C11.7359 9.62262 10.7814 8.66852 10.7814 7.48324C10.7814 6.29827 11.7356 5.34387 12.9208 5.34387C14.1058 5.34387 15.0602 6.29799 15.0602 7.48324C15.0602 8.66812 14.1061 9.62262 12.9209 9.62262Z" fill="#77CCF9"/>
<path d="M11.832 14.2525C11.832 14.8557 12.3228 15.3463 12.9259 15.3463C13.529 15.3463 14.0197 14.8556 14.0197 14.2525V12.3789H11.832V14.2525Z" fill="#77CCF9"/>
</g>
<defs>
<clipPath id="clip0">
<rect width="16" height="16" fill="white"/>
</clipPath>
</defs>
</svg>
