<svg width="16" height="16" viewBox="0 0 16 16" fill="none" xmlns="http://www.w3.org/2000/svg">
<path d="M14.3333 0H10.1047C9.30331 0 8.54931 0.312 7.98266 0.878656L0.568656 8.29334C0.207344 8.65466 0 9.15466 0 9.668C0 10.1787 0.207344 10.6787 0.568656 11.04L4.96066 15.432C5.32134 15.7927 5.82134 16 6.33466 16C6.84531 16 7.34531 15.7927 7.70666 15.4313L15.1213 8.01669C15.688 7.45066 16 6.69666 16 5.89534V1.66666C16 0.747344 15.2527 0 14.3333 0ZM12.3333 5.33334C11.414 5.33334 10.6667 4.586 10.6667 3.66669C10.6667 2.74734 11.414 2.00003 12.3333 2.00003C13.2527 2.00003 14 2.74734 14 3.66666C14 4.586 13.2527 5.33334 12.3333 5.33334Z" fill="#063453"/>
</svg>
