<svg width="16" height="16" viewBox="0 0 16 16" fill="none" xmlns="http://www.w3.org/2000/svg">
<g clip-path="url(#clip0)">
<path d="M5.5 14.1665C3.846 14.1665 2.5 12.8205 2.5 11.1665C2.5 10.8465 2.54733 10.5419 2.64133 10.2619C2.758 9.91255 3.136 9.72522 3.48467 9.84122C3.834 9.95788 4.02267 10.3359 3.90533 10.6845C3.858 10.8285 3.83333 10.9905 3.83333 11.1665C3.83333 12.0852 4.58133 12.8332 5.5 12.8332C6.264 12.8332 6.94466 12.2952 7.11733 11.5552C7.20066 11.1965 7.56133 10.9725 7.918 11.0579C8.27666 11.1412 8.49933 11.5005 8.41533 11.8585C8.098 13.2172 6.89933 14.1665 5.5 14.1665Z" fill="#063453"/>
<path d="M15.5 14.3333C15.4533 14.3333 15.4067 14.3266 15.3613 14.314L0.361333 9.98065C0.147333 9.91865 0 9.72265 0 9.49998V6.49998C0 6.27732 0.147333 6.08132 0.361333 6.01932L15.3613 1.68598C15.5127 1.64398 15.6753 1.67198 15.8007 1.76665C15.926 1.86132 16 2.00932 16 2.16665V13.8333C16 13.9906 15.926 14.1386 15.8007 14.2333C15.7127 14.2986 15.6073 14.3333 15.5 14.3333Z" fill="#063453"/>
<path d="M15.3346 14.8334C14.9666 14.8334 14.668 14.5347 14.668 14.1667V1.83341C14.668 1.46541 14.9666 1.16675 15.3346 1.16675C15.7026 1.16675 16.0013 1.46541 16.0013 1.83341V14.1667C16.0013 14.5347 15.7026 14.8334 15.3346 14.8334Z" fill="#063453"/>
<path d="M0.666667 10.8334C0.298667 10.8334 0 10.5347 0 10.1667V5.83341C0 5.46541 0.298667 5.16675 0.666667 5.16675C1.03467 5.16675 1.33333 5.46541 1.33333 5.83341V10.1667C1.33333 10.5347 1.03467 10.8334 0.666667 10.8334Z" fill="#063453"/>
</g>
<defs>
<clipPath id="clip0">
<rect width="16" height="16" fill="white"/>
</clipPath>
</defs>
</svg>
