<svg width="16" height="14" viewBox="0 0 16 14" fill="none" xmlns="http://www.w3.org/2000/svg">
<path d="M9.41234 5.98658C9.28733 5.8616 9.11779 5.79139 8.94101 5.79139C8.76424 5.79139 8.5947 5.8616 8.46968 5.98658L7.99835 6.45724C7.87535 6.58459 7.72822 6.68617 7.56555 6.75605C7.40288 6.82592 7.22792 6.86271 7.05088 6.86424C6.87384 6.86578 6.69827 6.83205 6.53441 6.76501C6.37055 6.69796 6.22168 6.59896 6.09649 6.47377C5.97129 6.34858 5.87229 6.19971 5.80525 6.03585C5.73821 5.87199 5.70447 5.69641 5.70601 5.51938C5.70755 5.34234 5.74433 5.16738 5.81421 5.0047C5.88409 4.84203 5.98566 4.69491 6.11301 4.57191L9.86635 0.817244C10.755 0.615129 11.6847 0.69831 12.5233 1.05496C13.3619 1.41161 14.0668 2.02358 14.5376 2.80384C15.0084 3.5841 15.2213 4.49294 15.1459 5.40113C15.0705 6.30932 14.7107 7.17063 14.1177 7.86258L12.7123 9.28591L9.41234 5.98591V5.98658ZM2.10568 1.97858C2.79552 1.28883 3.69783 0.851897 4.66672 0.738422C5.63561 0.624947 6.61446 0.841561 7.44501 1.35324L5.16968 3.62924C4.67688 4.12106 4.39597 4.78611 4.38697 5.48228C4.37797 6.17846 4.6416 6.85054 5.12153 7.35493C5.60146 7.85932 6.25962 8.15601 6.95538 8.18161C7.65114 8.2072 8.32932 7.95967 8.84501 7.49191L8.94101 7.40058L11.7697 10.2286L8.94101 13.0572C8.69097 13.3072 8.3519 13.4476 7.99835 13.4476C7.64479 13.4476 7.30572 13.3072 7.05568 13.0572L2.10501 8.10658C1.29243 7.29393 0.835937 6.19179 0.835938 5.04258C0.835937 3.89337 1.29243 2.79122 2.10501 1.97858H2.10568Z" fill="#063453"/>
</svg>
