<svg width="16" height="16" viewBox="0 0 16 16" fill="none" xmlns="http://www.w3.org/2000/svg">
<path d="M15.5218 9.75334L14.0512 8.60334C14.0698 8.426 14.0858 8.21869 14.0858 7.99934C14.0858 7.78 14.0705 7.57269 14.0512 7.39534L15.5232 6.24469C15.7965 6.02869 15.8712 5.64534 15.6972 5.32603L14.1678 2.68C14.0045 2.38134 13.6465 2.228 13.2832 2.362L11.5478 3.05866C11.2152 2.81866 10.8665 2.616 10.5058 2.454L10.2418 0.613344C10.1985 0.264 9.89449 0 9.53518 0H6.46852C6.10918 0 5.80587 0.264 5.76318 0.608L5.49852 2.45534C5.14918 2.61269 4.80587 2.81269 4.45852 3.06L2.71852 2.36134C2.39249 2.23534 2.00249 2.37666 1.84049 2.674L0.309179 5.32334C0.128523 5.62869 0.203179 6.02534 0.482523 6.24669L1.95318 7.39669C1.92984 7.62134 1.91852 7.81669 1.91852 8.00003C1.91852 8.18338 1.92987 8.37869 1.95318 8.60403L0.481179 9.75469C0.207835 9.97134 0.133835 10.3547 0.307835 10.6733L1.83718 13.3193C2.00052 13.6173 2.35518 13.772 2.72184 13.6373L4.45718 12.9407C4.78918 13.18 5.13784 13.3827 5.49852 13.5453L5.76252 15.3853C5.80584 15.736 6.10918 16 6.46918 16H9.53584C9.89518 16 10.1992 15.736 10.2418 15.392L10.5065 13.5453C10.8558 13.3873 11.1985 13.188 11.5465 12.94L13.2865 13.6387C13.3705 13.6713 13.4578 13.688 13.5478 13.688C13.8065 13.688 14.0445 13.5467 14.1645 13.3267L15.7005 10.6667C15.8712 10.3547 15.7965 9.97134 15.5218 9.75334ZM8.00184 10.6667C6.53118 10.6667 5.33518 9.47066 5.33518 8C5.33518 6.52934 6.53118 5.33334 8.00184 5.33334C9.47249 5.33334 10.6685 6.52934 10.6685 8C10.6685 9.47066 9.47249 10.6667 8.00184 10.6667Z" fill="#77CCF9"/>
</svg>
