<svg width="16" height="16" viewBox="0 0 16 16" fill="none" xmlns="http://www.w3.org/2000/svg">
<path d="M12.126 11.889C11.1021 11.889 10.2578 12.7154 10.2578 13.7573C10.2578 14.7812 11.0841 15.6255 12.126 15.6255C13.15 15.6255 13.9943 14.7992 13.9943 13.7573C13.9763 12.7333 13.15 11.889 12.126 11.889Z" fill="#77CCF9"/>
<path d="M15.4129 2.97901C15.377 2.97901 15.3231 2.96105 15.2692 2.96105H3.95203L3.77239 1.75748C3.66461 0.967072 2.98199 0.374268 2.17362 0.374268H0.718551C0.323348 0.374268 0 0.697615 0 1.09282C0 1.48802 0.323348 1.81137 0.718551 1.81137H2.17362C2.26343 1.81137 2.33529 1.88322 2.35325 1.97304L3.46701 9.55375C3.61072 10.5058 4.43705 11.2244 5.40709 11.2244H12.88C13.8141 11.2244 14.6225 10.5597 14.8201 9.64357L15.9878 3.80535C16.0596 3.42811 15.8081 3.05087 15.4129 2.97901Z" fill="#77CCF9"/>
<path d="M7.54626 13.6675C7.51033 12.6794 6.684 11.889 5.69599 11.889C4.65409 11.9429 3.86369 12.8052 3.89962 13.8291C3.93554 14.8171 4.74391 15.6075 5.73192 15.6075H5.76785C6.79178 15.5536 7.60015 14.6914 7.54626 13.6675Z" fill="#77CCF9"/>
</svg>
