<svg width="16" height="16" viewBox="0 0 16 16" fill="none" xmlns="http://www.w3.org/2000/svg">
<path d="M16 5.09375V4.25C16 3.2835 15.2165 2.5 14.25 2.5H1.75C0.7835 2.5 0 3.2835 0 4.25V5.09375C0 5.18003 0.0699688 5.25 0.15625 5.25H15.8438C15.93 5.25 16 5.18003 16 5.09375Z" fill="#77CCF9"/>
<path d="M0 6.40625V11.75C0 12.7165 0.7835 13.5 1.75 13.5H14.25C15.2165 13.5 16 12.7165 16 11.75V6.40625C16 6.31997 15.93 6.25 15.8438 6.25H0.15625C0.0699688 6.25 0 6.31997 0 6.40625ZM4 10.5C4 10.7761 3.77612 11 3.5 11H3C2.72388 11 2.5 10.7761 2.5 10.5V10C2.5 9.72388 2.72388 9.5 3 9.5H3.5C3.77612 9.5 4 9.72388 4 10V10.5Z" fill="#77CCF9"/>
</svg>
