<svg width="866" height="296" viewBox="0 0 866 296" fill="none" xmlns="http://www.w3.org/2000/svg">
<path d="M497.404 279.606L493.125 278.676C492.233 278.484 491.388 278.117 490.638 277.598C489.888 277.079 489.248 276.417 488.754 275.65C488.26 274.882 487.922 274.026 487.759 273.128C487.597 272.23 487.613 271.309 487.807 270.418L505.981 187.201C506.377 185.4 507.472 183.83 509.024 182.836C510.577 181.841 512.46 181.503 514.262 181.896L518.541 182.826C519.433 183.018 520.278 183.385 521.028 183.904C521.778 184.423 522.419 185.086 522.912 185.853C523.406 186.62 523.744 187.477 523.907 188.374C524.069 189.272 524.053 190.193 523.859 191.085L505.685 274.301C505.289 276.102 504.195 277.672 502.642 278.667C501.09 279.661 499.206 279.999 497.404 279.606Z" fill="white"/>
<path d="M545.141 183.661V277.841C545.141 278.162 545.077 278.478 544.954 278.774C544.832 279.07 544.652 279.338 544.425 279.564C544.198 279.79 543.929 279.969 543.634 280.091C543.338 280.213 543.021 280.276 542.701 280.276H529.284C528.638 280.276 528.018 280.02 527.56 279.564C527.102 279.107 526.845 278.488 526.844 277.841V183.661C526.845 183.014 527.102 182.395 527.56 181.938C528.018 181.482 528.638 181.226 529.284 181.227H542.701C543.021 181.226 543.338 181.289 543.634 181.411C543.929 181.533 544.198 181.712 544.425 181.938C544.652 182.164 544.832 182.433 544.954 182.728C545.077 183.024 545.141 183.341 545.141 183.661Z" fill="white"/>
<path d="M571.269 183.661V277.841C571.268 278.488 571.01 279.107 570.553 279.564C570.095 280.02 569.475 280.276 568.828 280.276H549.429C549.109 280.276 548.792 280.213 548.496 280.091C548.2 279.969 547.931 279.79 547.704 279.564C547.478 279.338 547.298 279.07 547.175 278.774C547.052 278.478 546.989 278.162 546.988 277.841V183.661C546.989 183.341 547.052 183.024 547.175 182.728C547.298 182.433 547.478 182.164 547.704 181.938C547.931 181.712 548.2 181.533 548.496 181.411C548.792 181.289 549.109 181.226 549.429 181.227H568.828C569.475 181.226 570.095 181.482 570.553 181.938C571.01 182.395 571.268 183.014 571.269 183.661Z" fill="white"/>
<path d="M463.335 183.661V277.841C463.335 278.162 463.271 278.478 463.149 278.774C463.026 279.07 462.846 279.338 462.619 279.564C462.393 279.79 462.124 279.969 461.828 280.091C461.532 280.213 461.215 280.276 460.895 280.276H441.495C441.175 280.276 440.858 280.213 440.562 280.091C440.266 279.969 439.997 279.79 439.771 279.564C439.544 279.338 439.364 279.07 439.241 278.774C439.119 278.478 439.055 278.162 439.055 277.841V183.661C439.055 183.341 439.118 183.024 439.241 182.728C439.364 182.433 439.544 182.164 439.771 181.938C439.997 181.712 440.266 181.533 440.562 181.411C440.858 181.289 441.175 181.226 441.495 181.227H460.895C461.215 181.226 461.532 181.289 461.828 181.411C462.124 181.533 462.393 181.712 462.619 181.938C462.846 182.164 463.026 182.433 463.149 182.728C463.271 183.024 463.335 183.341 463.335 183.661Z" fill="white"/>
<path d="M485.987 183.661V277.841C485.987 278.162 485.924 278.478 485.801 278.774C485.678 279.07 485.498 279.338 485.271 279.564C485.045 279.79 484.776 279.969 484.48 280.091C484.184 280.213 483.867 280.276 483.547 280.276H467.581C467.261 280.276 466.944 280.213 466.648 280.091C466.352 279.969 466.083 279.79 465.857 279.564C465.63 279.338 465.45 279.07 465.327 278.774C465.204 278.478 465.141 278.162 465.141 277.841V183.661C465.141 183.341 465.204 183.024 465.327 182.728C465.45 182.433 465.63 182.164 465.857 181.938C466.083 181.712 466.352 181.533 466.648 181.411C466.944 181.289 467.261 181.226 467.581 181.227H483.547C483.867 181.226 484.184 181.289 484.48 181.411C484.776 181.533 485.045 181.712 485.271 181.938C485.498 182.164 485.678 182.433 485.801 182.728C485.924 183.024 485.987 183.341 485.987 183.661Z" fill="white"/>
<path d="M463.335 198.772H439.055V216.32H463.335V198.772Z" fill="#ADD9F4"/>
<path d="M485.987 255.167H465.141V263.474H485.987V255.167Z" fill="#ADD9F4"/>
<path d="M485.987 234.875H465.141V248.538H485.987V234.875Z" fill="#ADD9F4"/>
<path d="M545.141 241.909H526.844V255.167H545.141V241.909Z" fill="#ADD9F4"/>
<path d="M571.269 209.639H546.988V231.903H571.269V209.639Z" fill="#ADD9F4"/>
<path d="M513.947 201.489L510.393 200.717C509.652 200.557 508.95 200.253 508.327 199.822C507.704 199.39 507.172 198.84 506.762 198.203C506.351 197.566 506.071 196.854 505.936 196.109C505.801 195.363 505.814 194.598 505.975 193.858L506.749 190.313C507.078 188.817 507.987 187.513 509.277 186.687C510.566 185.861 512.131 185.581 513.627 185.907L517.181 186.679C517.922 186.839 518.624 187.143 519.247 187.575C519.87 188.006 520.402 188.556 520.812 189.193C521.223 189.83 521.503 190.542 521.638 191.288C521.773 192.033 521.76 192.798 521.599 193.539L520.824 197.084C520.496 198.579 519.587 199.883 518.297 200.709C517.008 201.535 515.443 201.816 513.947 201.489Z" fill="#ADD9F4"/>
<path d="M499.978 265.437L496.424 264.665C495.683 264.505 494.981 264.201 494.358 263.77C493.735 263.338 493.203 262.788 492.793 262.151C492.383 261.514 492.102 260.803 491.967 260.057C491.832 259.311 491.846 258.546 492.007 257.806L502.727 208.718C503.056 207.222 503.965 205.918 505.255 205.092C506.544 204.266 508.109 203.986 509.605 204.312L513.159 205.085C513.9 205.244 514.602 205.549 515.225 205.98C515.848 206.411 516.38 206.961 516.79 207.598C517.2 208.235 517.481 208.947 517.616 209.693C517.751 210.439 517.737 211.203 517.576 211.944L506.856 261.032C506.527 262.527 505.618 263.831 504.328 264.657C503.039 265.483 501.474 265.764 499.978 265.437Z" fill="#ADD9F4"/>
<path d="M504.566 178.777H575.439C574.124 173.597 574.124 168.171 575.439 162.991H504.566V178.777Z" fill="#ADD9F4"/>
<path d="M467.246 161.544H577.52C577.639 161.544 577.756 161.567 577.866 161.613C577.976 161.658 578.075 161.724 578.16 161.808C578.244 161.892 578.31 161.991 578.356 162.101C578.401 162.21 578.425 162.328 578.425 162.447V163.138C578.425 163.257 578.401 163.375 578.356 163.484C578.31 163.594 578.244 163.693 578.16 163.777C578.075 163.861 577.976 163.927 577.866 163.973C577.756 164.018 577.639 164.041 577.52 164.041H507.082C506.681 164.04 506.297 164.199 506.014 164.482C505.73 164.764 505.571 165.148 505.57 165.548V176.22C505.571 176.62 505.73 177.004 506.014 177.287C506.297 177.569 506.681 177.728 507.082 177.727H577.52C577.639 177.727 577.756 177.751 577.866 177.796C577.976 177.841 578.075 177.907 578.16 177.991C578.244 178.075 578.31 178.175 578.356 178.284C578.401 178.394 578.425 178.511 578.425 178.63V179.313C578.425 179.432 578.401 179.549 578.356 179.659C578.31 179.769 578.244 179.868 578.16 179.952C578.075 180.036 577.976 180.102 577.866 180.147C577.756 180.193 577.639 180.216 577.52 180.216H467.246C466.441 180.217 465.669 179.898 465.099 179.329C464.529 178.761 464.208 177.989 464.207 177.184V164.576C464.208 163.77 464.529 162.999 465.099 162.43C465.669 161.862 466.441 161.543 467.246 161.544Z" fill="white"/>
<path d="M490.293 161.544H499.312C498.914 161.544 498.519 161.622 498.15 161.774C497.782 161.926 497.447 162.149 497.165 162.43C496.883 162.712 496.659 163.046 496.505 163.414C496.352 163.782 496.273 164.177 496.273 164.576V177.184C496.274 177.989 496.595 178.761 497.165 179.329C497.735 179.898 498.507 180.217 499.312 180.216H490.293C489.488 180.217 488.716 179.898 488.146 179.329C487.576 178.761 487.255 177.989 487.254 177.184V164.576C487.254 164.177 487.334 163.782 487.487 163.414C487.64 163.046 487.864 162.712 488.146 162.43C488.428 162.149 488.763 161.926 489.131 161.774C489.5 161.622 489.895 161.544 490.293 161.544Z" fill="#ADD9F4"/>
<path d="M548.481 166.715H507.793C507.694 166.715 507.598 166.675 507.528 166.605C507.458 166.535 507.418 166.439 507.418 166.34C507.418 166.24 507.458 166.145 507.528 166.074C507.598 166.004 507.694 165.964 507.793 165.964H548.481C548.58 165.964 548.676 166.004 548.746 166.074C548.816 166.145 548.856 166.24 548.856 166.34C548.856 166.439 548.816 166.535 548.746 166.605C548.676 166.675 548.58 166.715 548.481 166.715Z" fill="white"/>
<path d="M571.624 171.01H507.793C507.694 171.01 507.598 170.971 507.528 170.9C507.458 170.83 507.418 170.735 507.418 170.635C507.418 170.535 507.458 170.44 507.528 170.37C507.598 170.299 507.694 170.26 507.793 170.26H571.624C571.724 170.26 571.819 170.299 571.889 170.37C571.96 170.44 571.999 170.535 571.999 170.635C571.999 170.735 571.96 170.83 571.889 170.9C571.819 170.971 571.724 171.01 571.624 171.01Z" fill="white"/>
<path d="M565.614 175.682H537.707C537.608 175.682 537.512 175.643 537.442 175.572C537.372 175.502 537.332 175.407 537.332 175.307C537.332 175.208 537.372 175.112 537.442 175.042C537.512 174.971 537.608 174.932 537.707 174.932H565.614C565.714 174.932 565.809 174.971 565.88 175.042C565.95 175.112 565.99 175.208 565.99 175.307C565.99 175.407 565.95 175.502 565.88 175.572C565.809 175.643 565.714 175.682 565.614 175.682Z" fill="white"/>
<path d="M240.173 207.976C237.171 199.16 220.35 205.856 213.503 187.436C212.099 183.658 226.692 177.125 226.399 172.637C226.262 170.535 210.997 170.675 210.925 168.485C210.083 142.785 222.61 125.157 217.68 110.006C215.955 104.704 227.182 104.484 225.885 100.349C225.44 98.9304 214.191 101.8 213.19 100.664C207.342 94.0362 194.748 81.492 192.543 73.9577C190.928 68.4395 191.927 59.6019 193.139 51.2547C193.402 49.4374 204.877 49.8491 205.136 48.1177C205.995 42.3708 193.584 46.4031 193.212 43.4716C192.189 35.3893 180.525 5.38204 193.848 0.265989C203.796 -3.55395 229.506 34.8678 232.656 45.1029C233.018 46.279 223.354 56.6461 224.603 57.5598C225.698 58.3616 238.254 49.3175 239.518 50.1995C249.297 57.0245 263.153 66.106 266.188 75.2258C270.063 86.873 261.794 108.947 263.064 116.281C265.045 127.719 281.56 148.78 284.604 170.18C284.791 171.494 268.78 168.373 268.859 169.688C268.997 171.984 285.107 178.716 284.86 180.996C284.681 182.651 255.413 168.949 255 170.585C254.451 172.757 282.663 190.258 281.648 192.377C273.91 208.537 259.766 202.593 253.109 202.339C246.453 202.084 240.173 207.976 240.173 207.976Z" fill="#375D77"/>
<path d="M238.578 180.723C239.473 180.502 240.37 180.314 241.269 180.143C242.538 209.988 241.516 237.079 239.384 254.376C239.109 256.61 235.721 256.193 235.996 253.96C238.337 234.935 239.463 208.768 238.578 180.723Z" fill="#415783"/>
<path d="M202.507 30.935C203.076 30.4456 203.408 31.1085 205.014 32.9671C228.365 62.359 238.271 121.891 240.997 174.422C240.117 174.577 239.239 174.754 238.364 174.951C236.222 122.887 227.086 65.671 205.992 36.1356C204.412 34.0207 203.629 33.1271 202.46 31.7501C202.408 31.6943 202.368 31.6285 202.342 31.5568C202.316 31.485 202.305 31.4087 202.31 31.3326C202.314 31.2564 202.334 31.1819 202.368 31.1136C202.402 31.0453 202.449 30.9845 202.507 30.935Z" fill="#F7F6F1"/>
<path d="M224.248 222.533C218.129 214.864 204.94 226.485 190.498 211.646C189.468 210.587 206.04 201.234 205.204 199.976C203.884 197.988 185.293 203.954 184.376 201.554C178.28 185.612 179.913 161.755 173.989 145.492C173.46 144.042 184.572 136.455 183.912 135.136C183.098 133.508 170.494 138.2 169.513 136.801C160.957 124.595 146.63 120.461 136.48 113.389C134.827 112.238 149.097 95.6072 147.708 94.2522C146.749 93.3165 130.052 107.722 129.254 106.651C122.232 97.227 121.957 83.4921 120.43 73.9253C120.046 71.5247 129.118 67.8629 128.45 66.1212C127.926 64.7537 117.742 65.1541 116.904 64.3402C110.743 58.3578 95.4582 42.4445 104.262 33.1762C105.378 32.0006 112.808 42.6316 114.075 42.1726C115.736 41.5713 111.286 30.1178 113.172 30.5374C123.873 32.9184 137.884 49.8249 151.664 59.5652C152.779 60.3535 148.014 73.4511 149.124 74.1341C150.363 74.8962 157.477 63.2294 158.705 63.83C168.812 68.7734 193.957 72.2289 202.671 81.7777C203.303 82.4697 179.325 100.848 179.852 101.681C180.522 102.739 205.668 86.2906 206.193 87.5332C210.967 98.8165 210.346 116.746 214.22 123.562C220.264 134.192 244.138 149.199 254.787 169.321C255.442 170.557 238.465 173.145 239.012 174.42C239.968 176.647 258.33 177.6 258.899 179.947C259.312 181.651 225.426 178.459 225.601 180.227C225.832 182.573 260.026 189.903 259.777 192.363C257.873 211.119 241.74 210.248 235.054 212.358C228.368 214.468 224.248 222.533 224.248 222.533Z" fill="#2E4969"/>
<path d="M251.427 223.402C254.873 216.437 268.055 223.802 275.729 209.31C277.303 206.337 265.946 199.348 266.678 195.668C267.021 193.944 279.633 195.718 279.931 193.914C283.434 172.748 274.996 156.807 280.728 144.81C282.735 140.611 273.472 139.211 274.996 135.931C275.519 134.806 284.51 138.401 285.463 137.571C291.023 132.723 302.81 123.715 305.456 117.723C307.394 113.334 307.533 105.915 307.442 98.8792C307.423 97.3476 297.886 96.4418 297.861 94.9816C297.778 90.1347 307.604 94.818 308.231 92.4335C309.96 85.8595 322.884 62.3058 312.422 56.6271C304.611 52.387 279.15 81.3754 275.427 89.4992C274.999 90.4326 281.861 100.057 280.728 100.677C279.735 101.222 270.337 92.3773 269.195 92.9696C260.361 97.5528 247.909 103.56 244.403 110.774C239.926 119.987 244.356 139.143 242.504 145.071C239.616 154.317 223.657 169.944 218.803 187.314C218.504 188.381 232.089 187.538 231.88 188.617C231.515 190.502 217.455 194.32 217.41 196.233C217.378 197.622 243.082 189.466 243.246 190.865C243.462 192.72 218.216 204.133 218.824 205.996C223.461 220.203 235.809 216.822 241.342 217.335C246.876 217.847 251.427 223.402 251.427 223.402Z" fill="#2E4969"/>
<path d="M246.938 261.853C246.938 261.853 246.952 261.104 246.979 259.701C247 258.992 247.027 258.119 247.059 257.092C247.098 256.069 247.143 254.893 247.211 253.578C247.342 250.947 247.539 247.756 247.832 244.104C248.124 240.452 248.51 236.338 249.005 231.86C249.499 227.382 250.105 222.54 250.831 217.431C251.555 212.322 252.394 206.946 253.362 201.402C253.838 198.629 254.361 195.816 254.898 192.971C255.448 190.128 256.014 187.252 256.624 184.361C257.83 178.576 259.168 172.723 260.621 166.898C262.067 161.072 263.657 155.28 265.336 149.613C267.03 143.949 268.829 138.413 270.73 133.111C271.214 131.788 271.681 130.472 272.177 129.181C272.422 128.534 272.666 127.89 272.909 127.25C273.159 126.612 273.408 125.977 273.656 125.346C273.78 125.031 273.903 124.716 274.027 124.403C274.154 124.09 274.281 123.779 274.408 123.469C274.661 122.848 274.913 122.231 275.164 121.617C275.422 121.007 275.679 120.401 275.935 119.798C276.191 119.196 276.441 118.596 276.707 118.007C278.785 113.276 280.917 108.873 283.079 104.908C285.036 101.292 287.179 97.7801 289.5 94.3862C291.295 91.765 293.241 89.2516 295.33 86.859C295.55 86.6115 295.763 86.3707 295.97 86.1367C296.074 86.0196 296.176 85.9043 296.276 85.7907L296.586 85.4654C296.992 85.039 297.373 84.6397 297.728 84.2674C297.902 84.0785 298.084 83.9099 298.254 83.7437C298.425 83.5783 298.588 83.4197 298.745 83.2679C299.059 82.9654 299.341 82.6872 299.599 82.4443C300.66 81.5006 301.226 80.9973 301.226 80.9973C301.324 80.9092 301.453 80.8636 301.585 80.8706C301.717 80.8775 301.841 80.9364 301.93 81.0344C302.018 81.1324 302.064 81.2615 302.058 81.3934C302.052 81.5254 301.994 81.6494 301.896 81.7385C301.879 81.7538 301.33 82.2528 300.3 83.1885C300.049 83.4294 299.775 83.7058 299.47 84.0058C299.318 84.1562 299.159 84.3135 298.993 84.4776C298.828 84.6423 298.651 84.8093 298.482 84.997C298.137 85.3662 297.767 85.7625 297.372 86.1861C297.273 86.292 297.173 86.3996 297.071 86.5087L296.773 86.8524C296.572 87.0849 296.364 87.324 296.151 87.5698C294.116 89.9504 292.223 92.4486 290.481 95.0514C288.22 98.433 286.136 101.93 284.237 105.527C282.136 109.477 280.067 113.867 278.053 118.585C277.796 119.172 277.554 119.771 277.305 120.371C277.058 120.972 276.809 121.577 276.558 122.186C276.316 122.797 276.072 123.413 275.827 124.032C275.704 124.342 275.581 124.652 275.458 124.964C275.339 125.277 275.219 125.591 275.099 125.905C274.86 126.535 274.619 127.168 274.377 127.804C274.142 128.443 273.906 129.085 273.67 129.731C273.19 131.019 272.739 132.333 272.272 133.652C270.438 138.943 268.705 144.467 267.079 150.12C265.467 155.776 263.946 161.556 262.566 167.371C261.18 173.184 259.909 179.024 258.769 184.796C258.191 187.68 257.658 190.549 257.141 193.385C256.635 196.224 256.144 199.029 255.699 201.794C254.793 207.323 254.014 212.682 253.347 217.772C252.678 222.863 252.125 227.685 251.681 232.141C251.235 236.597 250.894 240.686 250.643 244.313C250.39 247.939 250.228 251.103 250.125 253.707C250.071 255.009 250.04 256.171 250.011 257.182C249.991 258.189 249.973 259.046 249.959 259.741L249.941 261.893C249.936 262.291 249.774 262.67 249.49 262.948C249.207 263.227 248.824 263.381 248.427 263.378C248.029 263.374 247.65 263.214 247.37 262.931C247.091 262.648 246.936 262.266 246.938 261.869L246.938 261.853Z" fill="#ADD9F4"/>
<path d="M230.538 264.822C230.538 264.822 230.451 264.046 230.288 262.591C230.207 261.864 230.093 260.981 229.967 259.935C229.904 259.413 229.824 258.85 229.746 258.25C229.665 257.65 229.586 257.012 229.487 256.34C229.115 253.647 228.61 250.382 227.965 246.648C227.318 242.914 226.522 238.711 225.558 234.144C224.59 229.578 223.453 224.648 222.142 219.46C220.829 214.273 219.333 208.83 217.668 203.233C215.992 197.639 214.155 191.89 212.133 186.1C210.123 180.306 207.929 174.474 205.601 168.694C203.259 162.921 200.783 157.202 198.171 151.653C197.527 150.262 196.853 148.891 196.197 147.521C195.86 146.84 195.524 146.16 195.19 145.483L194.687 144.468C194.517 144.133 194.346 143.797 194.176 143.462C193.835 142.793 193.495 142.125 193.156 141.46C192.809 140.799 192.464 140.14 192.12 139.483C191.948 139.155 191.776 138.827 191.604 138.5C191.429 138.175 191.254 137.85 191.079 137.526C190.73 136.879 190.382 136.234 190.035 135.592C189.323 134.317 188.634 133.043 187.915 131.802C187.559 131.18 187.204 130.561 186.851 129.945C186.491 129.333 186.133 128.724 185.777 128.119C185.598 127.816 185.42 127.515 185.242 127.214L184.7 126.32C184.339 125.726 183.981 125.136 183.625 124.549C183.26 123.967 182.899 123.389 182.539 122.814C182.359 122.527 182.18 122.24 182.001 121.955C181.819 121.672 181.637 121.39 181.456 121.109C178.559 116.608 175.674 112.447 172.848 108.729C170.03 105.006 167.299 101.707 164.776 98.8752C162.252 96.0436 159.945 93.6729 157.989 91.7801C157.502 91.3046 157.026 90.8702 156.586 90.4529C156.144 90.0383 155.734 89.6447 155.337 89.2965C154.943 88.9439 154.579 88.6179 154.245 88.3186C154.078 88.1691 153.919 88.0265 153.767 87.8908C153.615 87.7558 153.466 87.6331 153.328 87.5143L151.626 86.0652C151.566 86.0166 151.516 85.9568 151.48 85.889C151.443 85.8212 151.421 85.7469 151.413 85.6703C151.405 85.5937 151.413 85.5163 151.435 85.4426C151.458 85.369 151.495 85.3005 151.544 85.2411C151.593 85.1818 151.653 85.1327 151.721 85.0968C151.789 85.0608 151.864 85.0387 151.94 85.0317C152.017 85.0247 152.094 85.033 152.168 85.056C152.241 85.079 152.309 85.1164 152.368 85.1659C152.368 85.1659 152.972 85.67 154.103 86.6152C154.244 86.7341 154.395 86.857 154.55 86.9919C154.705 87.1276 154.867 87.2703 155.037 87.4198C155.377 87.7189 155.748 88.0451 156.15 88.3982C156.555 88.7468 156.973 89.1403 157.423 89.5552C157.871 89.9727 158.356 90.4076 158.852 90.8834C160.846 92.7775 163.198 95.1503 165.772 97.9848C168.344 100.819 171.13 104.123 174.006 107.85C176.889 111.573 179.835 115.739 182.794 120.245C182.979 120.527 183.165 120.81 183.351 121.093C183.534 121.379 183.717 121.666 183.901 121.953C184.268 122.529 184.638 123.108 185.01 123.691C185.374 124.278 185.741 124.87 186.109 125.464C186.294 125.762 186.478 126.06 186.664 126.359C186.845 126.66 187.027 126.962 187.21 127.265C187.574 127.872 187.941 128.481 188.309 129.094C188.67 129.711 189.032 130.331 189.397 130.954C190.132 132.197 190.837 133.472 191.566 134.749C191.921 135.392 192.277 136.038 192.635 136.686C192.814 137.011 192.993 137.336 193.172 137.662C193.348 137.989 193.524 138.317 193.701 138.646C194.053 139.304 194.406 139.964 194.761 140.626C195.108 141.292 195.456 141.961 195.806 142.631C195.98 142.967 196.155 143.303 196.33 143.639C196.501 143.977 196.673 144.316 196.845 144.655C197.188 145.334 197.532 146.014 197.877 146.696C198.55 148.069 199.24 149.442 199.901 150.835C202.579 156.394 205.123 162.123 207.532 167.908C209.926 173.698 212.187 179.544 214.262 185.352C216.348 191.156 218.249 196.922 219.987 202.533C221.713 208.148 223.269 213.611 224.638 218.819C226.005 224.029 227.196 228.981 228.214 233.572C229.227 238.164 230.068 242.393 230.755 246.154C231.44 249.915 231.981 253.206 232.381 255.923C232.487 256.601 232.574 257.246 232.661 257.851C232.746 258.457 232.831 259.023 232.9 259.554C233.038 260.614 233.163 261.521 233.251 262.247C233.427 263.701 233.521 264.476 233.521 264.476C233.568 264.871 233.456 265.268 233.21 265.58C232.965 265.893 232.605 266.095 232.21 266.142C231.816 266.19 231.418 266.079 231.105 265.834C230.792 265.589 230.589 265.23 230.54 264.836L230.538 264.822Z" fill="#ADD9F4"/>
<path d="M266.94 252.12L265.231 255.325C265.231 255.325 264.079 289.075 255.562 289.075H224.557C216.144 289.075 214.885 255.75 214.885 255.75L213.176 252.12C213.176 251.758 213.321 251.411 213.577 251.155C213.833 250.9 214.181 250.756 214.543 250.757H265.573C265.752 250.756 265.93 250.791 266.095 250.859C266.261 250.928 266.412 251.028 266.539 251.155C266.666 251.281 266.767 251.432 266.835 251.597C266.904 251.763 266.94 251.941 266.94 252.12Z" fill="#2E4969"/>
<path d="M251.581 252.12L249.872 255.325C249.872 255.325 248.72 289.075 240.204 289.075H224.557C216.144 289.075 214.885 255.75 214.885 255.75L213.176 252.12C213.176 251.758 213.321 251.411 213.577 251.155C213.833 250.9 214.181 250.756 214.543 250.757H250.214C250.393 250.756 250.571 250.791 250.737 250.859C250.902 250.928 251.053 251.028 251.18 251.155C251.307 251.281 251.408 251.432 251.477 251.597C251.545 251.763 251.581 251.941 251.581 252.12Z" fill="#375D77"/>
<path d="M465.771 283.618H280.568L246.039 155.348H431.243L465.771 283.618Z" fill="#2C5780"/>
<path d="M460.207 279.308H283.696L252.184 163.073H428.695L460.207 279.308Z" fill="#F7F6F1"/>
<path d="M343.664 200.102L270.037 200.78L261.578 173.572L335.98 172.611L343.664 200.102Z" fill="#ADD9F4"/>
<path d="M363.442 268.813H291.75L283.781 243.162L356.21 242.911L363.442 268.813Z" fill="#ADD9F4"/>
<path d="M299.519 235.21L280.564 235.295L272.352 208.885L291.502 208.73L299.519 235.21Z" fill="#ADD9F4"/>
<path d="M324.971 235.094L305.885 235.181L297.934 208.677L317.217 208.521L324.971 235.094Z" fill="#ADD9F4"/>
<path d="M351.951 234.972L332.727 235.059L325.055 208.458L344.48 208.3L351.951 234.972Z" fill="#ADD9F4"/>
<path d="M447.357 268.813H372.32L343.738 172.478L421.654 171.472L447.357 268.813Z" fill="#ADD9F4"/>
<path d="M557.736 283.617H280.57V286.224C280.572 287.461 281.065 288.647 281.941 289.521C282.817 290.394 284.004 290.884 285.242 290.883H552.955C553.582 290.884 554.203 290.761 554.783 290.522C555.362 290.283 555.889 289.932 556.333 289.489C556.777 289.046 557.129 288.52 557.37 287.941C557.611 287.362 557.735 286.742 557.736 286.115V283.617Z" fill="#2C5780"/>
<path d="M246.041 155.348L244.712 160.259C244.119 162.452 244.122 164.763 244.721 166.955L274.873 277.298C275.263 278.723 275.981 280.037 276.971 281.134C277.96 282.232 279.192 283.082 280.569 283.617L246.041 155.348Z" fill="#D1E2EB"/>
<path d="M368.264 289.105H292.593C292.244 289.105 291.909 288.966 291.661 288.719C291.414 288.473 291.274 288.138 291.273 287.788V286.748C291.274 286.399 291.414 286.064 291.661 285.817C291.909 285.57 292.244 285.432 292.593 285.432H368.264C368.613 285.432 368.948 285.57 369.196 285.817C369.443 286.064 369.583 286.399 369.583 286.748V287.788C369.583 288.138 369.443 288.473 369.196 288.719C368.948 288.966 368.613 289.105 368.264 289.105ZM292.593 286.35C292.488 286.35 292.386 286.392 292.311 286.467C292.237 286.541 292.195 286.643 292.194 286.748V287.788C292.195 287.894 292.237 287.995 292.311 288.07C292.386 288.144 292.488 288.186 292.593 288.186H368.264C368.369 288.186 368.471 288.144 368.545 288.07C368.62 287.995 368.662 287.894 368.662 287.788V286.748C368.662 286.643 368.62 286.541 368.545 286.467C368.471 286.392 368.369 286.35 368.264 286.35H292.593Z" fill="#2E4969"/>
<path d="M378.162 285.891H394.085C394.444 285.891 394.79 286.034 395.044 286.289C395.299 286.543 395.441 286.888 395.441 287.248V287.289C395.441 287.648 395.299 287.994 395.044 288.248C394.79 288.502 394.445 288.645 394.085 288.645H378.162C377.802 288.645 377.457 288.502 377.202 288.248C376.948 287.994 376.805 287.648 376.805 287.289V287.248C376.805 286.888 376.948 286.543 377.202 286.289C377.457 286.034 377.802 285.891 378.162 285.891Z" fill="#2E4969"/>
<path d="M404.919 285.891H409.959C410.137 285.891 410.313 285.926 410.478 285.995C410.643 286.063 410.792 286.163 410.918 286.289C411.044 286.415 411.144 286.564 411.212 286.729C411.28 286.893 411.316 287.07 411.316 287.248V287.289C411.316 287.648 411.173 287.994 410.918 288.248C410.664 288.502 410.319 288.645 409.959 288.645H404.919C404.559 288.645 404.214 288.502 403.96 288.248C403.705 287.994 403.563 287.648 403.562 287.289V287.248C403.562 286.888 403.705 286.543 403.96 286.289C404.214 286.034 404.56 285.891 404.919 285.891Z" fill="#2E4969"/>
<path d="M416.744 285.891H421.783C422.143 285.891 422.488 286.034 422.742 286.289C422.997 286.543 423.14 286.888 423.14 287.248V287.289C423.14 287.648 422.997 287.994 422.742 288.248C422.488 288.502 422.143 288.645 421.783 288.645H416.744C416.384 288.645 416.039 288.502 415.784 288.248C415.53 287.994 415.387 287.648 415.387 287.289V287.248C415.387 287.07 415.422 286.893 415.49 286.729C415.558 286.564 415.658 286.415 415.784 286.289C415.91 286.163 416.06 286.063 416.224 285.995C416.389 285.926 416.565 285.891 416.744 285.891Z" fill="#2E4969"/>
<path d="M462.011 284.208H283.524C283.367 284.208 283.217 284.146 283.107 284.035C282.996 283.924 282.934 283.774 282.934 283.617C282.934 283.461 282.996 283.311 283.107 283.2C283.217 283.089 283.367 283.027 283.524 283.027H462.011C462.168 283.027 462.318 283.089 462.429 283.2C462.539 283.311 462.602 283.461 462.602 283.617C462.602 283.774 462.539 283.924 462.429 284.035C462.318 284.146 462.168 284.208 462.011 284.208Z" fill="#D1E2EB"/>
<path d="M279.976 284.007L245.407 156.103C245.35 155.908 245.34 155.703 245.377 155.504C245.414 155.304 245.497 155.116 245.619 154.954C245.741 154.793 245.898 154.661 246.08 154.571C246.261 154.48 246.461 154.433 246.664 154.434L431.246 154.685L431.244 156.012L246.663 155.76L281.256 283.661L279.976 284.007Z" fill="#2E4969"/>
<path d="M280.571 284.281C280.52 284.281 280.47 284.275 280.421 284.264C280.229 284.219 275.704 283.111 274.232 277.465C272.861 272.209 244.37 168.18 244.082 167.13C243.457 164.977 243.427 162.694 243.994 160.525C244.894 157.374 245.519 155.044 245.525 155.021C245.571 154.851 245.682 154.706 245.834 154.618C245.986 154.53 246.167 154.507 246.337 154.552C246.507 154.598 246.652 154.709 246.74 154.861C246.828 155.014 246.852 155.195 246.806 155.364C246.8 155.388 246.173 157.728 245.269 160.889C244.78 162.815 244.809 164.837 245.352 166.749C245.649 167.83 274.143 271.867 275.516 277.131C276.779 281.973 280.562 282.933 280.723 282.971C280.881 283.009 281.019 283.103 281.112 283.237C281.205 283.37 281.247 283.532 281.228 283.693C281.209 283.855 281.132 284.004 281.011 284.112C280.89 284.22 280.733 284.28 280.571 284.281Z" fill="#2E4969"/>
<path d="M557.737 282.364H280.203V283.691H557.737V282.364Z" fill="#2E4969"/>
<path d="M404.884 272.935C404.884 272.935 403.078 280.776 404.572 280.776H430.128C434.618 278.745 415.356 273.748 411.174 271.446C409.559 271.39 404.884 272.935 404.884 272.935Z" fill="#00AB5B"/>
<path d="M413.573 275.462C413.463 275.462 413.354 275.434 413.257 275.381C413.16 275.329 413.078 275.253 413.017 275.16C412.957 275.067 412.921 274.961 412.912 274.851C412.903 274.741 412.922 274.631 412.967 274.53C413.276 273.769 413.703 273.061 414.233 272.434C414.297 272.374 414.372 272.327 414.453 272.297C414.535 272.266 414.621 272.251 414.709 272.254C414.796 272.257 414.881 272.277 414.961 272.313C415.04 272.349 415.112 272.4 415.171 272.464C415.231 272.527 415.277 272.602 415.308 272.683C415.339 272.765 415.353 272.852 415.35 272.939C415.347 273.026 415.327 273.112 415.291 273.191C415.255 273.27 415.204 273.342 415.14 273.401C414.739 273.906 414.415 274.467 414.18 275.067C414.128 275.185 414.043 275.285 413.935 275.355C413.827 275.425 413.702 275.462 413.573 275.462Z" fill="white"/>
<path d="M415.746 277.146C415.642 277.146 415.539 277.122 415.447 277.075C415.354 277.029 415.273 276.961 415.212 276.877C415.15 276.794 415.109 276.697 415.091 276.594C415.074 276.492 415.081 276.387 415.112 276.288C415.462 275.194 416.057 274.194 416.85 273.363C416.981 273.246 417.154 273.186 417.329 273.197C417.504 273.207 417.669 273.287 417.785 273.418C417.902 273.549 417.962 273.721 417.952 273.897C417.942 274.072 417.863 274.236 417.732 274.354C417.119 275.022 416.658 275.815 416.379 276.678C416.338 276.813 416.254 276.932 416.14 277.016C416.026 277.1 415.887 277.146 415.746 277.146Z" fill="white"/>
<path d="M418.668 278.436C418.574 278.437 418.481 278.417 418.396 278.379C418.31 278.34 418.233 278.284 418.171 278.214C418.109 278.144 418.062 278.061 418.034 277.971C418.006 277.882 417.997 277.787 418.009 277.694C418.234 276.479 418.741 275.334 419.489 274.35C419.608 274.221 419.773 274.144 419.949 274.137C420.124 274.129 420.296 274.192 420.425 274.31C420.555 274.429 420.632 274.594 420.64 274.77C420.647 274.946 420.585 275.117 420.467 275.247C419.908 276.026 419.519 276.913 419.326 277.852C419.306 278.013 419.229 278.161 419.108 278.269C418.987 278.376 418.83 278.436 418.668 278.436Z" fill="white"/>
<path d="M430.971 281.606H403.679C403.503 281.606 403.334 281.536 403.21 281.412C403.086 281.287 403.016 281.118 403.016 280.942C403.016 280.767 403.086 280.598 403.21 280.473C403.334 280.349 403.503 280.279 403.679 280.279H430.971C431.147 280.279 431.316 280.349 431.44 280.473C431.565 280.598 431.635 280.767 431.635 280.942C431.635 281.118 431.565 281.287 431.44 281.412C431.316 281.536 431.147 281.606 430.971 281.606Z" fill="white"/>
<path d="M350.608 272.254C350.608 272.254 348.084 280.776 349.578 280.776H375.134C379.625 278.745 363.823 274.022 359.64 271.72C358.025 271.664 350.608 272.254 350.608 272.254Z" fill="#00AB5B"/>
<path d="M361.596 275.286C361.486 275.286 361.377 275.259 361.28 275.206C361.183 275.153 361.101 275.077 361.041 274.985C360.981 274.892 360.944 274.786 360.936 274.676C360.927 274.566 360.946 274.455 360.99 274.354C361.299 273.593 361.727 272.886 362.257 272.258C362.32 272.198 362.395 272.152 362.477 272.121C362.558 272.09 362.645 272.076 362.732 272.079C362.819 272.081 362.905 272.101 362.984 272.137C363.064 272.173 363.135 272.225 363.195 272.288C363.254 272.352 363.301 272.426 363.331 272.508C363.362 272.589 363.376 272.676 363.374 272.763C363.371 272.85 363.351 272.936 363.315 273.015C363.279 273.095 363.227 273.166 363.164 273.226C362.762 273.73 362.438 274.292 362.203 274.892C362.151 275.009 362.066 275.109 361.958 275.179C361.851 275.249 361.725 275.286 361.596 275.286Z" fill="white"/>
<path d="M363.773 276.97C363.669 276.971 363.567 276.946 363.474 276.9C363.381 276.853 363.301 276.785 363.239 276.702C363.177 276.618 363.136 276.521 363.119 276.419C363.101 276.316 363.108 276.211 363.139 276.112C363.49 275.018 364.084 274.018 364.877 273.187C365.009 273.07 365.181 273.011 365.356 273.021C365.532 273.031 365.696 273.111 365.813 273.242C365.93 273.373 365.99 273.546 365.98 273.721C365.97 273.896 365.89 274.061 365.76 274.178C365.146 274.846 364.685 275.639 364.407 276.502C364.365 276.638 364.281 276.756 364.167 276.84C364.053 276.925 363.915 276.97 363.773 276.97Z" fill="white"/>
<path d="M366.696 278.261C366.602 278.261 366.509 278.242 366.423 278.203C366.337 278.165 366.261 278.109 366.198 278.038C366.136 277.968 366.089 277.886 366.061 277.796C366.033 277.706 366.025 277.612 366.036 277.518C366.262 276.304 366.769 275.159 367.516 274.175C367.635 274.045 367.8 273.969 367.976 273.961C368.152 273.954 368.323 274.016 368.453 274.135C368.582 274.254 368.659 274.419 368.667 274.594C368.675 274.77 368.613 274.942 368.494 275.071C367.935 275.85 367.547 276.738 367.353 277.677C367.334 277.837 367.256 277.986 367.135 278.093C367.014 278.201 366.858 278.261 366.696 278.261Z" fill="white"/>
<path d="M375.979 281.606H348.687C348.511 281.606 348.342 281.536 348.218 281.412C348.093 281.287 348.023 281.118 348.023 280.942C348.023 280.767 348.093 280.598 348.218 280.473C348.342 280.349 348.511 280.279 348.687 280.279H375.979C376.155 280.279 376.324 280.349 376.448 280.473C376.573 280.598 376.642 280.767 376.642 280.942C376.642 281.118 376.573 281.287 376.448 281.412C376.324 281.536 376.155 281.606 375.979 281.606Z" fill="white"/>
<path d="M372.238 96.3921C367.856 96.2991 354.42 100.141 350.215 103.842C345.324 108.146 345.228 124.747 347.278 126.704C350.207 129.503 352.298 130.848 356.037 130.706C354.715 139.962 353.756 150.315 355.014 154.232C355.388 158.939 382.065 165.487 396.138 158.469C397.683 157.699 394.77 135.07 394.917 130.704C394.923 130.524 394.994 130.352 395.117 130.219C395.239 130.086 395.405 130.002 395.584 129.981C398.681 129.622 408.319 125.951 411.253 122.034C411.347 121.909 411.4 121.757 411.404 121.601C411.408 121.444 411.363 121.29 411.276 121.16C408.833 117.518 402.811 105.453 398.31 102.841C393.37 99.9742 389.292 99.026 384.792 97.8976C380.692 96.8478 376.471 96.3416 372.238 96.3921Z" fill="#00AB5B"/>
<path d="M381.448 82.7498C381.216 88.047 381.221 94.4859 381.963 96.4388C382.235 97.1562 383.246 97.5274 383.637 97.8378C384.725 98.6998 381.436 102.331 378.347 102.768C373.203 103.497 365.523 98.5243 367.023 98.0593C368.229 97.6853 369.963 92.7067 370.149 86.4791C370.195 84.9649 370.377 83.2044 370.329 81.9111C375.145 83.7911 381.448 82.7498 381.448 82.7498Z" fill="#E0A8A4"/>
<path d="M395.911 156.247L370.992 155.354C372.445 164.361 379.54 190.57 379.54 190.57L390.694 221.748C390.694 221.748 393.409 237.064 394.441 241.822C396.39 250.805 400.897 266.952 403.415 274.367C404.299 276.969 414.347 272.548 413.929 271.013C410.341 257.843 410.265 236.84 409.082 221.813C407.975 207.746 396.763 160.307 395.911 156.247Z" fill="#263238"/>
<path d="M400.138 175.26L384.04 203.152L379.39 190.164C379.39 190.164 376.478 179.412 374.004 169.31L382.063 155.354L395.761 155.845C396.092 157.397 397.93 165.303 400.138 175.26Z" fill="#1C262D"/>
<path d="M380.909 155.551C380.659 155.198 380.33 154.909 379.948 154.704C379.567 154.5 379.143 154.387 378.711 154.373C370.313 154.516 363.081 152.657 354.519 151.252C350.8 159.876 353.388 174.05 354.246 180.083L354.246 180.084C354.034 196.127 353.913 213.992 352.824 217.5C350.814 223.947 347.783 262.89 350.535 272.548C350.814 273.53 361.699 273.364 361.699 271.832C361.699 254.877 369.022 228.69 371.337 224.067C372.544 221.652 376.504 210.495 379.622 201.547C381.877 195.067 391.491 156.271 391.471 156.192L380.909 155.551Z" fill="#263238"/>
<path d="M559.375 289.472H276.805V290.798H559.375V289.472Z" fill="#2E4969"/>
<path d="M499.682 245.299L485.455 243.403C482.654 256.393 482.783 268.277 479.367 271.883C475.967 275.471 458.758 281.292 464.48 281.292H485.299C487.115 281.292 484.805 275.923 484.805 273.207C484.805 272.501 495.344 254.465 499.682 245.299Z" fill="#E0A8A4"/>
<path d="M487.344 226.086C487.679 228.004 486.45 235.588 484.582 244.49L499.013 248.733C500.252 246.166 501.306 243.513 502.164 240.794C504.101 233.435 500.99 226.329 500.675 222.487C500.36 218.646 519.899 173.269 516.403 164.884C509.31 147.87 493.92 150.569 493.92 150.569C493.791 153.415 489.526 162.065 488.793 170.588C487.573 184.782 486.044 218.639 487.344 226.086Z" fill="#263238"/>
<path d="M505.775 206.316L488.145 179.24C488.363 175.824 488.582 172.753 488.795 170.285C489.272 164.74 491.236 159.148 492.589 155.129L499.839 150.413C504.946 151.282 512.163 154.406 516.402 164.581C518.677 170.04 511.195 191.166 505.775 206.316Z" fill="#1C262D"/>
<path d="M548.463 236.336L536.758 242.38C542.98 254.927 548.324 269.675 548.324 271.993C548.324 275.626 531.353 281.292 536.481 281.292H554.855C557.072 281.292 554.791 275.153 553.876 273.485C553.516 272.83 550.553 249.433 548.463 236.336Z" fill="#E0A8A4"/>
<path d="M547.652 228.702C544.713 221.681 538.186 219.438 535.672 215.573C534.086 213.135 529.5 180.375 526.728 169.529C524.61 161.239 517.28 151.935 512.037 148.492C508.463 146.145 493.848 150.561 493.848 150.561C493.848 150.561 515.496 216.75 524.903 224.733C526.377 225.984 533.31 236.345 537.522 244.716L550.14 239.417C549.577 236.173 548.208 230.031 547.652 228.702Z" fill="#263238"/>
<path d="M556.465 279.667L549.596 280.123C548.735 278.565 544.908 275.798 542.689 276.077C542.09 276.153 536.867 278.59 537.252 279.666C537.823 279.492 539.676 278.85 540.712 280.712L534.515 281.123C534.428 281.129 534.347 281.167 534.288 281.23C534.228 281.294 534.195 281.377 534.195 281.464V281.974C534.195 282.019 534.204 282.063 534.222 282.105C534.239 282.146 534.264 282.184 534.296 282.216C534.328 282.247 534.365 282.273 534.407 282.29C534.448 282.307 534.493 282.316 534.538 282.315H556.505C556.584 282.316 556.662 282.3 556.735 282.27C556.808 282.24 556.874 282.196 556.93 282.14C556.986 282.084 557.031 282.018 557.061 281.945C557.091 281.872 557.107 281.794 557.107 281.714V280.267C557.107 280.185 557.09 280.103 557.057 280.028C557.024 279.952 556.976 279.884 556.916 279.828C556.856 279.772 556.785 279.728 556.707 279.701C556.629 279.673 556.547 279.662 556.465 279.667Z" fill="#00AB5B"/>
<path d="M486.265 279.389L478.163 279.895C477.144 278.179 473.581 275.423 471.451 275.691C470.852 275.766 465.485 278.137 465.87 279.213C466.483 279.046 467.133 279.076 467.728 279.299C468.322 279.522 468.832 279.927 469.183 280.455L462.949 280.845C462.86 280.848 462.775 280.884 462.712 280.948C462.649 281.011 462.612 281.096 462.609 281.185V281.695C462.612 281.789 462.652 281.877 462.721 281.941C462.789 282.005 462.88 282.04 462.973 282.037H486.307C486.472 282.042 486.631 281.982 486.751 281.869C486.871 281.756 486.942 281.601 486.947 281.436V279.988C486.944 279.903 486.924 279.82 486.887 279.743C486.851 279.666 486.799 279.598 486.735 279.541C486.671 279.485 486.597 279.443 486.516 279.417C486.435 279.39 486.349 279.381 486.265 279.389Z" fill="#00AB5B"/>
<path d="M492.209 107.973C491.77 107.896 477.429 125.79 471.758 129.51C468.773 131.467 453.702 139.7 443.282 140.751C443.228 140.757 443.174 140.771 443.124 140.792C442.066 140.453 441.629 139.704 440.205 139.258C438.699 138.787 436.541 139.332 435.169 139.255C433.798 139.179 433.372 139.583 434.767 140.366C436.162 141.148 437.432 140.63 438.4 141.677C439.368 142.724 431.866 146.435 430.27 146.976C428.675 147.517 430.047 147.593 432.25 147.69C434.453 147.788 436.923 148.874 438.89 148.467C440.144 148.208 442.081 146.243 443.32 144.853C448.661 144.555 464.101 141.857 477.354 136.058C482.275 133.905 492.794 123.126 495.102 119.74C495.96 118.481 495.214 108.503 492.209 107.973Z" fill="#CF9B99"/>
<path d="M519.186 111.709C517.645 109.546 514.959 107.774 512.81 106.41C507.174 102.834 505.413 102.94 499.733 104.033C498.043 104.358 494.526 105.314 493.645 106.052C489.107 108.204 483.684 116.124 483.684 116.87C483.683 117.432 485.848 120.526 488.406 122.328C487.501 125.74 489.373 129.049 491.961 130.089C492.311 131.745 493.031 148.84 494.142 151.258C495.638 154.514 512.096 152.402 513.162 150.123C513.735 148.899 514.329 139.334 515.18 133.23C515.532 130.703 522.958 117.006 519.186 111.709Z" fill="#00AB5B"/>
<path d="M498.566 104.782C502.108 104.487 502.717 101.36 502.896 93.6249C502.896 93.6249 510.222 90.1409 509.033 91.7114C507.843 93.2819 509.724 102.77 509.929 104.241C510.024 104.917 511.348 106.138 512.806 107.588C510.229 110.031 502.824 120.119 495.954 117.115C491.482 115.159 496.868 106.187 498.566 104.782Z" fill="#E0A8A4"/>
<path d="M508.347 120.252C507.908 120.174 497.986 136.038 496.488 136.913C493.829 138.468 480.568 142.205 470.286 143.877C469.294 143.524 468.841 142.806 467.459 142.373C465.953 141.902 463.795 142.447 462.423 142.371C461.052 142.294 460.626 142.699 462.021 143.481C463.416 144.263 464.686 143.745 465.654 144.792C466.622 145.839 459.119 149.551 457.524 150.091C455.929 150.632 457.301 150.708 459.504 150.805C461.707 150.903 463.855 151.538 465.821 151.131C467.206 150.845 469.582 148.704 470.867 147.462C478.752 147.617 491.635 147.627 499.549 144.795C505.819 142.552 513.471 129.589 515.779 126.202C516.637 124.943 511.352 120.782 508.347 120.252Z" fill="#E0A8A4"/>
<path d="M509.025 91.6365C508.421 92.4325 508.607 95.2449 508.958 98.0242L501.781 102.448C502.557 100.691 502.789 97.8252 502.889 93.5535C502.889 93.5535 510.212 90.0711 509.025 91.6365Z" fill="#CF9B99"/>
<path d="M537.7 121.828C537.693 127.592 536.446 131.426 530.158 131.46C525.376 131.493 517.648 125.271 516.786 116.409C515.977 108.104 524.46 97.12 523.857 92.6294C523.048 86.5667 519.26 82.9848 515.705 83.8206C516.434 90.0823 510.916 95.5612 508.879 97.3455C508.594 94.8249 508.488 92.4304 509.038 91.714C509.868 90.6195 506.571 91.9727 504.488 92.9013L500.256 87.0377C497.437 85.5452 495.938 80.577 500.256 78.2621C503.858 76.3252 512.74 75.3501 515.154 81.5322C521.489 76.5308 531.067 76.4446 534.715 85.0079C539.02 95.1168 528.533 103.727 528.646 106.088C528.858 110.725 537.707 111.899 537.7 121.828Z" fill="#2E4969"/>
<path d="M499.819 81.6494C501.441 82.7481 507.779 88.3321 508.815 90.9061C509.023 90.471 509.346 90.1014 509.749 89.8377C510.504 89.4717 511.271 90.3022 510.864 91.4181C510.506 92.3985 509.443 93.6839 508.374 93.2806C506.065 97.3453 502.298 99.9172 499.474 99.1132C496.025 98.131 496.585 85.8285 499.819 81.6494Z" fill="#E0A8A4"/>
<path d="M410.617 162.738H444.379V102.142H410.617V162.738Z" fill="#A0A0A0"/>
<path d="M444.378 164.065H410.616C410.264 164.065 409.926 163.925 409.678 163.677C409.429 163.428 409.289 163.09 409.289 162.739V102.142C409.289 101.79 409.429 101.453 409.678 101.204C409.926 100.955 410.264 100.815 410.616 100.815H444.378C444.73 100.815 445.067 100.955 445.316 101.204C445.565 101.453 445.705 101.79 445.705 102.142V162.739C445.705 163.09 445.565 163.428 445.316 163.677C445.067 163.925 444.73 164.065 444.378 164.065ZM411.942 161.412H443.052V103.469H411.942V161.412Z" fill="#A0A0A0"/>
<path d="M374.14 162.738H418.461V102.142H374.14V162.738Z" fill="#929292"/>
<path d="M418.46 164.065H374.139C373.787 164.065 373.45 163.925 373.201 163.677C372.952 163.428 372.813 163.09 372.812 162.739V102.142C372.813 101.79 372.952 101.453 373.201 101.204C373.45 100.955 373.787 100.815 374.139 100.815H418.46C418.812 100.815 419.149 100.955 419.398 101.204C419.647 101.453 419.786 101.79 419.786 102.142V162.739C419.786 163.09 419.647 163.428 419.398 163.677C419.149 163.925 418.812 164.065 418.46 164.065ZM375.466 161.412H417.133V103.469H375.466V161.412Z" fill="#929292"/>
<path d="M430.164 131.938H437.266V100.748H430.164V131.938Z" fill="#EBEBEB"/>
<path d="M374.14 163.402C374.017 163.402 373.897 163.368 373.793 163.304C373.688 163.24 373.604 163.148 373.548 163.039C373.493 162.929 373.469 162.807 373.479 162.685C373.489 162.562 373.532 162.446 373.605 162.347L417.926 101.75C417.977 101.68 418.042 101.62 418.116 101.575C418.191 101.529 418.273 101.499 418.36 101.485C418.446 101.472 418.534 101.476 418.619 101.496C418.703 101.517 418.783 101.554 418.854 101.606C418.924 101.657 418.984 101.722 419.029 101.797C419.074 101.871 419.104 101.954 419.118 102.04C419.131 102.126 419.127 102.214 419.106 102.299C419.085 102.384 419.048 102.464 418.996 102.534L374.676 163.13C374.614 163.215 374.533 163.283 374.44 163.33C374.347 163.378 374.244 163.402 374.14 163.402Z" fill="#929292"/>
<path d="M418.462 163.402C418.358 163.402 418.255 163.378 418.162 163.331C418.069 163.283 417.988 163.215 417.926 163.131L373.606 102.534C373.554 102.464 373.517 102.384 373.496 102.299C373.475 102.215 373.471 102.127 373.484 102.04C373.497 101.954 373.528 101.871 373.573 101.797C373.618 101.722 373.678 101.657 373.748 101.606C373.819 101.554 373.898 101.517 373.983 101.496C374.068 101.476 374.156 101.472 374.242 101.485C374.328 101.499 374.411 101.529 374.486 101.575C374.56 101.62 374.625 101.68 374.676 101.75L418.997 162.347C419.069 162.446 419.113 162.563 419.123 162.685C419.133 162.807 419.109 162.929 419.054 163.039C418.998 163.148 418.914 163.24 418.809 163.304C418.705 163.368 418.585 163.402 418.462 163.402Z" fill="#929292"/>
<path d="M370.097 137.928C378.927 139.392 384.556 150.881 389.823 156.715C390.601 157.577 388.774 163.69 387.202 162.879C384.725 161.601 366.587 156.767 362.383 145.234C361.366 142.443 359.345 138.531 360.183 137.042C362.641 132.676 370.097 137.928 370.097 137.928Z" fill="#E0A8A4"/>
<path d="M372.923 138.765C370.24 135.097 366.465 121.869 362.994 118.49C360.125 115.698 347.218 120.841 348.224 124.711C349.995 131.526 358.453 142.489 362.643 145.898C363.968 146.977 373.952 140.172 372.923 138.765Z" fill="#E0A8A4"/>
<path d="M384.703 155.507C384.806 155.524 384.911 155.542 385.013 155.558C386.358 155.081 386.972 154.108 388.844 153.522C390.885 152.883 393.809 153.621 395.667 153.518C397.525 153.414 398.103 153.962 396.213 155.022C394.323 156.082 392.602 155.38 391.29 156.799C389.979 158.217 400.144 163.246 402.305 163.979C404.467 164.712 402.608 164.815 399.623 164.947C396.638 165.078 393.728 165.939 391.063 165.388C389.347 165.033 386.508 162.577 384.703 160.872V155.507Z" fill="#E0A8A4"/>
<path d="M381.518 94.1028C380.207 94.9939 378.652 95.4573 377.067 95.4294C373.353 95.4294 370.873 91.3627 369.996 88.8275C370.131 88.0532 370.18 87.2664 370.142 86.4813C370.189 84.9624 370.374 83.2046 370.321 81.9111C375.137 83.7883 381.445 82.7469 381.445 82.7469C381.233 86.53 381.257 90.3227 381.518 94.1028Z" fill="#CF9B99"/>
<path d="M381.424 88.0471C382.665 87.6556 382.478 82.7279 383 80.7476C383.482 78.9193 385.213 76.6247 384.5 72.2476C383.864 68.3403 381.226 65.5686 379.116 66.5473C378.617 66.7792 379.215 67.9419 379.705 68.6026C376.771 66.192 371.659 65.1282 369.794 67.4771C369.643 67.7106 369.55 67.9771 369.524 68.2542C369.497 68.5312 369.538 68.8105 369.643 69.0683C369.748 69.3261 369.913 69.5547 370.125 69.7348C370.337 69.9149 370.59 70.0412 370.861 70.1028C369.211 70.3459 366.778 71.9035 366.773 73.4838C366.771 74.1811 367.86 74.8418 368.678 74.8418C368.237 77.5622 368.48 80.3497 369.385 82.9527C370.708 86.1244 373.198 87.5223 374.248 87.2763C378.067 86.3823 378.413 88.9966 381.424 88.0471Z" fill="#2E4969"/>
<path d="M368.295 78.8433C369.568 78.637 369.243 81.6503 369.702 81.6976C370.54 81.7841 369.193 74.8432 372.193 73.8963C373.645 73.4379 374.594 75.7175 377.07 75.16C379.122 74.6982 380.833 73.2516 382.207 74.1813C383.5 75.7478 383 81.7478 383 81.2478C382.5 80.2478 383 78.7478 383 78.2478C383.254 78.7478 383 79.7478 383 81.2478C383.5 85.7478 383.252 93.0386 377.07 93.0386C370.889 93.0386 369.826 85.546 369.493 84.0517C367.989 84.1368 367.369 78.9933 368.295 78.8433Z" fill="#E0A8A4"/>
<line x1="152" y1="295.248" x2="671" y2="295.248" stroke="black"/>
<path d="M503.667 90.1689C503.43 90.9988 503.598 91.7748 504.044 91.9024C504.49 92.03 505.043 91.4604 505.281 90.6314C505.518 89.8024 505.35 89.0264 504.904 88.8988C504.459 88.7712 503.905 89.3399 503.667 90.1689Z" fill="#2D3F45"/>
<path d="M497.667 89.1689C497.43 89.9988 497.598 90.7748 498.044 90.9024C498.49 91.03 499.043 90.4604 499.281 89.6314C499.518 88.8024 499.35 88.0264 498.904 87.8988C498.459 87.7712 497.905 88.3399 497.667 89.1689Z" fill="#2D3F45"/>
<path d="M497.18 86.3024C497.122 86.2815 497.072 86.2391 497.04 86.1825C497.007 86.1259 496.994 86.0588 497.003 85.9928C497.011 85.9268 497.041 85.8661 497.086 85.8213C497.132 85.7765 497.19 85.7504 497.252 85.7476C497.814 85.7609 498.365 85.92 498.859 86.2116C498.92 86.2465 498.967 86.3065 498.988 86.3784C499.009 86.4504 499.003 86.5284 498.97 86.5954C498.938 86.6617 498.882 86.7115 498.816 86.7342C498.75 86.7568 498.678 86.7505 498.616 86.7167C498.202 86.4725 497.741 86.3355 497.269 86.3165C497.239 86.3176 497.209 86.3128 497.18 86.3024Z" fill="#2D3F45"/>
<path d="M504.18 87.3024C504.122 87.2815 504.072 87.2391 504.04 87.1825C504.007 87.1259 503.994 87.0588 504.003 86.9928C504.011 86.9268 504.041 86.8661 504.086 86.8213C504.132 86.7765 504.19 86.7504 504.252 86.7476C504.814 86.7609 505.365 86.92 505.859 87.2116C505.92 87.2465 505.967 87.3065 505.988 87.3784C506.009 87.4504 506.003 87.5284 505.97 87.5954C505.938 87.6617 505.882 87.7115 505.816 87.7342C505.75 87.7568 505.678 87.7505 505.616 87.7167C505.202 87.4725 504.741 87.3355 504.269 87.3165C504.239 87.3176 504.209 87.3128 504.18 87.3024Z" fill="#2D3F45"/>
<path d="M500.947 93.6984C500.996 93.6924 501.043 93.6723 501.079 93.6424C501.115 93.6124 501.137 93.5749 501.139 93.5378C501.142 93.5002 501.124 93.4663 501.091 93.4434C501.057 93.4205 501.011 93.4105 500.961 93.4157C500.913 93.4205 499.77 93.533 499.669 92.8512C499.568 92.1694 500.855 90.2999 501.359 89.6345C501.386 89.5994 501.394 89.5602 501.384 89.5254C501.373 89.4907 501.344 89.4633 501.302 89.449C501.26 89.435 501.21 89.4355 501.161 89.4505C501.113 89.4654 501.071 89.4935 501.044 89.5287C500.968 89.6303 499.161 92.0239 499.297 92.9351C499.372 93.2099 499.578 93.4372 499.879 93.5772C500.18 93.7171 500.557 93.7606 500.944 93.7002L500.947 93.6984Z" fill="#2D3F45"/>
<path d="M500.4 96.6795C501.281 96.8125 502.179 96.6 502.907 96.0864C502.944 96.0551 502.967 96.0114 502.973 95.9638C502.978 95.9162 502.966 95.8682 502.939 95.829C502.911 95.7899 502.87 95.7625 502.823 95.7521C502.776 95.7418 502.727 95.7492 502.685 95.773C502.339 96.0191 501.943 96.1876 501.525 96.267C501.108 96.3464 500.678 96.3348 500.265 96.233C500.218 96.2139 500.165 96.2142 500.118 96.2339C500.071 96.2536 500.034 96.2911 500.014 96.3381C499.995 96.3854 499.995 96.4382 500.015 96.4852C500.035 96.5322 500.072 96.5694 500.119 96.5889C500.21 96.6259 500.304 96.6562 500.4 96.6795Z" fill="#2D3F45"/>
<path d="M375.32 81.8846C375.393 82.7447 375.078 83.4726 374.616 83.5122C374.153 83.5518 373.719 82.8866 373.646 82.0275C373.572 81.1683 373.888 80.4395 374.35 80.3999C374.812 80.3603 375.245 81.0291 375.32 81.8846Z" fill="#2D3F45"/>
<path d="M372.844 79.8302C372.734 79.8404 372.624 79.8115 372.534 79.7485C372.443 79.6855 372.378 79.5926 372.349 79.4861C372.32 79.3796 372.33 79.2664 372.377 79.1665C372.424 79.0666 372.504 78.9864 372.604 78.94C373.535 78.5677 374.542 78.4236 375.54 78.5198C375.601 78.5244 375.661 78.5411 375.716 78.569C375.771 78.5968 375.82 78.6352 375.86 78.682C375.9 78.7288 375.93 78.783 375.949 78.8416C375.968 78.9002 375.976 78.9619 375.971 79.0233C375.959 79.1465 375.9 79.2603 375.806 79.3407C375.712 79.4212 375.591 79.4619 375.467 79.4543C374.63 79.3744 373.785 79.4893 372.999 79.7901C372.95 79.8128 372.898 79.8264 372.844 79.8302Z" fill="#2D3F45"/>
<path d="M380.375 82.0039C380.386 82.8666 380.771 83.5609 381.235 83.5551C381.699 83.5494 382.065 82.8456 382.054 81.9829C382.043 81.1202 381.658 80.4259 381.195 80.4319C380.732 80.438 380.364 81.1421 380.375 82.0039Z" fill="#2D3F45"/>
<path d="M382.63 79.7195C382.74 79.7179 382.846 79.6779 382.929 79.6065C383.012 79.535 383.067 79.4366 383.086 79.3284C383.104 79.2203 383.083 79.1092 383.028 79.0145C382.973 78.9198 382.886 78.8475 382.783 78.8102C381.82 78.5301 380.804 78.4848 379.82 78.6779C379.697 78.6997 379.589 78.7692 379.517 78.8711C379.446 78.973 379.418 79.099 379.44 79.2215C379.463 79.3431 379.533 79.4508 379.634 79.5218C379.736 79.5928 379.861 79.6215 379.983 79.6018C380.808 79.4388 381.66 79.4703 382.471 79.6939C382.523 79.7112 382.576 79.7199 382.63 79.7195Z" fill="#2D3F45"/>
<path d="M377.595 86.5836C377.548 86.5762 377.505 86.5517 377.475 86.5147C377.445 86.4777 377.43 86.4309 377.432 86.3833C377.435 86.3358 377.455 86.2908 377.488 86.257C377.522 86.2233 377.567 86.2031 377.614 86.2005C377.663 86.2018 378.84 86.2361 379.025 85.2966C379.21 84.357 378.09 81.9474 377.643 81.0952C377.628 81.0727 377.618 81.0473 377.614 81.0208C377.61 80.9942 377.611 80.967 377.618 80.941C377.624 80.9149 377.637 80.8906 377.653 80.8695C377.67 80.8484 377.691 80.8311 377.715 80.8186C377.739 80.8061 377.765 80.7988 377.792 80.797C377.819 80.7953 377.845 80.7991 377.871 80.8084C377.896 80.8177 377.919 80.8321 377.938 80.8509C377.958 80.8696 377.973 80.8921 377.983 80.9171C378.051 81.0464 379.65 84.1162 379.402 85.3706C379.292 85.7525 379.051 86.0835 378.721 86.3053C378.391 86.5272 377.994 86.6258 377.599 86.5839L377.595 86.5836Z" fill="#2D3F45"/>
<path d="M376.468 89.4092C375.588 89.2717 374.794 88.7995 374.254 88.0912C374.229 88.0504 374.22 88.0017 374.228 87.9546C374.237 87.9074 374.263 87.8652 374.301 87.8362C374.339 87.8072 374.387 87.7934 374.435 87.7976C374.482 87.8017 374.527 87.8235 374.56 87.8587C374.817 88.1975 375.143 88.4769 375.518 88.6779C375.893 88.879 376.306 88.9969 376.731 89.0238C376.781 89.0197 376.832 89.0358 376.871 89.0687C376.909 89.1016 376.934 89.1485 376.938 89.1993C376.942 89.25 376.926 89.3004 376.893 89.3393C376.86 89.3782 376.813 89.4025 376.763 89.4069C376.665 89.4149 376.566 89.4156 376.468 89.4092Z" fill="#2D3F45"/>
<path d="M412.25 35.5C411.409 35.5 410.588 35.2507 409.889 34.7838C409.19 34.3168 408.645 33.653 408.323 32.8764C408.002 32.0998 407.918 31.2453 408.082 30.4209C408.246 29.5964 408.65 28.8392 409.245 28.2448C409.839 27.6504 410.596 27.2457 411.421 27.0817C412.245 26.9177 413.1 27.0018 413.876 27.3235C414.653 27.6452 415.317 28.1899 415.784 28.8888C416.251 29.5877 416.5 30.4094 416.5 31.25C416.499 32.3768 416.051 33.457 415.254 34.2538C414.457 35.0506 413.377 35.4987 412.25 35.5ZM412.25 29C411.805 29 411.37 29.132 411 29.3792C410.63 29.6264 410.342 29.9778 410.171 30.389C410.001 30.8001 409.956 31.2525 410.043 31.689C410.13 32.1254 410.344 32.5263 410.659 32.841C410.974 33.1557 411.375 33.37 411.811 33.4568C412.247 33.5436 412.7 33.499 413.111 33.3287C413.522 33.1584 413.874 32.8701 414.121 32.5C414.368 32.13 414.5 31.695 414.5 31.25C414.499 30.6535 414.262 30.0816 413.84 29.6598C413.418 29.238 412.847 29.0007 412.25 29Z" fill="white"/>
<path d="M139.25 226.5C138.409 226.5 137.588 226.251 136.889 225.784C136.19 225.317 135.645 224.653 135.324 223.876C135.002 223.1 134.918 222.245 135.082 221.421C135.246 220.596 135.65 219.839 136.245 219.245C136.839 218.65 137.596 218.246 138.421 218.082C139.245 217.918 140.1 218.002 140.876 218.324C141.653 218.645 142.317 219.19 142.784 219.889C143.251 220.588 143.5 221.409 143.5 222.25C143.499 223.377 143.051 224.457 142.254 225.254C141.457 226.051 140.377 226.499 139.25 226.5ZM139.25 220C138.805 220 138.37 220.132 138 220.379C137.63 220.626 137.342 220.978 137.171 221.389C137.001 221.8 136.956 222.253 137.043 222.689C137.13 223.125 137.344 223.526 137.659 223.841C137.974 224.156 138.375 224.37 138.811 224.457C139.248 224.544 139.7 224.499 140.111 224.329C140.522 224.158 140.874 223.87 141.121 223.5C141.368 223.13 141.5 222.695 141.5 222.25C141.499 221.654 141.262 221.082 140.84 220.66C140.418 220.238 139.847 220.001 139.25 220Z" fill="white"/>
<path d="M155.25 31.5C154.409 31.5 153.588 31.2507 152.889 30.7838C152.19 30.3168 151.645 29.653 151.323 28.8764C151.002 28.0998 150.918 27.2453 151.082 26.4209C151.246 25.5964 151.65 24.8392 152.245 24.2448C152.839 23.6504 153.596 23.2457 154.421 23.0817C155.245 22.9177 156.1 23.0018 156.876 23.3235C157.653 23.6452 158.317 24.1899 158.784 24.8888C159.251 25.5877 159.5 26.4094 159.5 27.25C159.499 28.3768 159.051 29.4571 158.254 30.2538C157.457 31.0506 156.377 31.4988 155.25 31.5ZM155.25 25C154.805 25 154.37 25.132 154 25.3792C153.63 25.6264 153.342 25.9778 153.171 26.389C153.001 26.8001 152.956 27.2525 153.043 27.689C153.13 28.1254 153.344 28.5263 153.659 28.841C153.974 29.1557 154.375 29.3699 154.811 29.4568C155.247 29.5436 155.7 29.499 156.111 29.3287C156.522 29.1584 156.874 28.87 157.121 28.5C157.368 28.13 157.5 27.695 157.5 27.25C157.499 26.6535 157.262 26.0816 156.84 25.6598C156.418 25.238 155.847 25.0007 155.25 25Z" fill="white"/>
<path d="M39.7411 243C39.5683 243 39.401 242.939 39.268 242.828C39.135 242.717 39.0448 242.563 39.0128 242.392C38.9808 242.22 39.0092 242.044 39.093 241.891C39.1767 241.739 39.3106 241.621 39.4716 241.558C42.4699 240.38 45.1622 239.246 47.7029 238.09C47.882 238.009 48.0859 238.003 48.2697 238.073C48.4534 238.143 48.602 238.284 48.6828 238.464C48.7636 238.644 48.7699 238.85 48.7003 239.035C48.6308 239.22 48.4911 239.37 48.312 239.451C45.7482 240.617 43.0324 241.761 40.0098 242.949C39.9242 242.982 39.833 243 39.7411 243ZM56.0351 235.508C55.8705 235.508 55.7105 235.453 55.5804 235.351C55.4503 235.249 55.3575 235.107 55.3167 234.946C55.2758 234.786 55.2893 234.616 55.3548 234.464C55.4204 234.312 55.5344 234.186 55.6789 234.106C58.28 232.68 60.8045 231.116 63.2421 229.422C63.4034 229.31 63.6024 229.266 63.7954 229.302C63.9883 229.337 64.1595 229.448 64.2714 229.61C64.3832 229.773 64.4266 229.973 64.3921 230.168C64.3576 230.362 64.2479 230.535 64.0871 230.648C61.6064 232.373 59.0371 233.964 56.39 235.416C56.2812 235.476 56.1592 235.508 56.0351 235.508ZM70.6599 225.153C70.5109 225.153 70.3653 225.108 70.2423 225.023C70.1192 224.939 70.0242 224.819 69.9698 224.679C69.9155 224.539 69.9042 224.386 69.9375 224.24C69.9707 224.094 70.047 223.961 70.1564 223.859C72.322 221.848 74.3128 219.655 76.107 217.302C76.2264 217.145 76.4028 217.042 76.5976 217.016C76.7924 216.99 76.9895 217.043 77.1455 217.163C77.3016 217.283 77.4039 217.461 77.4299 217.657C77.4559 217.853 77.4034 218.052 77.2841 218.209C75.4384 220.629 73.3905 222.886 71.1627 224.954C71.026 225.082 70.8464 225.153 70.6599 225.153ZM81.4276 210.857C81.3014 210.857 81.1774 210.825 81.0672 210.763C80.957 210.7 80.8644 210.611 80.7981 210.503C80.7319 210.395 80.6941 210.271 80.6885 210.144C80.6829 210.017 80.7096 209.891 80.766 209.777C82.0675 207.099 83.2176 204.349 84.2107 201.54C84.2437 201.447 84.2947 201.362 84.3606 201.289C84.4264 201.217 84.506 201.158 84.5945 201.116C84.6831 201.075 84.779 201.051 84.8766 201.047C84.9743 201.043 85.0718 201.058 85.1635 201.092C85.2553 201.126 85.3394 201.178 85.4112 201.245C85.4829 201.312 85.5407 201.392 85.5814 201.482C85.6221 201.571 85.6448 201.668 85.6482 201.767C85.6516 201.865 85.6356 201.963 85.6012 202.055C84.5892 204.916 83.4171 207.717 82.0906 210.445C82.0292 210.569 81.9345 210.673 81.8174 210.746C81.7003 210.819 81.5653 210.858 81.4276 210.857ZM87.9194 194.042C87.8002 194.042 87.6828 194.013 87.5771 193.958C87.4714 193.902 87.3806 193.822 87.3123 193.723C87.244 193.625 87.2004 193.511 87.185 193.392C87.1696 193.273 87.1829 193.152 87.2238 193.039C88.2325 190.176 89.4006 187.374 90.7224 184.644C90.7658 184.556 90.826 184.478 90.8994 184.414C90.9728 184.349 91.0581 184.3 91.1504 184.269C91.2427 184.238 91.3401 184.226 91.4372 184.232C91.5342 184.239 91.629 184.265 91.7161 184.309C91.8031 184.353 91.8808 184.413 91.9446 184.487C92.0084 184.561 92.0572 184.647 92.0881 184.74C92.1189 184.833 92.1313 184.931 92.1245 185.029C92.1177 185.127 92.0919 185.222 92.0485 185.31C90.7511 187.99 89.6048 190.742 88.615 193.553C88.5628 193.696 88.4681 193.82 88.3437 193.908C88.2193 193.995 88.0712 194.042 87.9194 194.042ZM96.1815 178.124C96.041 178.124 95.9034 178.084 95.7848 178.008C95.6662 177.932 95.5715 177.824 95.5117 177.696C95.4518 177.568 95.4294 177.425 95.4469 177.285C95.4644 177.144 95.5212 177.012 95.6107 176.903C97.5607 174.532 99.8125 172.432 102.308 170.655C102.387 170.598 102.477 170.558 102.572 170.536C102.667 170.514 102.765 170.511 102.861 170.527C102.957 170.543 103.049 170.579 103.131 170.631C103.214 170.683 103.285 170.751 103.342 170.831C103.398 170.911 103.438 171.002 103.46 171.097C103.482 171.193 103.484 171.292 103.468 171.389C103.451 171.485 103.416 171.578 103.364 171.661C103.312 171.744 103.245 171.816 103.165 171.872C100.776 173.573 98.6202 175.584 96.753 177.853C96.6836 177.938 96.5963 178.006 96.4974 178.053C96.3986 178.1 96.2907 178.124 96.1815 178.124ZM110.606 167.742C110.433 167.742 110.266 167.681 110.133 167.57C110 167.459 109.91 167.305 109.878 167.134C109.846 166.963 109.874 166.786 109.957 166.634C110.041 166.481 110.175 166.363 110.336 166.3C113.176 165.18 116.14 164.41 119.163 164.006C119.358 163.981 119.555 164.034 119.71 164.154C119.866 164.275 119.968 164.452 119.994 164.649C120.019 164.845 119.967 165.043 119.847 165.2C119.728 165.357 119.552 165.46 119.357 165.486C116.452 165.874 113.604 166.614 110.875 167.69C110.79 167.724 110.698 167.742 110.606 167.742Z" fill="white"/>
<path d="M644.027 266C643.42 266 642.803 265.98 642.19 265.943C642.025 265.932 641.87 265.857 641.761 265.733C641.651 265.609 641.596 265.446 641.606 265.281C641.619 265.117 641.696 264.964 641.819 264.855C641.942 264.746 642.103 264.689 642.267 264.696C644.692 264.854 647.127 264.682 649.506 264.185C649.586 264.168 649.669 264.167 649.75 264.182C649.83 264.197 649.907 264.227 649.976 264.272C650.045 264.317 650.104 264.374 650.15 264.442C650.197 264.51 650.229 264.586 650.247 264.666C650.264 264.746 650.265 264.829 650.25 264.91C650.235 264.99 650.204 265.067 650.159 265.136C650.115 265.205 650.057 265.264 649.99 265.311C649.922 265.357 649.846 265.39 649.766 265.407C647.879 265.805 645.955 266.003 644.027 266ZM634.928 264.557C634.864 264.557 634.799 264.547 634.737 264.527C632.7 263.873 630.739 263.001 628.888 261.926C628.543 261.725 628.202 261.519 627.865 261.305C627.796 261.262 627.736 261.205 627.688 261.137C627.641 261.07 627.607 260.994 627.589 260.914C627.571 260.834 627.568 260.751 627.582 260.67C627.596 260.589 627.626 260.512 627.67 260.442C627.714 260.373 627.771 260.312 627.838 260.265C627.906 260.218 627.982 260.184 628.062 260.167C628.142 260.149 628.225 260.147 628.306 260.161C628.387 260.176 628.464 260.206 628.533 260.25C628.856 260.455 629.184 260.654 629.515 260.847C631.289 261.876 633.167 262.711 635.119 263.338C635.261 263.383 635.382 263.478 635.46 263.605C635.538 263.731 635.568 263.882 635.545 264.029C635.522 264.176 635.447 264.31 635.334 264.407C635.221 264.504 635.077 264.557 634.928 264.557ZM622.371 256.783C622.208 256.783 622.052 256.719 621.935 256.606C620.134 254.839 618.493 252.917 617.03 250.86C616.934 250.725 616.895 250.558 616.922 250.394C616.949 250.231 617.04 250.085 617.175 249.989C617.309 249.892 617.477 249.853 617.64 249.88C617.803 249.907 617.949 249.998 618.045 250.133C619.464 252.129 621.057 253.996 622.806 255.71C622.895 255.797 622.956 255.908 622.981 256.03C623.006 256.152 622.995 256.278 622.948 256.393C622.902 256.508 622.822 256.607 622.719 256.676C622.616 256.745 622.495 256.783 622.371 256.783ZM613.681 244.749C613.566 244.749 613.453 244.718 613.355 244.658C613.257 244.598 613.177 244.511 613.125 244.409C611.985 242.169 610.988 239.86 610.138 237.495C610.083 237.339 610.091 237.167 610.162 237.018C610.232 236.868 610.359 236.753 610.514 236.697C610.67 236.641 610.841 236.648 610.991 236.719C611.14 236.789 611.256 236.916 611.312 237.071C612.143 239.387 613.12 241.648 614.236 243.84C614.285 243.936 614.308 244.042 614.304 244.148C614.3 244.255 614.269 244.359 614.213 244.451C614.157 244.542 614.079 244.617 613.986 244.669C613.893 244.722 613.788 244.749 613.681 244.749ZM608.647 230.752C608.505 230.751 608.367 230.703 608.256 230.613C608.146 230.524 608.069 230.4 608.038 230.261C607.494 227.799 607.147 225.298 607.001 222.782C606.996 222.7 607.008 222.618 607.035 222.54C607.062 222.463 607.105 222.392 607.159 222.331C607.214 222.27 607.28 222.22 607.354 222.185C607.428 222.149 607.508 222.129 607.59 222.124C607.672 222.118 607.755 222.128 607.833 222.155C607.911 222.181 607.982 222.223 608.044 222.278C608.105 222.334 608.155 222.4 608.19 222.475C608.225 222.55 608.244 222.631 608.247 222.713C608.389 225.163 608.727 227.598 609.257 229.994C609.277 230.085 609.276 230.179 609.255 230.27C609.233 230.361 609.192 230.446 609.133 230.519C609.075 230.591 609.001 230.65 608.917 230.69C608.832 230.731 608.74 230.752 608.647 230.752ZM607.954 215.934C607.922 215.934 607.89 215.931 607.858 215.927C607.695 215.901 607.548 215.812 607.45 215.679C607.352 215.545 607.311 215.378 607.336 215.214C607.711 212.698 608.418 210.242 609.438 207.912C609.471 207.837 609.519 207.769 609.578 207.712C609.637 207.656 609.707 207.611 609.784 207.581C609.86 207.552 609.942 207.538 610.024 207.54C610.106 207.542 610.186 207.56 610.261 207.593C610.336 207.626 610.404 207.674 610.461 207.734C610.517 207.793 610.561 207.863 610.591 207.94C610.62 208.016 610.634 208.098 610.632 208.18C610.63 208.262 610.612 208.343 610.578 208.418C609.603 210.648 608.928 212.997 608.569 215.404C608.547 215.552 608.472 215.686 608.359 215.783C608.247 215.88 608.103 215.934 607.954 215.934ZM613.987 202.52C613.868 202.52 613.751 202.485 613.65 202.421C613.549 202.356 613.47 202.264 613.42 202.155C613.37 202.046 613.353 201.925 613.37 201.806C613.387 201.688 613.437 201.577 613.516 201.486C615.186 199.573 617.093 197.88 619.19 196.448C619.257 196.401 619.333 196.368 619.414 196.351C619.494 196.334 619.576 196.333 619.657 196.348C619.737 196.363 619.814 196.393 619.883 196.438C619.952 196.482 620.011 196.54 620.058 196.607C620.104 196.675 620.137 196.751 620.154 196.831C620.171 196.911 620.172 196.994 620.157 197.075C620.143 197.155 620.112 197.232 620.068 197.301C620.023 197.37 619.965 197.429 619.898 197.476C617.888 198.848 616.06 200.47 614.459 202.304C614.401 202.372 614.328 202.426 614.247 202.463C614.165 202.5 614.077 202.52 613.987 202.52H613.987ZM626.067 194.01C625.923 194.01 625.784 193.96 625.673 193.87C625.561 193.779 625.484 193.653 625.455 193.512C625.426 193.371 625.446 193.225 625.513 193.097C625.579 192.97 625.687 192.869 625.819 192.812C628.131 191.82 630.514 191.001 632.947 190.362C633.107 190.32 633.277 190.343 633.42 190.426C633.563 190.509 633.667 190.646 633.709 190.806C633.751 190.966 633.729 191.136 633.646 191.279C633.563 191.422 633.427 191.527 633.267 191.569C630.893 192.192 628.569 192.991 626.314 193.959C626.236 193.992 626.152 194.01 626.067 194.01ZM640.407 190.126C640.249 190.126 640.097 190.066 639.982 189.959C639.867 189.851 639.796 189.704 639.785 189.547C639.774 189.389 639.822 189.233 639.921 189.111C640.02 188.988 640.161 188.907 640.317 188.884C642.505 188.564 644.869 188.299 647.756 188.051C647.837 188.043 647.92 188.052 647.998 188.077C648.076 188.102 648.149 188.142 648.212 188.194C648.275 188.247 648.326 188.312 648.364 188.385C648.402 188.458 648.425 188.537 648.432 188.619C648.439 188.701 648.43 188.783 648.405 188.862C648.38 188.94 648.341 189.012 648.288 189.075C648.235 189.138 648.17 189.19 648.097 189.227C648.024 189.265 647.945 189.288 647.863 189.295C645.001 189.542 642.661 189.804 640.498 190.12C640.468 190.124 640.437 190.126 640.407 190.126ZM655.236 188.727C655.075 188.727 654.92 188.664 654.804 188.552C654.688 188.44 654.62 188.287 654.614 188.126C654.608 187.964 654.665 187.807 654.772 187.687C654.88 187.566 655.029 187.492 655.19 187.48C657.538 187.304 660.059 187.103 662.587 186.821C662.751 186.803 662.916 186.851 663.045 186.955C663.174 187.058 663.256 187.209 663.274 187.373C663.293 187.538 663.245 187.702 663.142 187.832C663.039 187.961 662.889 188.044 662.725 188.063C660.177 188.346 657.643 188.549 655.283 188.725C655.267 188.726 655.252 188.727 655.236 188.727ZM670.019 186.961C669.865 186.961 669.715 186.903 669.601 186.798C669.486 186.694 669.414 186.551 669.399 186.396C669.384 186.242 669.427 186.088 669.52 185.963C669.612 185.839 669.747 185.753 669.899 185.723C672.309 185.251 674.683 184.611 677.003 183.807C677.159 183.753 677.331 183.764 677.479 183.836C677.628 183.908 677.742 184.036 677.796 184.192C677.85 184.349 677.841 184.52 677.769 184.669C677.697 184.818 677.569 184.932 677.413 184.987C675.038 185.809 672.608 186.465 670.141 186.949C670.101 186.957 670.06 186.961 670.019 186.961ZM684.014 182.006C683.876 182.006 683.741 181.96 683.632 181.875C683.522 181.79 683.444 181.672 683.409 181.538C683.375 181.403 683.386 181.262 683.44 181.134C683.495 181.007 683.59 180.902 683.711 180.835C685.851 179.662 687.855 178.255 689.686 176.641C689.809 176.531 689.971 176.475 690.136 176.485C690.301 176.495 690.455 176.57 690.565 176.693C690.675 176.817 690.731 176.979 690.722 177.144C690.713 177.309 690.638 177.463 690.515 177.574C688.616 179.25 686.537 180.71 684.316 181.928C684.223 181.979 684.12 182.006 684.014 182.006ZM694.915 172.079C694.804 172.079 694.695 172.05 694.599 171.993C694.503 171.936 694.424 171.855 694.37 171.757C694.316 171.66 694.289 171.549 694.292 171.438C694.295 171.326 694.328 171.218 694.388 171.123C694.749 170.546 695.087 169.95 695.393 169.351C696.184 167.795 696.812 166.161 697.267 164.475C697.312 164.317 697.417 164.182 697.56 164.101C697.704 164.019 697.873 163.998 698.032 164.041C698.191 164.085 698.326 164.189 698.408 164.332C698.491 164.475 698.513 164.644 698.471 164.804C697.994 166.572 697.335 168.287 696.504 169.919C696.182 170.551 695.825 171.179 695.445 171.787C695.388 171.876 695.31 171.95 695.218 172.002C695.125 172.053 695.021 172.08 694.915 172.079ZM698.946 157.901C698.862 157.9 698.779 157.883 698.702 157.85C698.625 157.816 698.555 157.768 698.497 157.707C698.439 157.647 698.393 157.575 698.363 157.497C698.333 157.418 698.319 157.335 698.322 157.251C698.347 156.629 698.36 156.003 698.36 155.375C698.36 153.709 698.276 151.913 698.103 149.881C698.089 149.716 698.141 149.552 698.248 149.426C698.354 149.299 698.507 149.22 698.672 149.206C698.836 149.192 699 149.244 699.127 149.351C699.253 149.458 699.332 149.61 699.346 149.775C699.522 151.842 699.607 153.674 699.607 155.375C699.607 156.02 699.594 156.663 699.568 157.302C699.562 157.463 699.493 157.615 699.377 157.727C699.261 157.838 699.107 157.901 698.946 157.901ZM697.887 143.043C697.736 143.043 697.589 142.987 697.476 142.887C697.362 142.786 697.289 142.648 697.269 142.498L697.199 141.949C696.911 139.696 696.612 137.366 696.39 135.072C696.374 134.907 696.425 134.743 696.53 134.616C696.635 134.488 696.786 134.407 696.951 134.391C697.115 134.375 697.279 134.425 697.407 134.53C697.534 134.635 697.615 134.787 697.632 134.951C697.853 137.227 698.15 139.547 698.437 141.79L698.507 142.339C698.517 142.42 698.512 142.503 698.49 142.582C698.469 142.661 698.432 142.735 698.382 142.8C698.332 142.865 698.269 142.92 698.198 142.96C698.127 143.001 698.049 143.027 697.967 143.038C697.941 143.041 697.914 143.043 697.887 143.043ZM696.635 128.191C696.553 128.19 696.471 128.174 696.395 128.142C696.319 128.11 696.25 128.064 696.193 128.005C696.135 127.947 696.089 127.877 696.058 127.801C696.027 127.724 696.011 127.643 696.011 127.56C696.021 125.959 696.12 124.359 696.307 122.769C696.416 121.857 696.562 120.937 696.742 120.033C696.775 119.87 696.87 119.727 697.008 119.635C697.145 119.543 697.314 119.51 697.476 119.542C697.638 119.575 697.781 119.67 697.873 119.808C697.965 119.946 697.998 120.114 697.966 120.277C697.792 121.149 697.651 122.038 697.545 122.917C697.364 124.462 697.268 126.016 697.259 127.572C697.258 127.736 697.191 127.894 697.074 128.01C696.958 128.126 696.8 128.191 696.635 128.191H696.635ZM699.537 113.664C699.434 113.664 699.333 113.638 699.243 113.59C699.152 113.541 699.075 113.471 699.018 113.385C698.961 113.299 698.926 113.201 698.917 113.098C698.907 112.996 698.922 112.893 698.962 112.798C699.94 110.47 701.128 108.237 702.511 106.125C702.556 106.056 702.614 105.997 702.681 105.951C702.749 105.904 702.825 105.871 702.905 105.855C702.986 105.838 703.069 105.837 703.149 105.852C703.23 105.867 703.307 105.898 703.375 105.943C703.444 105.988 703.503 106.046 703.549 106.114C703.596 106.182 703.628 106.258 703.645 106.339C703.661 106.419 703.662 106.502 703.647 106.583C703.631 106.663 703.6 106.74 703.555 106.809C702.214 108.857 701.062 111.023 700.113 113.28C700.065 113.394 699.985 113.491 699.883 113.559C699.78 113.628 699.66 113.664 699.537 113.664ZM707.616 101.224C707.495 101.224 707.376 101.189 707.275 101.122C707.173 101.056 707.093 100.961 707.045 100.85C706.996 100.738 706.981 100.615 707.001 100.496C707.021 100.376 707.076 100.265 707.158 100.176C708.868 98.3265 710.721 96.6149 712.699 95.0567C712.829 94.9552 712.994 94.9094 713.158 94.9293C713.322 94.9493 713.471 95.0332 713.573 95.163C713.675 95.2927 713.721 95.4575 713.702 95.6215C713.683 95.7855 713.6 95.9353 713.471 96.0381C711.544 97.5555 709.74 99.2224 708.074 101.023C708.016 101.087 707.945 101.137 707.866 101.172C707.787 101.206 707.702 101.224 707.616 101.224ZM719.274 92.0314C719.136 92.0315 719.002 91.9858 718.892 91.9014C718.783 91.817 718.705 91.6987 718.67 91.5651C718.635 91.4314 718.645 91.2898 718.699 91.1627C718.753 91.0355 718.848 90.9298 718.968 90.8622C720.21 90.165 721.491 89.5191 722.776 88.9423C723.763 88.4995 724.784 88.0796 725.808 87.6941C725.885 87.6651 725.967 87.6516 726.049 87.6542C726.131 87.6568 726.211 87.6756 726.286 87.7095C726.361 87.7434 726.428 87.7917 726.484 87.8516C726.54 87.9115 726.584 87.9819 726.613 88.0588C726.641 88.1357 726.655 88.2175 726.652 88.2995C726.649 88.3816 726.63 88.4623 726.596 88.537C726.562 88.6117 726.514 88.679 726.454 88.735C726.394 88.791 726.324 88.8347 726.247 88.8634C725.246 89.24 724.25 89.6499 723.287 90.0823C722.035 90.6438 720.787 91.2726 719.578 91.9515C719.485 92.004 719.381 92.0315 719.274 92.0314ZM733.159 86.7698C733.005 86.7695 732.857 86.7128 732.743 86.6104C732.629 86.508 732.557 86.367 732.54 86.2145C732.522 86.062 732.562 85.9085 732.651 85.7834C732.74 85.6583 732.871 85.5703 733.021 85.5362C735.468 84.9818 737.947 84.5784 740.444 84.3285C740.526 84.3202 740.608 84.3281 740.687 84.3517C740.765 84.3754 740.838 84.4142 740.902 84.4661C740.965 84.518 741.018 84.5819 741.057 84.6541C741.095 84.7264 741.12 84.8056 741.128 84.8872C741.136 84.9688 741.128 85.0513 741.105 85.1298C741.081 85.2084 741.042 85.2815 740.99 85.3451C740.939 85.4086 740.875 85.4613 740.803 85.5002C740.73 85.5391 740.651 85.5633 740.57 85.5716C738.124 85.8163 735.695 86.2112 733.298 86.7542C733.252 86.7646 733.205 86.7698 733.159 86.7698ZM755.377 85.7176C755.353 85.7176 755.329 85.7163 755.306 85.7137C752.859 85.4342 750.4 85.2791 747.938 85.2492C747.773 85.2483 747.615 85.1816 747.498 85.0638C747.382 84.9461 747.317 84.7869 747.318 84.6212C747.319 84.4556 747.385 84.2971 747.503 84.1806C747.621 84.0641 747.78 83.9991 747.945 84C750.452 84.0303 752.956 84.1879 755.447 84.4724C755.605 84.4906 755.751 84.5686 755.853 84.6905C755.956 84.8124 756.008 84.9689 755.999 85.1281C755.99 85.2873 755.921 85.437 755.805 85.5466C755.689 85.6562 755.536 85.7173 755.377 85.7176Z" fill="white"/>
<path d="M667.498 255.965C667.392 255.926 667.298 255.857 667.23 255.765C666.051 254.084 665.089 252.257 664.369 250.329C662.744 246.04 662.562 241.87 663.842 238.271C664.684 235.905 666.416 233.975 668.659 232.904C670.901 231.833 673.471 231.709 675.804 232.558C678.137 233.408 680.042 235.162 681.102 237.436C682.161 239.71 682.289 242.318 681.456 244.687C680.176 248.287 677.411 251.382 673.459 253.64C671.689 254.662 669.798 255.449 667.832 255.984C667.721 256.011 667.605 256.004 667.498 255.965ZM675.422 233.679C673.38 232.936 671.131 233.045 669.167 233.98C667.203 234.916 665.684 236.603 664.943 238.672C662.393 245.843 666.862 253.127 667.939 254.728C669.67 254.208 671.339 253.492 672.912 252.592C675.485 251.118 678.864 248.48 680.355 244.286C680.717 243.261 680.877 242.173 680.826 241.086C680.774 239.998 680.511 238.931 680.053 237.946C679.595 236.961 678.951 236.077 678.156 235.345C677.361 234.613 676.432 234.047 675.422 233.679Z" fill="white"/>
<path d="M670.952 246.67C669.837 246.299 668.868 245.633 668.166 244.758C667.463 243.882 667.06 242.835 667.006 241.749C666.952 240.663 667.251 239.587 667.864 238.657C668.477 237.726 669.377 236.983 670.45 236.521C671.524 236.059 672.722 235.899 673.895 236.061C675.067 236.224 676.161 236.7 677.038 237.432C677.915 238.163 678.536 239.117 678.822 240.171C679.109 241.226 679.048 242.335 678.647 243.358C678.38 244.039 677.969 244.666 677.438 245.201C676.906 245.737 676.265 246.171 675.55 246.479C674.835 246.786 674.061 246.962 673.272 246.994C672.483 247.027 671.694 246.917 670.952 246.67ZM674.618 237.357C673.724 237.064 672.756 237.02 671.835 237.23C670.914 237.441 670.081 237.898 669.443 238.542C668.805 239.186 668.39 239.99 668.25 240.85C668.11 241.711 668.252 242.59 668.657 243.377C669.062 244.164 669.713 244.823 670.526 245.271C671.34 245.719 672.281 245.936 673.229 245.894C674.177 245.852 675.09 245.554 675.853 245.036C676.616 244.518 677.195 243.805 677.515 242.986C677.94 241.887 677.874 240.679 677.331 239.625C676.788 238.57 675.813 237.755 674.618 237.357Z" fill="white"/>
</svg>
