<svg width="16" height="16" viewBox="0 0 16 16" fill="none" xmlns="http://www.w3.org/2000/svg">
<path d="M7.99998 0C3.58175 0 0 3.58175 0 8.00002C0 12.4182 3.58175 16 7.99998 16C12.4182 16 16 12.4182 16 8.00002C16 3.58175 12.4182 0 7.99998 0ZM10.9167 9.06668H9.06668V10.9167C9.06668 11.5057 8.58905 11.9834 8.00002 11.9834C7.41095 11.9834 6.93336 11.5057 6.93336 10.9167V9.06668H5.08341C4.49434 9.06668 4.01671 8.58908 4.01671 8.00002C4.01671 7.41092 4.49434 6.93333 5.08341 6.93333H6.93336V5.08337C6.93336 4.49427 7.41099 4.01668 8.00002 4.01668C8.58908 4.01668 9.06668 4.49431 9.06668 5.08337V6.93333H10.9167C11.5057 6.93333 11.9833 7.41092 11.9833 8.00002C11.9833 8.58908 11.5057 9.06668 10.9167 9.06668Z" fill="#063453"/>
</svg>
