<svg width="16" height="16" viewBox="0 0 16 16" fill="none" xmlns="http://www.w3.org/2000/svg">
<path d="M12.212 7.1579H5.2646V4C5.2646 2.49091 6.49234 1.26316 8.00144 1.26316C9.51053 1.26316 10.7383 2.49091 10.7383 4V5.26316C10.7383 5.61196 11.0211 5.89474 11.3699 5.89474C11.7187 5.89474 12.0014 5.61196 12.0014 5.26316V4C12.0014 1.7944 10.207 0 8.00144 0C5.79584 0 4.00144 1.7944 4.00144 4V7.1579H3.79091C3.20957 7.1579 2.73828 7.62918 2.73828 8.21053V14.9474C2.73828 15.5287 3.20957 16 3.79091 16H12.212C12.7933 16 13.2646 15.5287 13.2646 14.9474V8.21053C13.2646 7.62918 12.7933 7.1579 12.212 7.1579ZM6.73828 10.7368C6.73828 10.0392 7.3038 9.47368 8.00144 9.47368C8.69904 9.47368 9.2646 10.0392 9.2646 10.7368C9.2646 11.2043 9.01049 11.6122 8.63302 11.8306V13.6842H7.36986V11.8306C6.99239 11.6122 6.73828 11.2043 6.73828 10.7368Z" fill="#77CCF9"/>
</svg>
