<svg width="16" height="16" viewBox="0 0 16 16" fill="none" xmlns="http://www.w3.org/2000/svg">
<g clip-path="url(#clip0)">
<path d="M13.6905 9.0957H12.4531C12.5792 9.41032 12.6482 9.74985 12.6482 10.1037V14.7855H16.0001V11.2001C16.0002 10.0397 14.9641 9.0957 13.6905 9.0957Z" fill="#063453"/>
<path d="M3.35204 10.1037C3.35204 9.74982 3.42094 9.41032 3.54707 9.0957H2.30969C1.03613 9.0957 0 10.0397 0 11.2001V14.7855H3.35204V10.1037Z" fill="#063453"/>
<path d="M9.41585 8H6.58703C5.31347 8 4.27734 8.94402 4.27734 10.1044V14.7861H11.7255V10.1044C11.7255 8.94402 10.6894 8 9.41585 8Z" fill="#063453"/>
<path d="M8.00035 1.21289C6.46872 1.21289 5.22266 2.45896 5.22266 3.99061C5.22266 5.02952 5.79606 5.93687 6.64288 6.41325C7.04453 6.63918 7.50759 6.76831 8.00035 6.76831C8.4931 6.76831 8.95616 6.63918 9.35781 6.41325C10.2047 5.93687 10.778 5.02949 10.778 3.99061C10.778 2.45899 9.53197 1.21289 8.00035 1.21289Z" fill="#063453"/>
<path d="M3.12422 3.80273C1.97875 3.80273 1.04688 4.73461 1.04688 5.88008C1.04688 7.02555 1.97875 7.95743 3.12422 7.95743C3.41479 7.95743 3.69147 7.89724 3.94282 7.78905C4.37738 7.60196 4.7357 7.27077 4.95741 6.85593C5.11304 6.56477 5.20157 6.23261 5.20157 5.88008C5.20157 4.73464 4.26969 3.80273 3.12422 3.80273Z" fill="#063453"/>
<path d="M12.8742 3.80273C11.7288 3.80273 10.7969 4.73461 10.7969 5.88008C10.7969 6.23265 10.8854 6.5648 11.041 6.85593C11.2628 7.2708 11.6211 7.60199 12.0556 7.78905C12.307 7.89724 12.5837 7.95743 12.8742 7.95743C14.0197 7.95743 14.9516 7.02555 14.9516 5.88008C14.9516 4.73461 14.0197 3.80273 12.8742 3.80273Z" fill="#063453"/>
</g>
<defs>
<clipPath id="clip0">
<rect width="16" height="16" fill="white"/>
</clipPath>
</defs>
</svg>
