<svg width="16" height="16" viewBox="0 0 16 16" fill="none" xmlns="http://www.w3.org/2000/svg">
<path d="M14 5.9987V13.994C14.0006 14.0816 13.984 14.1684 13.951 14.2495C13.9181 14.3306 13.8695 14.4045 13.808 14.4668C13.7466 14.5291 13.6734 14.5788 13.5928 14.6128C13.5121 14.6469 13.4255 14.6648 13.338 14.6654H2.662C2.48654 14.6654 2.31826 14.5957 2.19413 14.4717C2.07 14.3477 2.00018 14.1795 2 14.004V1.99336C2 1.63536 2.298 1.33203 2.66533 1.33203H9.33333V5.33203C9.33333 5.50884 9.40357 5.67841 9.52859 5.80344C9.65362 5.92846 9.82319 5.9987 10 5.9987H14ZM14 4.66536H10.6667V1.33403L14 4.66536Z" fill="#77CCF9"/>
</svg>
