<svg width="14" height="16" viewBox="0 0 14 16" fill="none" xmlns="http://www.w3.org/2000/svg">
<path d="M6.0013 9.33268V14.666H0.667969C0.667969 13.2515 1.22987 11.895 2.23007 10.8948C3.23026 9.89458 4.58681 9.33268 6.0013 9.33268ZM6.0013 8.66602C3.7913 8.66602 2.0013 6.87602 2.0013 4.66602C2.0013 2.45602 3.7913 0.666016 6.0013 0.666016C8.2113 0.666016 10.0013 2.45602 10.0013 4.66602C10.0013 6.87602 8.2113 8.66602 6.0013 8.66602ZM12.2986 13.354L13.3013 14.3567L12.3586 15.2993L11.356 14.2967C10.7969 14.6263 10.1367 14.7408 9.49928 14.6185C8.86184 14.4963 8.29086 14.1457 7.89339 13.6326C7.49591 13.1195 7.29922 12.479 7.34019 11.8313C7.38116 11.1835 7.65697 10.5729 8.11592 10.114C8.57488 9.65502 9.18546 9.37921 9.83323 9.33824C10.481 9.29727 11.1215 9.49396 11.6346 9.89143C12.1477 10.2889 12.4982 10.8599 12.6205 11.4973C12.7427 12.1348 12.6283 12.7949 12.2986 13.354ZM10.0013 13.3327C10.3549 13.3327 10.6941 13.1922 10.9441 12.9422C11.1942 12.6921 11.3346 12.353 11.3346 11.9993C11.3346 11.6457 11.1942 11.3066 10.9441 11.0565C10.6941 10.8065 10.3549 10.666 10.0013 10.666C9.64768 10.666 9.30854 10.8065 9.05849 11.0565C8.80844 11.3066 8.66797 11.6457 8.66797 11.9993C8.66797 12.353 8.80844 12.6921 9.05849 12.9422C9.30854 13.1922 9.64768 13.3327 10.0013 13.3327Z" fill="#063453"/>
</svg>
