<svg width="16" height="16" viewBox="0 0 16 16" fill="none" xmlns="http://www.w3.org/2000/svg">
<g clip-path="url(#clip0)">
<path d="M5.16536 12.666H1.83203C1.55603 12.666 1.33203 12.442 1.33203 12.166C1.33203 11.89 1.55603 11.666 1.83203 11.666H5.16536C5.44136 11.666 5.66536 11.89 5.66536 12.166C5.66536 12.442 5.44136 12.666 5.16536 12.666Z" fill="#77CCF9"/>
<path d="M14.385 12.6667H5.38499C5.13432 12.6667 4.92299 12.4813 4.88966 12.2327L3.33632 0.566C3.31766 0.423333 3.36032 0.278667 3.45566 0.170667C3.55099 0.0626667 3.68766 0 3.83166 0H12.8317C13.0823 0 13.2937 0.185333 13.327 0.434L14.8803 12.1007C14.899 12.2433 14.8563 12.388 14.761 12.496C14.6657 12.604 14.529 12.6667 14.385 12.6667Z" fill="#77CCF9"/>
<path d="M5.38725 13.3334C5.26325 13.3334 5.14458 13.3101 5.03125 13.2734L5.33858 15.5668C5.37192 15.8181 5.58658 16.0001 5.83325 16.0001C5.85525 16.0001 5.87725 15.9988 5.90058 15.9954C6.17392 15.9588 6.36659 15.7074 6.32992 15.4334L6.04792 13.3334H5.38725Z" fill="#77CCF9"/>
<path d="M14.3871 13.3327H14.0391L14.3384 15.566C14.3717 15.8173 14.5864 15.9993 14.8331 15.9993C14.8551 15.9993 14.8771 15.998 14.9004 15.9947C15.1737 15.958 15.3664 15.7067 15.3297 15.4327L15.0224 13.1387C14.8337 13.2613 14.6157 13.3327 14.3871 13.3327Z" fill="#77CCF9"/>
<path d="M2.94436 2.65039L0.675692 15.4117C0.627692 15.6837 0.808359 15.9431 1.08036 15.9917C1.10969 15.9964 1.13903 15.9991 1.16836 15.9991C1.40569 15.9991 1.61703 15.8291 1.65969 15.5864L3.37903 5.91706L2.94436 2.65039Z" fill="#77CCF9"/>
</g>
<defs>
<clipPath id="clip0">
<rect width="16" height="16" fill="white"/>
</clipPath>
</defs>
</svg>
