<svg width="16" height="16" viewBox="0 0 16 16" fill="none" xmlns="http://www.w3.org/2000/svg">
<path d="M16 4.71875H0V0.96875H16V4.71875Z" fill="#77CCF9"/>
<path d="M10.3438 8C10.3438 8.25844 10.1334 8.46875 9.875 8.46875H6.125C5.86656 8.46875 5.65625 8.25844 5.65625 8C5.65625 7.74156 5.86656 7.53125 6.125 7.53125H9.875C10.1334 7.53125 10.3438 7.74156 10.3438 8Z" fill="#77CCF9"/>
<path d="M0.96875 5.65625V15.0312H15.0312V5.65625H0.96875ZM9.875 9.40625H6.125C5.34969 9.40625 4.71875 8.77531 4.71875 8C4.71875 7.22469 5.34969 6.59375 6.125 6.59375H9.875C10.6503 6.59375 11.2812 7.22469 11.2812 8C11.2812 8.77531 10.6503 9.40625 9.875 9.40625Z" fill="#77CCF9"/>
</svg>
