<svg width="171" height="38" viewBox="0 0 171 38" fill="none" xmlns="http://www.w3.org/2000/svg">
<path d="M0.0028125 12V0.799999H1.92281V5.68H4.80281V0.799999H6.72281V12H4.80281V6.96H1.92281V12H0.0028125ZM10.9559 12.16C10.1879 12.16 9.57994 11.9733 9.13194 11.6C8.6946 11.2267 8.47594 10.56 8.47594 9.6C8.47594 8.62933 8.70527 7.96267 9.16394 7.6C9.6226 7.22667 10.2733 7.04 11.1159 7.04C11.4893 7.04 11.9426 7.09333 12.4759 7.2V6.56C12.4759 5.952 12.3373 5.536 12.0599 5.312C11.7826 5.07733 11.3613 4.96 10.7959 4.96H9.19594V4.16C9.45194 4.07467 9.76127 4 10.1239 3.936C10.4866 3.872 10.8173 3.84 11.1159 3.84C11.8839 3.84 12.5026 3.91467 12.9719 4.064C13.4413 4.21333 13.7933 4.48533 14.0279 4.88C14.2733 5.27467 14.3959 5.83467 14.3959 6.56V12H13.0359L12.7959 11.52H12.7159C12.2679 11.9467 11.6813 12.16 10.9559 12.16ZM11.5959 11.04C11.7879 11.04 11.9586 11.008 12.1079 10.944C12.2679 10.88 12.3906 10.8053 12.4759 10.72V8.16H11.5959C11.2653 8.16 10.9826 8.272 10.7479 8.496C10.5133 8.72 10.3959 9.088 10.3959 9.6C10.3959 10.112 10.5133 10.48 10.7479 10.704C10.9826 10.928 11.2653 11.04 11.5959 11.04ZM16.6297 12.16C16.395 12.16 16.1764 12.1387 15.9737 12.096C15.771 12.0533 15.643 12.0213 15.5897 12V11.2C15.8564 11.2 16.0697 11.1413 16.2297 11.024C16.4004 10.896 16.507 10.7413 16.5497 10.56L16.8697 9.28C17.083 8.448 17.5417 7.952 18.2457 7.792V7.728C17.9897 7.664 17.7604 7.52533 17.5577 7.312C17.3657 7.088 17.1897 6.75733 17.0297 6.32L16.6297 5.28C16.5017 4.96 16.2084 4.8 15.7497 4.8V4C15.803 3.97867 15.931 3.94667 16.1337 3.904C16.3364 3.86133 16.555 3.84 16.7897 3.84C17.2484 3.84 17.611 3.94667 17.8777 4.16C18.155 4.37333 18.379 4.69333 18.5497 5.12L19.0297 6.32C19.1684 6.66133 19.291 6.896 19.3977 7.024C19.5044 7.14133 19.6217 7.2 19.7497 7.2H19.8297V4H21.7497V7.2H21.8297C21.9577 7.2 22.075 7.14133 22.1817 7.024C22.2884 6.896 22.411 6.66133 22.5497 6.32L23.0297 5.12C23.2004 4.69333 23.419 4.37333 23.6857 4.16C23.963 3.94667 24.331 3.84 24.7897 3.84C25.0244 3.84 25.243 3.86133 25.4457 3.904C25.6484 3.94667 25.7764 3.97867 25.8297 4V4.8C25.371 4.8 25.0777 4.96 24.9497 5.28L24.5497 6.32C24.3897 6.75733 24.2084 7.088 24.0057 7.312C23.8137 7.52533 23.5897 7.664 23.3337 7.728V7.792C24.0377 7.952 24.4964 8.448 24.7097 9.28L25.0297 10.56C25.0724 10.7413 25.1737 10.896 25.3337 11.024C25.5044 11.1413 25.723 11.2 25.9897 11.2V12C25.9364 12.0213 25.8084 12.0533 25.6057 12.096C25.403 12.1387 25.1844 12.16 24.9497 12.16C24.4484 12.16 24.043 12.0373 23.7337 11.792C23.4244 11.5467 23.2164 11.216 23.1097 10.8L22.7097 9.28C22.635 9.00267 22.5177 8.78933 22.3577 8.64C22.2084 8.48 22.0324 8.4 21.8297 8.4H21.7497V12H19.8297V8.4H19.7497C19.547 8.4 19.3657 8.48 19.2057 8.64C19.0564 8.78933 18.9444 9.00267 18.8697 9.28L18.4697 10.8C18.363 11.216 18.155 11.5467 17.8457 11.792C17.5364 12.0373 17.131 12.16 16.6297 12.16ZM26.9484 12L27.5084 4H29.5884L31.3964 8.88H31.4604L33.2684 4H35.3484L35.9084 12H34.0684L33.7164 6.96H33.6524L32.2284 10.8H30.6284L29.2044 6.96H29.1404L28.7884 12H26.9484ZM37.7509 12V4H39.5909V8.88H39.6709L41.7509 4H43.8309V12H41.9909V6.96H41.9109L39.6709 12H37.7509ZM47.0272 12V5.2H45.0272V4H50.9472V5.2H48.9472V12H47.0272ZM55.1853 12.16C54.3426 12.16 53.66 12.0267 53.1373 11.76C52.6146 11.4827 52.2253 11.04 51.9693 10.432C51.7133 9.824 51.5853 9.01333 51.5853 8C51.5853 6.528 51.8413 5.46667 52.3533 4.816C52.8653 4.16533 53.6226 3.84 54.6253 3.84C55.628 3.84 56.3853 4.16533 56.8973 4.816C57.4093 5.46667 57.6653 6.528 57.6653 8V8.56H53.5053C53.5053 9.456 53.6653 10.096 53.9853 10.48C54.3053 10.8533 54.812 11.04 55.5053 11.04H57.2653V11.84C56.9986 11.9253 56.6786 12 56.3053 12.064C55.932 12.128 55.5586 12.16 55.1853 12.16ZM55.7453 7.44C55.7453 6.46933 55.6493 5.80267 55.4573 5.44C55.2653 5.06667 54.988 4.88 54.6253 4.88C54.2626 4.88 53.9853 5.06667 53.7933 5.44C53.6013 5.80267 53.5053 6.46933 53.5053 7.44H55.7453ZM58.9447 13.92V10.24H60.8647L60.2247 13.92H58.9447ZM70.1497 9.12C69.6164 9.22667 69.083 9.28 68.5497 9.28C67.7817 9.28 67.1737 9.09867 66.7257 8.736C66.2884 8.37333 66.0697 7.728 66.0697 6.8V4H67.9897V6.8C67.9897 7.28 68.1124 7.62667 68.3577 7.84C68.6137 8.05333 68.9444 8.16 69.3497 8.16H70.1497V4H72.0697V12H70.1497V9.12ZM75.2772 12V5.2H73.2772V4H79.1972V5.2H77.1972V12H75.2772ZM83.0353 12.16C81.958 12.16 81.1526 11.84 80.6193 11.2C80.0966 10.5493 79.8353 9.48267 79.8353 8C79.8353 6.51733 80.0966 5.456 80.6193 4.816C81.1526 4.16533 81.958 3.84 83.0353 3.84C84.1126 3.84 84.9126 4.16533 85.4353 4.816C85.9686 5.456 86.2353 6.51733 86.2353 8C86.2353 9.48267 85.9686 10.5493 85.4353 11.2C84.9126 11.84 84.1126 12.16 83.0353 12.16ZM83.0353 11.12C83.4406 11.12 83.7553 10.8907 83.9793 10.432C84.2033 9.96267 84.3153 9.152 84.3153 8C84.3153 6.848 84.2033 6.04267 83.9793 5.584C83.7553 5.11467 83.4406 4.88 83.0353 4.88C82.63 4.88 82.3153 5.11467 82.0913 5.584C81.8673 6.04267 81.7553 6.848 81.7553 8C81.7553 9.152 81.8673 9.96267 82.0913 10.432C82.3153 10.8907 82.63 11.12 83.0353 11.12ZM90.8828 12.16C89.8161 12.16 89.0161 11.8507 88.4828 11.232C87.9495 10.6027 87.6828 9.60533 87.6828 8.24V5.6C87.6828 4.39467 87.8161 3.45067 88.0828 2.768C88.3601 2.07467 88.8028 1.57333 89.4108 1.264C90.0188 0.944 90.8561 0.762666 91.9228 0.719999L93.8428 0.639999L93.9228 1.44C93.2615 1.71733 92.5148 1.904 91.6828 2C90.9361 2.08533 90.4028 2.32533 90.0828 2.72C89.7628 3.11467 89.6028 3.78133 89.6028 4.72C89.9548 4.45333 90.4348 4.32 91.0428 4.32C92.0348 4.32 92.7868 4.63467 93.2988 5.264C93.8215 5.88267 94.0828 6.87467 94.0828 8.24C94.0828 9.60533 93.8161 10.6027 93.2828 11.232C92.7495 11.8507 91.9495 12.16 90.8828 12.16ZM90.8828 11.12C91.2561 11.12 91.5601 10.9013 91.7948 10.464C92.0401 10.016 92.1628 9.27467 92.1628 8.24C92.1628 7.216 92.0241 6.496 91.7468 6.08C91.4695 5.65333 91.0748 5.44 90.5628 5.44C90.1361 5.44 89.8161 5.54667 89.6028 5.76V8.24C89.6028 9.27467 89.7201 10.016 89.9548 10.464C90.2001 10.9013 90.5095 11.12 90.8828 11.12ZM98.6447 12.16C98.0367 12.16 97.514 12.1333 97.0767 12.08C96.65 12.0373 96.2394 11.9573 95.8447 11.84V4H97.7647V7.04C98.298 6.93333 98.7514 6.88 99.1247 6.88C99.978 6.88 100.629 7.072 101.077 7.456C101.535 7.82933 101.765 8.51733 101.765 9.52C101.765 10.224 101.647 10.768 101.413 11.152C101.178 11.536 100.837 11.8027 100.389 11.952C99.9407 12.0907 99.3594 12.16 98.6447 12.16ZM102.645 12V4H104.565V12H102.645ZM98.6447 11.04C98.9754 11.04 99.258 10.9227 99.4927 10.688C99.7274 10.4533 99.8447 10.064 99.8447 9.52C99.8447 9.008 99.7274 8.64 99.4927 8.416C99.258 8.192 98.9754 8.08 98.6447 8.08H97.7647V11.04H98.6447ZM109.762 10.8H110.482C110.908 10.2667 111.148 9.54667 111.202 8.64L111.442 4H116.722V10.8H117.682V14.32H116.482C116.13 13.712 115.916 12.9387 115.842 12H111.602C111.527 12.9387 111.314 13.712 110.962 14.32H109.762V10.8ZM114.802 10.8V5.2H113.298L113.122 8.64C113.068 9.54667 112.828 10.2667 112.402 10.8H114.802ZM121.926 12.16C120.849 12.16 120.043 11.84 119.51 11.2C118.987 10.5493 118.726 9.48267 118.726 8C118.726 6.51733 118.987 5.456 119.51 4.816C120.043 4.16533 120.849 3.84 121.926 3.84C123.003 3.84 123.803 4.16533 124.326 4.816C124.859 5.456 125.126 6.51733 125.126 8C125.126 9.48267 124.859 10.5493 124.326 11.2C123.803 11.84 123.003 12.16 121.926 12.16ZM121.926 11.12C122.331 11.12 122.646 10.8907 122.87 10.432C123.094 9.96267 123.206 9.152 123.206 8C123.206 6.848 123.094 6.04267 122.87 5.584C122.646 5.11467 122.331 4.88 121.926 4.88C121.521 4.88 121.206 5.11467 120.982 5.584C120.758 6.04267 120.646 6.848 120.646 8C120.646 9.152 120.758 9.96267 120.982 10.432C121.206 10.8907 121.521 11.12 121.926 11.12ZM129.773 12.16C128.707 12.16 127.907 11.8507 127.373 11.232C126.84 10.6027 126.573 9.60533 126.573 8.24V5.6C126.573 4.39467 126.707 3.45067 126.973 2.768C127.251 2.07467 127.693 1.57333 128.301 1.264C128.909 0.944 129.747 0.762666 130.813 0.719999L132.733 0.639999L132.813 1.44C132.152 1.71733 131.405 1.904 130.573 2C129.827 2.08533 129.293 2.32533 128.973 2.72C128.653 3.11467 128.493 3.78133 128.493 4.72C128.845 4.45333 129.325 4.32 129.933 4.32C130.925 4.32 131.677 4.63467 132.189 5.264C132.712 5.88267 132.973 6.87467 132.973 8.24C132.973 9.60533 132.707 10.6027 132.173 11.232C131.64 11.8507 130.84 12.16 129.773 12.16ZM129.773 11.12C130.147 11.12 130.451 10.9013 130.685 10.464C130.931 10.016 131.053 9.27467 131.053 8.24C131.053 7.216 130.915 6.496 130.637 6.08C130.36 5.65333 129.965 5.44 129.453 5.44C129.027 5.44 128.707 5.54667 128.493 5.76V8.24C128.493 9.27467 128.611 10.016 128.845 10.464C129.091 10.9013 129.4 11.12 129.773 11.12ZM136.815 12.16C136.047 12.16 135.439 11.9733 134.991 11.6C134.554 11.2267 134.335 10.56 134.335 9.6C134.335 8.62933 134.565 7.96267 135.023 7.6C135.482 7.22667 136.133 7.04 136.975 7.04C137.349 7.04 137.802 7.09333 138.335 7.2V6.56C138.335 5.952 138.197 5.536 137.919 5.312C137.642 5.07733 137.221 4.96 136.655 4.96H135.055V4.16C135.311 4.07467 135.621 4 135.983 3.936C136.346 3.872 136.677 3.84 136.975 3.84C137.743 3.84 138.362 3.91467 138.831 4.064C139.301 4.21333 139.653 4.48533 139.887 4.88C140.133 5.27467 140.255 5.83467 140.255 6.56V12H138.895L138.655 11.52H138.575C138.127 11.9467 137.541 12.16 136.815 12.16ZM137.455 11.04C137.647 11.04 137.818 11.008 137.967 10.944C138.127 10.88 138.25 10.8053 138.335 10.72V8.16H137.455C137.125 8.16 136.842 8.272 136.607 8.496C136.373 8.72 136.255 9.088 136.255 9.6C136.255 10.112 136.373 10.48 136.607 10.704C136.842 10.928 137.125 11.04 137.455 11.04ZM145.209 12.16C144.558 12.16 144.014 12.1333 143.577 12.08C143.14 12.0373 142.724 11.9573 142.329 11.84V4.16C142.724 4.04267 143.129 3.96267 143.545 3.92C143.972 3.86667 144.473 3.84 145.049 3.84C146.148 3.84 146.953 4.00533 147.465 4.336C147.988 4.656 148.249 5.23733 148.249 6.08C148.249 6.53867 148.126 6.896 147.881 7.152C147.636 7.39733 147.332 7.58933 146.969 7.728V7.792C147.406 7.92 147.78 8.144 148.089 8.464C148.409 8.784 148.569 9.216 148.569 9.76C148.569 10.3893 148.446 10.88 148.201 11.232C147.956 11.5733 147.593 11.8133 147.113 11.952C146.633 12.0907 145.998 12.16 145.209 12.16ZM145.049 7.28C145.39 7.28 145.673 7.18933 145.897 7.008C146.132 6.816 146.249 6.53333 146.249 6.16C146.249 5.75467 146.126 5.456 145.881 5.264C145.646 5.06133 145.369 4.96 145.049 4.96H144.249V7.28H145.049ZM145.209 11.04C145.614 11.04 145.94 10.9333 146.185 10.72C146.441 10.5067 146.569 10.16 146.569 9.68C146.569 9.232 146.441 8.90667 146.185 8.704C145.94 8.50133 145.614 8.4 145.209 8.4H144.249V11.04H145.209ZM150.173 12V4H152.013V8.88H152.093L154.173 4H156.253V12H154.413V6.96H154.333L152.093 12H150.173ZM159.449 12V5.2H157.449V4H163.369V5.2H161.369V12H159.449ZM167.363 12.16C166.755 12.16 166.233 12.1333 165.795 12.08C165.369 12.0373 164.958 11.9573 164.563 11.84V4H166.483V7.04C167.017 6.93333 167.47 6.88 167.843 6.88C168.729 6.88 169.401 7.06667 169.859 7.44C170.329 7.81333 170.563 8.50667 170.563 9.52C170.563 10.224 170.441 10.768 170.195 11.152C169.961 11.536 169.614 11.8027 169.155 11.952C168.707 12.0907 168.11 12.16 167.363 12.16ZM167.363 11.04C167.737 11.04 168.041 10.928 168.275 10.704C168.521 10.4693 168.643 10.0747 168.643 9.52C168.643 9.008 168.521 8.64 168.275 8.416C168.041 8.192 167.737 8.08 167.363 8.08H166.483V11.04H167.363ZM36.5938 34.16C35.5271 34.16 34.7271 33.8507 34.1938 33.232C33.6604 32.6027 33.3938 31.6053 33.3938 30.24V27.6C33.3938 26.3947 33.5271 25.4507 33.7938 24.768C34.0711 24.0747 34.5138 23.5733 35.1218 23.264C35.7298 22.944 36.5671 22.7627 37.6338 22.72L39.5538 22.64L39.6338 23.44C38.9724 23.7173 38.2258 23.904 37.3938 24C36.6471 24.0853 36.1138 24.3253 35.7938 24.72C35.4738 25.1147 35.3138 25.7813 35.3138 26.72C35.6658 26.4533 36.1458 26.32 36.7538 26.32C37.7458 26.32 38.4978 26.6347 39.0098 27.264C39.5324 27.8827 39.7938 28.8747 39.7938 30.24C39.7938 31.6053 39.5271 32.6027 38.9938 33.232C38.4604 33.8507 37.6604 34.16 36.5938 34.16ZM36.5938 33.12C36.9671 33.12 37.2711 32.9013 37.5058 32.464C37.7511 32.016 37.8738 31.2747 37.8738 30.24C37.8738 29.216 37.7351 28.496 37.4578 28.08C37.1804 27.6533 36.7858 27.44 36.2738 27.44C35.8471 27.44 35.5271 27.5467 35.3138 27.76V30.24C35.3138 31.2747 35.4311 32.016 35.6658 32.464C35.9111 32.9013 36.2204 33.12 36.5938 33.12ZM43.6356 34.16C42.8676 34.16 42.2596 33.9733 41.8116 33.6C41.3743 33.2267 41.1556 32.56 41.1556 31.6C41.1556 30.6293 41.385 29.9627 41.8436 29.6C42.3023 29.2267 42.953 29.04 43.7956 29.04C44.169 29.04 44.6223 29.0933 45.1556 29.2V28.56C45.1556 27.952 45.017 27.536 44.7396 27.312C44.4623 27.0773 44.041 26.96 43.4756 26.96H41.8756V26.16C42.1316 26.0747 42.441 26 42.8036 25.936C43.1663 25.872 43.497 25.84 43.7956 25.84C44.5636 25.84 45.1823 25.9147 45.6516 26.064C46.121 26.2133 46.473 26.4853 46.7076 26.88C46.953 27.2747 47.0756 27.8347 47.0756 28.56V34H45.7156L45.4756 33.52H45.3956C44.9476 33.9467 44.361 34.16 43.6356 34.16ZM44.2756 33.04C44.4676 33.04 44.6383 33.008 44.7876 32.944C44.9476 32.88 45.0703 32.8053 45.1556 32.72V30.16H44.2756C43.945 30.16 43.6623 30.272 43.4276 30.496C43.193 30.72 43.0756 31.088 43.0756 31.6C43.0756 32.112 43.193 32.48 43.4276 32.704C43.6623 32.928 43.945 33.04 44.2756 33.04ZM49.1494 34V26H51.0694V29.36H53.2294V26H55.1494V34H53.2294V30.56H51.0694V34H49.1494ZM57.2275 34V26H59.1475V29.36H61.3075V26H63.2275V34H61.3075V30.56H59.1475V34H57.2275ZM68.5056 34.16C67.663 34.16 66.9803 34.0267 66.4576 33.76C65.935 33.4827 65.5456 33.04 65.2896 32.432C65.0336 31.824 64.9056 31.0133 64.9056 30C64.9056 28.528 65.1616 27.4667 65.6736 26.816C66.1856 26.1653 66.943 25.84 67.9456 25.84C68.9483 25.84 69.7056 26.1653 70.2176 26.816C70.7296 27.4667 70.9856 28.528 70.9856 30V30.56H66.8256C66.8256 31.456 66.9856 32.096 67.3056 32.48C67.6256 32.8533 68.1323 33.04 68.8256 33.04H70.5856V33.84C70.319 33.9253 69.999 34 69.6256 34.064C69.2523 34.128 68.879 34.16 68.5056 34.16ZM69.0656 29.44C69.0656 28.4693 68.9696 27.8027 68.7776 27.44C68.5856 27.0667 68.3083 26.88 67.9456 26.88C67.583 26.88 67.3056 27.0667 67.1136 27.44C66.9216 27.8027 66.8256 28.4693 66.8256 29.44H69.0656ZM72.665 26H74.025L74.265 26.48H74.345C74.793 26.0533 75.3797 25.84 76.105 25.84C76.9583 25.84 77.625 26.1707 78.105 26.832C78.585 27.4933 78.825 28.5493 78.825 30C78.825 31.4613 78.5743 32.5227 78.073 33.184C77.5823 33.8347 76.873 34.16 75.945 34.16C75.4117 34.16 74.9583 34.0267 74.585 33.76V37.2H72.665V26ZM75.465 33.04C75.913 33.04 76.265 32.816 76.521 32.368C76.777 31.9093 76.905 31.12 76.905 30C76.905 28.88 76.777 28.096 76.521 27.648C76.265 27.1893 75.913 26.96 75.465 26.96C75.2837 26.96 75.129 26.9867 75.001 27.04C74.8837 27.0933 74.745 27.1733 74.585 27.28V32.72C74.6703 32.8053 74.793 32.88 74.953 32.944C75.113 33.008 75.2837 33.04 75.465 33.04ZM87.4688 34.16C86.3274 34.16 85.4688 33.8987 84.8928 33.376C84.3168 32.8533 84.0288 32.1013 84.0288 31.12C84.0288 30.3947 84.2208 29.7867 84.6048 29.296C84.9888 28.8053 85.4901 28.4373 86.1088 28.192V28.128C85.6074 27.968 85.1754 27.6587 84.8128 27.2C84.4501 26.7307 84.2688 26.144 84.2688 25.44C84.2688 24.5867 84.5461 23.9093 85.1008 23.408C85.6554 22.896 86.4448 22.64 87.4688 22.64C88.4928 22.64 89.2821 22.896 89.8368 23.408C90.3914 23.9093 90.6688 24.5867 90.6688 25.44C90.6688 26.144 90.4874 26.7307 90.1248 27.2C89.7621 27.6587 89.3301 27.968 88.8288 28.128V28.192C89.4474 28.4373 89.9488 28.8053 90.3328 29.296C90.7168 29.7867 90.9088 30.3947 90.9088 31.12C90.9088 32.1013 90.6208 32.8533 90.0448 33.376C89.4688 33.8987 88.6101 34.16 87.4688 34.16ZM87.4688 27.456C87.8528 27.3173 88.1621 27.0827 88.3968 26.752C88.6314 26.4107 88.7488 25.9733 88.7488 25.44C88.7488 24.9387 88.6208 24.5333 88.3648 24.224C88.1088 23.9147 87.8101 23.76 87.4688 23.76C87.1274 23.76 86.8288 23.9147 86.5728 24.224C86.3168 24.5333 86.1888 24.9387 86.1888 25.44C86.1888 25.9733 86.3061 26.4107 86.5408 26.752C86.7754 27.0827 87.0848 27.3173 87.4688 27.456ZM87.4688 33.04C87.9274 33.04 88.2954 32.8747 88.5728 32.544C88.8501 32.2133 88.9888 31.7387 88.9888 31.12C88.9888 30.5653 88.8608 30.1227 88.6048 29.792C88.3488 29.4613 87.9701 29.1573 87.4688 28.88C86.9674 29.1573 86.5888 29.4613 86.3328 29.792C86.0768 30.1227 85.9488 30.5653 85.9488 31.12C85.9488 31.7387 86.0874 32.2133 86.3648 32.544C86.6421 32.8747 87.0101 33.04 87.4688 33.04ZM95.7088 34.16C94.5994 34.16 93.7354 33.712 93.1168 32.816C92.4981 31.92 92.1888 30.448 92.1888 28.4C92.1888 26.352 92.4981 24.88 93.1168 23.984C93.7354 23.088 94.5994 22.64 95.7088 22.64C96.8288 22.64 97.6928 23.088 98.3008 23.984C98.9194 24.88 99.2288 26.352 99.2288 28.4C99.2288 30.448 98.9194 31.92 98.3008 32.816C97.6928 33.712 96.8288 34.16 95.7088 34.16ZM95.7088 33.04C96.1461 33.04 96.5194 32.6933 96.8288 32C97.1488 31.296 97.3088 30.096 97.3088 28.4C97.3088 26.704 97.1488 25.5093 96.8288 24.816C96.5194 24.112 96.1461 23.76 95.7088 23.76C95.2714 23.76 94.8928 24.112 94.5728 24.816C94.2634 25.5093 94.1088 26.704 94.1088 28.4C94.1088 30.096 94.2634 31.296 94.5728 32C94.8928 32.6933 95.2714 33.04 95.7088 33.04ZM104.193 34.16C103.084 34.16 102.22 33.712 101.601 32.816C100.982 31.92 100.673 30.448 100.673 28.4C100.673 26.352 100.982 24.88 101.601 23.984C102.22 23.088 103.084 22.64 104.193 22.64C105.313 22.64 106.177 23.088 106.785 23.984C107.404 24.88 107.713 26.352 107.713 28.4C107.713 30.448 107.404 31.92 106.785 32.816C106.177 33.712 105.313 34.16 104.193 34.16ZM104.193 33.04C104.63 33.04 105.004 32.6933 105.313 32C105.633 31.296 105.793 30.096 105.793 28.4C105.793 26.704 105.633 25.5093 105.313 24.816C105.004 24.112 104.63 23.76 104.193 23.76C103.756 23.76 103.377 24.112 103.057 24.816C102.748 25.5093 102.593 26.704 102.593 28.4C102.593 30.096 102.748 31.296 103.057 32C103.377 32.6933 103.756 33.04 104.193 33.04ZM108.678 34L110.598 29.92L108.758 26H110.758L111.958 28.8L113.158 26H115.158L113.318 29.92L115.238 34H113.238L111.958 31.04L110.678 34H108.678ZM115.724 32.56C116.834 31.2907 117.655 30.32 118.188 29.648C118.722 28.9653 119.122 28.336 119.388 27.76C119.666 27.184 119.804 26.5973 119.804 26C119.804 24.56 119.244 23.84 118.124 23.84H115.884V22.96C116.151 22.8747 116.514 22.8 116.972 22.736C117.431 22.672 117.922 22.64 118.444 22.64C119.532 22.64 120.348 22.9227 120.892 23.488C121.447 24.0427 121.724 24.88 121.724 26C121.724 26.6293 121.548 27.2907 121.196 27.984C120.855 28.6773 120.412 29.376 119.868 30.08C119.324 30.7733 118.583 31.6533 117.644 32.72H121.644V34H115.724V32.56ZM122.443 32.56C123.552 31.2907 124.374 30.32 124.907 29.648C125.44 28.9653 125.84 28.336 126.107 27.76C126.384 27.184 126.523 26.5973 126.523 26C126.523 24.56 125.963 23.84 124.843 23.84H122.603V22.96C122.87 22.8747 123.232 22.8 123.691 22.736C124.15 22.672 124.64 22.64 125.163 22.64C126.251 22.64 127.067 22.9227 127.611 23.488C128.166 24.0427 128.443 24.88 128.443 26C128.443 26.6293 128.267 27.2907 127.915 27.984C127.574 28.6773 127.131 29.376 126.587 30.08C126.043 30.7733 125.302 31.6533 124.363 32.72H128.363V34H122.443V32.56ZM133.162 34.16C132.053 34.16 131.189 33.712 130.57 32.816C129.951 31.92 129.642 30.448 129.642 28.4C129.642 26.352 129.951 24.88 130.57 23.984C131.189 23.088 132.053 22.64 133.162 22.64C134.282 22.64 135.146 23.088 135.754 23.984C136.373 24.88 136.682 26.352 136.682 28.4C136.682 30.448 136.373 31.92 135.754 32.816C135.146 33.712 134.282 34.16 133.162 34.16ZM133.162 33.04C133.599 33.04 133.973 32.6933 134.282 32C134.602 31.296 134.762 30.096 134.762 28.4C134.762 26.704 134.602 25.5093 134.282 24.816C133.973 24.112 133.599 23.76 133.162 23.76C132.725 23.76 132.346 24.112 132.026 24.816C131.717 25.5093 131.562 26.704 131.562 28.4C131.562 30.096 131.717 31.296 132.026 32C132.346 32.6933 132.725 33.04 133.162 33.04Z" fill="#5F7DAB"/>
</svg>
