<svg width="280" height="103" viewBox="0 0 280 103" fill="none" xmlns="http://www.w3.org/2000/svg">
<path d="M111.013 71.6366C106.358 71.6366 104.154 70.4729 104.154 67.4027V49.1545C104.154 44.2025 108.661 44.5492 110.666 44.5492C117.351 44.5492 119.728 47.5452 119.728 50.9868C119.687 52.3894 119.195 53.7413 118.325 54.8427C117.456 55.944 116.255 56.7364 114.9 57.1025C116.654 57.2631 118.284 58.0736 119.47 59.3747C120.657 60.6758 121.314 62.3735 121.313 64.1344C121.313 67.9722 118.812 71.6366 111.013 71.6366ZM110.74 46.5052C109.057 46.5052 107.447 46.7281 107.447 49.5755V56.5083C107.868 56.5083 108.735 56.5083 109.923 56.5083C113.86 56.5083 116.51 54.6265 116.51 51.3087C116.435 48.387 114.752 46.5052 110.74 46.5052ZM109.998 58.291C108.661 58.291 107.943 58.291 107.522 58.291V66.957C107.522 68.9626 108.487 69.5816 111.087 69.5816C115.792 69.5816 117.871 67.1056 117.871 64.0353C117.797 60.1975 115.346 58.291 109.998 58.291Z" fill="#1D1D1B"/>
<path d="M140.257 71.2653C139.87 71.301 139.481 71.301 139.094 71.2653C138.227 71.2653 137.682 70.8939 137.534 69.6559V68.7646H137.261C136.743 69.6262 136.02 70.3463 135.156 70.8604C134.292 71.3745 133.314 71.6667 132.309 71.711C128.051 71.711 125.129 68.5417 125.129 62.4755C125.129 55.9884 129.388 51.4573 133.82 51.4573C135.999 51.4573 140.406 52.0268 140.406 55.3941L140.257 71.2653ZM137.138 55.815C137.138 54.1809 136.197 53.339 133.671 53.339C131.146 53.339 128.075 55.8151 128.075 61.7822C128.075 67.2542 130.329 69.2102 132.904 69.2102C133.728 69.1724 134.533 68.9476 135.258 68.553C135.983 68.1584 136.609 67.6042 137.088 66.9323L137.138 55.815Z" fill="#1D1D1B"/>
<path d="M157.042 71.2899V57.3253C157.042 55.2702 155.953 53.1656 152.412 53.1656C148.872 53.1656 148.55 54.5769 148.55 55.8149V71.2899H145.405V54.775C145.353 54.2923 145.464 53.8061 145.719 53.3934C145.975 52.9807 146.361 52.6653 146.817 52.4971C148.611 51.7191 150.557 51.3552 152.511 51.4324C155.804 51.4324 160.113 52.3733 160.113 57.1767V71.2899H157.042Z" fill="#1D1D1B"/>
<path d="M168.109 71.29H165.039V43.0884H168.109V60.767L174.374 53.5866C174.842 53.0322 175.426 52.5873 176.085 52.2835C176.743 51.9797 177.461 51.8245 178.187 51.8287C178.549 51.7929 178.914 51.7929 179.276 51.8287L173.408 58.4644C172.319 59.6528 171.081 60.7175 170.239 60.7175V61.386C170.94 61.5117 171.609 61.7784 172.205 62.1699C172.801 62.5614 173.311 63.0697 173.705 63.664L180.143 71.092C179.721 71.1955 179.289 71.2454 178.855 71.2405C178.16 71.2901 177.463 71.1822 176.816 70.925C176.169 70.6678 175.588 70.2678 175.116 69.7549C173.656 68.0712 168.109 61.0889 168.109 61.0889V71.29Z" fill="#1D1D1B"/>
<path d="M200.475 61.3859C199.782 61.3859 198.692 61.2126 197.999 61.1383V71.2899H194.656V49.5259C194.656 48.3126 193.963 44.5739 201.243 44.5739C207.754 44.5739 210.701 48.2136 210.701 52.7447C210.701 57.8452 207.532 61.3859 200.475 61.3859ZM201.342 46.5299C197.751 46.5299 198.049 48.7088 198.049 49.6001V59.2566C198.779 59.365 199.514 59.4311 200.252 59.4546C205.204 59.4546 207.235 56.7558 207.235 52.7694C207.334 51.9548 207.253 51.1282 206.998 50.3483C206.742 49.5684 206.318 48.8543 205.756 48.2565C205.194 47.6588 204.507 47.192 203.744 46.8893C202.981 46.5867 202.161 46.4555 201.342 46.5051V46.5299Z" fill="#1D1D1B"/>
<path d="M220.729 71.7357C215.084 71.7357 212.311 66.7837 212.311 61.5346C212.311 56.2854 215.232 51.4325 220.729 51.4325C226.226 51.4325 229.197 56.1369 229.197 61.5346C229.197 66.9323 226.399 71.7357 220.729 71.7357ZM220.729 53.24C217.064 53.24 215.628 57.1521 215.628 61.1137C215.628 65.0753 217.139 69.7302 220.878 69.7302C224.616 69.7302 226.077 65.7438 226.077 61.7574C226.077 57.7711 224.492 53.339 220.63 53.339L220.729 53.24Z" fill="#1D1D1B"/>
<path d="M232.98 71.2901V43.2123H236.125V71.2901H232.98Z" fill="#1D1D1B"/>
<path d="M254.105 65.9419C254.105 69.4331 251.159 71.5625 247.272 71.6367C243.954 71.6367 239.992 69.8293 239.992 65.6696C240.256 65.6451 240.521 65.6451 240.785 65.6696C241.42 65.6378 242.049 65.8042 242.586 66.1458C243.123 66.4873 243.54 66.9871 243.78 67.5761C244.079 68.2893 244.576 68.9019 245.212 69.3408C245.849 69.7797 246.598 70.0266 247.371 70.0521C248.304 70.0997 249.22 69.7787 249.919 69.1581C250.618 68.5375 251.046 67.6671 251.109 66.7343C251.109 61.9308 240.661 62.7974 240.661 56.9788C240.661 53.661 243.558 51.6554 247.222 51.6554C250.416 51.6554 253.635 53.1658 253.635 56.8798C253.291 57.0054 252.925 57.0578 252.559 57.0334C252.194 57.009 251.838 56.9085 251.514 56.7382C251.19 56.568 250.905 56.3319 250.677 56.0449C250.45 55.758 250.285 55.4267 250.193 55.0723C249.935 54.5419 249.534 54.0941 249.036 53.7791C248.537 53.4642 247.96 53.2946 247.371 53.2896H247.098C246.66 53.2338 246.214 53.2712 245.791 53.3993C245.367 53.5275 244.976 53.7435 244.642 54.0332C244.308 54.323 244.038 54.68 243.851 55.0809C243.665 55.4818 243.565 55.9176 243.558 56.3598C243.558 60.7671 254.105 59.7272 254.105 65.9419Z" fill="#1D1D1B"/>
<path d="M261.234 71.29H258.164V43.0884H261.234V60.767L267.474 53.5866C267.944 53.0289 268.533 52.5821 269.196 52.2782C269.859 51.9743 270.582 51.8208 271.312 51.8287C271.666 51.7937 272.022 51.7937 272.376 51.8287L266.508 58.4644C265.419 59.6528 264.181 60.7175 263.364 60.7175V61.386C264.061 61.5162 264.724 61.7848 265.315 62.1761C265.907 62.5674 266.413 63.0733 266.805 63.664L273.243 71.092C272.83 71.1955 272.406 71.2455 271.98 71.2405C271.285 71.2938 270.587 71.1876 269.939 70.9301C269.291 70.6727 268.71 70.2707 268.241 69.7549C266.781 68.0712 261.234 61.0889 261.234 61.0889V71.29Z" fill="#1D1D1B"/>
<path d="M277.77 48.3869C277.323 48.3918 276.885 48.2639 276.512 48.0193C276.138 47.7747 275.845 47.4246 275.671 47.0133C275.497 46.6021 275.448 46.1483 275.533 45.7096C275.617 45.2709 275.829 44.8671 276.143 44.5495C276.457 44.2319 276.859 44.0148 277.297 43.9259C277.734 43.8369 278.189 43.8801 278.602 44.0498C279.015 44.2196 279.368 44.5084 279.617 44.8794C279.866 45.2505 279.999 45.6871 279.999 46.1338C280.005 46.4294 279.952 46.7233 279.843 46.9981C279.734 47.2728 279.57 47.5228 279.362 47.733C279.154 47.9433 278.906 48.1095 278.633 48.2218C278.359 48.3342 278.066 48.3903 277.77 48.3869ZM276.185 71.29V51.9028H279.33V71.29H276.185Z" fill="#1D1D1B"/>
<path d="M35.0857 22.0191C37.2632 22.0191 39.3918 21.3734 41.2023 20.1637C43.0128 18.9539 44.424 17.2345 45.2573 15.2227C46.0905 13.211 46.3086 10.9974 45.8838 8.86171C45.459 6.72606 44.4104 4.76435 42.8707 3.22463C41.331 1.68492 39.3692 0.636357 37.2336 0.211551C35.098 -0.213256 32.8843 0.0047696 30.8726 0.838057C28.8608 1.67134 27.1414 3.08247 25.9316 4.89298C24.7219 6.7035 24.0762 8.83208 24.0762 11.0096C24.074 12.456 24.3574 13.8886 24.9099 15.2253C25.4624 16.562 26.2733 17.7765 27.296 18.7993C28.3188 19.822 29.5333 20.6329 30.87 21.1854C32.2067 21.738 33.6393 22.0213 35.0857 22.0191Z" fill="#E42229"/>
<path d="M35.1343 53.6026C49.7488 53.6026 62.236 49.9815 67.5134 44.9476C68.3133 44.285 68.9673 43.4639 69.434 42.536C69.9007 41.6082 70.1701 40.5937 70.2253 39.5565C70.1704 38.5169 69.9012 37.4999 69.4345 36.5694C68.9678 35.6388 68.3138 34.8148 67.5134 34.1491C65.3013 32.2097 62.7533 30.6908 59.9951 29.6673C52.013 26.7601 43.5629 25.3508 35.0693 25.5103C21.9813 25.5103 10.7119 28.4982 4.57383 32.6714C3.0936 33.581 1.88856 34.8759 1.08766 36.4176C0.28677 37.9593 -0.0798278 39.6898 0.0271064 41.4239C0.0271064 41.6674 0.0271064 69.3862 0.0271064 69.3862V80.4932C-0.142515 83.067 0.486994 85.6304 1.82956 87.8329C3.69215 90.9733 6.31722 93.5928 9.46156 95.4487L9.68889 95.5948V49.267L9.9487 49.4293C17.966 52.38 26.4628 53.8118 35.0044 53.6513L35.1343 53.6026ZM20.2438 39.0856C20.0542 38.8564 19.9457 38.5709 19.9353 38.2736C19.9676 37.8684 20.1146 37.4807 20.359 37.1558C20.6034 36.8309 20.9351 36.5822 21.3155 36.4387C21.6998 36.2501 22.1215 36.1502 22.5496 36.1464H48.2711C48.6991 36.1502 49.1209 36.2501 49.5052 36.4387C49.8709 36.5863 50.188 36.8334 50.4204 37.152C50.6529 37.4705 50.7915 37.8479 50.8205 38.2412C50.818 38.54 50.7085 38.828 50.512 39.0531C50.3348 39.2527 50.1172 39.4124 49.8737 39.5216C49.6301 39.6308 49.3661 39.6869 49.0992 39.6864H21.6728C21.4059 39.6913 21.1409 39.6404 20.8948 39.5369C20.6487 39.4335 20.427 39.2797 20.2438 39.0856Z" fill="url(#paint0_radial)"/>
<path d="M40.2022 95.8709V84.699C40.1894 83.0679 39.5347 81.5075 38.3798 80.3556C37.2249 79.2038 35.6627 78.5532 34.0316 78.5447V77.5054C35.7249 77.3528 37.3015 76.5776 38.4563 75.3298C39.6111 74.0821 40.2621 72.4503 40.2834 70.7503V62.8909C40.2589 61.1318 40.4775 59.3778 40.9329 57.6785V57.4674H40.7056C39.6501 57.4674 38.0912 57.581 36.4511 57.581C33.9991 57.581 31.3685 57.4998 29.9558 57.3537H29.8259V57.4836C29.2381 59.2862 28.9528 61.1737 28.9815 63.0696V71.9844C28.9775 73.0357 28.5625 74.0438 27.8252 74.7932C27.0879 75.5427 26.0867 75.9741 25.0356 75.9953V56.8665H24.8895C21.1777 56.4285 17.5175 55.6291 13.9611 54.4795L13.75 54.3983V98.1443H13.8474C17.3603 99.7013 21.0615 100.793 24.857 101.392H25.0356V79.0805C26.0924 79.0976 27.1001 79.5294 27.8413 80.2828C28.5825 81.0361 28.9979 82.0507 28.9978 83.1076V95.2214C28.9961 97.5091 29.3974 99.7793 30.1831 101.928V102.025H30.2806C31.125 102.123 32.6027 102.171 34.259 102.171C36.5047 102.193 38.7496 102.079 40.9816 101.83H41.1602V101.652C40.5078 99.795 40.1836 97.8389 40.2022 95.8709Z" fill="url(#paint1_radial)"/>
<path d="M69.1861 52.4984C69.1653 51.9986 68.953 51.5259 68.5933 51.1783C68.2336 50.8307 67.754 50.6347 67.2538 50.631C66.9494 50.6352 66.6498 50.7074 66.3769 50.8421C60.4082 54.0768 53.8774 56.1435 47.1345 56.9314C46.3113 57.0501 45.5598 57.4655 45.0215 58.0995C44.4832 58.7335 44.1952 59.5424 44.2116 60.374V97.9169C44.2116 98.6662 44.5093 99.3849 45.0392 99.9148C45.569 100.445 46.2877 100.742 47.0371 100.742C47.2312 100.766 47.4275 100.766 47.6216 100.742C53.0914 99.4849 58.2327 97.0831 62.707 93.6949C66.2957 90.6908 69.2023 86.5176 69.2023 81.6136L69.1861 52.4984ZM59.4431 61.8516V87.9628C59.4171 88.3317 59.3014 88.6887 59.1061 89.0028C58.9109 89.3169 58.642 89.5786 58.3227 89.7653C57.967 90.101 57.4965 90.288 57.0074 90.288C56.5183 90.288 56.0477 90.101 55.6921 89.7653C55.5525 89.5607 55.4892 89.3135 55.5135 89.067V61.9653C55.5635 61.5706 55.7361 61.2015 56.0071 60.9102C56.278 60.6189 56.6336 60.4199 57.0236 60.3415C57.2366 60.2915 57.4544 60.2642 57.6732 60.2603C58.0426 60.2351 58.4105 60.3287 58.723 60.5273C59.0356 60.726 59.2765 61.0193 59.4107 61.3645C59.4276 61.4884 59.4276 61.6141 59.4107 61.738L59.4431 61.8516Z" fill="url(#paint2_radial)"/>
<defs>
<radialGradient id="paint0_radial" cx="0" cy="0" r="1" gradientUnits="userSpaceOnUse" gradientTransform="translate(34.3891 25.2801) scale(75.814)">
<stop stop-color="#004A99"/>
<stop offset="0.14" stop-color="#004793"/>
<stop offset="0.32" stop-color="#003E83"/>
<stop offset="0.53" stop-color="#002F68"/>
<stop offset="0.75" stop-color="#001B42"/>
<stop offset="0.99" stop-color="#000112"/>
<stop offset="1" stop-color="#000010"/>
</radialGradient>
<radialGradient id="paint1_radial" cx="0" cy="0" r="1" gradientUnits="userSpaceOnUse" gradientTransform="translate(1573.12 1448.49) scale(1292.67 2253.1)">
<stop stop-color="#004A99"/>
<stop offset="0.14" stop-color="#004793"/>
<stop offset="0.32" stop-color="#003E83"/>
<stop offset="0.53" stop-color="#002F68"/>
<stop offset="0.75" stop-color="#001B42"/>
<stop offset="0.99" stop-color="#000112"/>
<stop offset="1" stop-color="#000010"/>
</radialGradient>
<radialGradient id="paint2_radial" cx="0" cy="0" r="1" gradientUnits="userSpaceOnUse" gradientTransform="translate(1466.22 1513.4) scale(1178.34 2363.6)">
<stop stop-color="#004A99"/>
<stop offset="0.14" stop-color="#004793"/>
<stop offset="0.32" stop-color="#003E83"/>
<stop offset="0.53" stop-color="#002F68"/>
<stop offset="0.75" stop-color="#001B42"/>
<stop offset="0.99" stop-color="#000112"/>
<stop offset="1" stop-color="#000010"/>
</radialGradient>
</defs>
</svg>
