<svg width="1920" height="584" viewBox="0 0 1920 584" fill="none" xmlns="http://www.w3.org/2000/svg">
<rect y="11" width="1920" height="573" fill="url(#paint0_linear)"/>
<g opacity="0.5">
<circle cx="756.997" cy="290.144" r="290.144" fill="white"/>
<path d="M1069 463.037C1069 471.35 1066.18 475.955 1061.05 475.955H1000.44C995.305 475.955 982.212 456.832 960.691 419.317C942.585 387.498 930.952 364.858 924.92 350.756C918.972 337.106 914.797 329.531 913.99 327.902C908.671 319.043 903.131 314.537 896.104 313.991C894.031 313.812 887.854 313.991 878.219 313.991C856.145 313.991 845.429 316.424 845.429 321.94C845.429 338.123 845.343 362.205 846.422 394.476C847.501 426.747 848.409 451.017 848.409 467.012C848.409 472.886 845.872 475.955 841.454 475.955C838.123 475.955 833.219 475.507 826.549 474.961C819.888 474.424 814.984 473.967 811.645 473.967C808.493 473.967 804.038 474.424 797.734 474.961C791.514 475.507 786.975 475.955 783.823 475.955C779.405 475.955 776.867 474.06 776.867 469.993C776.867 450.562 778.047 421.508 779.848 382.552C781.649 343.682 781.835 314.543 781.835 295.112C781.835 274.683 781.649 243.739 779.848 202.703C778.047 161.658 776.867 130.817 776.867 110.294C776.867 106.406 779.405 104.333 783.823 104.333C786.975 104.333 791.251 104.78 797.734 105.326C804.216 105.863 809.308 106.32 812.638 106.32C815.79 106.32 820.245 105.863 826.549 105.326C832.854 104.78 838.302 104.333 841.454 104.333C845.507 104.333 847.416 106.138 847.416 109.301C847.416 124.307 846.329 146.678 845.429 176.868C844.528 207.059 844.435 230.245 844.435 245.43C844.435 252.302 844.528 256.625 845.429 258.347C846.779 261.51 850.505 262.322 856.359 262.322C890.412 262.322 916.021 256.189 931.875 243.442C945.393 232.145 957.56 212.028 969.634 181.837C978.462 158.151 987.634 133.98 996.462 110.294C997.72 107.31 1000.18 105.424 1004.41 104.333C1007.29 103.616 1016.29 103.339 1032.23 103.339C1051.6 103.339 1062.04 105.865 1062.04 111.288C1062.04 114.451 1057.23 128.615 1049.13 154.015C1039.67 183.668 1027.49 209.918 1012.36 232.512C1002.36 247.885 989.183 263.67 972.615 279.214C968.375 282.922 966.653 286.166 966.653 289.15C966.653 292.313 973.288 308.547 987.519 336.845C999.771 361.434 1011.3 380.643 1021.3 395.47C1032.38 409.026 1048.18 429.865 1068 458.069C1068.9 459.698 1069 461.221 1069 463.037Z" fill="#D6DCE2"/>
<path d="M804.692 291.137C804.692 343.588 787.501 388.468 754.016 426.273C719.17 465.425 675.655 484.897 623.849 484.897C571.856 484.897 529.335 465.254 494.676 426.273C461.191 388.655 444 343.955 444 291.137C444 238.959 460.825 192.992 494.676 155.008C529.514 115.668 572.392 96.3833 623.849 96.3833C675.476 96.3833 719.17 115.668 754.016 155.008C787.68 192.813 804.692 238.772 804.692 291.137ZM741.099 290.144C741.099 255.512 729.789 225.406 708.309 199.722C685.739 172.503 657.879 158.983 623.849 158.983C590.178 158.983 561.781 172.136 539.39 199.722C518.267 225.491 507.593 256.591 507.593 291.137C507.593 325.598 518.267 355.79 539.39 381.559C561.781 409.145 590.178 422.298 623.849 422.298C657.964 422.298 686.741 409.145 709.302 381.559C730.612 355.79 741.099 325.057 741.099 290.144Z" fill="#D6DCE2"/>
</g>
<defs>
<linearGradient id="paint0_linear" x1="846.5" y1="11" x2="846.5" y2="568" gradientUnits="userSpaceOnUse">
<stop stop-color="#CFD5DC"/>
<stop offset="0.471237" stop-color="#D7DDE4"/>
<stop offset="1" stop-color="#D7DCE2"/>
</linearGradient>
</defs>
</svg>
