<svg width="800" height="194" viewBox="0 0 800 194" fill="none" xmlns="http://www.w3.org/2000/svg">
<line x1="212" y1="78" x2="768" y2="78" stroke="#D3E3F0" stroke-width="2"/>
<line x1="212" y1="42" x2="426" y2="42" stroke="#D3E3F0" stroke-width="2"/>
<line x1="212" y1="114" x2="768" y2="114" stroke="#D3E3F0" stroke-width="2"/>
<line x1="212" y1="150" x2="768" y2="150" stroke="#D3E3F0" stroke-width="2"/>
<rect x="22" y="22" width="150" height="150" fill="#EDF5FA"/>
<rect x="0.5" y="0.5" width="799" height="193" stroke="#D3E3F0"/>
<g opacity="0.8">
<mask id="mask0" mask-type="alpha" maskUnits="userSpaceOnUse" x="22" y="22" width="150" height="150">
<rect x="22" y="22" width="150" height="150" fill="#EDF5FA"/>
</mask>
<g mask="url(#mask0)">
<path d="M130.372 64.9997C130.372 88.7478 149.623 107.999 173.371 107.999C197.119 107.999 216.371 88.7478 216.371 64.9997C216.371 41.2516 197.119 22 173.371 22C149.623 22 130.372 41.2516 130.372 64.9997Z" stroke="#CCDFED" stroke-width="0.70414" stroke-miterlimit="10"/>
<path d="M133.48 64.9994C133.48 87.0315 151.341 104.892 173.373 104.892C195.405 104.892 213.266 87.0315 213.266 64.9994C213.266 42.9673 195.405 25.1067 173.373 25.1067C151.341 25.1067 133.48 42.9673 133.48 64.9994Z" stroke="#CCDFED" stroke-width="0.68831" stroke-miterlimit="10"/>
<path d="M136.585 64.9998C136.585 85.316 153.054 101.785 173.371 101.785C193.687 101.785 210.156 85.316 210.156 64.9998C210.156 44.6836 193.687 28.2141 173.371 28.2141C153.054 28.2141 136.585 44.6836 136.585 64.9998Z" stroke="#CCDFED" stroke-width="0.67248" stroke-miterlimit="10"/>
<path d="M139.693 64.9995C139.693 83.5997 154.772 98.6782 173.372 98.6782C191.972 98.6782 207.051 83.5997 207.051 64.9995C207.051 46.3993 191.972 31.3208 173.372 31.3208C154.772 31.3208 139.693 46.3993 139.693 64.9995Z" stroke="#CCDFED" stroke-width="0.65665" stroke-miterlimit="10"/>
<path d="M142.798 64.9999C142.798 81.8842 156.485 95.5716 173.37 95.5716C190.254 95.5716 203.941 81.8842 203.941 64.9999C203.941 48.1156 190.254 34.4282 173.37 34.4282C156.485 34.4282 142.798 48.1156 142.798 64.9999Z" stroke="#CCDFED" stroke-width="0.64083" stroke-miterlimit="10"/>
<path d="M145.907 64.9996C145.907 80.1679 158.203 92.4643 173.371 92.4643C188.54 92.4643 200.836 80.1679 200.836 64.9996C200.836 49.8313 188.54 37.5349 173.371 37.5349C158.203 37.5349 145.907 49.8313 145.907 64.9996Z" stroke="#CCDFED" stroke-width="0.625" stroke-miterlimit="10"/>
<path d="M149.015 65C149.015 78.4524 159.92 89.3577 173.373 89.3577C186.825 89.3577 197.73 78.4524 197.73 65C197.73 51.5476 186.825 40.6423 173.373 40.6423C159.92 40.6423 149.015 51.5476 149.015 65Z" stroke="#CCDFED" stroke-width="0.60917" stroke-miterlimit="10"/>
<path d="M173.238 86.2495C184.974 86.3241 194.549 76.8704 194.623 65.1343C194.698 53.3981 185.244 43.8236 173.508 43.7491C161.772 43.6746 152.197 53.1282 152.123 64.8644C152.048 76.6006 161.502 86.175 173.238 86.2495Z" stroke="#CCDFED" stroke-width="0.59334" stroke-miterlimit="10"/>
<path d="M173.327 83.1436C183.348 83.1684 191.491 75.0653 191.516 65.0449C191.541 55.0244 183.437 46.8812 173.417 46.8564C163.397 46.8316 155.253 54.9347 155.229 64.9551C155.204 74.9755 163.307 83.1188 173.327 83.1436Z" stroke="#CCDFED" stroke-width="0.57751" stroke-miterlimit="10"/>
<path d="M158.333 65.0232C158.347 73.3276 165.09 80.0491 173.394 80.0359C181.699 80.0226 188.42 73.2798 188.407 64.9753C188.394 56.6708 181.651 49.9494 173.346 49.9626C165.042 49.9758 158.32 56.7187 158.333 65.0232Z" stroke="#CCDFED" stroke-width="0.56168" stroke-miterlimit="10"/>
<path d="M161.441 65.0701C161.48 71.6585 166.852 76.9682 173.441 76.9297C180.029 76.8911 185.339 71.5188 185.3 64.9304C185.262 58.342 179.889 53.0322 173.301 53.0708C166.713 53.1094 161.403 58.4816 161.441 65.0701Z" stroke="#CCDFED" stroke-width="0.54585" stroke-miterlimit="10"/>
<path d="M164.548 65.0914C164.599 69.9637 168.589 73.8727 173.462 73.8224C178.334 73.772 182.243 69.7814 182.193 64.9091C182.142 60.0367 178.152 56.1277 173.279 56.1781C168.407 56.2284 164.498 60.219 164.548 65.0914Z" stroke="#CCDFED" stroke-width="0.53002" stroke-miterlimit="10"/>
<path d="M167.656 65.0853C167.704 68.2416 170.301 70.7617 173.457 70.7143C176.613 70.6668 179.133 68.0696 179.086 64.9133C179.038 61.757 176.441 59.2369 173.285 59.2843C170.129 59.3318 167.609 61.929 167.656 65.0853Z" stroke="#CCDFED" stroke-width="0.5142" stroke-miterlimit="10"/>
<path d="M170.762 65.0521C170.791 66.4925 171.982 67.6368 173.422 67.608C174.862 67.5792 176.007 66.3882 175.978 64.9478C175.949 63.5074 174.758 62.3631 173.318 62.3919C171.877 62.4207 170.733 63.6117 170.762 65.0521Z" stroke="#CCDFED" stroke-width="0.49837" stroke-miterlimit="10"/>
<path d="M173.621 22.0004C173.61 22.0004 173.599 22 173.587 22C167.863 22 162.195 23.117 156.907 25.2873C151.619 27.4575 146.814 30.6385 142.766 34.6486C138.719 38.6587 135.508 43.4194 133.318 48.6589C131.127 53.8984 130 59.514 130 65.1851L173.621 65.1851L173.621 22.0004Z" fill="#CCDFED" fill-opacity="0.6"/>
<path d="M69.4755 172.4L69.4755 162.772C69.9668 165.208 70.2689 167.679 70.3789 170.162L70.3789 172.4L69.4755 172.4Z" fill="#CCDFED" fill-opacity="0.6"/>
<path d="M66.3065 172.4L66.3065 152.835C66.6306 153.557 66.9334 154.288 67.2148 155.03L67.2148 172.4L66.3065 172.4Z" fill="#CCDFED" fill-opacity="0.6"/>
<path d="M63.1474 172.4L63.1474 146.865C63.4616 147.36 63.7611 147.861 64.0508 148.372L64.0508 172.4L63.1474 172.4Z" fill="#CCDFED" fill-opacity="0.6"/>
<path d="M59.9794 172.4L59.9794 142.362C60.2887 142.75 60.5882 143.143 60.8828 143.536L60.8828 172.4L59.9794 172.4Z" fill="#CCDFED" fill-opacity="0.6"/>
<path d="M56.8114 172.4L56.8114 138.754C57.1208 139.068 57.4203 139.387 57.7148 139.711L57.7148 172.4L56.8114 172.4Z" fill="#CCDFED" fill-opacity="0.6"/>
<path d="M53.6464 172.4L53.6464 135.759C53.9508 136.019 54.2552 136.289 54.5547 136.559L54.5547 172.4L53.6464 172.4Z" fill="#CCDFED" fill-opacity="0.6"/>
<path d="M50.4872 172.4L50.4872 133.25C50.7916 133.471 51.0911 133.692 51.3906 133.922L51.3906 172.4L50.4872 172.4Z" fill="#CCDFED" fill-opacity="0.6"/>
<path d="M47.3193 172.4L47.3193 131.129C47.6237 131.31 47.9232 131.502 48.2227 131.698L48.2227 172.4L47.3193 172.4Z" fill="#CCDFED" fill-opacity="0.6"/>
<path d="M44.1513 172.4L44.1513 129.342C44.4557 129.499 44.7601 129.656 45.0547 129.818L45.0547 172.4L44.1513 172.4Z" fill="#CCDFED" fill-opacity="0.6"/>
<path d="M40.9823 172.4L40.9823 127.854C41.2867 127.982 41.5911 128.114 41.8906 128.252L41.8906 172.4L40.9823 172.4Z" fill="#CCDFED" fill-opacity="0.6"/>
<path d="M37.8193 172.4L37.8193 126.636C38.1237 126.739 38.4232 126.847 38.7227 126.955L38.7227 172.4L37.8193 172.4Z" fill="#CCDFED" fill-opacity="0.6"/>
<path d="M34.6552 172.4L34.6552 125.664C34.9596 125.743 35.2591 125.831 35.5586 125.919L35.5586 172.4L34.6552 172.4Z" fill="#CCDFED" fill-opacity="0.6"/>
<path d="M31.4872 172.4L31.4872 124.923C31.7867 124.982 32.0911 125.045 32.3906 125.114L32.3906 172.4L31.4872 172.4Z" fill="#CCDFED" fill-opacity="0.6"/>
<path d="M28.3222 172.4L28.3222 124.407C28.6266 124.446 28.931 124.486 29.2305 124.535L29.2305 172.4L28.3222 172.4Z" fill="#CCDFED" fill-opacity="0.6"/>
<path d="M25.1591 172.4L25.1591 124.103C25.4635 124.117 25.763 124.142 26.0625 124.172L26.0625 172.4L25.1591 172.4Z" fill="#CCDFED" fill-opacity="0.6"/>
<path d="M21.9999 172.4L21.9999 124.005C22.0098 124.005 22.0245 124 22.0343 124C22.324 124 22.6137 124.005 22.8984 124.009L22.8984 172.4L21.9999 172.4Z" fill="#CCDFED" fill-opacity="0.6"/>
<path d="M97 164C101.418 164 105 160.418 105 156C105 151.582 101.418 148 97 148C92.5817 148 89 151.582 89 156C89 160.418 92.5817 164 97 164Z" fill="#CCDFED" fill-opacity="0.6"/>
</g>
</g>
<g opacity="0.6">
<path d="M45.5918 88.0404V108H41.3754V96.458L41.4816 92.4843C40.8142 93.1517 40.3289 93.6117 40.0255 93.8645L37.7353 95.6997L35.703 93.1668L42.1337 88.0404H45.5918ZM58.4039 95.2447C60.3351 95.2447 61.867 95.7907 62.9994 96.8827C64.142 97.9646 64.7133 99.4459 64.7133 101.327C64.7133 103.561 64.0206 105.28 62.6354 106.483C61.2603 107.676 59.3038 108.273 56.7658 108.273C54.5515 108.273 52.7567 107.914 51.3816 107.196V103.556C52.0793 103.93 52.9084 104.239 53.869 104.481C54.8397 104.724 55.7547 104.845 56.6142 104.845C59.1824 104.845 60.4666 103.789 60.4666 101.675C60.4666 99.6633 59.1369 98.6572 56.4777 98.6572C55.4767 98.6572 54.4706 98.8089 53.4595 99.1122L51.776 98.2174L52.5343 88.0404H63.3482V91.6198H56.2198L55.8558 95.5329L56.3412 95.4419C56.8771 95.3104 57.5646 95.2447 58.4039 95.2447ZM71.8226 92.7573C71.398 93.819 71.1856 95.5733 71.1856 98.0202C71.1856 100.467 71.398 102.221 71.8226 103.283C72.2473 104.345 72.9551 104.876 73.946 104.876C74.9369 104.876 75.6497 104.345 76.0845 103.283C76.5193 102.211 76.7367 100.457 76.7367 98.0202C76.7367 95.5834 76.5142 93.8291 76.0693 92.7573C75.6346 91.6855 74.9217 91.1496 73.9308 91.1496C72.95 91.1496 72.2473 91.6855 71.8226 92.7573ZM66.9996 97.9292C66.9996 94.4813 67.5658 91.9232 68.6983 90.2548C69.8408 88.5763 71.5749 87.7371 73.9005 87.7371C76.2362 87.7371 77.9905 88.6117 79.1634 90.361C80.3464 92.1001 80.9379 94.6835 80.9379 98.1112C80.9379 101.539 80.3666 104.092 79.224 105.77C78.0815 107.439 76.3423 108.273 74.0067 108.273C71.671 108.273 69.9167 107.408 68.7438 105.679C67.581 103.95 66.9996 101.367 66.9996 97.9292Z" fill="#CCDFED"/>
<path d="M123.592 88.0404V108H119.375V96.458L119.482 92.4843C118.814 93.1517 118.329 93.6117 118.026 93.8645L115.735 95.6997L113.703 93.1668L120.134 88.0404H123.592ZM136.404 95.2447C138.335 95.2447 139.867 95.7907 140.999 96.8827C142.142 97.9646 142.713 99.4459 142.713 101.327C142.713 103.561 142.021 105.28 140.635 106.483C139.26 107.676 137.304 108.273 134.766 108.273C132.551 108.273 130.757 107.914 129.382 107.196V103.556C130.079 103.93 130.908 104.239 131.869 104.481C132.84 104.724 133.755 104.845 134.614 104.845C137.182 104.845 138.467 103.789 138.467 101.675C138.467 99.6633 137.137 98.6572 134.478 98.6572C133.477 98.6572 132.471 98.8089 131.459 99.1122L129.776 98.2174L130.534 88.0404H141.348V91.6198H134.22L133.856 95.5329L134.341 95.4419C134.877 95.3104 135.565 95.2447 136.404 95.2447ZM149.823 92.7573C149.398 93.819 149.186 95.5733 149.186 98.0202C149.186 100.467 149.398 102.221 149.823 103.283C150.247 104.345 150.955 104.876 151.946 104.876C152.937 104.876 153.65 104.345 154.085 103.283C154.519 102.211 154.737 100.457 154.737 98.0202C154.737 95.5834 154.514 93.8291 154.069 92.7573C153.635 91.6855 152.922 91.1496 151.931 91.1496C150.95 91.1496 150.247 91.6855 149.823 92.7573ZM145 97.9292C145 94.4813 145.566 91.9232 146.698 90.2548C147.841 88.5763 149.575 87.7371 151.9 87.7371C154.236 87.7371 155.99 88.6117 157.163 90.361C158.346 92.1001 158.938 94.6835 158.938 98.1112C158.938 101.539 158.367 104.092 157.224 105.77C156.081 107.439 154.342 108.273 152.007 108.273C149.671 108.273 147.917 107.408 146.744 105.679C145.581 103.95 145 101.367 145 97.9292Z" fill="#CCDFED"/>
<rect x="100.496" y="92.4969" width="2.11765" height="12" transform="rotate(45 100.496 92.4969)" fill="#CCDFED"/>
<rect x="101.988" y="100.981" width="2.11765" height="12" transform="rotate(135 101.988 100.981)" fill="#CCDFED"/>
</g>
</svg>
