<svg width="20" height="20" viewBox="0 0 20 20" fill="none" xmlns="http://www.w3.org/2000/svg">
<path d="M16.9587 15.4651L11.9286 10.435L16.9587 5.4049C17.3579 5.00571 17.3579 4.35774 16.9587 3.95855L16.4766 3.47646C16.0774 3.07726 15.4294 3.07726 15.0302 3.47646L10.0001 8.50656L4.97003 3.47646C4.57083 3.07726 3.92287 3.07726 3.52367 3.47646L3.04158 3.95855C2.64239 4.35774 2.64239 5.00571 3.04158 5.4049L8.07168 10.435L3.04159 15.4651C2.64239 15.8643 2.64239 16.5123 3.04158 16.9115L3.52367 17.3935C3.92287 17.7927 4.57083 17.7927 4.97003 17.3935L10.0001 12.3634L15.0302 17.3935C15.4294 17.7927 16.0774 17.7927 16.4766 17.3935L16.9587 16.9115C17.3579 16.5123 17.3579 15.8643 16.9587 15.4651Z" fill="white"/>
</svg>
