<svg width="154" height="38" viewBox="0 0 154 38" fill="none" xmlns="http://www.w3.org/2000/svg">
<path d="M31.4806 0.799999V12H29.5606V6.96H26.6806V12H24.7606V0.799999H26.6806V5.68H29.5606V0.799999H31.4806ZM37.2338 8.16H36.3538C36.2151 8.16 36.0711 8.18133 35.9218 8.224C35.7831 8.26667 35.6551 8.34667 35.5378 8.464C35.4311 8.57067 35.3404 8.72 35.2658 8.912C35.1911 9.09333 35.1538 9.32267 35.1538 9.6C35.1538 9.87733 35.1911 10.112 35.2658 10.304C35.3404 10.4853 35.4311 10.6347 35.5378 10.752C35.6551 10.8587 35.7831 10.9333 35.9218 10.976C36.0711 11.0187 36.2151 11.04 36.3538 11.04C36.5564 11.04 36.7324 11.008 36.8818 10.944C37.0311 10.88 37.1484 10.8053 37.2338 10.72V8.16ZM35.7138 12.16C35.3724 12.16 35.0524 12.1227 34.7538 12.048C34.4551 11.984 34.1938 11.856 33.9698 11.664C33.7458 11.472 33.5644 11.2107 33.4258 10.88C33.2978 10.5493 33.2338 10.1227 33.2338 9.6C33.2338 9.07733 33.2978 8.65067 33.4258 8.32C33.5644 7.98933 33.7511 7.728 33.9858 7.536C34.2204 7.344 34.4978 7.216 34.8178 7.152C35.1378 7.07733 35.4898 7.04 35.8738 7.04C36.1191 7.04 36.3538 7.056 36.5778 7.088C36.8124 7.12 37.0311 7.15733 37.2338 7.2V6.56C37.2338 5.92 37.0844 5.49333 36.7858 5.28C36.4871 5.06667 36.0764 4.96 35.5538 4.96H33.9538V4.16C34.1991 4.07467 34.4978 4 34.8498 3.936C35.2124 3.872 35.5538 3.84 35.8738 3.84C36.4178 3.84 36.8924 3.87733 37.2977 3.952C37.7031 4.02667 38.0444 4.16533 38.3218 4.368C38.5991 4.56 38.8071 4.83733 38.9458 5.2C39.0844 5.552 39.1538 6.00533 39.1538 6.56V12H37.7938L37.5538 11.52H37.4738C37.3031 11.68 37.0791 11.8293 36.8018 11.968C36.5244 12.096 36.1618 12.16 35.7138 12.16ZM46.5075 4V7.2H46.5875C46.7048 7.2 46.8168 7.14667 46.9235 7.04C47.0302 6.92267 47.1582 6.68267 47.3075 6.32L47.7875 5.12C47.9475 4.71467 48.1608 4.4 48.4275 4.176C48.6942 3.952 49.0675 3.84 49.5475 3.84C49.6862 3.84 49.8195 3.85067 49.9475 3.872C50.0755 3.88267 50.1875 3.89867 50.2835 3.92C50.4008 3.952 50.5022 3.97867 50.5875 4V4.8C50.3102 4.8 50.1075 4.85333 49.9795 4.96C49.8515 5.056 49.7608 5.16267 49.7075 5.28L49.3075 6.32C49.1368 6.768 48.9502 7.09867 48.7475 7.312C48.5555 7.52533 48.3368 7.664 48.0915 7.728V7.792C48.3795 7.856 48.6515 8 48.9075 8.224C49.1635 8.448 49.3502 8.8 49.4675 9.28L49.7875 10.56C49.8302 10.72 49.9315 10.8693 50.0915 11.008C50.2515 11.136 50.4702 11.2 50.7475 11.2V12C50.6622 12.032 50.5608 12.0587 50.4435 12.08C50.2302 12.1333 49.9848 12.16 49.7075 12.16C49.1848 12.16 48.7742 12.0373 48.4755 11.792C48.1768 11.536 47.9742 11.2053 47.8675 10.8L47.4675 9.28C47.3928 9.00267 47.2755 8.78933 47.1155 8.64C46.9662 8.48 46.7902 8.4 46.5875 8.4H46.5075V12H44.5875V8.4H44.5075C44.3048 8.4 44.1235 8.48 43.9635 8.64C43.8142 8.78933 43.7022 9.00267 43.6275 9.28L43.2275 10.8C43.1208 11.2053 42.9182 11.536 42.6195 11.792C42.3208 12.0373 41.9102 12.16 41.3875 12.16C41.1102 12.16 40.8648 12.1333 40.6515 12.08C40.5342 12.0587 40.4328 12.032 40.3475 12V11.2C40.6248 11.2 40.8435 11.136 41.0035 11.008C41.1635 10.8693 41.2648 10.72 41.3075 10.56L41.6275 9.28C41.7448 8.8 41.9315 8.448 42.1875 8.224C42.4435 8 42.7155 7.856 43.0035 7.792V7.728C42.7582 7.664 42.5342 7.52533 42.3315 7.312C42.1395 7.09867 41.9582 6.768 41.7875 6.32L41.3875 5.28C41.3342 5.16267 41.2435 5.056 41.1155 4.96C40.9875 4.85333 40.7848 4.8 40.5075 4.8V4C40.5928 3.97867 40.6942 3.952 40.8115 3.92C40.9075 3.89867 41.0142 3.88267 41.1315 3.872C41.2595 3.85067 41.3982 3.84 41.5475 3.84C42.0275 3.84 42.4008 3.952 42.6675 4.176C42.9342 4.4 43.1475 4.71467 43.3075 5.12L43.7875 6.32C43.9368 6.68267 44.0648 6.92267 44.1715 7.04C44.2782 7.14667 44.3902 7.2 44.5075 7.2H44.5875V4H46.5075ZM55.3863 10.8L53.9623 6.96H53.8983L53.5463 12H51.7063L52.2663 4H54.3463L56.1543 8.88H56.2183L58.0263 4H60.1063L60.6663 12H58.8263L58.4743 6.96H58.4103L56.9863 10.8H55.3863ZM66.7488 6.96H66.6688L64.4288 12H62.5088V4H64.3488V8.88H64.4288L66.5088 4H68.5888V12H66.7488V6.96ZM75.705 4V5.2H73.705V12H71.785V5.2H69.785V4H75.705ZM82.4231 8.56H78.2631C78.2631 9.47733 78.4231 10.1227 78.7431 10.496C79.0738 10.8587 79.5805 11.04 80.2631 11.04H82.0231V11.84C81.7778 11.9253 81.4685 12 81.0951 12.064C80.7325 12.128 80.3485 12.16 79.9431 12.16C79.3245 12.16 78.7858 12.0853 78.3271 11.936C77.8791 11.7867 77.5058 11.5467 77.2071 11.216C76.9191 10.8853 76.7005 10.4587 76.5511 9.936C76.4125 9.40267 76.3431 8.75733 76.3431 8C76.3431 7.24267 76.4125 6.60267 76.5511 6.08C76.6898 5.54667 76.8871 5.11467 77.1431 4.784C77.3991 4.45333 77.7138 4.21333 78.0871 4.064C78.4711 3.91467 78.9031 3.84 79.3831 3.84C79.8631 3.84 80.2898 3.91467 80.6631 4.064C81.0471 4.21333 81.3671 4.45333 81.6231 4.784C81.8791 5.11467 82.0765 5.54667 82.2151 6.08C82.3538 6.60267 82.4231 7.24267 82.4231 8V8.56ZM80.5031 7.44C80.5031 6.91733 80.4711 6.49067 80.4071 6.16C80.3538 5.82933 80.2791 5.568 80.1831 5.376C80.0871 5.184 79.9698 5.056 79.8311 4.992C79.6925 4.91733 79.5431 4.88 79.3831 4.88C79.2231 4.88 79.0738 4.91733 78.9351 4.992C78.7965 5.056 78.6791 5.184 78.5831 5.376C78.4871 5.568 78.4071 5.82933 78.3431 6.16C78.2898 6.49067 78.2631 6.91733 78.2631 7.44H80.5031ZM83.7025 10.24H85.6225L84.9825 13.92H83.7025V10.24ZM90.8275 4H92.7475V6.8C92.7475 7.056 92.7848 7.27467 92.8595 7.456C92.9342 7.62667 93.0302 7.76533 93.1475 7.872C93.2755 7.97867 93.4195 8.05333 93.5795 8.096C93.7502 8.13867 93.9262 8.16 94.1075 8.16H94.9075V4H96.8275V12H94.9075V9.12C94.7048 9.16267 94.4542 9.2 94.1555 9.232C93.8675 9.264 93.5848 9.28 93.3075 9.28C92.9662 9.28 92.6462 9.248 92.3475 9.184C92.0488 9.10933 91.7875 8.98133 91.5635 8.8C91.3395 8.608 91.1582 8.352 91.0195 8.032C90.8915 7.712 90.8275 7.30133 90.8275 6.8V4ZM103.955 4V5.2H101.955V12H100.035V5.2H98.035V4H103.955ZM107.793 4.88C107.612 4.88 107.441 4.928 107.281 5.024C107.132 5.10933 106.998 5.26933 106.881 5.504C106.764 5.73867 106.673 6.05867 106.609 6.464C106.545 6.86933 106.513 7.38133 106.513 8C106.513 8.61867 106.545 9.13067 106.609 9.536C106.673 9.94133 106.764 10.2613 106.881 10.496C106.998 10.7307 107.132 10.896 107.281 10.992C107.441 11.0773 107.612 11.12 107.793 11.12C107.974 11.12 108.14 11.0773 108.289 10.992C108.449 10.896 108.588 10.7307 108.705 10.496C108.822 10.2613 108.913 9.94133 108.977 9.536C109.041 9.13067 109.073 8.61867 109.073 8C109.073 7.38133 109.041 6.86933 108.977 6.464C108.913 6.05867 108.822 5.73867 108.705 5.504C108.588 5.26933 108.449 5.10933 108.289 5.024C108.14 4.928 107.974 4.88 107.793 4.88ZM107.793 3.84C108.316 3.84 108.774 3.91467 109.169 4.064C109.564 4.21333 109.894 4.45333 110.161 4.784C110.438 5.11467 110.646 5.54667 110.785 6.08C110.924 6.60267 110.993 7.24267 110.993 8C110.993 8.75733 110.924 9.40267 110.785 9.936C110.646 10.4587 110.438 10.8853 110.161 11.216C109.894 11.5467 109.564 11.7867 109.169 11.936C108.774 12.0853 108.316 12.16 107.793 12.16C107.27 12.16 106.812 12.0853 106.417 11.936C106.022 11.7867 105.686 11.5467 105.409 11.216C105.142 10.8853 104.94 10.4587 104.801 9.936C104.662 9.40267 104.593 8.75733 104.593 8C104.593 7.24267 104.662 6.60267 104.801 6.08C104.94 5.54667 105.142 5.11467 105.409 4.784C105.686 4.45333 106.022 4.21333 106.417 4.064C106.812 3.91467 107.27 3.84 107.793 3.84ZM114.361 4.72C114.521 4.60267 114.718 4.50667 114.953 4.432C115.198 4.35733 115.481 4.32 115.801 4.32C116.761 4.32 117.507 4.624 118.041 5.232C118.574 5.84 118.841 6.84267 118.841 8.24C118.841 9.63733 118.563 10.64 118.009 11.248C117.465 11.856 116.675 12.16 115.641 12.16C114.595 12.16 113.801 11.856 113.257 11.248C112.713 10.64 112.441 9.63733 112.441 8.24V5.6C112.441 4.704 112.515 3.952 112.665 3.344C112.814 2.72533 113.054 2.22933 113.385 1.856C113.726 1.48267 114.163 1.21067 114.697 1.04C115.241 0.858666 115.902 0.752 116.681 0.719999L118.601 0.639999L118.681 1.44C118.403 1.55733 118.073 1.66933 117.689 1.776C117.305 1.872 116.889 1.94667 116.441 2C116.078 2.04267 115.763 2.11733 115.497 2.224C115.241 2.33067 115.027 2.49067 114.857 2.704C114.686 2.90667 114.558 3.17333 114.473 3.504C114.398 3.83467 114.361 4.24 114.361 4.72ZM114.361 8.24C114.361 8.80533 114.398 9.27467 114.473 9.648C114.547 10.0107 114.643 10.304 114.761 10.528C114.878 10.7413 115.011 10.896 115.161 10.992C115.321 11.0773 115.481 11.12 115.641 11.12C115.801 11.12 115.955 11.0773 116.105 10.992C116.265 10.896 116.403 10.7413 116.521 10.528C116.638 10.304 116.734 10.0107 116.809 9.648C116.883 9.27467 116.921 8.80533 116.921 8.24C116.921 7.696 116.883 7.248 116.809 6.896C116.734 6.53333 116.622 6.24533 116.473 6.032C116.334 5.81867 116.163 5.66933 115.961 5.584C115.769 5.488 115.555 5.44 115.321 5.44C115.075 5.44 114.873 5.472 114.713 5.536C114.563 5.6 114.446 5.67467 114.361 5.76V8.24ZM129.323 4V12H127.403V4H129.323ZM122.523 7.04C122.725 6.99733 122.949 6.96 123.195 6.928C123.451 6.896 123.68 6.88 123.883 6.88C124.267 6.88 124.619 6.91733 124.939 6.992C125.259 7.06667 125.536 7.2 125.771 7.392C126.005 7.584 126.187 7.85067 126.315 8.192C126.453 8.53333 126.523 8.976 126.523 9.52C126.523 10.064 126.453 10.5067 126.315 10.848C126.176 11.1893 125.973 11.456 125.707 11.648C125.451 11.84 125.125 11.9733 124.731 12.048C124.347 12.1227 123.904 12.16 123.403 12.16C122.795 12.16 122.277 12.1333 121.851 12.08C121.424 12.0373 121.008 11.9573 120.603 11.84V4H122.523V7.04ZM123.403 11.04C123.541 11.04 123.68 11.0187 123.819 10.976C123.968 10.9227 124.096 10.8427 124.203 10.736C124.32 10.6187 124.416 10.464 124.491 10.272C124.565 10.0693 124.603 9.81867 124.603 9.52C124.603 9.24267 124.565 9.01333 124.491 8.832C124.416 8.64 124.32 8.49067 124.203 8.384C124.096 8.26667 123.968 8.18667 123.819 8.144C123.68 8.10133 123.541 8.08 123.403 8.08H122.523V11.04H123.403ZM8.3925 32.8V36.32H7.1925C7.0325 36.0427 6.89383 35.7067 6.7765 35.312C6.66983 34.9173 6.59517 34.48 6.5525 34H2.3125C2.26983 34.48 2.18983 34.9173 2.0725 35.312C1.96583 35.7067 1.8325 36.0427 1.6725 36.32H0.4725V32.8H1.1925C1.3525 32.5973 1.50183 32.3307 1.6405 32C1.78983 31.6587 1.8805 31.2053 1.9125 30.64L2.1525 26H7.4325V32.8H8.3925ZM4.0085 27.2L3.8325 30.64C3.8005 31.2053 3.70983 31.6587 3.5605 32C3.42183 32.3307 3.2725 32.5973 3.1125 32.8H5.5125V27.2H4.0085ZM12.6369 26.88C12.4555 26.88 12.2849 26.928 12.1249 27.024C11.9755 27.1093 11.8422 27.2693 11.7249 27.504C11.6075 27.7387 11.5169 28.0587 11.4529 28.464C11.3889 28.8693 11.3569 29.3813 11.3569 30C11.3569 30.6187 11.3889 31.1307 11.4529 31.536C11.5169 31.9413 11.6075 32.2613 11.7249 32.496C11.8422 32.7307 11.9755 32.896 12.1249 32.992C12.2849 33.0773 12.4555 33.12 12.6369 33.12C12.8182 33.12 12.9835 33.0773 13.1329 32.992C13.2929 32.896 13.4315 32.7307 13.5489 32.496C13.6662 32.2613 13.7569 31.9413 13.8209 31.536C13.8849 31.1307 13.9169 30.6187 13.9169 30C13.9169 29.3813 13.8849 28.8693 13.8209 28.464C13.7569 28.0587 13.6662 27.7387 13.5489 27.504C13.4315 27.2693 13.2929 27.1093 13.1329 27.024C12.9835 26.928 12.8182 26.88 12.6369 26.88ZM12.6369 25.84C13.1595 25.84 13.6182 25.9147 14.0129 26.064C14.4075 26.2133 14.7382 26.4533 15.0049 26.784C15.2822 27.1147 15.4902 27.5467 15.6289 28.08C15.7675 28.6027 15.8369 29.2427 15.8369 30C15.8369 30.7573 15.7675 31.4027 15.6289 31.936C15.4902 32.4587 15.2822 32.8853 15.0049 33.216C14.7382 33.5467 14.4075 33.7867 14.0129 33.936C13.6182 34.0853 13.1595 34.16 12.6369 34.16C12.1142 34.16 11.6555 34.0853 11.2609 33.936C10.8662 33.7867 10.5302 33.5467 10.2529 33.216C9.98621 32.8853 9.78354 32.4587 9.64488 31.936C9.50621 31.4027 9.43688 30.7573 9.43688 30C9.43688 29.2427 9.50621 28.6027 9.64488 28.08C9.78354 27.5467 9.98621 27.1147 10.2529 26.784C10.5302 26.4533 10.8662 26.2133 11.2609 26.064C11.6555 25.9147 12.1142 25.84 12.6369 25.84ZM19.2044 26.72C19.3644 26.6027 19.5617 26.5067 19.7964 26.432C20.0417 26.3573 20.3244 26.32 20.6444 26.32C21.6044 26.32 22.351 26.624 22.8844 27.232C23.4177 27.84 23.6844 28.8427 23.6844 30.24C23.6844 31.6373 23.407 32.64 22.8524 33.248C22.3084 33.856 21.519 34.16 20.4844 34.16C19.439 34.16 18.6444 33.856 18.1004 33.248C17.5564 32.64 17.2844 31.6373 17.2844 30.24V27.6C17.2844 26.704 17.359 25.952 17.5084 25.344C17.6577 24.7253 17.8977 24.2293 18.2284 23.856C18.5697 23.4827 19.007 23.2107 19.5404 23.04C20.0844 22.8587 20.7457 22.752 21.5244 22.72L23.4444 22.64L23.5244 23.44C23.247 23.5573 22.9164 23.6693 22.5324 23.776C22.1484 23.872 21.7324 23.9467 21.2844 24C20.9217 24.0427 20.607 24.1173 20.3404 24.224C20.0844 24.3307 19.871 24.4907 19.7004 24.704C19.5297 24.9067 19.4017 25.1733 19.3164 25.504C19.2417 25.8347 19.2044 26.24 19.2044 26.72ZM19.2044 30.24C19.2044 30.8053 19.2417 31.2747 19.3164 31.648C19.391 32.0107 19.487 32.304 19.6044 32.528C19.7217 32.7413 19.855 32.896 20.0044 32.992C20.1644 33.0773 20.3244 33.12 20.4844 33.12C20.6444 33.12 20.799 33.0773 20.9484 32.992C21.1084 32.896 21.247 32.7413 21.3644 32.528C21.4817 32.304 21.5777 32.0107 21.6524 31.648C21.727 31.2747 21.7644 30.8053 21.7644 30.24C21.7644 29.696 21.727 29.248 21.6524 28.896C21.5777 28.5333 21.4657 28.2453 21.3164 28.032C21.1777 27.8187 21.007 27.6693 20.8044 27.584C20.6124 27.488 20.399 27.44 20.1644 27.44C19.919 27.44 19.7164 27.472 19.5564 27.536C19.407 27.6 19.2897 27.6747 19.2044 27.76V30.24ZM29.0463 30.16H28.1663C28.0276 30.16 27.8836 30.1813 27.7343 30.224C27.5956 30.2667 27.4676 30.3467 27.3503 30.464C27.2436 30.5707 27.1529 30.72 27.0783 30.912C27.0036 31.0933 26.9663 31.3227 26.9663 31.6C26.9663 31.8773 27.0036 32.112 27.0783 32.304C27.1529 32.4853 27.2436 32.6347 27.3503 32.752C27.4676 32.8587 27.5956 32.9333 27.7343 32.976C27.8836 33.0187 28.0276 33.04 28.1663 33.04C28.3689 33.04 28.5449 33.008 28.6943 32.944C28.8436 32.88 28.9609 32.8053 29.0463 32.72V30.16ZM27.5263 34.16C27.1849 34.16 26.8649 34.1227 26.5663 34.048C26.2676 33.984 26.0063 33.856 25.7823 33.664C25.5583 33.472 25.3769 33.2107 25.2383 32.88C25.1103 32.5493 25.0463 32.1227 25.0463 31.6C25.0463 31.0773 25.1103 30.6507 25.2383 30.32C25.3769 29.9893 25.5636 29.728 25.7983 29.536C26.0329 29.344 26.3103 29.216 26.6303 29.152C26.9503 29.0773 27.3023 29.04 27.6863 29.04C27.9316 29.04 28.1663 29.056 28.3903 29.088C28.6249 29.12 28.8436 29.1573 29.0463 29.2V28.56C29.0463 27.92 28.8969 27.4933 28.5983 27.28C28.2996 27.0667 27.8889 26.96 27.3663 26.96H25.7663V26.16C26.0116 26.0747 26.3103 26 26.6623 25.936C27.0249 25.872 27.3663 25.84 27.6863 25.84C28.2303 25.84 28.7049 25.8773 29.1102 25.952C29.5156 26.0267 29.8569 26.1653 30.1343 26.368C30.4116 26.56 30.6196 26.8373 30.7583 27.2C30.8969 27.552 30.9663 28.0053 30.9663 28.56V34H29.6063L29.3663 33.52H29.2863C29.1156 33.68 28.8916 33.8293 28.6143 33.968C28.3369 34.096 27.9743 34.16 27.5263 34.16ZM35.92 33.04C36.1013 33.04 36.272 33.0187 36.432 32.976C36.6027 32.9333 36.7467 32.8587 36.864 32.752C36.992 32.6453 37.0933 32.5067 37.168 32.336C37.2427 32.1547 37.28 31.936 37.28 31.68C37.28 31.2 37.1413 30.8693 36.864 30.688C36.5973 30.496 36.2827 30.4 35.92 30.4H34.96V33.04H35.92ZM34.96 26.96V29.28H35.76C35.9093 29.28 36.0533 29.2587 36.192 29.216C36.3413 29.1733 36.4693 29.1093 36.576 29.024C36.6933 28.928 36.784 28.8107 36.848 28.672C36.9227 28.5333 36.96 28.3627 36.96 28.16C36.96 27.936 36.9227 27.7493 36.848 27.6C36.7733 27.4507 36.6773 27.328 36.56 27.232C36.4533 27.136 36.3253 27.0667 36.176 27.024C36.0373 26.9813 35.8987 26.96 35.76 26.96H34.96ZM33.04 26.16C33.4453 26.0427 33.856 25.9627 34.272 25.92C34.6987 25.8667 35.1947 25.84 35.76 25.84C36.2827 25.84 36.7413 25.8773 37.136 25.952C37.5307 26.016 37.8613 26.1333 38.128 26.304C38.4053 26.4747 38.6133 26.704 38.752 26.992C38.8907 27.28 38.96 27.6427 38.96 28.08C38.96 28.336 38.9173 28.56 38.832 28.752C38.7573 28.9333 38.656 29.088 38.528 29.216C38.4 29.344 38.2613 29.4507 38.112 29.536C37.9627 29.6107 37.8187 29.6747 37.68 29.728V29.792C37.8613 29.8453 38.0427 29.92 38.224 30.016C38.416 30.112 38.5867 30.24 38.736 30.4C38.896 30.56 39.024 30.752 39.12 30.976C39.2267 31.2 39.28 31.4613 39.28 31.76C39.28 32.24 39.2107 32.6347 39.072 32.944C38.9333 33.2533 38.72 33.4987 38.432 33.68C38.1547 33.8613 37.8027 33.984 37.376 34.048C36.96 34.1227 36.4747 34.16 35.92 34.16C35.28 34.16 34.7413 34.1333 34.304 34.08C33.8667 34.0373 33.4453 33.9573 33.04 33.84V26.16ZM45.1238 28.96H45.0438L42.8038 34H40.8838V26H42.7238V30.88H42.8038L44.8838 26H46.9638V34H45.1238V28.96ZM54.08 26V27.2H52.08V34H50.16V27.2H48.16V26H54.08ZM57.1944 29.04C57.397 28.9973 57.621 28.96 57.8664 28.928C58.1224 28.896 58.3517 28.88 58.5544 28.88C58.949 28.88 59.3117 28.9173 59.6424 28.992C59.9837 29.0667 60.2717 29.2 60.5064 29.392C60.7517 29.584 60.9384 29.8507 61.0664 30.192C61.205 30.5333 61.2744 30.976 61.2744 31.52C61.2744 32.064 61.205 32.5067 61.0664 32.848C60.9277 33.1893 60.7197 33.456 60.4424 33.648C60.1757 33.84 59.845 33.9733 59.4504 34.048C59.0557 34.1227 58.597 34.16 58.0744 34.16C57.4664 34.16 56.949 34.1333 56.5224 34.08C56.0957 34.0373 55.6797 33.9573 55.2744 33.84V26H57.1944V29.04ZM58.0744 33.04C58.2344 33.04 58.389 33.0187 58.5384 32.976C58.6984 32.9227 58.837 32.8427 58.9544 32.736C59.0717 32.6187 59.1677 32.464 59.2424 32.272C59.317 32.0693 59.3544 31.8187 59.3544 31.52C59.3544 31.2427 59.317 31.0133 59.2424 30.832C59.1677 30.64 59.0717 30.4907 58.9544 30.384C58.837 30.2667 58.6984 30.1867 58.5384 30.144C58.389 30.1013 58.2344 30.08 58.0744 30.08H57.1944V33.04H58.0744ZM71.9081 26V27.2H68.7881V34H66.8681V26H71.9081ZM78.8663 26V34H76.9463V27.2H75.2823L75.0263 31.44C74.9729 32.3573 74.7489 33.04 74.3543 33.488C73.9703 33.936 73.5009 34.16 72.9463 34.16C72.6689 34.16 72.4289 34.1333 72.2263 34.08C72.0236 34.0267 71.9169 34 71.9062 34V33.2C72.1836 33.2 72.4396 33.0667 72.6743 32.8C72.9196 32.5333 73.0636 32.08 73.1063 31.44L73.4263 26H78.8663ZM84.5463 30.16H83.6663C83.5276 30.16 83.3836 30.1813 83.2343 30.224C83.0956 30.2667 82.9676 30.3467 82.8503 30.464C82.7436 30.5707 82.6529 30.72 82.5783 30.912C82.5036 31.0933 82.4663 31.3227 82.4663 31.6C82.4663 31.8773 82.5036 32.112 82.5783 32.304C82.6529 32.4853 82.7436 32.6347 82.8503 32.752C82.9676 32.8587 83.0956 32.9333 83.2343 32.976C83.3836 33.0187 83.5276 33.04 83.6663 33.04C83.8689 33.04 84.0449 33.008 84.1943 32.944C84.3436 32.88 84.4609 32.8053 84.5463 32.72V30.16ZM83.0263 34.16C82.6849 34.16 82.3649 34.1227 82.0663 34.048C81.7676 33.984 81.5063 33.856 81.2823 33.664C81.0583 33.472 80.8769 33.2107 80.7383 32.88C80.6103 32.5493 80.5463 32.1227 80.5463 31.6C80.5463 31.0773 80.6103 30.6507 80.7383 30.32C80.8769 29.9893 81.0636 29.728 81.2983 29.536C81.5329 29.344 81.8103 29.216 82.1303 29.152C82.4503 29.0773 82.8023 29.04 83.1863 29.04C83.4316 29.04 83.6663 29.056 83.8903 29.088C84.1249 29.12 84.3436 29.1573 84.5463 29.2V28.56C84.5463 27.92 84.3969 27.4933 84.0983 27.28C83.7996 27.0667 83.3889 26.96 82.8663 26.96H81.2663V26.16C81.5116 26.0747 81.8103 26 82.1623 25.936C82.5249 25.872 82.8663 25.84 83.1863 25.84C83.7303 25.84 84.2049 25.8773 84.6102 25.952C85.0156 26.0267 85.3569 26.1653 85.6343 26.368C85.9116 26.56 86.1196 26.8373 86.2583 27.2C86.3969 27.552 86.4663 28.0053 86.4663 28.56V34H85.1063L84.8663 33.52H84.7863C84.6156 33.68 84.3916 33.8293 84.1143 33.968C83.8369 34.096 83.4743 34.16 83.0263 34.16ZM91.42 33.04C91.6013 33.04 91.772 33.0187 91.932 32.976C92.1027 32.9333 92.2467 32.8587 92.364 32.752C92.492 32.6453 92.5933 32.5067 92.668 32.336C92.7427 32.1547 92.78 31.936 92.78 31.68C92.78 31.2 92.6413 30.8693 92.364 30.688C92.0973 30.496 91.7827 30.4 91.42 30.4H90.46V33.04H91.42ZM90.46 26.96V29.28H91.26C91.4093 29.28 91.5533 29.2587 91.692 29.216C91.8413 29.1733 91.9693 29.1093 92.076 29.024C92.1933 28.928 92.284 28.8107 92.348 28.672C92.4227 28.5333 92.46 28.3627 92.46 28.16C92.46 27.936 92.4227 27.7493 92.348 27.6C92.2733 27.4507 92.1773 27.328 92.06 27.232C91.9533 27.136 91.8253 27.0667 91.676 27.024C91.5373 26.9813 91.3987 26.96 91.26 26.96H90.46ZM88.54 26.16C88.9453 26.0427 89.356 25.9627 89.772 25.92C90.1987 25.8667 90.6947 25.84 91.26 25.84C91.7827 25.84 92.2413 25.8773 92.636 25.952C93.0307 26.016 93.3613 26.1333 93.628 26.304C93.9053 26.4747 94.1133 26.704 94.252 26.992C94.3907 27.28 94.46 27.6427 94.46 28.08C94.46 28.336 94.4173 28.56 94.332 28.752C94.2573 28.9333 94.156 29.088 94.028 29.216C93.9 29.344 93.7613 29.4507 93.612 29.536C93.4627 29.6107 93.3187 29.6747 93.18 29.728V29.792C93.3613 29.8453 93.5427 29.92 93.724 30.016C93.916 30.112 94.0867 30.24 94.236 30.4C94.396 30.56 94.524 30.752 94.62 30.976C94.7267 31.2 94.78 31.4613 94.78 31.76C94.78 32.24 94.7107 32.6347 94.572 32.944C94.4333 33.2533 94.22 33.4987 93.932 33.68C93.6547 33.8613 93.3027 33.984 92.876 34.048C92.46 34.1227 91.9747 34.16 91.42 34.16C90.78 34.16 90.2413 34.1333 89.804 34.08C89.3667 34.0373 88.9453 33.9573 88.54 33.84V26.16ZM98.3038 34H96.3838V26H98.3038V29.36H100.464V26H102.384V34H100.464V30.56H98.3038V34ZM107.262 26.88C107.081 26.88 106.91 26.928 106.75 27.024C106.601 27.1093 106.467 27.2693 106.35 27.504C106.233 27.7387 106.142 28.0587 106.078 28.464C106.014 28.8693 105.982 29.3813 105.982 30C105.982 30.6187 106.014 31.1307 106.078 31.536C106.142 31.9413 106.233 32.2613 106.35 32.496C106.467 32.7307 106.601 32.896 106.75 32.992C106.91 33.0773 107.081 33.12 107.262 33.12C107.443 33.12 107.609 33.0773 107.758 32.992C107.918 32.896 108.057 32.7307 108.174 32.496C108.291 32.2613 108.382 31.9413 108.446 31.536C108.51 31.1307 108.542 30.6187 108.542 30C108.542 29.3813 108.51 28.8693 108.446 28.464C108.382 28.0587 108.291 27.7387 108.174 27.504C108.057 27.2693 107.918 27.1093 107.758 27.024C107.609 26.928 107.443 26.88 107.262 26.88ZM107.262 25.84C107.785 25.84 108.243 25.9147 108.638 26.064C109.033 26.2133 109.363 26.4533 109.63 26.784C109.907 27.1147 110.115 27.5467 110.254 28.08C110.393 28.6027 110.462 29.2427 110.462 30C110.462 30.7573 110.393 31.4027 110.254 31.936C110.115 32.4587 109.907 32.8853 109.63 33.216C109.363 33.5467 109.033 33.7867 108.638 33.936C108.243 34.0853 107.785 34.16 107.262 34.16C106.739 34.16 106.281 34.0853 105.886 33.936C105.491 33.7867 105.155 33.5467 104.878 33.216C104.611 32.8853 104.409 32.4587 104.27 31.936C104.131 31.4027 104.062 30.7573 104.062 30C104.062 29.2427 104.131 28.6027 104.27 28.08C104.409 27.5467 104.611 27.1147 104.878 26.784C105.155 26.4533 105.491 26.2133 105.886 26.064C106.281 25.9147 106.739 25.84 107.262 25.84ZM117.829 30.56H113.669C113.669 31.4773 113.829 32.1227 114.149 32.496C114.48 32.8587 114.987 33.04 115.669 33.04H117.429V33.84C117.184 33.9253 116.875 34 116.501 34.064C116.139 34.128 115.755 34.16 115.349 34.16C114.731 34.16 114.192 34.0853 113.733 33.936C113.285 33.7867 112.912 33.5467 112.613 33.216C112.325 32.8853 112.107 32.4587 111.957 31.936C111.819 31.4027 111.749 30.7573 111.749 30C111.749 29.2427 111.819 28.6027 111.957 28.08C112.096 27.5467 112.293 27.1147 112.549 26.784C112.805 26.4533 113.12 26.2133 113.493 26.064C113.877 25.9147 114.309 25.84 114.789 25.84C115.269 25.84 115.696 25.9147 116.069 26.064C116.453 26.2133 116.773 26.4533 117.029 26.784C117.285 27.1147 117.483 27.5467 117.621 28.08C117.76 28.6027 117.829 29.2427 117.829 30V30.56ZM115.909 29.44C115.909 28.9173 115.877 28.4907 115.813 28.16C115.76 27.8293 115.685 27.568 115.589 27.376C115.493 27.184 115.376 27.056 115.237 26.992C115.099 26.9173 114.949 26.88 114.789 26.88C114.629 26.88 114.48 26.9173 114.341 26.992C114.203 27.056 114.085 27.184 113.989 27.376C113.893 27.568 113.813 27.8293 113.749 28.16C113.696 28.4907 113.669 28.9173 113.669 29.44H115.909ZM128.389 32.96C128.613 32.9173 128.815 32.8427 128.997 32.736C129.178 32.6187 129.338 32.448 129.477 32.224C129.615 32 129.722 31.712 129.797 31.36C129.871 30.9973 129.909 30.544 129.909 30C129.909 29.456 129.871 29.008 129.797 28.656C129.722 28.2933 129.615 28 129.477 27.776C129.338 27.552 129.178 27.3867 128.997 27.28C128.815 27.1627 128.613 27.0827 128.389 27.04V32.96ZM128.389 22.8V25.92C129.466 26.0373 130.309 26.4267 130.917 27.088C131.525 27.7493 131.829 28.72 131.829 30C131.829 31.28 131.525 32.2507 130.917 32.912C130.309 33.5733 129.466 33.9627 128.389 34.08V37.2H126.469V34.08C125.391 33.9627 124.549 33.5733 123.941 32.912C123.333 32.2507 123.029 31.28 123.029 30C123.029 28.72 123.333 27.7493 123.941 27.088C124.549 26.4267 125.391 26.0373 126.469 25.92V22.8H128.389ZM126.469 27.04C126.245 27.0827 126.042 27.1627 125.861 27.28C125.679 27.3867 125.519 27.552 125.381 27.776C125.242 28 125.135 28.2933 125.061 28.656C124.986 29.008 124.949 29.456 124.949 30C124.949 30.544 124.986 30.9973 125.061 31.36C125.135 31.712 125.242 32 125.381 32.224C125.519 32.448 125.679 32.6187 125.861 32.736C126.042 32.8427 126.245 32.9173 126.469 32.96V27.04ZM136.231 26.88C136.049 26.88 135.879 26.928 135.719 27.024C135.569 27.1093 135.436 27.2693 135.319 27.504C135.201 27.7387 135.111 28.0587 135.047 28.464C134.983 28.8693 134.951 29.3813 134.951 30C134.951 30.6187 134.983 31.1307 135.047 31.536C135.111 31.9413 135.201 32.2613 135.319 32.496C135.436 32.7307 135.569 32.896 135.719 32.992C135.879 33.0773 136.049 33.12 136.231 33.12C136.412 33.12 136.577 33.0773 136.727 32.992C136.887 32.896 137.025 32.7307 137.143 32.496C137.26 32.2613 137.351 31.9413 137.415 31.536C137.479 31.1307 137.511 30.6187 137.511 30C137.511 29.3813 137.479 28.8693 137.415 28.464C137.351 28.0587 137.26 27.7387 137.143 27.504C137.025 27.2693 136.887 27.1093 136.727 27.024C136.577 26.928 136.412 26.88 136.231 26.88ZM136.231 25.84C136.753 25.84 137.212 25.9147 137.607 26.064C138.001 26.2133 138.332 26.4533 138.599 26.784C138.876 27.1147 139.084 27.5467 139.223 28.08C139.361 28.6027 139.431 29.2427 139.431 30C139.431 30.7573 139.361 31.4027 139.223 31.936C139.084 32.4587 138.876 32.8853 138.599 33.216C138.332 33.5467 138.001 33.7867 137.607 33.936C137.212 34.0853 136.753 34.16 136.231 34.16C135.708 34.16 135.249 34.0853 134.855 33.936C134.46 33.7867 134.124 33.5467 133.847 33.216C133.58 32.8853 133.377 32.4587 133.239 31.936C133.1 31.4027 133.031 30.7573 133.031 30C133.031 29.2427 133.1 28.6027 133.239 28.08C133.377 27.5467 133.58 27.1147 133.847 26.784C134.124 26.4533 134.46 26.2133 134.855 26.064C135.249 25.9147 135.708 25.84 136.231 25.84ZM146.002 26V27.2H144.002V34H142.082V27.2H140.082V26H146.002ZM149.84 26.88C149.659 26.88 149.488 26.928 149.328 27.024C149.179 27.1093 149.045 27.2693 148.928 27.504C148.811 27.7387 148.72 28.0587 148.656 28.464C148.592 28.8693 148.56 29.3813 148.56 30C148.56 30.6187 148.592 31.1307 148.656 31.536C148.72 31.9413 148.811 32.2613 148.928 32.496C149.045 32.7307 149.179 32.896 149.328 32.992C149.488 33.0773 149.659 33.12 149.84 33.12C150.021 33.12 150.187 33.0773 150.336 32.992C150.496 32.896 150.635 32.7307 150.752 32.496C150.869 32.2613 150.96 31.9413 151.024 31.536C151.088 31.1307 151.12 30.6187 151.12 30C151.12 29.3813 151.088 28.8693 151.024 28.464C150.96 28.0587 150.869 27.7387 150.752 27.504C150.635 27.2693 150.496 27.1093 150.336 27.024C150.187 26.928 150.021 26.88 149.84 26.88ZM149.84 25.84C150.363 25.84 150.821 25.9147 151.216 26.064C151.611 26.2133 151.941 26.4533 152.208 26.784C152.485 27.1147 152.693 27.5467 152.832 28.08C152.971 28.6027 153.04 29.2427 153.04 30C153.04 30.7573 152.971 31.4027 152.832 31.936C152.693 32.4587 152.485 32.8853 152.208 33.216C151.941 33.5467 151.611 33.7867 151.216 33.936C150.821 34.0853 150.363 34.16 149.84 34.16C149.317 34.16 148.859 34.0853 148.464 33.936C148.069 33.7867 147.733 33.5467 147.456 33.216C147.189 32.8853 146.987 32.4587 146.848 31.936C146.709 31.4027 146.64 30.7573 146.64 30C146.64 29.2427 146.709 28.6027 146.848 28.08C146.987 27.5467 147.189 27.1147 147.456 26.784C147.733 26.4533 148.069 26.2133 148.464 26.064C148.859 25.9147 149.317 25.84 149.84 25.84Z" fill="#5F7DAB"/>
</svg>
