<svg width="11" height="10" viewBox="0 0 11 10" fill="none" xmlns="http://www.w3.org/2000/svg">
<path d="M10.4305 8.46524L6.96523 5L10.4305 1.53476C10.7055 1.25975 10.7055 0.813372 10.4305 0.538366L10.0984 0.206254C9.82335 -0.0687515 9.37697 -0.0687514 9.10196 0.206255L5.63672 3.67149L2.17148 0.206255C1.89647 -0.0687514 1.45009 -0.0687515 1.17508 0.206254L0.842973 0.538366C0.567967 0.813372 0.567967 1.25975 0.842973 1.53476L4.30821 5L0.842974 8.46524C0.567968 8.74025 0.567968 9.18663 0.842974 9.46163L1.17509 9.79375C1.45009 10.0688 1.89647 10.0688 2.17148 9.79375L5.63672 6.32851L9.10196 9.79375C9.37697 10.0688 9.82335 10.0688 10.0984 9.79375L10.4305 9.46163C10.7055 9.18663 10.7055 8.74025 10.4305 8.46524Z" fill="#00B0F3"/>
</svg>
