<svg width="635" height="292" viewBox="0 0 635 292" fill="none" xmlns="http://www.w3.org/2000/svg">
<path d="M118.132 287.369C116.795 285.268 112.77 279.816 107.41 280.538C101.569 281.324 113.86 285.175 117.623 287.385C116.92 287.422 116.216 287.339 115.541 287.142C113.026 286.245 108.717 287.965 107.34 288.568H131.289C131.016 287.647 130.404 286.865 129.576 286.378C129.183 286.137 128.392 286.104 127.372 286.181C128.796 284.503 129.785 279.14 125.821 280.52C122.925 281.528 122.933 284.805 123.217 286.743C122.601 286.84 121.976 286.937 121.359 287.026C120.167 280.949 115.95 263.14 107.401 262.665C98.7358 262.183 114.75 281.135 120.082 287.196C119.399 287.279 118.741 287.34 118.132 287.369Z" fill="#00AB5B"/>
<path d="M167.343 281.64L161.859 280.834C161.859 280.834 143.418 266.18 140.672 238.836C140.385 236.027 140.341 233.198 140.541 230.382C140.582 230.058 140.515 229.73 140.35 229.449C140.35 229.447 140.348 229.445 140.344 229.441C139.753 228.536 138.285 226.269 136.296 223.046C134.336 219.87 130.981 213.866 127.29 207.128C120.64 194.994 112.899 180.483 110.244 175.861C101.783 161.13 105.861 151.226 105.861 151.226C105.861 151.226 129.464 148.892 135.931 143.234L138.261 146.825C138.261 146.825 143.374 169.464 143.133 169.569C143.384 170.339 143.64 171.122 143.9 171.92C147.936 184.376 152.578 199.945 155.109 212.625C156.531 219.759 157.285 225.975 156.88 230.21C156.741 231.663 156.91 233.895 157.297 236.652C159.582 252.9 167.343 281.64 167.343 281.64Z" fill="#2E4969"/>
<path d="M178.85 288.579H155.969C155.969 288.579 155.421 285.092 156.616 282.446C157.761 279.907 159.394 279.826 156.825 275.847C158.278 277.344 162.952 277.963 166.26 277.518C166.666 278.176 168.873 282.584 170.227 283.557C171.722 284.631 178.39 284.248 178.85 288.579Z" fill="#477FA1"/>
<path d="M157.853 277.606L155.094 273.768L164.69 271.249L166.369 277.606H157.853Z" fill="#DEA7A3"/>
<path d="M143.9 171.92C141.901 182.943 137.18 201.289 127.29 207.128C120.64 194.994 112.899 180.483 110.244 175.861C101.783 161.13 105.861 151.226 105.861 151.226C105.861 151.226 129.464 148.892 135.931 143.234L138.261 146.825C138.261 146.825 143.374 169.464 143.133 169.569C143.384 170.339 143.64 171.122 143.9 171.92Z" fill="#244062"/>
<path d="M127.853 152.928L127.931 148.648C119.405 149.723 98.5324 138.46 98.5324 138.46C98.5324 138.46 89.6123 144.392 88.3915 161.335C87.7955 169.605 84.0248 204.579 83.6078 215.022C83.4557 218.807 83.4051 221.508 83.388 222.588C83.3892 222.591 83.3896 222.595 83.3892 222.598C83.3681 222.924 83.2407 223.233 83.0265 223.479C81.2849 225.702 79.7391 228.071 78.4066 230.561C65.3963 254.767 72.1999 287.659 72.1999 287.659L75.2214 286.891C75.2214 286.891 86.2221 252.794 93.4118 238.044C94.6324 235.543 95.741 233.597 96.6682 232.471C99.3718 229.187 102.222 223.611 105.032 216.9C110.343 204.213 115.5 187.472 119.177 174.509C119.437 174.556 127.853 152.928 127.853 152.928Z" fill="#2E4969"/>
<path d="M90.3971 288.579H67.5162C67.5162 288.579 66.9678 285.092 68.1629 282.446C69.3082 279.907 71.1016 278.754 70.6722 275.682C74.0103 276.527 76.3345 276.682 77.9687 278.566C78.374 279.223 80.42 282.584 81.7738 283.557C83.269 284.631 89.9365 284.248 90.3971 288.579Z" fill="#477FA1"/>
<path d="M70.7711 277.006L70.5312 272.568L79.8873 272.928L77.9681 278.566L70.7711 277.006Z" fill="#DEA7A3"/>
<path d="M435.415 278.086L434.695 267.65L448.849 260.573L445.491 279.405L435.415 278.086Z" fill="#DEA7A3"/>
<path d="M494.47 269.206L490.213 261.138L499.003 250.497L502.972 266.702L494.47 269.206Z" fill="#DEA7A3"/>
<path d="M487.345 290.003H497.376C499.479 290.003 501.816 287.897 502.401 284.042C502.986 280.184 507.308 278.082 508.244 274.926C509.18 271.77 504.387 267.328 504.387 267.328L503.585 266.298L502.751 265.225L494.487 268.97C494.487 268.97 494.609 268.986 494.487 271.396C494.384 273.233 494.373 275.074 494.454 276.912C494.688 281.121 493.275 285.651 489.538 286.47C485.797 287.289 487.345 290.003 487.345 290.003Z" fill="#477FA1"/>
<path d="M417.508 290.003H444.099C444.293 289.971 444.483 289.916 444.664 289.839C446.439 288.95 445.883 282.153 445.67 280.053C445.629 279.664 445.599 279.436 445.599 279.436C445.599 279.436 437.456 276.766 434.962 277.684C434.921 277.862 434.875 278.038 434.825 278.21V278.213C433.202 283.571 425.946 286.005 421.755 286.683C418.552 287.204 417.721 289.07 417.508 290.003Z" fill="#477FA1"/>
<path d="M422.867 129.968C422.867 129.968 424.287 147.686 425.956 168.983C428.225 197.913 430.953 233.45 431.222 240.182C431.689 251.872 433.561 270.571 433.561 270.571C433.561 270.571 438 275.013 446.885 273.141C446.885 273.141 454.802 246.447 457.064 218.204C457.099 217.741 457.134 217.275 457.169 216.809C459.273 188.057 462.544 127.514 462.544 127.514L422.867 129.968Z" fill="#00AB5B"/>
<path d="M422.305 136.264C422.305 136.264 424.269 156.807 425.938 178.104L456.502 224.5C456.536 224.037 458.965 198.466 459 198C461.104 169.248 461.982 133.81 461.982 133.81L422.305 136.264Z" fill="#069A55"/>
<path d="M427.262 133.243C427.262 133.243 452.858 197.408 469.688 227.562C486.518 257.716 491.777 266.131 491.777 266.131C491.777 266.131 501.42 262.274 502.296 259.644C502.296 259.644 495.86 201.43 484.589 187.239C478.221 179.22 470.74 155.157 470.389 146.742C470.038 138.327 468.11 121.672 468.11 121.672L427.262 133.243Z" fill="#00AB5B"/>
<path d="M0.27271 288.401H240.346C240.418 288.401 240.488 288.477 240.539 288.612C240.59 288.746 240.619 288.928 240.619 289.119V289.364C240.619 289.554 240.59 289.736 240.539 289.871C240.488 290.005 240.418 290.081 240.346 290.081H0.272616C0.200314 290.081 0.130972 290.005 0.0798467 289.871C0.0287212 289.736 0 289.554 0 289.364V289.119C0 288.929 0.0287293 288.746 0.0798723 288.612C0.131015 288.477 0.200383 288.401 0.27271 288.401Z" fill="#2E3552"/>
<path d="M557.158 288.487H523.487C521.683 286.956 524.736 283.48 527.926 283.247C529.311 283.142 531.063 283.432 533.065 283.855C533.528 277.701 536.174 250.035 546.146 251.147C557.359 252.392 546.146 263.331 542.976 269.807C540.628 274.604 538.152 281.483 537.02 284.729C537.93 284.926 538.873 285.12 539.835 285.297C541.321 280.734 546.851 265.385 553.883 266.279C562.14 267.326 558.821 273.48 552.969 277.133C548.676 279.819 543.404 283.638 540.898 285.482C543.072 285.861 545.277 286.037 547.483 286.01C553.251 285.873 556.066 287.573 557.158 288.487Z" fill="#00AB5B"/>
<path d="M449.597 47.5156C449.597 47.5156 441.798 56.7686 431.866 52.8979C431.866 52.8979 429.728 47.7302 429.699 43.9209C429.695 43.4519 429.689 42.9976 429.682 42.5656C429.629 38.2758 429.484 35.8688 429.484 35.8688C429.488 35.8677 429.491 35.867 429.494 35.8667C429.946 35.6783 444.678 29.63 444.665 30.1326C444.413 41.7344 449.597 47.5156 449.597 47.5156Z" fill="#DEA7A3"/>
<path d="M443.186 32.8991C441.766 35.5324 436.891 40.6839 429.682 42.5658C429.629 38.276 429.484 35.8691 429.484 35.8691C429.488 35.8679 429.491 35.8672 429.494 35.8669C429.902 35.7575 443.609 32.123 443.186 32.8991Z" fill="#D19892"/>
<path d="M426.401 35.4231C426.401 35.4231 442.968 39.318 445.235 28.9634C447.502 18.6091 451.167 12.1384 440.685 9.21392C430.203 6.28921 427.276 9.78884 425.679 13.061C424.082 16.3331 422.15 34.1431 426.401 35.4231Z" fill="#DEA7A3"/>
<path d="M444.668 31.7848C444.895 31.9296 448.459 33.0246 455.21 19.576C456.27 17.4649 456.992 12.8977 454.522 8.86226C452.051 4.82697 443.292 1.65404 436.015 0.273226C428.737 -1.10749 426.99 2.98754 425.276 7.10308C423.477 11.4234 418.281 14.9801 418.281 14.9801C424.557 18.4859 432.115 13.4717 434.734 14.2963C437.353 15.1207 438.278 19.2477 438.474 20.5707C438.671 21.8936 438.973 22.9929 442.266 21.8114C445.558 20.63 443.754 26.4777 443.227 27.5959C443.227 27.5959 442.78 30.5745 444.668 31.7848Z" fill="#2D3F45"/>
<path d="M487.725 127.106L487.995 131.233C487.995 131.233 485.274 138.564 492.9 142.324C492.9 142.324 496.164 143.641 496.296 141.1C496.429 138.559 496.011 139.514 496.276 135.936C496.541 132.358 495.135 128.976 492.768 127.837L490.826 125.596L487.725 127.106Z" fill="#DEA7A3"/>
<path d="M490.703 130.11C487.87 131.02 487.416 130.814 487.416 130.814C487.416 130.814 473.627 105.709 472.23 103.411C470.834 101.113 442.953 75.2587 442.953 75.2587L450.118 48.5409C450.118 48.5409 481.829 89.6044 485.253 95.4967C490.912 105.234 494.228 127.848 494.228 127.848C493.266 128.891 492.052 129.67 490.703 130.11Z" fill="#244062"/>
<path d="M417.467 85.7485C417.566 91.2352 417.885 97.4035 418.315 103.668C418.341 104.04 418.367 104.411 418.394 104.783C418.669 108.664 418.967 112.553 419.309 116.347C419.447 117.867 419.593 119.371 419.745 120.848L419.768 121.047C419.78 121.599 419.847 122.199 419.909 122.746C421.307 136.954 422.772 148.179 423.044 148.352C423.362 148.574 423.749 148.673 424.135 148.629C427.861 148.161 438.978 149.007 448.079 147.027C455.759 145.406 462.372 142.335 469.38 138.194C470.31 137.644 472.43 136.188 472.258 135.1C472.088 133.904 471.775 132.175 471.377 130.002C469.997 122.445 467.613 109.444 466.8 94.2302C466.642 91.3962 466.413 88.6012 466.113 85.8453C465.332 78.6766 464.08 71.8681 462.401 65.8198C459.281 54.5832 454.695 45.9787 448.942 42.6124C448.19 42.1911 444.146 44.7649 440.431 47.1484C437 49.3481 433.388 49.9562 429.876 49.6491L426.784 53.0681C423.041 57.4201 419.055 63.2139 417.967 71.4499C417.885 72.0581 417.814 72.7053 417.756 73.3916C417.455 76.7464 417.382 80.9929 417.467 85.7485Z" fill="#2E4969"/>
<path d="M417.467 85.7484C417.566 91.2352 417.885 97.4034 418.315 103.668C418.341 104.04 418.367 104.411 418.394 104.782C439.677 91.4603 442.955 67.0831 442.955 67.0831C432.485 67.5423 424.167 69.9495 417.756 73.3915C417.455 76.7463 417.382 80.9928 417.467 85.7484Z" fill="#244062"/>
<path d="M363.688 96.2425C363.469 93.0856 365.103 92.5606 365.103 92.5606C365.103 92.5606 397.193 86.7451 399.921 85.887C402.649 85.0288 425.974 60.7636 425.974 60.7636C425.974 60.7636 434.915 50.6804 442.236 52.9072C448.598 54.8421 451.085 59.8043 451.931 64.5317C452.415 67.2883 452.056 70.1265 450.903 72.6763C449.749 75.2261 447.854 77.3692 445.465 78.8261C434.514 85.5428 412.59 98.7771 407.427 100.291C395.935 103.66 365.059 100.561 365.059 100.561C364.277 99.2458 363.808 97.7681 363.688 96.2425Z" fill="#2E4969"/>
<path d="M380.278 206.582L385.822 207.494C386.242 207.56 386.635 207.739 386.962 208.01C387.28 208.271 387.509 208.623 387.617 209.02C387.648 209.137 387.666 209.258 387.67 209.38C387.675 209.492 387.668 209.605 387.65 209.715L374.895 287.023C374.73 288.02 373.692 288.692 372.559 288.558C372.523 288.553 372.486 288.548 372.449 288.542L366.905 287.631C366.868 287.625 366.832 287.618 366.795 287.611C365.679 287.375 364.912 286.405 365.077 285.409L377.832 208.101C377.851 207.99 377.88 207.882 377.921 207.777C377.964 207.663 378.02 207.554 378.087 207.453C378.317 207.112 378.647 206.851 379.032 206.706C379.428 206.554 379.859 206.511 380.278 206.582Z" fill="#FFB93E"/>
<path d="M381.696 245.807L374.863 287.224C374.716 288.113 373.693 288.698 372.561 288.558C372.524 288.553 372.487 288.549 372.451 288.542L366.906 287.631C366.87 287.625 366.833 287.618 366.797 287.611C365.68 287.38 364.898 286.499 365.045 285.61L371.039 249.279C374.025 249.174 378.246 248.479 381.696 245.807Z" fill="#FFA412"/>
<path d="M376.594 215.634L376.449 216.512L386.265 218.135L386.411 217.256L376.594 215.634Z" fill="#FFA412"/>
<path d="M376.102 218.614L375.957 219.492L385.774 221.11L385.919 220.231L376.102 218.614Z" fill="#FFA412"/>
<path d="M375.512 222.175L375.367 223.054L385.184 224.674L385.329 223.796L375.512 222.175Z" fill="#FFA412"/>
<path d="M374.61 227.643L374.465 228.521L384.282 230.141L384.426 229.263L374.61 227.643Z" fill="#FFA412"/>
<path d="M373.657 233.423L373.512 234.302L383.328 235.922L383.473 235.043L373.657 233.423Z" fill="#FFA412"/>
<path d="M372.192 242.287L372.047 243.166L381.864 244.783L382.009 243.905L372.192 242.287Z" fill="#FFA412"/>
<path d="M370.829 250.583L370.684 251.462L380.5 253.084L380.645 252.205L370.829 250.583Z" fill="#FFA412"/>
<path d="M369.602 257.994L369.457 258.873L379.274 260.492L379.419 259.614L369.602 257.994Z" fill="#FFA412"/>
<path d="M377.059 212.805L376.914 213.683L386.731 215.301L386.876 214.423L377.059 212.805Z" fill="#FFA412"/>
<path d="M377.368 210.934L377.223 211.812L387.039 213.432L387.184 212.554L377.368 210.934Z" fill="#FFA412"/>
<path d="M377.664 209.129L377.52 210.007L387.336 211.625L387.481 210.746L377.664 209.129Z" fill="#FFA412"/>
<path d="M377.746 208.65L387.564 210.265L387.654 209.716C387.672 209.605 387.679 209.492 387.674 209.38L377.925 207.777C377.885 207.882 377.855 207.991 377.837 208.101L377.746 208.65Z" fill="#FFA412"/>
<path d="M378.09 207.453L387.62 209.02C387.511 208.624 387.283 208.271 386.965 208.01L379.034 206.706C378.65 206.851 378.32 207.112 378.09 207.453Z" fill="#FFA412"/>
<path d="M390.34 206.582L395.885 207.494C396.304 207.56 396.698 207.739 397.025 208.01C397.343 208.271 397.571 208.623 397.679 209.02C397.711 209.137 397.729 209.258 397.733 209.38C397.737 209.492 397.731 209.605 397.713 209.715L384.957 287.023C384.793 288.02 383.755 288.692 382.622 288.558C382.585 288.553 382.548 288.548 382.512 288.542L376.967 287.631C376.931 287.625 376.894 287.618 376.858 287.611C375.742 287.375 374.975 286.405 375.139 285.409L387.895 208.101C387.913 207.99 387.943 207.882 387.984 207.777C388.027 207.663 388.082 207.554 388.15 207.453C388.38 207.112 388.71 206.851 389.094 206.706C389.491 206.554 389.921 206.511 390.34 206.582Z" fill="#FFB93E"/>
<path d="M391.755 245.807L384.921 287.224C384.775 288.113 383.751 288.698 382.619 288.558C382.582 288.553 382.546 288.549 382.509 288.542L376.965 287.631C376.928 287.625 376.892 287.618 376.855 287.611C375.738 287.38 374.957 286.499 375.104 285.61L381.098 249.279C384.084 249.174 388.304 248.479 391.755 245.807Z" fill="#FFA412"/>
<path d="M386.653 215.634L386.508 216.512L396.324 218.135L396.469 217.256L386.653 215.634Z" fill="#FFA412"/>
<path d="M386.16 218.611L386.016 219.489L395.833 221.107L395.977 220.228L386.16 218.611Z" fill="#FFA412"/>
<path d="M385.571 222.176L385.426 223.054L395.243 224.675L395.388 223.796L385.571 222.176Z" fill="#FFA412"/>
<path d="M384.668 227.643L384.523 228.521L394.34 230.141L394.485 229.263L384.668 227.643Z" fill="#FFA412"/>
<path d="M383.715 233.423L383.57 234.302L393.387 235.922L393.532 235.043L383.715 233.423Z" fill="#FFA412"/>
<path d="M382.254 242.286L382.109 243.165L391.926 244.785L392.071 243.906L382.254 242.286Z" fill="#FFA412"/>
<path d="M380.883 250.584L380.738 251.463L390.555 253.083L390.7 252.204L380.883 250.584Z" fill="#FFA412"/>
<path d="M379.661 257.994L379.516 258.872L389.332 260.492L389.477 259.614L379.661 257.994Z" fill="#FFA412"/>
<path d="M387.118 212.804L386.973 213.682L396.789 215.303L396.934 214.424L387.118 212.804Z" fill="#FFA412"/>
<path d="M387.426 210.935L387.281 211.813L397.098 213.431L397.243 212.552L387.426 210.935Z" fill="#FFA412"/>
<path d="M387.723 209.129L387.578 210.007L397.395 211.625L397.54 210.746L387.723 209.129Z" fill="#FFA412"/>
<path d="M387.801 208.65L397.618 210.265L397.709 209.716C397.727 209.605 397.734 209.492 397.729 209.38L387.98 207.777C387.939 207.882 387.91 207.991 387.891 208.101L387.801 208.65Z" fill="#FFA412"/>
<path d="M388.148 207.453L397.678 209.02C397.57 208.624 397.341 208.271 397.023 208.01L389.093 206.706C388.708 206.851 388.378 207.112 388.148 207.453Z" fill="#FFA412"/>
<path d="M353.557 280.799L353.547 286.418C353.548 286.843 353.435 287.26 353.22 287.626C353.014 287.982 352.702 288.264 352.328 288.434C352.217 288.484 352.101 288.521 351.981 288.545C351.871 288.568 351.759 288.579 351.647 288.579L273.294 288.393C272.284 288.391 271.453 287.474 271.404 286.334C271.403 286.297 271.402 286.26 271.402 286.223L271.413 280.604C271.413 280.567 271.414 280.53 271.415 280.493C271.468 279.354 272.302 278.441 273.312 278.443L351.665 278.629C351.9 278.631 352.132 278.681 352.346 278.777C352.719 278.949 353.03 279.233 353.234 279.589C353.449 279.956 353.56 280.374 353.557 280.799Z" fill="#FFB93E"/>
<path d="M315.067 288.492L273.091 288.392C272.19 288.39 271.449 287.474 271.404 286.334C271.403 286.297 271.402 286.26 271.402 286.223L271.413 280.604C271.413 280.567 271.414 280.53 271.415 280.493C271.463 279.354 272.208 278.441 273.109 278.443L309.931 278.53C310.513 281.461 311.877 285.515 315.067 288.492Z" fill="#FFA412"/>
<path d="M343.137 278.608L343.113 288.557L344.004 288.559L344.027 278.61L343.137 278.608Z" fill="#FFA412"/>
<path d="M340.125 278.601L340.102 288.55L340.992 288.552L341.016 278.603L340.125 278.601Z" fill="#FFA412"/>
<path d="M336.511 278.594L336.484 288.543L337.375 288.545L337.401 278.596L336.511 278.594Z" fill="#FFA412"/>
<path d="M330.969 278.581L330.945 288.53L331.836 288.532L331.859 278.583L330.969 278.581Z" fill="#FFA412"/>
<path d="M325.11 278.565L325.086 288.515L325.976 288.517L326 278.567L325.11 278.565Z" fill="#FFA412"/>
<path d="M316.125 278.544L316.102 288.493L316.992 288.496L317.016 278.546L316.125 278.544Z" fill="#FFA412"/>
<path d="M307.715 278.525L307.691 288.475L308.582 288.477L308.606 278.527L307.715 278.525Z" fill="#FFA412"/>
<path d="M300.21 278.508L300.184 288.457L301.074 288.459L301.1 278.51L300.21 278.508Z" fill="#FFA412"/>
<path d="M346.008 278.616L345.984 288.566L346.875 288.568L346.899 278.618L346.008 278.616Z" fill="#FFA412"/>
<path d="M347.9 278.621L347.879 288.57L348.769 288.572L348.79 278.623L347.9 278.621Z" fill="#FFA412"/>
<path d="M349.735 278.624L349.711 288.573L350.602 288.575L350.625 278.626L349.735 278.624Z" fill="#FFA412"/>
<path d="M351.108 278.628L351.09 288.578L351.646 288.579C351.759 288.579 351.871 288.568 351.98 288.545L351.999 278.665C351.889 278.642 351.777 278.63 351.664 278.629L351.108 278.628Z" fill="#FFA412"/>
<path d="M352.346 278.777L352.328 288.434C352.702 288.264 353.013 287.982 353.219 287.626L353.234 279.589C353.029 279.233 352.719 278.949 352.346 278.777Z" fill="#FFA412"/>
<path d="M345.198 270.83L345.187 276.449C345.189 276.874 345.076 277.291 344.86 277.657C344.654 278.012 344.343 278.295 343.969 278.465C343.858 278.515 343.741 278.552 343.622 278.576C343.512 278.598 343.4 278.61 343.288 278.61L264.935 278.424C263.925 278.421 263.094 277.505 263.045 276.365C263.044 276.328 263.043 276.291 263.043 276.254L263.053 270.635C263.053 270.598 263.054 270.561 263.056 270.524C263.109 269.384 263.943 268.472 264.953 268.474L343.306 268.66C343.356 268.66 343.406 268.663 343.456 268.668C343.477 268.669 343.498 268.671 343.52 268.675C343.542 268.677 343.567 268.681 343.59 268.686C343.606 268.688 343.623 268.692 343.64 268.696C343.76 268.72 343.876 268.757 343.987 268.808C344.003 268.815 344.019 268.822 344.036 268.831C344.052 268.838 344.068 268.846 344.084 268.855C344.115 268.872 344.148 268.89 344.179 268.908C344.197 268.919 344.216 268.93 344.234 268.942C344.251 268.953 344.266 268.963 344.282 268.975C344.312 268.995 344.342 269.017 344.371 269.04C344.404 269.066 344.437 269.094 344.468 269.123C344.493 269.144 344.517 269.167 344.541 269.191C344.543 269.192 344.544 269.194 344.546 269.196C344.561 269.211 344.578 269.228 344.594 269.245C344.642 269.296 344.688 269.35 344.731 269.407C344.744 269.424 344.757 269.441 344.768 269.457C344.781 269.474 344.792 269.492 344.805 269.51C344.829 269.546 344.853 269.583 344.875 269.62C345.089 269.987 345.201 270.405 345.198 270.83Z" fill="#FFB93E"/>
<path d="M306.708 278.523L264.731 278.423C263.829 278.421 263.089 277.505 263.045 276.365C263.044 276.328 263.043 276.291 263.043 276.254L263.053 270.635C263.053 270.598 263.054 270.561 263.056 270.524C263.104 269.384 263.847 268.471 264.749 268.474L301.57 268.561C301.587 268.642 301.603 268.724 301.621 268.806C302.231 271.714 303.604 275.628 306.708 278.523Z" fill="#FFA412"/>
<path d="M334.777 268.64L334.754 278.589L335.645 278.591L335.668 268.642L334.777 268.64Z" fill="#FFA412"/>
<path d="M331.766 268.633L331.742 278.582L332.632 278.584L332.656 268.635L331.766 268.633Z" fill="#FFA412"/>
<path d="M328.149 268.623L328.125 278.572L329.015 278.574L329.039 268.625L328.149 268.623Z" fill="#FFA412"/>
<path d="M322.61 268.61L322.586 278.559L323.476 278.561L323.5 268.612L322.61 268.61Z" fill="#FFA412"/>
<path d="M316.747 268.597L316.727 278.547L317.617 278.548L317.638 268.599L316.747 268.597Z" fill="#FFA412"/>
<path d="M307.768 268.576L307.742 278.525L308.632 278.527L308.658 268.578L307.768 268.576Z" fill="#FFA412"/>
<path d="M299.36 268.555L299.336 278.504L300.226 278.506L300.25 268.557L299.36 268.555Z" fill="#FFA412"/>
<path d="M291.845 268.538L291.824 278.488L292.715 278.489L292.736 268.54L291.845 268.538Z" fill="#FFA412"/>
<path d="M337.648 268.647L337.625 278.596L338.515 278.598L338.539 268.649L337.648 268.647Z" fill="#FFA412"/>
<path d="M339.543 268.651L339.52 278.601L340.41 278.603L340.434 268.653L339.543 268.651Z" fill="#FFA412"/>
<path d="M341.375 268.654L341.352 278.604L342.242 278.606L342.266 268.656L341.375 268.654Z" fill="#FFA412"/>
<path d="M342.749 268.658L342.73 278.608L343.287 278.609C343.399 278.609 343.511 278.598 343.621 278.575L343.639 268.695C343.53 268.672 343.417 268.66 343.305 268.66L342.749 268.658Z" fill="#FFA412"/>
<path d="M343.986 268.808L343.969 278.465C344.343 278.294 344.654 278.012 344.86 277.656L344.874 269.62C344.67 269.263 344.36 268.98 343.986 268.808Z" fill="#FFA412"/>
<path d="M349.264 261.136L349.253 266.754C349.255 267.179 349.142 267.596 348.926 267.962C348.721 268.318 348.409 268.6 348.035 268.771C347.924 268.82 347.808 268.858 347.688 268.881C347.578 268.904 347.466 268.915 347.354 268.915L269.001 268.729C268.693 268.728 268.391 268.642 268.128 268.482C267.836 268.295 267.593 268.043 267.418 267.745C267.242 267.447 267.139 267.112 267.117 266.767C267.114 266.735 267.112 266.703 267.111 266.671C267.11 266.634 267.109 266.596 267.109 266.559L267.119 260.94C267.119 260.903 267.121 260.866 267.122 260.829C267.175 259.69 268.009 258.777 269.019 258.78L347.372 258.965C347.484 258.966 347.596 258.978 347.706 259.001C347.826 259.025 347.942 259.063 348.053 259.113C348.426 259.285 348.736 259.569 348.941 259.926C349.155 260.293 349.267 260.711 349.264 261.136Z" fill="#FFB93E"/>
<path d="M310.774 268.828L268.798 268.729C268.519 268.726 268.248 268.64 268.019 268.481C267.75 268.281 267.53 268.023 267.374 267.726C267.218 267.43 267.131 267.102 267.117 266.767C267.114 266.735 267.112 266.703 267.111 266.671C267.11 266.634 267.109 266.596 267.109 266.559L267.119 260.94C267.119 260.903 267.121 260.866 267.122 260.829C267.17 259.69 267.915 258.777 268.816 258.779L305.638 258.867C306.205 261.717 307.509 265.63 310.517 268.582C310.602 268.665 310.687 268.747 310.774 268.828Z" fill="#FFA412"/>
<path d="M351.158 251.191L351.148 256.809C351.15 257.234 351.037 257.651 350.821 258.017C350.615 258.373 350.304 258.655 349.93 258.826C349.819 258.876 349.702 258.913 349.583 258.936C349.473 258.959 349.361 258.97 349.248 258.97L270.896 258.784C269.885 258.782 269.055 257.865 269.006 256.726C269.005 256.688 269.004 256.651 269.004 256.614L269.014 250.995C269.014 250.958 269.015 250.921 269.017 250.884C269.065 249.83 269.783 248.971 270.69 248.85C270.764 248.839 270.839 248.834 270.914 248.835L349.267 249.021C349.379 249.021 349.491 249.033 349.601 249.056C349.72 249.08 349.836 249.118 349.947 249.168C350.321 249.34 350.631 249.624 350.836 249.981C351.05 250.348 351.161 250.766 351.158 251.191Z" fill="#FFB93E"/>
<path d="M312.669 258.883L270.692 258.784C269.791 258.781 269.05 257.865 269.006 256.725C269.005 256.688 269.004 256.651 269.004 256.614L269.014 250.995C269.014 250.958 269.015 250.921 269.017 250.884C269.06 249.831 269.701 248.97 270.511 248.849C270.577 248.839 270.644 248.834 270.711 248.834L307.532 248.921C307.533 248.926 307.534 248.932 307.535 248.937C308.12 251.865 309.483 255.911 312.669 258.883Z" fill="#FFA412"/>
<path d="M345.416 241.243L345.406 246.862C345.407 247.286 345.294 247.704 345.079 248.07C344.873 248.425 344.561 248.708 344.188 248.878C344.077 248.928 343.96 248.965 343.841 248.989C343.804 248.996 343.767 249.003 343.731 249.007C343.711 249.01 343.69 249.012 343.669 249.014C343.649 249.017 343.628 249.018 343.607 249.019C343.573 249.022 343.54 249.022 343.506 249.022L265.154 248.836C264.143 248.834 263.313 247.917 263.264 246.778C263.262 246.741 263.262 246.704 263.262 246.667L263.272 241.048C263.272 241.011 263.273 240.973 263.274 240.936C263.275 240.905 263.277 240.876 263.28 240.846C263.301 240.424 263.448 240.018 263.702 239.681C263.955 239.344 264.305 239.09 264.704 238.953C264.723 238.947 264.743 238.942 264.762 238.937C264.896 238.904 265.033 238.887 265.172 238.887L343.524 239.073C343.582 239.073 343.638 239.077 343.694 239.082C343.719 239.085 343.744 239.088 343.77 239.091H343.771C343.8 239.096 343.829 239.102 343.858 239.109C343.978 239.133 344.094 239.17 344.205 239.221C344.578 239.393 344.889 239.677 345.093 240.033C345.308 240.4 345.419 240.818 345.416 241.243Z" fill="#FFB93E"/>
<path d="M306.927 248.936L264.95 248.836C264.049 248.834 263.308 247.918 263.264 246.778C263.262 246.741 263.262 246.704 263.262 246.667L263.272 241.048C263.272 241.011 263.273 240.974 263.274 240.937C263.275 240.905 263.277 240.876 263.28 240.846C263.349 239.909 263.893 239.141 264.596 238.94C264.62 238.932 264.644 238.925 264.669 238.921C264.767 238.898 264.867 238.886 264.968 238.887L301.79 238.974C301.794 238.998 301.799 239.021 301.804 239.045C302.393 241.964 303.757 245.968 306.91 248.92C306.915 248.925 306.921 248.931 306.927 248.936Z" fill="#FFA412"/>
<path d="M345.268 231.364L345.257 236.982C345.259 237.407 345.146 237.825 344.931 238.191C344.725 238.546 344.413 238.829 344.039 238.999C343.952 239.038 343.862 239.069 343.769 239.092H343.767C343.741 239.099 343.718 239.105 343.692 239.109C343.582 239.132 343.47 239.144 343.358 239.143L265.005 238.957C264.923 238.957 264.841 238.951 264.76 238.937C264.728 238.934 264.697 238.928 264.667 238.921C263.815 238.742 263.159 237.908 263.115 236.899C263.114 236.861 263.113 236.824 263.113 236.787L263.123 231.169C263.123 231.132 263.125 231.095 263.126 231.058C263.179 229.918 264.013 229.005 265.023 229.008L343.376 229.194C343.426 229.194 343.477 229.196 343.526 229.201C343.547 229.204 343.569 229.206 343.59 229.209C343.613 229.211 343.637 229.215 343.66 229.22C343.677 229.222 343.693 229.226 343.71 229.229C343.83 229.253 343.946 229.291 344.057 229.341C344.074 229.349 344.089 229.356 344.106 229.364C344.122 229.371 344.139 229.38 344.154 229.388C344.187 229.405 344.218 229.423 344.25 229.441C344.284 229.463 344.319 229.484 344.352 229.508C344.383 229.529 344.412 229.551 344.441 229.573C344.474 229.6 344.507 229.627 344.538 229.656C344.563 229.678 344.587 229.701 344.612 229.725C344.613 229.726 344.615 229.728 344.616 229.729C344.631 229.745 344.648 229.762 344.664 229.779C344.712 229.83 344.758 229.884 344.801 229.94C344.815 229.957 344.827 229.974 344.839 229.991C344.851 230.009 344.862 230.026 344.875 230.044C344.899 230.08 344.923 230.117 344.945 230.154C345.16 230.521 345.271 230.939 345.268 231.364Z" fill="#FFB93E"/>
<path d="M306.778 239.056L264.802 238.957C264.768 238.957 264.735 238.955 264.702 238.953C264.666 238.95 264.63 238.946 264.594 238.939C263.788 238.811 263.155 237.95 263.115 236.899C263.114 236.861 263.113 236.824 263.113 236.787L263.123 231.169C263.123 231.132 263.125 231.094 263.126 231.057C263.174 229.918 263.918 229.005 264.82 229.007L301.641 229.095C301.657 229.176 301.674 229.258 301.691 229.34C302.296 232.224 303.653 236.097 306.703 238.986C306.728 239.01 306.753 239.032 306.778 239.056Z" fill="#FFA412"/>
<path d="M349.334 221.669L349.324 227.288C349.325 227.713 349.212 228.13 348.997 228.496C348.791 228.852 348.48 229.134 348.106 229.304C347.891 229.399 347.659 229.448 347.424 229.449L269.071 229.263C268.763 229.261 268.461 229.176 268.198 229.015C267.907 228.829 267.664 228.577 267.488 228.279C267.313 227.981 267.21 227.646 267.188 227.301C267.185 227.269 267.182 227.237 267.182 227.204C267.181 227.167 267.18 227.13 267.18 227.093L267.19 221.474C267.19 221.437 267.191 221.4 267.192 221.363C267.246 220.223 268.079 219.311 269.09 219.313L347.442 219.499C347.555 219.499 347.667 219.511 347.777 219.535C347.896 219.559 348.012 219.596 348.123 219.647C348.497 219.819 348.807 220.103 349.011 220.459C349.226 220.826 349.337 221.244 349.334 221.669Z" fill="#FFB93E"/>
<path d="M310.845 229.362L268.868 229.262C268.589 229.26 268.318 229.174 268.089 229.015C267.821 228.814 267.601 228.556 267.445 228.26C267.289 227.963 267.201 227.636 267.188 227.301C267.185 227.269 267.182 227.237 267.182 227.204C267.181 227.167 267.18 227.13 267.18 227.093L267.19 221.474C267.19 221.437 267.191 221.4 267.192 221.363C267.241 220.223 267.985 219.311 268.886 219.313L305.708 219.4C306.275 222.251 307.58 226.164 310.587 229.116C310.672 229.199 310.758 229.281 310.845 229.362Z" fill="#FFA412"/>
<path d="M355.756 211.735L355.746 217.354C355.747 217.778 355.634 218.196 355.419 218.562C355.213 218.917 354.902 219.2 354.528 219.37C354.313 219.465 354.081 219.514 353.846 219.514L275.493 219.328C274.483 219.326 273.653 218.41 273.603 217.27C273.603 217.233 273.602 217.196 273.602 217.159L273.612 211.54C273.612 211.503 273.613 211.466 273.614 211.429C273.663 210.375 274.38 209.515 275.287 209.394C275.361 209.384 275.436 209.379 275.511 209.379L353.864 209.565C354.099 209.567 354.331 209.617 354.545 209.713C354.918 209.885 355.229 210.169 355.433 210.525C355.648 210.892 355.759 211.31 355.756 211.735Z" fill="#FFB93E"/>
<path d="M317.267 219.428L275.29 219.328C274.389 219.326 273.647 218.41 273.603 217.27C273.603 217.233 273.602 217.196 273.602 217.159L273.612 211.54C273.612 211.503 273.613 211.466 273.614 211.429C273.658 210.375 274.299 209.515 275.108 209.393C275.174 209.383 275.241 209.378 275.308 209.378L312.13 209.466C312.131 209.471 312.132 209.477 312.133 209.482C312.718 212.411 314.081 216.455 317.267 219.428Z" fill="#FFA412"/>
<path d="M345.486 201.777L345.476 207.395C345.478 207.82 345.365 208.237 345.149 208.603C344.943 208.959 344.632 209.241 344.258 209.412C344.147 209.462 344.03 209.499 343.911 209.522C343.874 209.529 343.838 209.536 343.801 209.541C343.772 209.546 343.742 209.548 343.713 209.55C343.698 209.552 343.683 209.553 343.669 209.554C343.638 209.555 343.608 209.556 343.577 209.556L265.224 209.37C264.214 209.368 263.383 208.451 263.334 207.312C263.333 207.275 263.332 207.237 263.332 207.2L263.342 201.581C263.342 201.544 263.344 201.507 263.344 201.47C263.398 200.331 264.232 199.418 265.242 199.421L343.595 199.607C343.628 199.607 343.662 199.608 343.695 199.61C343.774 199.615 343.852 199.626 343.929 199.642C344.109 199.68 344.281 199.746 344.44 199.838C344.473 199.858 344.506 199.877 344.537 199.899C344.541 199.9 344.545 199.902 344.548 199.906C344.58 199.927 344.612 199.95 344.643 199.974C344.649 199.978 344.654 199.982 344.659 199.986C344.688 200.008 344.717 200.032 344.743 200.057C344.811 200.115 344.874 200.178 344.932 200.246C344.95 200.266 344.968 200.287 344.985 200.309C344.989 200.313 344.992 200.317 344.994 200.321C345.006 200.334 345.017 200.348 345.027 200.362C345.029 200.364 345.031 200.368 345.033 200.37C345.052 200.395 345.071 200.422 345.089 200.449C345.115 200.488 345.14 200.526 345.164 200.567C345.378 200.934 345.49 201.352 345.486 201.777Z" fill="#FFB93E"/>
<path d="M306.997 209.469L265.02 209.37C264.119 209.368 263.378 208.451 263.334 207.312C263.333 207.275 263.332 207.237 263.332 207.2L263.342 201.581C263.342 201.544 263.344 201.507 263.344 201.47C263.393 200.331 264.137 199.418 265.039 199.42L301.86 199.508C301.875 199.583 301.89 199.66 301.908 199.737C302.514 202.642 303.884 206.554 306.98 209.454C306.985 209.458 306.992 209.465 306.997 209.469Z" fill="#FFA412"/>
<path d="M351.264 192.071L351.254 197.69C351.255 198.114 351.142 198.532 350.926 198.898C350.721 199.253 350.409 199.536 350.035 199.706C349.924 199.756 349.808 199.793 349.688 199.816C349.578 199.839 349.466 199.851 349.354 199.85L271.001 199.664C270.704 199.663 270.412 199.583 270.155 199.433C269.855 199.248 269.604 198.993 269.423 198.69C269.242 198.388 269.137 198.046 269.116 197.694C269.115 197.665 269.112 197.636 269.111 197.606C269.11 197.569 269.109 197.532 269.109 197.494L269.12 191.876C269.12 191.839 269.121 191.802 269.122 191.765C269.171 190.71 269.888 189.851 270.795 189.73C270.869 189.719 270.944 189.714 271.019 189.715L349.372 189.901C349.607 189.902 349.839 189.952 350.053 190.048C350.426 190.221 350.737 190.505 350.941 190.861C351.155 191.228 351.267 191.646 351.264 192.071Z" fill="#FFB93E"/>
<path d="M312.775 199.763L270.798 199.664C270.529 199.662 270.266 199.581 270.043 199.432C269.766 199.232 269.539 198.971 269.379 198.67C269.218 198.369 269.128 198.035 269.116 197.694C269.115 197.665 269.112 197.635 269.111 197.605C269.11 197.568 269.109 197.531 269.109 197.494L269.12 191.876C269.12 191.838 269.121 191.801 269.122 191.764C269.166 190.711 269.807 189.851 270.616 189.729C270.682 189.719 270.749 189.714 270.816 189.714L307.638 189.802C307.639 189.806 307.64 189.812 307.641 189.817C308.21 192.671 309.52 196.585 312.534 199.533C312.612 199.611 312.693 199.687 312.775 199.763Z" fill="#FFA412"/>
<path d="M345.522 182.123L345.512 187.742C345.513 188.166 345.4 188.584 345.184 188.95C344.979 189.305 344.667 189.588 344.293 189.758C344.182 189.808 344.066 189.845 343.946 189.869C343.91 189.876 343.873 189.883 343.836 189.887C343.816 189.89 343.795 189.892 343.774 189.894C343.754 189.897 343.733 189.898 343.712 189.899C343.679 189.902 343.645 189.903 343.612 189.903L265.259 189.716C264.249 189.714 263.418 188.798 263.369 187.658C263.368 187.621 263.367 187.584 263.367 187.547L263.377 181.928C263.377 181.891 263.378 181.854 263.38 181.816C263.433 180.677 264.267 179.765 265.277 179.767L343.63 179.953C343.742 179.953 343.854 179.965 343.964 179.989C344.083 180.013 344.2 180.05 344.311 180.101C344.684 180.273 344.994 180.557 345.199 180.913C345.413 181.28 345.525 181.698 345.522 182.123Z" fill="#FFB93E"/>
<path d="M307.032 189.816L265.056 189.716C264.154 189.714 263.413 188.798 263.369 187.658C263.368 187.621 263.367 187.584 263.367 187.547L263.377 181.928C263.377 181.891 263.378 181.854 263.38 181.817C263.428 180.677 264.172 179.764 265.074 179.767L301.895 179.854C302.477 182.78 303.836 186.824 307.015 189.8C307.021 189.805 307.027 189.811 307.032 189.816Z" fill="#FFA412"/>
<path d="M338.844 258.945L338.82 268.895L339.711 268.897L339.734 258.948L338.844 258.945Z" fill="#FFA412"/>
<path d="M335.83 258.938L335.809 268.888L336.699 268.89L336.72 258.94L335.83 258.938Z" fill="#FFA412"/>
<path d="M332.213 258.93L332.191 268.879L333.082 268.881L333.103 258.932L332.213 258.93Z" fill="#FFA412"/>
<path d="M326.672 258.916L326.648 268.866L327.539 268.868L327.562 258.919L326.672 258.916Z" fill="#FFA412"/>
<path d="M320.817 258.903L320.793 268.852L321.684 268.854L321.707 258.905L320.817 258.903Z" fill="#FFA412"/>
<path d="M311.832 258.881L311.809 268.831L312.699 268.833L312.723 258.884L311.832 258.881Z" fill="#FFA412"/>
<path d="M303.419 258.862L303.398 268.811L304.289 268.813L304.31 258.863L303.419 258.862Z" fill="#FFA412"/>
<path d="M295.914 258.844L295.891 268.793L296.781 268.795L296.805 258.846L295.914 258.844Z" fill="#FFA412"/>
<path d="M341.715 258.951L341.691 268.9L342.582 268.902L342.606 258.953L341.715 258.951Z" fill="#FFA412"/>
<path d="M343.611 258.957L343.59 268.906L344.48 268.908L344.501 258.959L343.611 258.957Z" fill="#FFA412"/>
<path d="M345.442 258.96L345.418 268.909L346.308 268.911L346.332 258.962L345.442 258.96Z" fill="#FFA412"/>
<path d="M346.815 258.964L346.797 268.914L347.353 268.915C347.466 268.915 347.578 268.904 347.688 268.881L347.706 259.001C347.596 258.978 347.484 258.966 347.371 258.965L346.815 258.964Z" fill="#FFA412"/>
<path d="M348.052 259.113L348.035 268.77C348.409 268.6 348.72 268.318 348.926 267.962L348.941 259.926C348.736 259.569 348.426 259.285 348.052 259.113Z" fill="#FFA412"/>
<path d="M313.731 248.935L313.707 258.884L314.598 258.886L314.621 248.937L313.731 248.935Z" fill="#FFA412"/>
<path d="M305.32 248.916L305.297 258.865L306.187 258.867L306.211 248.918L305.32 248.916Z" fill="#FFA412"/>
<path d="M297.809 248.898L297.785 258.848L298.676 258.85L298.699 248.901L297.809 248.898Z" fill="#FFA412"/>
<path d="M344.477 258.959L344.496 249.009L343.714 249.007C343.756 249.002 343.797 248.996 343.838 248.988L343.856 239.108C343.802 239.097 343.747 239.088 343.692 239.082L343.709 229.44L344.056 229.441L344.039 238.999C344.413 238.829 344.724 238.546 344.93 238.191L344.944 230.154C344.773 229.861 344.53 229.616 344.239 229.442L344.55 229.442L344.568 219.493L343.677 219.491L343.66 229.221C343.566 229.204 343.471 229.195 343.375 229.194L342.819 229.192L342.801 239.142L342.966 239.142L342.947 249.021L343.504 249.022C343.538 249.022 343.572 249.019 343.605 249.017L343.587 258.956L344.477 258.959Z" fill="#FFA412"/>
<path d="M345.504 249.011L345.48 258.961L346.371 258.963L346.395 249.014L345.504 249.011Z" fill="#FFA412"/>
<path d="M347.338 249.013L347.312 258.963L348.203 258.965L348.229 249.016L347.338 249.013Z" fill="#FFA412"/>
<path d="M348.709 249.019L348.691 258.968L349.248 258.97C349.36 258.97 349.472 258.958 349.582 258.935L349.6 249.056C349.49 249.032 349.378 249.02 349.266 249.02L348.709 249.019Z" fill="#FFA412"/>
<path d="M349.947 249.168L349.93 258.825C350.304 258.655 350.615 258.373 350.821 258.017L350.836 249.98C350.631 249.624 350.321 249.34 349.947 249.168Z" fill="#FFA412"/>
<path d="M335.867 249.004L335.885 239.055L335.721 239.054L335.739 229.176L334.848 229.174L334.83 239.123L334.995 239.124L334.977 248.986L334.108 248.984L334.09 258.934L334.98 258.936L334.998 249.002L335.867 249.004Z" fill="#FFA412"/>
<path d="M329.255 239.039L329.09 239.038L329.108 229.16L328.217 229.158L328.199 239.108L328.364 239.108L328.346 248.986L328.566 248.987L328.548 258.921L329.438 258.923L329.456 248.973L329.237 248.973L329.255 239.039Z" fill="#FFA412"/>
<path d="M344.205 239.22L344.188 248.878C344.561 248.708 344.873 248.425 345.079 248.07L345.093 240.033C344.889 239.676 344.578 239.392 344.205 239.22Z" fill="#FFA412"/>
<path d="M323.569 229.147L322.678 229.145L322.66 239.094L322.825 239.095L322.807 248.958L322.708 248.957L322.69 258.907L323.58 258.909L323.599 248.975L323.697 248.975L323.715 239.026L323.551 239.026L323.569 229.147Z" fill="#FFA412"/>
<path d="M317.71 229.133L316.819 229.131L316.801 239.08L316.966 239.081L316.948 248.959L317.838 248.961L317.856 239.012L317.692 239.012L317.71 229.133Z" fill="#FFA412"/>
<path d="M308.729 229.112L307.839 229.11L307.82 239.059L307.985 239.06L307.967 248.938L308.858 248.94L308.876 238.99L308.711 238.99L308.729 229.112Z" fill="#FFA412"/>
<path d="M300.319 229.092L299.428 229.09L299.41 239.039L299.575 239.039L299.557 248.918L300.447 248.92L300.465 238.971L300.301 238.97L300.319 229.092Z" fill="#FFA412"/>
<path d="M292.807 229.074L291.917 229.072L291.898 239.021L292.063 239.022L292.045 248.9L292.936 248.902L292.954 238.953L292.789 238.952L292.807 229.074Z" fill="#FFA412"/>
<path d="M338.608 229.183L337.717 229.181L337.699 239.13L337.864 239.13L337.846 248.993L337.723 248.993L337.704 258.942L338.595 258.945L338.613 249.011L338.737 249.011L338.755 239.062L338.59 239.061L338.608 229.183Z" fill="#FFA412"/>
<path d="M340.502 229.187L339.786 229.186L339.803 219.482L338.913 219.479L338.895 229.429L339.611 229.431L339.593 239.135L339.758 239.135L339.74 249.013L340.631 249.015L340.649 239.066L340.484 239.066L340.502 229.187Z" fill="#FFA412"/>
<path d="M335.902 219.472L335.879 229.422L336.769 229.424L336.793 219.475L335.902 219.472Z" fill="#FFA412"/>
<path d="M332.268 229.168L331.834 229.167L331.816 239.116L331.981 239.117L331.963 248.995L332.853 248.997L332.871 239.048L332.707 239.047L332.724 229.414L333.158 229.415L333.176 219.466L332.286 219.464L332.268 229.168Z" fill="#FFA412"/>
<path d="M326.749 219.451L326.723 229.4L327.613 229.402L327.639 219.453L326.749 219.451Z" fill="#FFA412"/>
<path d="M320.887 219.437L320.863 229.386L321.754 229.388L321.778 219.439L320.887 219.437Z" fill="#FFA412"/>
<path d="M311.906 219.416L311.883 229.365L312.773 229.367L312.797 219.418L311.906 219.416Z" fill="#FFA412"/>
<path d="M303.494 219.396L303.473 229.345L304.363 229.347L304.384 219.398L303.494 219.396Z" fill="#FFA412"/>
<path d="M295.985 219.378L295.961 229.327L296.852 229.329L296.875 219.38L295.985 219.378Z" fill="#FFA412"/>
<path d="M341.765 229.191L341.443 229.19L341.425 239.139L341.59 239.139L341.572 249.002L340.737 249L340.719 258.949L341.609 258.952L341.627 249.018L342.462 249.02L342.48 239.07L342.316 239.07L342.333 229.437L342.655 229.438L342.673 219.489L341.783 219.486L341.765 229.191Z" fill="#FFA412"/>
<path d="M345.512 219.494L345.488 229.443L346.379 229.445L346.402 219.496L345.512 219.494Z" fill="#FFA412"/>
<path d="M347.758 229.415L347.776 219.535C347.666 219.512 347.554 219.5 347.442 219.499L346.885 219.498L346.867 229.448L347.424 229.449C347.536 229.449 347.648 229.438 347.758 229.415Z" fill="#FFA412"/>
<path d="M348.997 228.496L349.011 220.46C348.807 220.103 348.496 219.819 348.123 219.647L348.105 229.305C348.479 229.134 348.791 228.852 348.997 228.496Z" fill="#FFA412"/>
<path d="M345.34 209.545L345.316 219.495L346.207 219.497L346.23 209.547L345.34 209.545Z" fill="#FFA412"/>
<path d="M333.168 209.515L333.145 219.464L334.035 219.466L334.058 209.517L333.168 209.515Z" fill="#FFA412"/>
<path d="M327.309 209.502L327.285 219.452L328.176 219.454L328.199 209.504L327.309 209.502Z" fill="#FFA412"/>
<path d="M318.328 209.481L318.305 219.43L319.195 219.432L319.219 209.483L318.328 209.481Z" fill="#FFA412"/>
<path d="M309.914 209.461L309.891 219.41L310.781 219.413L310.805 209.463L309.914 209.461Z" fill="#FFA412"/>
<path d="M302.404 209.443L302.383 219.393L303.273 219.395L303.294 209.445L302.404 209.443Z" fill="#FFA412"/>
<path d="M348.207 209.552L348.184 219.501L349.074 219.503L349.098 209.554L348.207 209.552Z" fill="#FFA412"/>
<path d="M350.106 209.555L350.082 219.505L350.972 219.507L350.996 209.557L350.106 209.555Z" fill="#FFA412"/>
<path d="M351.933 209.561L351.91 219.51L352.801 219.512L352.824 209.563L351.933 209.561Z" fill="#FFA412"/>
<path d="M353.307 209.564L353.289 219.513L353.845 219.514C353.958 219.515 354.07 219.503 354.18 219.481L354.198 209.6C354.088 209.577 353.976 209.565 353.864 209.565L353.307 209.564Z" fill="#FFA412"/>
<path d="M354.545 209.713L354.527 219.37C354.901 219.2 355.212 218.917 355.419 218.562L355.433 210.525C355.228 210.169 354.918 209.885 354.545 209.713Z" fill="#FFA412"/>
<path d="M335.05 209.536L335.941 209.539L335.959 199.589L335.09 199.587L335.108 189.882L335.976 189.885L335.995 179.935L335.104 179.933L335.086 189.867L334.217 189.865L334.199 199.814L335.068 199.816L335.05 209.536Z" fill="#FFA412"/>
<path d="M332.058 199.58L332.031 209.529L332.922 209.531L332.948 199.582L332.058 199.58Z" fill="#FFA412"/>
<path d="M317.039 199.544L317.016 209.494L317.906 209.496L317.93 199.546L317.039 199.544Z" fill="#FFA412"/>
<path d="M308.058 199.523L308.035 209.472L308.926 209.474L308.949 199.525L308.058 199.523Z" fill="#FFA412"/>
<path d="M299.649 199.502L299.625 209.451L300.516 209.453L300.539 199.504L299.649 199.502Z" fill="#FFA412"/>
<path d="M292.137 199.485L292.113 209.434L293.004 209.436L293.027 199.487L292.137 199.485Z" fill="#FFA412"/>
<path d="M337.918 209.543L338.706 209.545L338.688 219.479L339.579 219.481L339.597 209.531L338.809 209.529L338.827 199.596L338.703 199.595L338.721 189.891L338.844 189.891L338.862 179.942L337.972 179.94L337.954 189.874L337.831 189.873L337.812 199.823L337.936 199.823L337.918 209.543Z" fill="#FFA412"/>
<path d="M339.831 199.598L339.812 209.548L340.703 209.549L340.721 199.6L339.831 199.598Z" fill="#FFA412"/>
<path d="M344.431 199.839L344.588 199.839L344.606 189.89L343.825 189.888C343.866 189.882 343.908 189.877 343.949 189.869L343.967 179.989C343.857 179.965 343.745 179.953 343.633 179.953L343.076 179.952L343.058 189.901L343.614 189.902C343.649 189.903 343.682 189.9 343.716 189.898L343.698 199.612C343.664 199.61 343.631 199.607 343.597 199.607L343.04 199.605L343.022 209.539L342.536 209.539L342.554 199.605L341.719 199.603L341.737 189.898L342.572 189.9L342.59 179.951L341.699 179.949L341.681 189.883L340.846 189.881L340.828 199.83L341.663 199.832L341.646 209.552L342.322 209.554L342.304 219.487L343.195 219.49L343.213 209.555L343.579 209.556C343.691 209.557 343.803 209.545 343.913 209.522L343.931 199.837L344.278 199.838L344.26 209.412C344.634 209.242 344.946 208.959 345.151 208.604L345.166 200.567C344.989 200.264 344.735 200.013 344.431 199.839Z" fill="#FFA412"/>
<path d="M313.837 189.817L313.816 199.766L314.707 199.768L314.728 189.818L313.837 189.817Z" fill="#FFA412"/>
<path d="M305.426 189.795L305.402 199.745L306.293 199.747L306.316 189.797L305.426 189.795Z" fill="#FFA412"/>
<path d="M297.914 189.779L297.891 199.728L298.781 199.73L298.805 189.781L297.914 189.779Z" fill="#FFA412"/>
<path d="M345.613 189.892L345.59 199.841L346.48 199.843L346.504 189.894L345.613 189.892Z" fill="#FFA412"/>
<path d="M347.445 189.895L347.422 199.844L348.312 199.846L348.336 189.897L347.445 189.895Z" fill="#FFA412"/>
<path d="M348.819 189.899L348.801 199.849L349.357 199.85C349.47 199.85 349.582 199.839 349.692 199.816L349.71 189.936C349.6 189.913 349.488 189.901 349.375 189.9L348.819 189.899Z" fill="#FFA412"/>
<path d="M350.926 198.897L350.941 190.86C350.736 190.504 350.426 190.22 350.053 190.048L350.035 199.706C350.409 199.535 350.72 199.253 350.926 198.897Z" fill="#FFA412"/>
<path d="M332.09 179.926L332.066 189.875L332.957 189.877L332.981 179.928L332.09 179.926Z" fill="#FFA412"/>
<path d="M329.362 179.919L328.472 179.917L328.454 189.867L328.673 189.867L328.656 199.571L328.436 199.571L328.418 209.52L329.308 209.522L329.326 199.803L329.546 199.803L329.564 189.854L329.344 189.853L329.362 179.919Z" fill="#FFA412"/>
<path d="M322.914 189.838L322.815 189.838L322.797 199.787L322.895 199.787L322.878 209.507L323.768 209.51L323.786 199.56L323.688 199.56L323.706 189.856L323.804 189.856L323.822 179.906L322.932 179.904L322.914 189.838Z" fill="#FFA412"/>
<path d="M317.078 179.889L317.055 189.839L317.945 189.841L317.969 179.891L317.078 179.889Z" fill="#FFA412"/>
<path d="M308.094 179.868L308.07 189.817L308.961 189.819L308.984 179.87L308.094 179.868Z" fill="#FFA412"/>
<path d="M299.686 179.849L299.66 189.798L300.551 189.801L300.577 179.851L299.686 179.849Z" fill="#FFA412"/>
<path d="M292.173 179.831L292.152 189.78L293.043 189.782L293.064 179.833L292.173 179.831Z" fill="#FFA412"/>
<path d="M339.87 179.944L339.844 189.894L340.734 189.896L340.76 179.947L339.87 179.944Z" fill="#FFA412"/>
<path d="M344.31 180.101L344.293 189.758C344.667 189.588 344.978 189.305 345.184 188.95L345.199 180.913C344.994 180.557 344.684 180.273 344.31 180.101Z" fill="#FFA412"/>
<path d="M370.418 206.627L375.95 207.609C376.369 207.681 376.76 207.865 377.083 208.14C377.398 208.405 377.622 208.76 377.725 209.158C377.755 209.276 377.771 209.397 377.774 209.519C377.777 209.631 377.769 209.743 377.749 209.854L364.006 286.992C363.828 287.987 362.782 288.646 361.651 288.497C361.614 288.492 361.578 288.487 361.541 288.48L356.009 287.498C355.972 287.491 355.936 287.484 355.9 287.476C354.787 287.226 354.032 286.247 354.209 285.253L367.953 208.114C367.962 208.065 367.973 208.016 367.986 207.968C367.991 207.947 367.998 207.927 368.005 207.906C368.011 207.884 368.019 207.861 368.028 207.839C368.033 207.823 368.04 207.807 368.046 207.791C368.09 207.678 368.148 207.57 368.216 207.469C368.226 207.454 368.236 207.44 368.247 207.425C368.257 207.41 368.269 207.395 368.28 207.382C368.302 207.353 368.325 207.325 368.348 207.297C368.362 207.281 368.377 207.265 368.392 207.249C368.405 207.235 368.418 207.221 368.432 207.207C368.458 207.181 368.484 207.156 368.511 207.131C368.543 207.103 368.576 207.075 368.61 207.05C368.635 207.028 368.662 207.009 368.69 206.989C368.691 206.988 368.693 206.987 368.695 206.986C368.713 206.973 368.733 206.96 368.752 206.947C368.811 206.908 368.872 206.872 368.935 206.84C368.954 206.83 368.973 206.82 368.991 206.812C369.01 206.802 369.03 206.794 369.05 206.785C369.089 206.768 369.13 206.75 369.17 206.735C369.569 206.587 370 206.55 370.418 206.627Z" fill="#FFB93E"/>
<path d="M371.332 245.866L363.969 287.192C363.811 288.081 362.78 288.651 361.65 288.497C361.614 288.492 361.577 288.486 361.54 288.48L356.008 287.497C355.971 287.491 355.935 287.484 355.899 287.476C354.785 287.231 354.015 286.341 354.173 285.452L360.631 249.203C360.715 249.2 360.798 249.198 360.882 249.195C363.852 249.098 367.944 248.423 371.332 245.866Z" fill="#FFA412"/>
<path d="M366.613 215.63L366.457 216.507L376.252 218.255L376.408 217.379L366.613 215.63Z" fill="#FFA412"/>
<path d="M366.086 218.6L365.93 219.477L375.725 221.22L375.881 220.344L366.086 218.6Z" fill="#FFA412"/>
<path d="M365.449 222.158L365.293 223.035L375.088 224.78L375.244 223.903L365.449 222.158Z" fill="#FFA412"/>
<path d="M364.48 227.613L364.324 228.49L374.12 230.235L374.276 229.358L364.48 227.613Z" fill="#FFA412"/>
<path d="M363.453 233.382L363.297 234.259L373.092 236.002L373.248 235.126L363.453 233.382Z" fill="#FFA412"/>
<path d="M361.875 242.224L361.719 243.101L371.514 244.847L371.67 243.97L361.875 242.224Z" fill="#FFA412"/>
<path d="M360.402 250.505L360.246 251.382L370.042 253.125L370.198 252.249L360.402 250.505Z" fill="#FFA412"/>
<path d="M359.086 257.896L358.93 258.773L368.724 260.521L368.881 259.644L359.086 257.896Z" fill="#FFA412"/>
<path d="M367.117 212.807L366.961 213.683L376.756 215.429L376.912 214.552L367.117 212.807Z" fill="#FFA412"/>
<path d="M367.449 210.94L367.293 211.817L377.088 213.563L377.244 212.686L367.449 210.94Z" fill="#FFA412"/>
<path d="M367.773 209.138L367.617 210.015L377.412 211.761L377.568 210.884L367.773 209.138Z" fill="#FFA412"/>
<path d="M367.855 208.662L377.652 210.402L377.749 209.854C377.769 209.744 377.777 209.631 377.774 209.519L368.046 207.791C368.004 207.895 367.973 208.004 367.953 208.114L367.855 208.662Z" fill="#FFA412"/>
<path d="M368.219 207.469L377.728 209.158C377.625 208.76 377.4 208.405 377.086 208.14L369.173 206.735C368.786 206.875 368.453 207.132 368.219 207.469Z" fill="#FFA412"/>
<path d="M355.609 136.105C369.078 122.636 369.078 100.8 355.609 87.3314C342.141 73.863 320.304 73.863 306.836 87.3314C293.367 100.8 293.367 122.636 306.836 136.105C320.304 149.573 342.141 149.573 355.609 136.105Z" fill="#E2810E"/>
<path d="M361.943 121.931C366.781 103.509 355.769 84.6524 337.347 79.814C318.924 74.9756 300.068 85.9875 295.229 104.41C290.391 122.832 301.403 141.689 319.825 146.527C338.248 151.366 357.104 140.354 361.943 121.931Z" fill="#FFB93E"/>
<path d="M328.838 144.944C323.294 144.954 317.846 143.496 313.048 140.719C308.25 137.942 304.272 133.944 301.518 129.133C298.764 124.322 297.332 118.867 297.368 113.323C297.403 107.78 298.905 102.344 301.721 97.5682C304.536 92.7925 308.565 88.8468 313.399 86.1316C318.232 83.4165 323.698 82.0286 329.241 82.1088C334.785 82.189 340.208 83.7344 344.961 86.5883C349.714 89.4422 353.627 93.5028 356.303 98.358C364.667 113.532 359.128 132.681 343.954 141.046C339.327 143.604 334.125 144.945 328.838 144.944ZM328.743 83.9659C321.244 83.9612 314.023 86.7992 308.533 91.9077C303.044 97.0163 299.696 104.016 299.162 111.495C298.629 118.975 300.951 126.378 305.66 132.214C310.368 138.05 317.114 141.884 324.538 142.943C331.961 144.002 339.51 142.208 345.663 137.922C351.816 133.637 356.116 127.178 357.696 119.848C359.276 112.518 358.019 104.861 354.178 98.4209C350.336 91.9809 344.197 87.2365 336.996 85.1436C334.315 84.3608 331.536 83.9642 328.743 83.9659Z" fill="#FFA412"/>
<path d="M336.975 119.426C336.754 118.853 336.434 118.324 336.029 117.864C335.638 117.443 335.157 117.117 334.622 116.909C333.978 116.664 333.301 116.514 332.614 116.462C331.702 116.389 330.787 116.383 329.874 116.444C328.196 116.531 326.515 116.533 324.837 116.45C323.413 116.389 322.004 116.134 320.649 115.691C319.43 115.285 318.31 114.629 317.361 113.765C315.423 111.835 314.325 109.218 314.305 106.483C314.328 105.256 314.61 104.049 315.131 102.938C315.689 101.767 316.451 100.705 317.383 99.8013C318.437 98.7788 319.641 97.9221 320.952 97.2603L318.99 92.4279L322.88 90.8486L324.869 95.7485C326.25 95.3725 327.683 95.2262 329.111 95.3153C330.428 95.392 331.716 95.7323 332.899 96.316C334.082 96.8997 335.136 97.715 335.998 98.7135C336.976 99.8447 337.754 101.135 338.297 102.528L331.272 105.38C330.539 103.574 329.589 102.386 328.423 101.816C327.257 101.246 326.002 101.234 324.656 101.78C324.009 102.025 323.412 102.388 322.896 102.85C322.479 103.228 322.151 103.693 321.935 104.213C321.738 104.708 321.654 105.241 321.69 105.773C321.729 106.343 321.861 106.902 322.08 107.43C322.282 107.947 322.572 108.425 322.937 108.843C323.31 109.248 323.771 109.561 324.285 109.756C324.933 110.001 325.614 110.15 326.305 110.198C327.259 110.275 328.218 110.294 329.174 110.257C330.984 110.206 332.659 110.227 334.198 110.321C335.622 110.393 337.03 110.658 338.383 111.107C339.667 111.526 340.838 112.232 341.809 113.171C342.779 114.111 343.522 115.259 343.982 116.528C344.499 117.745 344.756 119.056 344.738 120.377C344.708 121.6 344.419 122.802 343.89 123.904C343.32 125.067 342.541 126.115 341.591 126.995C340.513 127.999 339.298 128.846 337.983 129.512L339.808 134.005L335.943 135.574L334.127 131.103C332.742 131.512 331.312 131.748 329.869 131.807C328.465 131.871 327.062 131.668 325.733 131.211C324.369 130.727 323.127 129.952 322.093 128.941C320.984 127.883 320.062 126.451 319.329 124.644L326.354 121.792C326.697 122.716 327.219 123.563 327.89 124.285C328.418 124.839 329.069 125.259 329.79 125.513C330.459 125.737 331.171 125.808 331.871 125.72C332.579 125.634 333.273 125.454 333.933 125.185C334.618 124.921 335.255 124.547 335.819 124.077C336.282 123.69 336.662 123.214 336.936 122.677C337.181 122.184 337.31 121.641 337.311 121.091C337.309 120.519 337.195 119.953 336.975 119.426Z" fill="#FFA412"/>
<path d="M362.908 93.1573C361.465 92.1387 358.193 89.8974 358.023 90.3966C357.901 90.7558 358.075 91.366 358.468 92.0012C356.489 91.262 354.48 90.7769 349.728 91.6896C349.254 91.775 348.803 91.9553 348.401 92.2198C347.999 92.4843 347.655 92.8275 347.39 93.2286C346.906 93.9829 346.724 94.9259 347.937 95.68C350.362 97.1878 349.659 96.2845 353.029 98.4801C356.399 100.676 360.525 101.236 362.99 99.6953L366.299 99.1438L366.709 93.7023C366.709 93.7023 364.823 93.4774 362.908 93.1573Z" fill="#DEA7A3"/>
<path opacity="0.4" d="M401.449 157.877V277.155C401.44 280.507 400.104 283.719 397.734 286.089C395.364 288.46 392.152 289.796 388.8 289.806H266.193C262.969 289.806 259.862 288.596 257.487 286.415C256.36 285.387 255.422 284.169 254.716 282.817C254.678 282.744 254.642 282.672 254.606 282.597C253.853 281.089 253.408 279.447 253.294 277.765C253.272 277.471 253.262 277.175 253.262 276.875V158.642C253.271 155.352 254.109 152.118 255.699 149.237C257.289 146.357 259.58 143.924 262.359 142.163C262.359 142.163 262.363 142.161 262.373 142.155C265.509 140.147 267.896 137.163 269.167 133.664C270.438 130.164 270.52 126.343 269.403 122.792H385.308C384.226 126.23 384.268 129.925 385.429 133.338C386.59 136.751 388.809 139.704 391.764 141.77C391.766 141.77 391.766 141.772 391.768 141.772C392.06 141.975 392.358 142.171 392.663 142.354L392.664 142.356C395.338 143.971 397.551 146.248 399.089 148.966C400.628 151.684 401.441 154.753 401.449 157.877Z" fill="white"/>
<path opacity="0.4" d="M401.45 157.877V277.155C401.44 280.352 400.224 283.429 398.044 285.768C395.864 288.108 392.882 289.538 389.693 289.774C389.399 289.796 389.101 289.806 388.801 289.806H334.814C331.387 289.796 328.104 288.431 325.681 286.008C323.258 283.585 321.893 280.301 321.883 276.875V158.642C321.892 155.352 322.73 152.118 324.32 149.237C325.91 146.357 328.201 143.924 330.98 142.163C334.121 140.158 336.513 137.173 337.787 133.672C339.06 130.17 339.144 126.346 338.026 122.792H385.309C384.172 126.406 384.279 130.296 385.612 133.843C386.945 137.389 389.429 140.386 392.665 142.356C395.339 143.971 397.551 146.248 399.09 148.966C400.629 151.684 401.441 154.753 401.45 157.877Z" fill="white"/>
<path opacity="0.6" d="M391.766 141.77C387.98 139.503 371.579 131.468 329.871 131.808C282.099 132.199 262.961 141.854 262.375 142.155C265.511 140.147 267.898 137.163 269.169 133.664C270.44 130.164 270.522 126.343 269.405 122.792H385.31C384.228 126.23 384.27 129.925 385.431 133.338C386.592 136.751 388.811 139.704 391.766 141.77Z" fill="#ED9F4A"/>
<path d="M387.933 121.958V127.367C387.933 127.624 387.831 127.87 387.65 128.052C387.469 128.233 387.223 128.336 386.966 128.337H267.747C267.49 128.336 267.243 128.234 267.062 128.052C266.88 127.871 266.778 127.624 266.777 127.367V121.958C266.778 121.701 266.88 121.455 267.062 121.273C267.244 121.092 267.49 120.989 267.747 120.988H386.966C387.223 120.99 387.468 121.092 387.65 121.274C387.831 121.455 387.933 121.701 387.933 121.958Z" fill="#5989B6"/>
<path d="M387.934 121.958V127.367C387.934 127.624 387.832 127.87 387.651 128.052C387.47 128.233 387.224 128.336 386.967 128.337H341.84C341.583 128.336 341.337 128.234 341.156 128.052C340.974 127.87 340.872 127.624 340.871 127.367V121.958C340.872 121.701 340.975 121.455 341.156 121.274C341.338 121.092 341.584 120.99 341.84 120.988H386.967C387.224 120.99 387.469 121.092 387.651 121.274C387.832 121.455 387.934 121.701 387.934 121.958Z" fill="#437BA7"/>
<path d="M308.392 148.745C308.392 148.745 305.319 153.071 302.502 153.131C299.685 153.191 295.4 151.126 295.4 151.126C295.4 151.126 292.813 145.361 294.567 143.105C295.168 142.891 295.814 142.833 296.443 142.936C297.073 143.04 297.666 143.301 298.166 143.697C298.519 143.962 298.839 144.268 299.119 144.609C299.499 145.085 300.015 145.434 300.597 145.612C302.608 146.223 304.994 144.785 305.886 146.173C306.323 146.85 306.845 147.468 307.44 148.013C307.736 148.283 308.055 148.528 308.392 148.745Z" fill="#FEFEFE"/>
<path d="M268.332 179.949C268.332 179.949 279.193 153.632 298.743 153.131C298.743 153.131 316.789 155.136 317.791 179.949H268.332Z" fill="#FEFEFE"/>
<path d="M293.386 153.934C293.386 153.934 301.222 155.677 303.64 154.653C303.64 154.653 304.005 151.376 300.705 151.836C298.447 152.15 296.975 151.065 296.11 150.624C294.885 150.001 293.06 152.564 293.386 153.934Z" fill="#5989B6"/>
<path d="M300.204 148.995C299.703 149.371 298.164 143.697 298.164 143.697C298.517 143.962 298.837 144.268 299.116 144.609C299.497 145.085 300.013 145.434 300.595 145.612C300.6 145.777 300.691 148.629 300.204 148.995Z" fill="#ADD9F4"/>
<path d="M307.439 148.013C307.329 148.078 303.705 150.248 303.214 150.248C302.713 150.248 305.886 146.173 305.886 146.173C306.323 146.85 306.845 147.468 307.439 148.013Z" fill="#ADD9F4"/>
<path d="M278.941 172.597C278.74 172.425 286.627 160.984 288.8 160.9C290.972 160.817 295.852 163.407 299.386 163.741C302.919 164.075 306.344 163.073 307.013 165.161C307.681 167.25 309.519 174.655 308.391 175.84C307.263 177.025 283.278 176.302 278.941 172.597Z" fill="#ADD9F4"/>
<path opacity="0.5" d="M273.18 284.016C272.531 284.359 271.878 284.682 271.22 284.995C270.594 285.359 269.957 285.715 269.308 286.056C259.69 291.76 240.498 291.76 237.379 291.76C247.934 289.721 256.1 286.397 255.371 284.995C254.872 285.263 256.235 286.636 255.731 286.887V193.641C258.034 193.95 260.314 194.41 262.557 195.019C275.11 198.424 286.291 206.439 293.09 218.228C306.596 241.649 297.681 271.104 273.18 284.016Z" fill="#E2810E"/>
<path d="M281.567 214.612C268.042 190.076 237.187 181.151 212.651 194.676C188.115 208.201 179.189 239.057 192.715 263.592C206.24 288.128 237.095 297.054 261.631 283.529C286.167 270.003 295.093 239.149 281.567 214.612Z" fill="#E2810E"/>
<path d="M259.697 284.581C259.072 284.962 258.437 285.331 257.791 285.687C257.572 285.808 257.353 285.927 257.135 286.042C256.635 286.308 256.135 286.565 255.631 286.814C231.473 298.678 202.007 289.573 188.874 265.751C176.348 243.029 183.081 214.885 203.635 200.107C205.293 198.914 207.022 197.821 208.811 196.836C209.461 196.477 210.116 196.135 210.776 195.809C211.415 195.49 212.06 195.187 212.709 194.898C217.54 192.748 222.678 191.366 227.936 190.805C237.87 189.753 247.893 191.656 256.75 196.275C265.608 200.895 272.905 208.025 277.728 216.772C290.896 240.663 282.782 270.54 259.697 284.581Z" fill="#FFB93E"/>
<path d="M233.695 287.922C229.315 287.919 224.958 287.299 220.751 286.08C209.57 282.824 200.04 275.462 194.082 265.478C188.124 255.495 186.18 243.63 188.642 232.274C191.103 220.918 197.787 210.914 207.347 204.276C216.908 197.638 228.635 194.86 240.167 196.501C251.699 198.142 262.179 204.08 269.498 213.119C276.816 222.158 280.429 233.627 279.608 245.217C278.788 256.807 273.595 267.656 265.076 275.58C256.557 283.503 245.344 287.914 233.695 287.922ZM195.468 262.663C200.335 271.469 208.112 278.319 217.475 282.046C226.838 285.774 237.207 286.148 246.816 283.105C256.424 280.062 264.677 273.79 270.169 265.358C275.661 256.926 278.052 246.856 276.935 236.863C275.817 226.87 271.26 217.573 264.04 210.555C256.82 203.538 247.383 199.235 237.339 198.378C227.294 197.522 217.263 200.166 208.953 205.86C200.644 211.554 194.572 219.945 191.77 229.604C190.164 235.085 189.664 240.829 190.299 246.503C190.934 252.178 192.691 257.67 195.468 262.663Z" fill="#FFA412"/>
<path d="M256.054 246.257C255.953 246.007 255.847 245.766 255.738 245.529C255.02 243.871 253.971 242.377 252.655 241.137C251.251 239.864 249.599 238.895 247.801 238.289C245.807 237.628 243.733 237.239 241.634 237.134C239.365 236.995 236.896 236.963 234.228 237.038C232.817 237.093 231.405 237.065 229.998 236.953C228.979 236.88 227.977 236.662 227.021 236.303C226.263 236.016 225.582 235.556 225.033 234.961C224.495 234.346 224.068 233.644 223.771 232.884C223.447 232.108 223.253 231.286 223.196 230.448C223.143 229.667 223.267 228.884 223.558 228.156C223.876 227.393 224.36 226.709 224.975 226.154C225.735 225.475 226.614 224.941 227.568 224.58C229.551 223.777 231.402 223.794 233.121 224.632C234.839 225.471 236.238 227.218 237.319 229.872L247.676 225.679C246.874 223.632 245.727 221.736 244.286 220.074C243.015 218.606 241.461 217.408 239.717 216.55C237.973 215.693 236.075 215.193 234.133 215.08C232.029 214.949 229.917 215.164 227.883 215.717L224.95 208.515L219.217 210.836L222.109 217.938C220.176 218.911 218.401 220.17 216.846 221.672C215.474 223 214.351 224.562 213.529 226.283C212.76 227.915 212.345 229.69 212.309 231.493C212.288 233.398 212.66 235.287 213.401 237.042C214.284 239.211 215.422 240.929 216.814 242.194C218.214 243.465 219.866 244.429 221.662 245.025C223.658 245.677 225.734 246.052 227.833 246.141C230.307 246.264 232.785 246.261 235.259 246.133C236.604 246.043 237.954 246.052 239.298 246.159C240.311 246.235 241.309 246.455 242.259 246.815C243.047 247.121 243.756 247.6 244.331 248.218C244.929 248.895 245.401 249.672 245.726 250.514C246.051 251.289 246.22 252.121 246.221 252.962C246.22 253.771 246.031 254.569 245.668 255.293C245.264 256.083 244.704 256.783 244.022 257.352C243.191 258.042 242.251 258.592 241.242 258.98C240.268 259.374 239.246 259.638 238.202 259.766C237.17 259.895 236.122 259.79 235.135 259.46C234.072 259.088 233.113 258.469 232.336 257.656C231.465 256.786 230.71 255.564 230.071 253.992L219.716 258.184C220.796 260.838 222.153 262.943 223.789 264.498C225.314 265.985 227.144 267.123 229.154 267.834C231.113 268.507 233.181 268.805 235.25 268.711C237.378 268.625 239.488 268.277 241.53 267.676L244.204 274.247L249.901 271.941L247.213 265.339C249.15 264.36 250.94 263.114 252.53 261.638C253.828 260.436 254.913 259.023 255.738 257.46C255.801 257.339 255.861 257.219 255.92 257.096C256.699 255.475 257.124 253.709 257.168 251.913C257.196 249.971 256.816 248.045 256.054 246.257Z" fill="#FFA412"/>
<path d="M195.206 66.7765C195.356 66.1753 182.138 72.7505 181.468 73.4939C175.269 80.3704 177.036 89.3436 180.583 89.4298C182.858 89.4849 182.417 93.2673 182.417 93.2673L207.761 82.5461C207.761 82.5461 204.709 64.7521 195.206 66.7765Z" fill="#2D3F45"/>
<path d="M198.33 68.1645C198.33 68.1645 199.236 58.2919 188.205 58.2919C188.205 58.2919 191.548 59.1985 193.277 61.012C193.277 61.012 186.241 56.8813 178.584 63.228C170.928 69.5748 175.686 85.4925 173.357 88.5147C171.029 91.5371 161.962 92.1418 163.07 101.914C164.178 111.686 191.846 123.925 190.069 132.01C190.069 132.01 200.912 116.072 193.159 108.798C193.159 108.798 196.938 112.357 197.323 116.589C197.323 116.589 198.348 108.328 193.092 105.686C188.44 103.347 184.629 94.7954 185.032 93.2672C185.435 91.7388 198.33 68.1645 198.33 68.1645Z" fill="#2D3F45"/>
<path d="M188.313 114.612C186.612 106.421 175.991 103.881 170.966 110.57C170.012 111.824 169.409 113.309 169.219 114.874C168.072 124.171 182.938 162.042 185.067 165.471C188.943 171.714 211.766 193.114 211.766 193.114L215.972 190.565C215.972 190.565 199.784 163.158 197.277 160.594C194.379 157.628 191.542 130.165 188.313 114.612Z" fill="#D19892"/>
<path d="M210.168 190.576C210.168 190.576 216.307 186.545 218.631 186.805C220.955 187.065 227.681 189 227.763 189.989C227.845 190.978 220.269 191.595 219.76 192.135C219.251 192.676 214.107 196.11 212.242 195.033C210.376 193.956 210.168 190.576 210.168 190.576Z" fill="#D19892"/>
<path d="M185.865 109.531C185.865 109.531 189.1 112.895 190.577 116.925C190.577 116.925 185.416 131.744 173.355 133.603C173.355 133.603 182.898 109.525 185.865 109.531Z" fill="#069A55"/>
<path d="M177.75 124.366C163.811 121.167 172.716 101.581 173.524 101.926C175.455 101.532 179.697 98.1411 183.491 91.5186L184.004 91.963L192.564 99.469C192.564 99.469 190.586 102.388 188.921 105.247C187.62 107.486 186.514 109.691 186.69 110.448C187.379 110.99 181.468 125.221 177.75 124.366Z" fill="#DEA7A3"/>
<path d="M192.564 99.4708C192.564 99.4708 190.584 102.386 188.92 105.249C183.598 101.968 183.592 95.3785 184.002 91.9648L192.564 99.4708Z" fill="#D19892"/>
<path d="M192.8 103.23C192.8 103.23 179.877 96.0387 184.479 88.0597C189.081 80.0805 190.513 73.7784 198.959 78.0324C207.405 82.2864 207.238 86.2478 206.349 89.2847C205.461 92.3214 196.281 104.895 192.8 103.23Z" fill="#DEA7A3"/>
<path d="M208.532 84.6307C207.94 81.088 206.14 80.7497 204.885 80.9863C200.112 73.0936 192.315 76.1738 192.315 76.1738C188.15 81.4001 182.129 82.2919 182.129 82.2919C182.129 82.2919 183.629 85.0824 189.808 86.8098C191.695 87.3373 193.838 87.0178 195.903 86.3222C193.144 87.818 190.193 88.9304 187.133 89.6283C195.276 90.3735 203.024 82.9292 203.827 82.1329C204.203 83.2864 204.862 85.7016 204.467 87.4673C203.931 89.867 201.801 94.2133 203.102 94.7756C203.102 94.7756 209.419 89.9439 208.532 84.6307Z" fill="#2D3F45"/>
<path d="M179.388 139.894C176.444 140.921 172.312 141.483 168.084 141.943C162.068 142.6 155.856 143.049 152.602 144.347C151.415 144.82 150.621 145.405 150.374 146.152C148.963 150.393 142.747 156.938 142.747 156.938C102.905 155.124 98.5312 138.459 98.5312 138.459C125.337 107.289 170.724 98.2668 170.724 98.2668C170.724 98.2668 173.966 96.8923 182.13 103.38C187.578 107.712 186.861 109.375 186.861 109.375C186.861 109.375 188.052 136.872 179.388 139.894Z" fill="#00AB5B"/>
<path d="M168.084 141.943C162.068 142.6 155.856 143.049 152.602 144.347C151.272 124.476 160.649 109.53 160.649 109.53C160.649 109.53 166.767 134.424 168.084 141.943Z" fill="#069A55"/>
<path d="M174.28 105.685C174.28 105.685 159.201 107.175 157.992 116.973C156.783 126.771 172.449 166.679 174.692 170.292C178.777 176.871 202.827 199.421 202.827 199.421L207.26 196.735C207.26 196.735 190.2 167.855 187.559 165.152C183.413 160.909 179.386 109.079 174.28 105.685Z" fill="#DEA7A3"/>
<path d="M158.425 122.868C158.464 123.09 172.34 127.401 181.271 122.868C181.271 122.868 183.182 102.263 172.52 103.381C161.859 104.499 155.545 107.857 155.277 112.962C155.008 118.066 158.425 122.868 158.425 122.868Z" fill="#00AB5B"/>
<path d="M201.457 196.557C201.457 196.557 206.866 191.589 209.202 191.471C211.537 191.353 218.487 192.179 218.728 193.142C218.968 194.104 211.59 195.934 211.175 196.55C210.76 197.165 206.236 201.384 204.222 200.621C202.207 199.859 201.457 196.557 201.457 196.557Z" fill="#DEA7A3"/>
<rect x="405.668" y="288.401" width="228.384" height="1.67929" fill="#2D3F45"/>
</svg>
