<svg width="281" height="214" viewBox="0 0 281 214" fill="none" xmlns="http://www.w3.org/2000/svg">
<rect x="1" width="280" height="214" fill="white"/>
<g clip-path="url(#clip0)">
<path d="M37.9144 104.458C37.8457 102.706 37.3306 100.921 36.4378 99.3412L28.3682 85.3652C27.7501 84.3007 27.338 83.1675 27.0976 82L26.7542 82.5838C24.7626 86.052 24.7626 90.31 26.7542 93.7783L33.21 104.973C35.2016 108.441 35.2016 112.699 33.21 116.167L32.8666 116.751C32.6262 115.584 32.2141 114.45 31.596 113.386L25.6897 103.153L21.9124 96.6284C21.2943 95.5639 20.8823 94.4307 20.6419 93.2632L20.2985 93.8469C18.3068 97.2808 18.3068 101.539 20.2642 105.007L26.7542 116.236C28.7459 119.704 28.7459 123.962 26.7542 127.43L26.4108 128.014C26.1705 126.847 25.7584 125.714 25.1403 124.649L17.0706 110.536C15.9718 108.647 15.491 106.552 15.5941 104.458C6.94064 106.724 1 111.497 1 117.06C1 124.786 12.5379 131.036 26.7886 131.036C41.0392 131.036 52.5771 124.786 52.5771 117.06C52.5428 111.497 46.5678 106.724 37.9144 104.458ZM62.2607 128.323C62.3637 126.332 62.6385 124.992 63.1879 123.447C65.9007 124.718 69.4032 125.336 72.0473 125.336C76.5457 125.336 79.0868 123.894 79.0868 121.009C79.0868 118.193 77.2325 116.888 72.6998 114.897L70.2274 113.832C65.6603 111.841 62.5698 109.265 62.5698 104.149C62.5698 98.6201 66.3814 95.0832 74.245 95.0832C77.4042 95.0832 80.3574 95.5296 83.1045 96.491C82.9671 98.414 82.6237 99.9249 82.143 101.333C79.5332 100.371 76.4427 99.9249 74.2107 99.9249C69.987 99.9249 68.064 101.573 68.064 104.149C68.064 106.655 69.9527 108.132 73.3522 109.574L75.962 110.673C82.1087 113.283 84.6841 116.064 84.6841 120.734C84.6841 126.297 80.4604 130.143 72.2534 130.143C68.2357 130.178 64.9735 129.594 62.2607 128.323ZM110.644 105.179V129.388H105.768L105.494 126.469C104.154 128.598 102.06 129.972 98.66 129.972C92.273 129.972 88.015 125.336 88.015 117.197C88.015 108.681 92.5821 103.84 101.545 103.84C104.978 103.805 107.863 104.217 110.644 105.179ZM105.322 123.859V108.647C104.223 108.441 102.987 108.372 101.51 108.372C95.9816 108.372 93.4062 111.772 93.4062 117.197C93.4062 122.142 95.3979 125.611 100.137 125.611C102.231 125.611 103.914 124.924 105.322 123.859ZM137.944 113.111V129.388H132.621V114.038C132.621 110.227 131.351 108.372 126.028 108.372C124.758 108.372 123.281 108.51 121.805 108.75V129.388H116.482V105.179C119.882 104.355 123.59 103.84 126.166 103.84C135.059 103.805 137.944 107.273 137.944 113.111ZM152.71 125.439C154.255 125.439 155.697 125.164 156.865 124.718C156.727 126.16 156.521 127.808 156.247 129.216C154.804 129.8 153.259 130.006 151.748 130.006C146.563 130.006 143.266 127.637 143.266 121.73V96.285C144.915 95.7356 146.941 95.4952 148.589 95.4952V104.664H157.002C156.899 106.312 156.762 107.823 156.521 109.231H148.589V121.112C148.589 124.203 150.134 125.439 152.71 125.439ZM181.28 105.179V129.388H176.403L176.129 126.469C174.755 128.598 172.695 129.972 169.295 129.972C162.908 129.972 158.65 125.336 158.65 117.197C158.65 108.681 163.217 103.84 172.18 103.84C175.614 103.805 178.464 104.217 181.28 105.179ZM175.957 123.859V108.647C174.858 108.441 173.622 108.372 172.145 108.372C166.617 108.372 164.041 111.772 164.041 117.197C164.041 122.142 166.033 125.611 170.772 125.611C172.867 125.611 174.549 124.924 175.957 123.859ZM208.545 113.111V129.388H203.222V114.038C203.222 110.227 201.952 108.372 196.629 108.372C195.359 108.372 193.882 108.51 192.405 108.75V129.388H187.083V105.179C190.482 104.355 194.191 103.84 196.767 103.84C205.695 103.805 208.545 107.273 208.545 113.111ZM235.57 95.4952V129.388H230.693L230.419 126.297C229.045 128.564 226.985 129.972 223.482 129.972C217.095 129.972 212.837 125.336 212.837 117.197C212.837 108.681 217.404 103.84 226.367 103.84C227.775 103.84 229.079 103.977 230.35 104.217V96.2163C231.93 95.6326 233.818 95.4952 235.57 95.4952ZM230.316 123.791V108.887C228.908 108.613 227.466 108.407 226.058 108.407C220.769 108.407 218.263 111.703 218.263 117.232C218.263 122.177 220.254 125.645 224.993 125.645C227.088 125.611 228.839 124.889 230.316 123.791ZM262.354 119.017H245.356C246.043 123.344 248.55 125.404 253.288 125.404C256.207 125.404 259.16 124.786 261.805 123.55C261.598 124.958 261.324 126.812 260.98 128.392C258.542 129.491 256.001 129.937 253.117 129.937C244.189 129.937 239.896 124.992 239.896 116.717C239.896 109.506 243.227 103.771 251.709 103.771C259.298 103.771 262.594 108.75 262.594 114.862C262.663 116.408 262.56 117.61 262.354 119.017ZM245.253 114.588H257.272C257.272 110.604 255.143 108.304 251.468 108.304C247.691 108.269 245.7 110.467 245.253 114.588ZM281 104.011C281 105.625 280.794 107.548 280.519 108.578C279.249 108.441 278.013 108.372 276.502 108.372C275.197 108.372 273.892 108.475 272.587 108.647V129.388H267.264V105.179C269.531 104.389 273.377 103.84 276.364 103.84C278.013 103.805 279.867 103.874 281 104.011Z" fill="#EC0000"/>
</g>
<defs>
<clipPath id="clip0">
<rect width="280" height="49.4118" fill="white" transform="translate(0 82)"/>
</clipPath>
</defs>
</svg>
