<svg width="44" height="44" viewBox="0 0 44 44" fill="none" xmlns="http://www.w3.org/2000/svg">
<rect width="44" height="44" rx="8" fill="white"/>
<path d="M27.5 15.4H33V17.6H30.8V31.9C30.8 32.1917 30.6841 32.4715 30.4778 32.6778C30.2715 32.8841 29.9917 33 29.7 33H14.3C14.0083 33 13.7285 32.8841 13.5222 32.6778C13.3159 32.4715 13.2 32.1917 13.2 31.9V17.6H11V15.4H16.5V12.1C16.5 11.8083 16.6159 11.5285 16.8222 11.3222C17.0285 11.1159 17.3083 11 17.6 11H26.4C26.6917 11 26.9715 11.1159 27.1778 11.3222C27.3841 11.5285 27.5 11.8083 27.5 12.1V15.4ZM28.6 17.6H15.4V30.8H28.6V17.6ZM23.5554 24.2L25.5002 26.1448L23.9448 27.7002L22 25.7554L20.0552 27.7002L18.4998 26.1448L20.4446 24.2L18.4998 22.2552L20.0552 20.6998L22 22.6446L23.9448 20.6998L25.5002 22.2552L23.5554 24.2ZM18.7 13.2V15.4H25.3V13.2H18.7Z" fill="#063453"/>
</svg>
