<svg width="44" height="44" viewBox="0 0 44 44" fill="none" xmlns="http://www.w3.org/2000/svg">
<rect width="44" height="44" rx="8" fill="white"/>
<path d="M28.537 29.567C26.7224 31.1393 24.401 32.0033 22 32C16.477 32 12 27.523 12 22C12 16.477 16.477 12 22 12C27.523 12 32 16.477 32 22C32 24.136 31.33 26.116 30.19 27.74L27 22H30C29.9998 20.1562 29.3628 18.3691 28.1967 16.9409C27.0305 15.5127 25.4069 14.5312 23.6003 14.1624C21.7938 13.7935 19.9153 14.06 18.2827 14.9168C16.65 15.7735 15.3634 17.1679 14.6405 18.8641C13.9176 20.5603 13.8028 22.4541 14.3155 24.2251C14.8282 25.9962 15.9369 27.5358 17.4541 28.5836C18.9713 29.6313 20.8038 30.1228 22.6416 29.9749C24.4795 29.827 26.2099 29.0488 27.54 27.772L28.537 29.567Z" fill="#063453"/>
</svg>
