<svg width="26" height="16" viewBox="0 0 26 16" fill="none" xmlns="http://www.w3.org/2000/svg">
<path d="M25.6 0H0V16H25.6V0Z" fill="#003399"/>
<path d="M12.8002 1.94775L12.5984 2.53005H11.9453L12.4736 2.88995L12.2719 3.47225L12.8002 3.11235L13.3286 3.47225L13.1268 2.88995L13.6552 2.53005H13.0021L12.8002 1.94775Z" fill="#FFCC00"/>
<path d="M9.98373 2.65527L9.78203 3.23757H9.12891L9.65723 3.59747L9.45541 4.17977L9.98373 3.81987L10.5122 4.17977L10.3103 3.59747L10.8387 3.23757H10.1855L9.98373 2.65527Z" fill="#FFCC00"/>
<path d="M7.92123 4.58813L7.71942 5.17043H7.06641L7.59473 5.53033L7.39291 6.11263L7.92123 5.75273L8.44966 6.11263L8.24785 5.53033L8.77617 5.17043H8.12305L7.92123 4.58813Z" fill="#FFCC00"/>
<path d="M7.16743 8.39297L7.69575 8.75277L7.49394 8.17047L8.02237 7.81067H7.36924L7.16743 7.22827L6.96562 7.81067H6.3125L6.84082 8.17047L6.63911 8.75277L7.16743 8.39297Z" fill="#FFCC00"/>
<path d="M8.12305 10.451L7.92123 9.86865L7.71942 10.451H7.06641L7.59473 10.8109L7.39291 11.3932L7.92123 11.0333L8.44966 11.3932L8.24785 10.8109L8.77617 10.451H8.12305Z" fill="#FFCC00"/>
<path d="M10.1855 12.3836L9.98373 11.8013L9.78203 12.3836H9.12891L9.65723 12.7435L9.45541 13.3258L9.98373 12.9659L10.5122 13.3258L10.3103 12.7435L10.8387 12.3836H10.1855Z" fill="#FFCC00"/>
<path d="M13.3286 14.0522L12.8002 13.6924L12.2719 14.0523L12.4737 13.47L11.9453 13.1101H12.5984L12.8002 12.5277L13.0021 13.1101H13.6552L13.1268 13.47L13.3286 14.0522Z" fill="#FFCC00"/>
<path d="M15.8184 12.3836L15.6165 11.8013L15.4148 12.3836H14.7617L15.29 12.7435L15.0882 13.3258L15.6165 12.9659L16.145 13.3258L15.9432 12.7435L16.4715 12.3836H15.8184Z" fill="#FFCC00"/>
<path d="M17.8789 10.451L17.6771 9.86865L17.4754 10.451H16.8223L17.3506 10.8109L17.1488 11.3932L17.6771 11.0333L18.2055 11.3932L18.0037 10.8109L18.532 10.451H17.8789Z" fill="#FFCC00"/>
<path d="M19.286 7.81067H18.6329L18.4311 7.22827L18.2293 7.81067H17.5762L18.1046 8.17047L17.9028 8.75277L18.4311 8.39297L18.9594 8.75277L18.7576 8.17047L19.286 7.81067Z" fill="#FFCC00"/>
<path d="M17.1488 6.11263L17.6771 5.75273L18.2055 6.11263L18.0037 5.53033L18.532 5.17043H17.8789L17.6771 4.58813L17.4754 5.17043H16.8223L17.3506 5.53033L17.1488 6.11263Z" fill="#FFCC00"/>
<path d="M15.6165 2.65527L15.4148 3.23757H14.7617L15.29 3.59747L15.0882 4.17977L15.6165 3.81987L16.145 4.17977L15.9432 3.59747L16.4715 3.23757H15.8184L15.6165 2.65527Z" fill="#FFCC00"/>
</svg>
