<svg width="76" height="76" viewBox="0 0 76 76" fill="none" xmlns="http://www.w3.org/2000/svg">
<path d="M63.2593 8H8.74074C6.1225 8 4 10.1596 4 12.8235V44.1765C4 46.8404 6.1225 49 8.74074 49H63.2593C65.8775 49 68 46.8404 68 44.1765V12.8235C68 10.1596 65.8775 8 63.2593 8Z" fill="#E5E9EE"/>
<path d="M41.5625 48.6875H62.9375C64.1973 48.6875 65.4055 48.1871 66.2963 47.2963C67.1871 46.4055 67.6875 45.1973 67.6875 43.9375V22.5625C67.6875 40.9414 59.9414 48.6875 41.5625 48.6875Z" fill="#D6DFEB"/>
<path d="M34.4375 49.875C34.4375 51.4497 35.0631 52.9599 36.1766 54.0734C37.2901 55.1869 38.8003 55.8125 40.375 55.8125H43.9375V48.6875H34.4375V49.875Z" fill="#F4C892"/>
<path d="M17.8125 24.9375H20.1875C20.8174 24.9375 21.4215 24.6873 21.8669 24.2419C22.3123 23.7965 22.5625 23.1924 22.5625 22.5625V20.1875H17.8125V24.9375Z" fill="#EE8700"/>
<path d="M17.8125 20.1875V15.4375H13.0625C12.4326 15.4375 11.8285 15.6877 11.3831 16.1331C10.9377 16.5785 10.6875 17.1826 10.6875 17.8125V22.5625C10.6875 23.1924 10.9377 23.7965 11.3831 24.2419C11.8285 24.6873 12.4326 24.9375 13.0625 24.9375H17.8125V20.1875Z" fill="#FD9638"/>
<path d="M22.5625 20.1875V17.8125C22.5625 17.1826 22.3123 16.5785 21.8669 16.1331C21.4215 15.6877 20.8174 15.4375 20.1875 15.4375H17.8125V20.1875H22.5625Z" fill="#FFB655"/>
<path d="M60.5625 27.3125C67.1209 27.3125 72.4375 21.9959 72.4375 15.4375C72.4375 8.87912 67.1209 3.5625 60.5625 3.5625C54.0041 3.5625 48.6875 8.87912 48.6875 15.4375C48.6875 21.9959 54.0041 27.3125 60.5625 27.3125Z" fill="#98D5B9"/>
<path d="M55.8125 41.5625C58.4359 41.5625 60.5625 39.4359 60.5625 36.8125C60.5625 34.1891 58.4359 32.0625 55.8125 32.0625C53.1891 32.0625 51.0625 34.1891 51.0625 36.8125C51.0625 39.4359 53.1891 41.5625 55.8125 41.5625Z" fill="#FD9638"/>
<path d="M29.6875 37C28.4277 37 27.2196 37.5004 26.3288 38.3912C25.438 39.282 24.9375 40.4902 24.9375 41.75V48.875H13.0625L9.27439 57.3977C8.97563 58.0701 8.83718 58.8028 8.86995 59.5378C8.90271 60.2729 9.1058 60.9903 9.4632 61.6335L13.6527 69.1741C14.0432 69.8799 14.2476 70.6736 14.2465 71.4802V73.8125H34.4375V41.75C34.4375 40.4902 33.9371 39.282 33.0463 38.3912C32.1555 37.5004 30.9473 37 29.6875 37Z" fill="#FED9A8"/>
<path d="M48.6875 41.5625C51.3109 41.5625 53.4375 39.4359 53.4375 36.8125C53.4375 34.1891 51.3109 32.0625 48.6875 32.0625C46.0641 32.0625 43.9375 34.1891 43.9375 36.8125C43.9375 39.4359 46.0641 41.5625 48.6875 41.5625Z" fill="#F43A3A"/>
<path d="M65.7458 10.9512L58.1885 18.5084L55.4656 15.7855C55.2416 15.5692 54.9417 15.4495 54.6303 15.4522C54.3189 15.4549 54.0211 15.5798 53.8009 15.7999C53.5808 16.0201 53.4559 16.3179 53.4532 16.6293C53.4505 16.9407 53.5702 17.2406 53.7865 17.4646L57.349 21.0271C57.5717 21.2497 57.8736 21.3748 58.1885 21.3748C58.5034 21.3748 58.8054 21.2497 59.0281 21.0271L67.4249 12.6303C67.5383 12.5207 67.6288 12.3897 67.691 12.2448C67.7533 12.0999 67.786 11.9441 67.7874 11.7864C67.7888 11.6288 67.7587 11.4724 67.699 11.3265C67.6393 11.1805 67.5511 11.0479 67.4396 10.9364C67.3281 10.8249 67.1955 10.7368 67.0496 10.6771C66.9037 10.6173 66.7473 10.5873 66.5896 10.5887C66.4319 10.59 66.2761 10.6228 66.1312 10.685C65.9864 10.7473 65.8553 10.8377 65.7458 10.9512Z" fill="#F1F2F2"/>
<path d="M33.25 17.8125H35.625V22.5625H33.25V17.8125Z" fill="#A7A9AC"/>
<path d="M38 17.8125H40.375V22.5625H38V17.8125Z" fill="#A7A9AC"/>
<path d="M28.5 17.8125H30.875V22.5625H28.5V17.8125Z" fill="#A7A9AC"/>
<path d="M42.75 17.8125H45.125V22.5625H42.75V17.8125Z" fill="#A7A9AC"/>
<path d="M9.5 40.375H21.375V42.75H9.5V40.375Z" fill="#A7A9AC"/>
<path d="M9.5 35.625H11.875V38H9.5V35.625Z" fill="#A7A9AC"/>
<path d="M14.25 35.625H16.625V38H14.25V35.625Z" fill="#A7A9AC"/>
<path d="M19 35.625H21.375V38H19V35.625Z" fill="#A7A9AC"/>
<path d="M36.8125 40.375H39.1875V42.75H36.8125V40.375Z" fill="#A7A9AC"/>
<path d="M19 28.5H23.75V30.875H19V28.5Z" fill="#A7A9AC"/>
<path d="M28.5 28.5H33.25V30.875H28.5V28.5Z" fill="#A7A9AC"/>
<path d="M38 28.5H42.75V30.875H38V28.5Z" fill="#A7A9AC"/>
<rect x="13" y="71" width="22" height="4" fill="#1D4859"/>
<rect x="24" y="49" width="2" height="12" rx="1" fill="#F4C892"/>
</svg>
