<svg width="76" height="76" viewBox="0 0 76 76" fill="none" xmlns="http://www.w3.org/2000/svg">
<path d="M15.4375 13.0625H65.3125V43.9375H15.4375V13.0625Z" fill="#70A491"/>
<path d="M60.5625 21.375V35.625C59.6177 35.625 58.7115 36.0003 58.0434 36.6684C57.3753 37.3365 57 38.2427 57 39.1875H23.75C23.75 38.2427 23.3747 37.3365 22.7066 36.6684C22.0385 36.0003 21.1323 35.625 20.1875 35.625V21.375C21.1323 21.375 22.0385 20.9997 22.7066 20.3316C23.3747 19.6635 23.75 18.7573 23.75 17.8125H57C57 18.7573 57.3753 19.6635 58.0434 20.3316C58.7115 20.9997 59.6177 21.375 60.5625 21.375Z" fill="#81C3A5"/>
<path d="M22.5625 9.5H68.875V36.8125H72.4375V5.9375H22.5625V9.5Z" fill="#518572"/>
<path d="M22.5625 9.5H19V13.0625H65.3125V40.375H68.875V36.8125V9.5H22.5625Z" fill="#608F7E"/>
<path d="M40.375 34.4375C43.6542 34.4375 46.3125 31.7792 46.3125 28.5C46.3125 25.2208 43.6542 22.5625 40.375 22.5625C37.0958 22.5625 34.4375 25.2208 34.4375 28.5C34.4375 31.7792 37.0958 34.4375 40.375 34.4375Z" fill="#70A491"/>
<path d="M48.6875 39.1875H8.3125C5.68915 39.1875 3.5625 41.3141 3.5625 43.9375V65.3125C3.5625 67.9359 5.68915 70.0625 8.3125 70.0625H48.6875C51.3109 70.0625 53.4375 67.9359 53.4375 65.3125V43.9375C53.4375 41.3141 51.3109 39.1875 48.6875 39.1875Z" fill="#E5E9EE"/>
<path d="M42.75 65.3125C44.7175 65.3125 46.3125 63.7175 46.3125 61.75C46.3125 59.7825 44.7175 58.1875 42.75 58.1875C40.7825 58.1875 39.1875 59.7825 39.1875 61.75C39.1875 63.7175 40.7825 65.3125 42.75 65.3125Z" fill="#FD9638"/>
<path d="M15.4375 51.0625H17.8125C18.4424 51.0625 19.0465 50.8123 19.4919 50.3669C19.9373 49.9215 20.1875 49.3174 20.1875 48.6875V47.5H15.4375V51.0625Z" fill="#EE8700"/>
<path d="M13.0625 51.0625H15.4375V43.9375H13.0625C12.4326 43.9375 11.8285 44.1877 11.3831 44.6331C10.9377 45.0785 10.6875 45.6826 10.6875 46.3125V48.6875C10.6875 49.3174 10.9377 49.9215 11.3831 50.3669C11.8285 50.8123 12.4326 51.0625 13.0625 51.0625Z" fill="#FF9811"/>
<path d="M20.1875 47.5V46.3125C20.1875 45.6826 19.9373 45.0785 19.4919 44.6331C19.0465 44.1877 18.4424 43.9375 17.8125 43.9375H15.4375V47.5H20.1875Z" fill="#FFB655"/>
<path d="M27.3125 70.0625H48.6875C49.9473 70.0625 51.1555 69.5621 52.0463 68.6713C52.9371 67.7805 53.4375 66.5723 53.4375 65.3125V43.9375C53.4375 62.3164 45.6914 70.0625 27.3125 70.0625Z" fill="#D6DFEB"/>
<path d="M36.8125 65.3125C38.78 65.3125 40.375 63.7175 40.375 61.75C40.375 59.7825 38.78 58.1875 36.8125 58.1875C34.845 58.1875 33.25 59.7825 33.25 61.75C33.25 63.7175 34.845 65.3125 36.8125 65.3125Z" fill="#F43A3A"/>
<path d="M54.625 27.3125H52.25C51.9351 27.3125 51.633 27.4376 51.4103 27.6603C51.1876 27.883 51.0625 28.1851 51.0625 28.5C51.0625 28.8149 51.1876 29.117 51.4103 29.3397C51.633 29.5624 51.9351 29.6875 52.25 29.6875H54.625C54.9399 29.6875 55.242 29.5624 55.4647 29.3397C55.6874 29.117 55.8125 28.8149 55.8125 28.5C55.8125 28.1851 55.6874 27.883 55.4647 27.6603C55.242 27.4376 54.9399 27.3125 54.625 27.3125Z" fill="#70A491"/>
<path d="M26.125 27.3125C25.8101 27.3125 25.508 27.4376 25.2853 27.6603C25.0626 27.883 24.9375 28.1851 24.9375 28.5C24.9375 28.8149 25.0626 29.117 25.2853 29.3397C25.508 29.5624 25.8101 29.6875 26.125 29.6875H28.5C28.8149 29.6875 29.117 29.5624 29.3397 29.3397C29.5624 29.117 29.6875 28.8149 29.6875 28.5C29.6875 28.1851 29.5624 27.883 29.3397 27.6603C29.117 27.4376 28.8149 27.3125 28.5 27.3125H26.125Z" fill="#70A491"/>
<path d="M35.625 45.125H38V49.875H35.625V45.125Z" fill="#A7A9AC"/>
<path d="M40.375 45.125H42.75V49.875H40.375V45.125Z" fill="#A7A9AC"/>
<path d="M30.875 45.125H33.25V49.875H30.875V45.125Z" fill="#A7A9AC"/>
<path d="M45.125 45.125H47.5V49.875H45.125V45.125Z" fill="#A7A9AC"/>
<path d="M9.5 64.125H26.125V66.5H9.5V64.125Z" fill="#A7A9AC"/>
<path d="M9.5 60.5625H11.875V62.9375H9.5V60.5625Z" fill="#A7A9AC"/>
<path d="M14.25 60.5625H16.625V62.9375H14.25V60.5625Z" fill="#A7A9AC"/>
<path d="M19 60.5625H21.375V62.9375H19V60.5625Z" fill="#A7A9AC"/>
<path d="M23.75 60.5625H26.125V62.9375H23.75V60.5625Z" fill="#A7A9AC"/>
</svg>
