<svg width="76" height="76" viewBox="0 0 76 76" fill="none" xmlns="http://www.w3.org/2000/svg">
<path d="M12.3084 4.38464H7.92383V8.76926H64.9238V42.3846H69.3084V38V4.38464H12.3084Z" fill="#608F7E"/>
<path d="M73.0349 54.123C72.6096 53.3839 71.9735 52.7885 71.208 52.413C70.5597 52.0832 69.8395 51.9199 69.1123 51.9377C68.3852 51.9556 67.6739 52.1541 67.0426 52.5153L50.0303 62.3368C50.2733 61.7246 50.3636 61.0625 50.2934 60.4076C50.1933 59.3075 49.6755 58.2876 48.8464 57.5576C48.0314 56.8499 46.9881 56.4606 45.9087 56.4614H36.9027C36.1276 56.4613 35.3842 56.1532 34.8361 55.605L34.4795 55.2483C33.384 54.154 31.8991 53.5391 30.3507 53.5383H20.5759C19.808 53.5383 19.0476 53.6896 18.3382 53.9835C17.6287 54.2774 16.9841 54.7082 16.4412 55.2513L13.7695 57.923V71.0768L16.6809 73.0177C17.6413 73.6581 18.7698 73.9999 19.9241 73.9999H45.8211C46.8485 74.0033 47.858 73.7308 48.7441 73.2107L71.4272 60.1153C72.4337 59.5326 73.1682 58.5747 73.4696 57.4514C73.7709 56.3281 73.6146 55.1312 73.0349 54.123Z" fill="#FED9A8"/>
<path d="M12.3086 4.38461H69.3086V38H73.6932V0H12.3086V4.38461Z" fill="#518572"/>
<path d="M6 71C6 72.1046 6.89543 73 8 73H12C13.1046 73 14 72.1046 14 71V68.7778V59.2778V56C14 54.8954 13.1046 54 12 54H8C6.89543 54 6 54.8954 6 56V56.1111V70.8889V71Z" fill="#1D4859"/>
<path d="M6 71C6 72.1046 6.89543 73 8 73C9.10457 73 10 72.1046 10 71V68.7778V59.2778V56C10 54.8954 9.10457 54 8 54C6.89543 54 6 54.8954 6 56V56.1111V70.8889V71Z" fill="#1E6886"/>
<path d="M3.53906 8.76929H64.9236V46.7693H3.53906V8.76929Z" fill="#70A491"/>
<path d="M59.077 19V36.5384C57.9142 36.5384 56.7989 37.0004 55.9767 37.8226C55.1544 38.6449 54.6924 39.7602 54.6924 40.923H13.7694C13.7694 39.7602 13.3074 38.6449 12.4852 37.8226C11.6629 37.0004 10.5476 36.5384 9.38477 36.5384V19C10.5476 19 11.6629 18.538 12.4852 17.7157C13.3074 16.8935 13.7694 15.7782 13.7694 14.6154H54.6924C54.6924 15.7782 55.1544 16.8935 55.9767 17.7157C56.7989 18.538 57.9142 19 59.077 19Z" fill="#81C3A5"/>
<path d="M34.2315 35.0769C38.2674 35.0769 41.5392 31.8052 41.5392 27.7692C41.5392 23.7333 38.2674 20.4615 34.2315 20.4615C30.1956 20.4615 26.9238 23.7333 26.9238 27.7692C26.9238 31.8052 30.1956 35.0769 34.2315 35.0769Z" fill="#70A491"/>
<path d="M51.7694 26.3077H48.8463C48.4587 26.3077 48.0869 26.4617 47.8128 26.7358C47.5387 27.0099 47.3848 27.3817 47.3848 27.7693C47.3848 28.1569 47.5387 28.5286 47.8128 28.8027C48.0869 29.0768 48.4587 29.2308 48.8463 29.2308H51.7694C52.157 29.2308 52.5288 29.0768 52.8028 28.8027C53.0769 28.5286 53.2309 28.1569 53.2309 27.7693C53.2309 27.3817 53.0769 27.0099 52.8028 26.7358C52.5288 26.4617 52.157 26.3077 51.7694 26.3077Z" fill="#70A491"/>
<path d="M19.6151 26.3077H16.692C16.3044 26.3077 15.9326 26.4617 15.6585 26.7358C15.3845 27.0099 15.2305 27.3817 15.2305 27.7693C15.2305 28.1569 15.3845 28.5286 15.6585 28.8027C15.9326 29.0768 16.3044 29.2308 16.692 29.2308H19.6151C20.0027 29.2308 20.3745 29.0768 20.6485 28.8027C20.9226 28.5286 21.0766 28.1569 21.0766 27.7693C21.0766 27.3817 20.9226 27.0099 20.6485 26.7358C20.3745 26.4617 20.0027 26.3077 19.6151 26.3077Z" fill="#70A491"/>
<path d="M49.9368 61C49.8944 61.3101 49.8192 61.614 49.7126 61.906C49.4866 62.6161 49.1081 63.2601 48.6074 63.7863C48.162 64.2632 47.6328 64.6415 47.0501 64.8997C46.4674 65.1578 45.8427 65.2907 45.2118 65.2906H34V67H45.2118C45.8427 67.0001 46.4674 66.8672 47.0501 66.6091C47.6328 66.3509 48.162 65.9726 48.6074 65.4957C49.1081 64.9695 49.4866 64.3255 49.7126 63.6154C49.929 63.0166 50.025 62.376 49.9945 61.735C49.9929 61.6068 49.956 61.1214 49.9368 61Z" fill="#F4C892"/>
</svg>
