<svg width="48" height="48" viewBox="0 0 48 48" fill="none" xmlns="http://www.w3.org/2000/svg">
<path d="M18 6H30L34 10H42C42.5304 10 43.0391 10.2107 43.4142 10.5858C43.7893 10.9609 44 11.4696 44 12V40C44 40.5304 43.7893 41.0391 43.4142 41.4142C43.0391 41.7893 42.5304 42 42 42H6C5.46957 42 4.96086 41.7893 4.58579 41.4142C4.21071 41.0391 4 40.5304 4 40V12C4 11.4696 4.21071 10.9609 4.58579 10.5858C4.96086 10.2107 5.46957 10 6 10H14L18 6ZM24 38C27.1826 38 30.2348 36.7357 32.4853 34.4853C34.7357 32.2348 36 29.1826 36 26C36 22.8174 34.7357 19.7652 32.4853 17.5147C30.2348 15.2643 27.1826 14 24 14C20.8174 14 17.7652 15.2643 15.5147 17.5147C13.2643 19.7652 12 22.8174 12 26C12 29.1826 13.2643 32.2348 15.5147 34.4853C17.7652 36.7357 20.8174 38 24 38ZM24 34C21.8783 34 19.8434 33.1571 18.3431 31.6569C16.8429 30.1566 16 28.1217 16 26C16 23.8783 16.8429 21.8434 18.3431 20.3431C19.8434 18.8429 21.8783 18 24 18C26.1217 18 28.1566 18.8429 29.6569 20.3431C31.1571 21.8434 32 23.8783 32 26C32 28.1217 31.1571 30.1566 29.6569 31.6569C28.1566 33.1571 26.1217 34 24 34Z" fill="#CAD4DB"/>
</svg>
