<svg width="460" height="292" viewBox="0 0 460 292" fill="none" xmlns="http://www.w3.org/2000/svg">
<path d="M301.25 8.50001C300.409 8.50001 299.588 8.25075 298.889 7.78375C298.19 7.31676 297.645 6.653 297.323 5.87642C297.002 5.09983 296.918 4.24529 297.082 3.42087C297.246 2.59645 297.65 1.83918 298.245 1.24481C298.839 0.650438 299.596 0.245651 300.421 0.0816639C301.245 -0.0823233 302.1 0.00184321 302.876 0.323516C303.653 0.645188 304.317 1.18993 304.784 1.88884C305.251 2.58775 305.5 3.40944 305.5 4.25001C305.499 5.37679 305.051 6.45705 304.254 7.2538C303.457 8.05055 302.377 8.49874 301.25 8.50001ZM301.25 2.00001C300.805 2.00001 300.37 2.13196 300 2.37919C299.63 2.62643 299.342 2.97784 299.171 3.38898C299.001 3.80011 298.956 4.25251 299.043 4.68896C299.13 5.12542 299.344 5.52633 299.659 5.841C299.974 6.15567 300.375 6.36995 300.811 6.45677C301.247 6.54359 301.7 6.49903 302.111 6.32873C302.522 6.15844 302.874 5.87006 303.121 5.50004C303.368 5.13003 303.5 4.69502 303.5 4.25001C303.499 3.6535 303.262 3.08162 302.84 2.65982C302.418 2.23802 301.847 2.00074 301.25 2.00001Z" fill="white"/>
<path d="M28.25 199.5C27.4094 199.5 26.5878 199.251 25.8888 198.784C25.1899 198.317 24.6452 197.653 24.3235 196.876C24.0019 196.1 23.9177 195.245 24.0817 194.421C24.2456 193.596 24.6504 192.839 25.2448 192.245C25.8392 191.65 26.5965 191.246 27.4209 191.082C28.2453 190.918 29.0998 191.002 29.8764 191.324C30.653 191.645 31.3167 192.19 31.7837 192.889C32.2507 193.588 32.5 194.409 32.5 195.25C32.4987 196.377 32.0506 197.457 31.2538 198.254C30.4571 199.051 29.3768 199.499 28.25 199.5ZM28.25 193C27.805 193 27.37 193.132 27 193.379C26.63 193.626 26.3416 193.978 26.1713 194.389C26.001 194.8 25.9564 195.253 26.0433 195.689C26.1301 196.125 26.3444 196.526 26.659 196.841C26.9737 197.156 27.3746 197.37 27.8111 197.457C28.2475 197.544 28.6999 197.499 29.1111 197.329C29.5222 197.158 29.8736 196.87 30.1208 196.5C30.3681 196.13 30.5 195.695 30.5 195.25C30.4993 194.654 30.262 194.082 29.8402 193.66C29.4184 193.238 28.8465 193.001 28.25 193Z" fill="white"/>
<path d="M414.25 165.5C413.409 165.5 412.588 165.251 411.889 164.784C411.19 164.317 410.645 163.653 410.323 162.876C410.002 162.1 409.918 161.245 410.082 160.421C410.246 159.596 410.65 158.839 411.245 158.245C411.839 157.65 412.596 157.246 413.421 157.082C414.245 156.918 415.1 157.002 415.876 157.324C416.653 157.645 417.317 158.19 417.784 158.889C418.251 159.588 418.5 160.409 418.5 161.25C418.499 162.377 418.051 163.457 417.254 164.254C416.457 165.051 415.377 165.499 414.25 165.5ZM414.25 159C413.805 159 413.37 159.132 413 159.379C412.63 159.626 412.342 159.978 412.171 160.389C412.001 160.8 411.956 161.253 412.043 161.689C412.13 162.125 412.344 162.526 412.659 162.841C412.974 163.156 413.375 163.37 413.811 163.457C414.247 163.544 414.7 163.499 415.111 163.329C415.522 163.158 415.874 162.87 416.121 162.5C416.368 162.13 416.5 161.695 416.5 161.25C416.499 160.653 416.262 160.082 415.84 159.66C415.418 159.238 414.847 159.001 414.25 159Z" fill="white"/>
<path d="M283.776 68.5323C279.93 68.1981 281.351 75.6792 280.126 78.548C279.836 76.5888 277.427 73.2961 276.311 74.4436C275.612 75.1614 277.465 78.236 277.754 80.9796C277.97 83.0376 280.145 85.3664 280.145 85.3664L278.166 100.004L284.62 100.565L285.52 85.8734C285.52 85.8734 288.153 81.937 288.499 77.9767C288.905 73.2648 287.77 68.8789 283.776 68.5323Z" fill="#E0A8A4"/>
<path d="M270.587 121.637C257.136 126.855 228.245 115.771 231.77 102.326C233.553 95.5254 238.474 96.2687 244.116 99.3038C251.399 103.223 259.971 110.859 265.466 109.938C275.216 108.307 276.758 95.4249 278.02 87.3125L286.622 87.7949C286.662 102.707 280.766 117.688 270.587 121.637Z" fill="#2E4969"/>
<path d="M239.633 69.3841C238.99 66.3844 236.408 62.2734 227.759 62.2734C219.11 62.2734 216.528 66.3844 215.885 69.3841C213.38 79.2351 220.479 88.2884 220.479 88.2884H235.039C235.039 88.2884 242.138 79.2384 239.633 69.3841Z" fill="#263238"/>
<path d="M173.915 41.56C177.685 40.7369 177.242 48.3356 178.828 51.0266C178.863 49.046 180.827 45.471 182.082 46.4646C182.867 47.0869 181.428 50.3738 181.496 53.1323C181.546 55.2034 179.694 57.789 179.694 57.789L183.548 72.0506L177.22 73.4369L174.429 58.9843C174.429 58.9843 171.31 55.4191 170.456 51.5362C169.44 46.9107 169.996 42.4162 173.915 41.56Z" fill="#E0A8A4"/>
<path d="M185.333 97.3577C194.051 110.748 214.866 124.529 225.825 105.288C231.368 95.5549 219.983 95.9534 215.353 97.5775C205.583 101.003 199.714 95.1903 195.302 89.8264C187.469 80.3088 184.866 70.1524 181.357 59.2725L173.146 60.6291C176.06 72.4096 177.799 85.7871 185.333 97.3577Z" fill="#2E4969"/>
<path d="M232.479 89.3335H223.037C222.884 92.1907 222.466 95.0275 221.787 97.8073C223.636 98.8626 223.334 100.195 227.759 100.195C232.183 100.195 231.882 98.8635 233.73 97.8073C233.052 95.0275 232.633 92.1907 232.479 89.3335Z" fill="#CD968B"/>
<path d="M236.66 78.5733L235.043 87.3286C236.395 86.8934 237.594 86.0815 238.498 84.9887C239.403 83.8959 239.976 82.5677 240.15 81.1605C240.835 76.1762 236.66 78.5733 236.66 78.5733Z" fill="#E0A8A4"/>
<path d="M215.365 81.1552C215.539 82.5623 216.112 83.8906 217.017 84.9834C217.922 86.0761 219.121 86.888 220.472 87.3233L218.856 78.5704C218.856 78.5704 214.68 76.1766 215.365 81.1552Z" fill="#E0A8A4"/>
<path d="M237.867 72.4097C234.949 74.5899 231.403 75.7682 227.758 75.7682C224.113 75.7682 220.567 74.5899 217.649 72.4097C216.872 85.9378 221.177 94.7631 227.758 94.7631C234.339 94.7631 238.645 85.9378 237.867 72.4097Z" fill="#E0A8A4"/>
<path d="M247.189 123.379C249.12 116.239 250.222 108.132 250.222 106.227C250.222 101.789 242.401 97.2617 233.272 95.8384C233.266 96.6863 232.854 99.3106 227.759 99.3106C222.664 99.3106 222.253 96.6863 222.246 95.8384C213.117 97.2617 205.297 101.789 205.297 106.227C205.297 108.132 206.398 116.239 208.33 123.379C210.089 129.882 211.051 140.572 211.051 149.18C211.051 154.565 207.978 165.358 207.391 169.925H248.134C247.547 165.353 244.474 154.561 244.474 149.18C244.471 140.572 245.429 129.888 247.189 123.379Z" fill="#2E4969"/>
<path d="M250.377 280.227H243.365V289.076H250.377V280.227Z" fill="#E0A8A4"/>
<path d="M247.018 291.996H250.634C251.01 291.737 251.302 291.375 251.475 290.953C251.648 290.531 251.695 290.068 251.61 289.621C251.376 288.336 250.314 286.928 250.032 286.063C249.859 285.379 249.466 284.77 248.913 284.33C248.361 283.891 247.679 283.644 246.972 283.629C246.269 283.545 245.559 283.722 244.977 284.125C244.396 284.528 243.982 285.13 243.814 285.817C243.417 286.991 242.439 288.083 242.312 289.373C242.263 289.863 242.334 290.357 242.518 290.814C242.702 291.271 242.995 291.677 243.37 291.996H247.018Z" fill="#030303"/>
<path d="M205.14 289.075H212.152V280.226H205.14V289.075Z" fill="#E0A8A4"/>
<path d="M208.503 291.996H204.885C204.51 291.737 204.218 291.374 204.045 290.953C203.872 290.531 203.825 290.068 203.911 289.621C204.144 288.336 205.205 286.928 205.489 286.063C205.661 285.379 206.054 284.77 206.607 284.33C207.159 283.891 207.841 283.644 208.547 283.629C209.251 283.545 209.961 283.722 210.543 284.125C211.125 284.528 211.539 285.13 211.706 285.817C212.104 286.991 213.081 288.083 213.208 289.373C213.257 289.863 213.186 290.357 213.002 290.814C212.818 291.271 212.526 291.677 212.151 291.996H208.503Z" fill="#030303"/>
<path d="M252.465 280.226C252.465 280.226 252.082 193.601 248.13 169.929H207.388C203.435 193.601 203.053 280.226 203.053 280.226H214.503L226.11 194.78H229.408L241.015 280.226H252.465Z" fill="#002853"/>
<path d="M365.64 190.337C365.513 189.825 365.385 189.313 365.256 188.801C321.939 199.425 282.941 223.086 253.547 256.579L254.575 257.476C283.825 224.257 322.599 200.819 365.64 190.337Z" fill="#415783"/>
<path d="M364.689 189.18C364.524 189.413 364.367 189.644 364.207 189.877C364.459 190.006 364.712 190.134 364.963 190.264C372.525 194.105 387.419 186.243 388.269 186.009C388.978 185.659 389.691 185.311 390.407 184.967C389.624 184.809 388.839 184.656 388.051 184.509C387.43 184.143 369.714 181.748 364.689 189.18Z" fill="#415783"/>
<path d="M265.803 244.682C265.588 244.892 265.373 245.101 265.158 245.312L265.645 245.806C277.945 257.248 301.733 253.575 302.687 254.098C303.265 254.05 303.842 254.007 304.418 253.968C304.016 253.594 303.614 253.222 303.21 252.851C302.526 251.918 279.499 231.507 265.803 244.682Z" fill="#415783"/>
<path d="M286.897 226.666C286.659 226.844 286.421 227.024 286.182 227.204L286.614 227.781C296.261 239.644 317.662 239.071 318.474 239.556C319.063 239.576 319.651 239.599 320.238 239.626C319.872 239.198 319.506 238.77 319.138 238.343C318.593 237.435 300.197 216.794 286.897 226.666Z" fill="#415783"/>
<path d="M308.994 212.141C308.735 212.289 308.478 212.438 308.219 212.587C308.342 212.801 308.466 213.016 308.588 213.23C315.746 224.808 334.398 226.5 335.081 226.939C335.676 227.021 336.27 227.111 336.863 227.201C336.537 226.724 336.21 226.247 335.883 225.772C335.462 224.924 321.355 205.107 308.994 212.141Z" fill="#415783"/>
<path d="M331.594 200.879L330.77 201.233L331.071 201.932C336.011 212.62 351.678 215.782 352.247 216.166C352.844 216.312 353.439 216.461 354.032 216.613C353.749 216.094 353.465 215.575 353.181 215.056C352.875 214.297 342.591 196.205 331.594 200.879Z" fill="#415783"/>
<path d="M351.986 193.336L351.129 193.607C351.211 193.854 351.288 194.101 351.367 194.348C354.532 203.577 367.123 207.315 367.583 207.633C368.179 207.829 368.773 208.029 369.365 208.233C369.122 207.681 368.878 207.13 368.631 206.58C368.412 205.933 361.258 190.445 351.986 193.336Z" fill="#415783"/>
<path d="M265.796 204.101C265.567 203.595 265.337 203.089 265.109 202.583C264.784 203.235 264.462 203.888 264.144 204.541C263.066 205.664 251.896 232.797 264.663 244.808C264.828 244.972 264.988 245.137 265.151 245.302C265.365 245.091 265.58 244.881 265.795 244.672C278.657 232.621 266.275 205.59 265.796 204.101Z" fill="#415783"/>
<path d="M290.611 190.77C290.43 190.229 290.251 189.689 290.073 189.148C289.688 189.759 289.307 190.37 288.929 190.981C287.947 191.872 275.776 214.29 285.742 226.62L286.174 227.196C286.412 227.016 286.651 226.836 286.891 226.658C299.442 217.567 290.91 192.106 290.611 190.77Z" fill="#415783"/>
<path d="M315.317 181.315C315.189 180.746 315.06 180.179 314.933 179.609C314.493 180.176 314.059 180.743 313.63 181.312C312.767 182 300.482 199.988 307.843 211.934L308.213 212.576C308.471 212.426 308.729 212.278 308.988 212.13C320.73 205.614 315.476 182.481 315.317 181.315Z" fill="#415783"/>
<path d="M339.437 175.34C339.36 174.75 339.284 174.16 339.208 173.569C338.724 174.091 338.244 174.612 337.766 175.133C337.034 175.649 325.405 189.565 330.464 200.517L330.766 201.217C331.041 201.098 331.316 200.98 331.591 200.863C342.108 196.514 339.492 176.323 339.437 175.34Z" fill="#415783"/>
<path d="M360.084 173.097C360.052 172.493 360.021 171.89 359.991 171.286C359.472 171.766 358.957 172.247 358.446 172.729C357.859 173.108 347.657 183.449 350.886 192.854L351.124 193.595L351.981 193.324C360.917 190.613 360.077 173.887 360.084 173.097Z" fill="#415783"/>
<path d="M121.254 147.453C121.442 147.157 121.63 146.86 121.819 146.564C146.929 162.324 166.578 185.41 178.104 212.692L177.267 213.044C165.774 185.964 146.22 163.066 121.254 147.453Z" fill="#415783"/>
<path d="M122.095 146.921C122.148 147.102 122.2 147.281 122.252 147.462C122.066 147.49 121.88 147.518 121.694 147.545C116.116 148.387 108.365 140.312 107.877 139.987C107.503 139.618 107.126 139.249 106.746 138.881C107.274 138.946 107.802 139.013 108.329 139.085C108.798 138.988 120.482 141.18 122.095 146.921Z" fill="#415783"/>
<path d="M172.862 202.622C172.953 202.799 173.046 202.976 173.137 203.154L172.725 203.365C162.564 208.014 148.317 200.724 147.608 200.855C147.254 200.705 146.899 200.557 146.543 200.411C146.873 200.259 147.205 200.109 147.54 199.959C148.167 199.511 166.984 191.444 172.862 202.622Z" fill="#415783"/>
<path d="M163.329 186.842C163.442 187.006 163.555 187.171 163.668 187.331L163.274 187.603C154.699 193.074 141.311 188.239 140.696 188.375C140.32 188.266 139.944 188.157 139.568 188.05C139.889 187.856 140.21 187.664 140.531 187.474C141.066 187.016 157.007 177.831 163.329 186.842Z" fill="#415783"/>
<path d="M152.432 173.055L152.827 173.499L152.459 173.828C145.513 179.64 133.388 176.809 132.864 176.942C132.471 176.871 132.077 176.802 131.684 176.736C131.99 176.502 132.296 176.269 132.602 176.038C133.044 175.591 146.105 166.032 152.432 173.055Z" fill="#415783"/>
<path d="M140.529 161.223L140.974 161.619L140.637 161.996C135.277 167.708 124.722 166.43 124.287 166.554C123.879 166.521 123.473 166.49 123.066 166.462C123.353 166.194 123.641 165.926 123.93 165.658C124.283 165.243 134.569 155.974 140.529 161.223Z" fill="#415783"/>
<path d="M129.241 152.2L129.726 152.55C129.624 152.69 129.522 152.829 129.42 152.969C125.487 158.131 116.756 157.859 116.399 157.963C115.982 157.963 115.565 157.965 115.148 157.969C115.418 157.672 115.688 157.376 115.959 157.08C116.234 156.717 123.996 148.437 129.241 152.2Z" fill="#415783"/>
<path d="M181.381 177.011L182.133 176.197C182.201 176.677 182.267 177.156 182.331 177.635C182.776 178.569 184.134 198.028 173.558 202.939L173.145 203.151C173.055 202.973 172.963 202.795 172.871 202.618C167.283 192.32 180.766 177.851 181.381 177.011Z" fill="#415783"/>
<path d="M168.513 163.41C168.741 163.106 168.968 162.803 169.193 162.499C169.308 162.965 169.421 163.431 169.531 163.898C169.964 164.666 172.943 181.359 164.067 187.057L163.674 187.329L163.335 186.84C157.319 178.477 168.045 164.191 168.513 163.41Z" fill="#415783"/>
<path d="M154.903 152.278C155.105 151.949 155.304 151.615 155.505 151.282C155.662 151.731 155.817 152.18 155.97 152.629C156.37 153.243 160.35 167.164 153.198 173.165L152.83 173.494C152.7 173.346 152.568 173.198 152.435 173.051C146.393 166.483 154.56 152.982 154.903 152.278Z" fill="#415783"/>
<path d="M140.937 143.465C141.11 143.108 141.282 142.751 141.453 142.395C141.649 142.825 141.843 143.254 142.03 143.684C142.384 144.164 146.805 155.374 141.314 161.232L140.977 161.61L140.532 161.215C134.81 156.27 140.696 144.074 140.937 143.465Z" fill="#415783"/>
<path d="M128.376 137.733C128.523 137.359 128.669 136.984 128.815 136.609C129.041 137.019 129.265 137.431 129.487 137.844C129.778 138.205 134.048 146.865 130.037 152.125L129.731 152.544L129.247 152.193C124.175 148.614 128.214 138.234 128.376 137.733Z" fill="#415783"/>
<path d="M344.544 142.192C349.739 129.63 339.092 129.606 353.21 121.951C373.935 111.773 377.118 102.218 371.706 93.6042C366.624 85.3362 353.829 83.987 338.281 104.687C328.193 119.092 329.86 107.516 315.754 114.246C303.231 120.569 297.162 144.869 286.804 151.207C259.731 168.774 271.001 201.921 280.899 204.669C290.859 207.532 317.604 199.042 319.43 173.103C320.256 161.498 340.257 152.655 344.544 142.192Z" fill="#5979A9"/>
<path d="M371.775 108.007C372.173 107.391 372.528 106.748 372.839 106.084C368.171 105.25 363.46 104.58 358.705 104.074C363.096 100.736 367.612 97.5438 372.252 94.4974C372.077 94.1937 371.901 93.8982 371.706 93.6043C371.512 93.3104 371.309 93.0281 371.099 92.7507C366.426 95.8294 361.88 99.0573 357.46 102.435C358.267 97.6936 359.217 92.9032 360.309 88.0635C359.524 88.1538 358.747 88.3052 357.985 88.5162C356.815 93.8488 355.819 99.1237 354.997 104.341C341.656 114.803 329.459 126.643 318.61 139.663C318.338 130.968 318.494 122.025 319.077 112.834C318.395 113.064 317.675 113.349 316.9 113.7C316.338 123.138 316.255 132.599 316.652 142.045C305.675 155.568 296.2 170.24 288.395 185.805C285.927 175.328 284.061 164.719 282.806 154.03C282.153 154.558 281.527 155.1 280.93 155.656C282.31 166.74 284.346 177.733 287.027 188.577C284.75 193.267 282.625 198.034 280.651 202.879C280.461 203.347 280.272 203.815 280.085 204.283C276.677 212.804 278.357 213.409 281.754 204.962C281.942 204.498 282.129 204.034 282.319 203.57C284.286 198.769 286.402 194.043 288.669 189.393C298.275 185.188 308.237 181.844 318.436 179.401C318.601 178.729 318.748 178.04 318.876 177.332C309.012 179.61 299.361 182.725 290.028 186.645C297.802 171.219 307.23 156.681 318.147 143.286C327.009 141.935 335.957 141.219 344.922 141.146C345.169 140.44 345.363 139.783 345.523 139.159C337.016 139.173 328.52 139.762 320.093 140.924C330.88 128.03 343.001 116.309 356.255 105.958C361.478 106.442 366.651 107.125 371.775 108.007Z" fill="#37639A"/>
<path d="M97.2793 185.01C97.4013 184.641 97.5231 184.271 97.6446 183.902C141.087 197.975 178.831 225.648 205.282 262.818L204.468 263.395C178.105 226.446 140.519 198.959 97.2793 185.01Z" fill="#5979A9"/>
<path d="M79.2612 179.435C80.0404 175.659 93.3912 176.51 98.6083 184.83C89.6344 188.19 78.5265 183.07 79.2612 179.435Z" fill="#5979A9"/>
<path d="M107.916 188.145C105.456 197.383 93.8745 202.274 91.5623 199.39C89.0927 196.4 97.3237 186.575 107.916 188.145Z" fill="#5979A9"/>
<path d="M124.398 195.256C120.604 205.838 106.55 210.519 104.099 206.975C101.434 203.263 111.931 192.278 124.398 195.256Z" fill="#5979A9"/>
<path d="M196.32 251.904C187.891 260.584 171.15 258.007 170.02 253.244C168.709 248.144 184.408 242.038 196.32 251.904Z" fill="#5979A9"/>
<path d="M142.917 205.354C137.257 217.262 120.241 221.22 117.732 216.886C114.939 212.287 128.369 200.247 142.917 205.354Z" fill="#5979A9"/>
<path d="M180.862 234.967C172.301 245.833 153.422 245.504 151.671 240.424C149.654 234.951 166.464 225.61 180.862 234.967Z" fill="#5979A9"/>
<path d="M162.059 218.555C154.322 231.067 134.774 233.428 132.432 228.378C129.745 222.95 146.109 210.81 162.059 218.555Z" fill="#5979A9"/>
<path d="M101.472 168.914C105.842 167.989 112.726 179.704 107.916 188.146C99.2317 182.452 97.2667 169.925 101.472 168.914Z" fill="#5979A9"/>
<path d="M118.288 171.883C123.647 171.218 130.909 185.843 124.396 195.256C114.62 187.666 113.164 172.682 118.288 171.883Z" fill="#5979A9"/>
<path d="M199.516 224.569C205.544 226.736 207.164 245.849 196.326 251.904C189.219 238.848 193.698 222.711 199.516 224.569Z" fill="#5979A9"/>
<path d="M137.845 176.973C144.394 176.831 151.705 195.128 142.917 205.353C132.133 195.212 131.605 177.344 137.845 176.973Z" fill="#5979A9"/>
<path d="M181.375 203.792C188.447 205.376 192.404 226.693 180.861 234.967C171.574 221.414 174.613 202.552 181.375 203.792Z" fill="#5979A9"/>
<path d="M159.164 185.917C166.714 186.61 173.171 208.326 162.059 218.555C150.989 205.739 151.992 185.558 159.164 185.917Z" fill="#5979A9"/>
<path d="M107.619 76.5459C107.188 80.247 105.462 83.6775 102.746 86.2331C102.746 86.2331 102.746 89.9818 107.495 92.2308C112.244 94.4797 114.761 90.996 114.761 90.996L116.307 82.8375C116.307 82.8375 112.567 76.9896 107.619 76.5459Z" fill="#CD968B"/>
<path d="M117.564 56.9755C117.399 55.9794 116.375 54.3076 113.721 54.3792C112.879 54.3924 112.075 54.7336 111.481 55.3299C110.887 55.9262 110.549 56.7305 110.541 57.5715C110.01 56.8359 109.225 56.3236 108.337 56.134C107.449 55.9444 106.522 56.0912 105.737 56.5458C103.675 57.825 103.773 59.6887 104.299 61.5392C103.513 61.3888 102.7 61.5437 102.026 61.9722C101.351 62.4007 100.866 63.0704 100.67 63.8441C100.356 64.876 100.362 65.9787 100.687 67.0072C101.012 68.0357 101.642 68.9418 102.493 69.6064C102.086 69.6946 101.703 69.8699 101.37 70.1202C101.038 70.3705 100.764 70.6898 100.567 71.0561C100.37 71.4224 100.255 71.827 100.23 72.242C100.205 72.6569 100.27 73.0724 100.421 73.4597C101.531 76.8347 107.067 76.8141 107.067 76.8141L105.486 69.7463H105.468C106.769 68.5115 110.58 64.8278 109.936 64.4845C109.461 64.2318 107.913 63.6424 106.785 63.2234L111.913 60.7679C111.913 60.7679 111.877 60.6337 111.807 60.4254C113.567 60.9868 115.372 61.3958 117.202 61.6479L120.151 63.6885C119.832 65.0575 119.612 66.4476 119.491 67.848C119.624 68.2045 121.186 64.9669 121.186 64.9669C124.853 62.9328 123.729 59.189 122.231 57.5674C121.617 56.9863 120.834 56.6157 119.995 56.5093C119.155 56.4028 118.304 56.5661 117.564 56.9755Z" fill="#263238"/>
<path d="M106.399 60.7461C106.299 60.8449 104.609 66.6994 104.609 66.6994V73.2749C104.609 73.2749 112.163 78.3087 113.323 78.3416C114.482 78.3745 117.693 70.1534 117.693 70.1534L120.873 61.4071L113.946 58.6289C113.946 58.6289 106.502 60.6465 106.399 60.7461Z" fill="#263238"/>
<path d="M119.365 64.3332C116.719 64.4913 113.317 65.0691 111.361 63.8442C111.323 67.624 111.056 71.398 110.562 75.1457L109.137 74.5695C109.137 74.5695 108.548 71.1442 108.478 71.0709C107.865 70.428 105.745 68.482 103.98 70.3004C102.083 72.2538 103.252 75.5531 106.398 76.6867C111.489 84.7349 119.816 84.1776 120.987 82.1765C124.048 76.9427 122.259 68.7315 121.179 64.972C120.662 64.5637 120.024 64.3389 119.365 64.3332Z" fill="#E0A8A4"/>
<path d="M112.126 61.3052C112.126 61.3052 105.649 63.1499 105.633 63.2042C105.617 63.2586 109.94 71.0952 109.94 71.0952L110.564 75.1494C110.982 70.8475 110.899 68.6232 112.907 67.0378C115.345 65.4192 118.267 64.6892 121.181 64.9708C121.579 62.7375 112.126 61.3052 112.126 61.3052Z" fill="#263238"/>
<path d="M166.277 113.194C167.885 112.034 169.702 108.382 168.167 107.926C167.208 107.638 165.328 110.695 163.022 112.215C161.29 113.358 160.218 116.353 160.218 116.353L146.293 121.345L148.767 127.322L162.242 121.349C162.242 121.349 166.954 121.867 170.635 120.348C175.012 118.537 178.386 115.513 176.856 111.814C175.387 108.25 169.392 112.957 166.277 113.194Z" fill="#E0A8A4"/>
<path d="M127.832 117.262C122.753 114.429 109.392 91.846 101.968 97.8206C93.1186 104.942 109.297 122.337 119.81 127.56C129.413 132.335 147.667 130.869 161.105 123.305L158.416 115.413C147.402 120.382 132.91 120.096 127.832 117.262Z" fill="#009444"/>
<path d="M125.008 109.52C123.186 101.181 114.76 90.9983 114.76 90.9983C114.76 90.9983 109.503 91.8799 102.745 86.2354C94.9696 93.0266 89.3261 100.494 92.0538 124.777C93.6444 138.936 97.9735 156.793 97.9735 164.202H127.128C127.128 164.202 126.584 153.204 125.185 141.095C123.065 122.749 127.128 119.221 125.008 109.52Z" fill="#00AB5B"/>
<path d="M112.859 95.4311C112.643 95.4003 112.423 95.4567 112.248 95.5878C112.073 95.719 111.957 95.9141 111.926 96.1304C111.895 96.3466 111.952 96.5662 112.083 96.7409C112.215 96.9156 112.41 97.031 112.627 97.0618C114.456 97.3203 116.266 97.6191 118.016 97.908C118.663 98.015 119.283 98.1171 119.888 98.2151C119.481 97.5639 119.077 96.9391 118.682 96.3497L118.286 96.2839C116.526 95.9933 114.706 95.6937 112.859 95.4311Z" fill="#00AB5B"/>
<path d="M117.163 111.269C116.945 111.262 116.732 111.342 116.573 111.491C116.413 111.641 116.32 111.848 116.313 112.066C116.306 112.284 116.386 112.496 116.536 112.656C116.686 112.815 116.893 112.908 117.112 112.915C117.705 112.934 118.295 112.944 118.88 112.943C121.092 112.95 123.302 112.805 125.494 112.51C125.438 111.982 125.363 111.44 125.267 110.876C122.582 111.234 119.871 111.365 117.163 111.269Z" fill="#00AB5B"/>
<path d="M154.63 70.1082C155.102 68.1844 154.117 64.2274 152.651 64.8686C151.733 65.2703 152.284 68.815 151.515 71.4648C150.937 73.4552 152.066 76.4269 152.066 76.4269L144.695 89.2348L150.46 92.1867L156.851 78.9228C156.851 78.9228 160.779 76.2705 162.596 72.7333C164.758 68.526 165.367 64.0364 161.8 62.2098C158.364 60.4506 156.85 67.9136 154.63 70.1082Z" fill="#E0A8A4"/>
<path d="M127.979 98.0644C122.271 99.1897 97.4405 90.6229 95.6594 99.9758C93.5377 111.123 117.15 113.916 128.549 111.099C138.962 108.525 151.92 95.6064 157.251 81.1546L150.082 76.8799C144.914 87.7878 133.687 96.9399 127.979 98.0644Z" fill="#00AB5B"/>
<path d="M131.476 281.329C131.476 281.329 132.282 284.283 132.282 284.35C132.282 284.416 137.752 282.158 137.752 282.158L137.978 278.693L131.182 277.943L131.476 281.329Z" fill="#E0A8A4"/>
<path d="M127.129 164.202C127.129 164.202 110.162 164.212 101.674 164.202C103.425 187.657 115.635 207.401 123.792 228.96C126.531 244.848 128.027 261.689 129.39 277.745L139.666 278.879C141.293 259.38 141.989 237.601 138.914 218.546C135.84 199.492 131.755 182.571 127.129 164.202Z" fill="#003A61"/>
<path d="M142.873 286.629C140.995 285.346 139.275 283.846 137.751 282.159C137.751 282.159 134.916 284.076 131.475 281.33C129.932 283.657 129.31 286.473 129.729 289.233L135.46 290.185L135.661 288.981C138.608 290.234 141.684 291.16 144.834 291.742C149.521 292.522 150.588 291.36 150.186 290.537C149.784 289.715 146.635 289.091 142.873 286.629Z" fill="#030303"/>
<path d="M103.1 229.739C102.37 239.354 104.388 280.225 104.388 280.225H114.761C114.761 280.225 119.62 233.504 120.492 222.212C121.363 210.921 123.174 170.686 123.174 164.2H97.9723C93.3101 183.606 101.793 205.655 103.1 229.739Z" fill="#00527C"/>
<path d="M106.421 283.919L110.081 288.069L112.748 283.707L112.805 280.227H106.074L106.421 283.919Z" fill="#E0A8A4"/>
<path d="M118.534 287.28C116.47 286.323 114.528 285.124 112.748 283.71C112.748 283.71 110.266 286.066 106.42 283.922C105.282 286.469 105.131 289.348 105.997 292H111.807V290.778C114.92 291.532 118.107 291.942 121.309 292C126.061 292 126.921 290.679 126.39 289.933C125.859 289.187 122.65 289.084 118.534 287.28Z" fill="#030303"/>
<path d="M229.492 128.507C208.899 146.281 182.64 148.264 164.146 148.264C164.146 237.789 214.921 278.688 229.492 278.688C244.063 278.688 294.839 237.786 294.839 148.261C276.345 148.261 250.086 146.281 229.492 128.507Z" fill="#FABC1F"/>
<path d="M229.493 282.886C220.088 282.886 202.771 271.383 187.871 249.399C175.129 230.599 159.938 197.791 159.938 148.261V144.062H164.143C183.182 144.062 207.501 141.934 226.737 125.331L229.488 122.956L232.241 125.331C251.477 141.934 275.796 144.062 294.835 144.062H299.04V148.261C299.04 197.791 283.851 230.599 271.109 249.399C256.215 271.383 238.898 282.886 229.493 282.886ZM168.391 152.422C169.203 197.497 183.113 227.39 194.839 244.69C209.11 265.745 224.449 274.485 229.491 274.485C234.532 274.485 249.873 265.745 264.143 244.69C275.87 227.39 289.78 197.497 290.592 152.422C272.807 152.079 249.022 149.231 229.49 133.946C209.962 149.232 186.177 152.079 168.393 152.422H168.391Z" fill="#FCDB2C"/>
<path d="M222.334 232.299C221.719 232.299 221.113 232.156 220.562 231.882C220.012 231.608 219.533 231.21 219.163 230.72L202.754 208.975C202.44 208.559 202.211 208.086 202.08 207.582C201.949 207.078 201.919 206.553 201.992 206.037C202.064 205.521 202.238 205.025 202.502 204.576C202.767 204.128 203.117 203.735 203.534 203.422C203.95 203.108 204.424 202.88 204.929 202.749C205.434 202.619 205.96 202.589 206.477 202.661C206.993 202.733 207.49 202.907 207.94 203.171C208.389 203.435 208.782 203.785 209.096 204.201L222.13 221.47L249.754 179.899C250.042 179.466 250.413 179.093 250.846 178.802C251.278 178.512 251.764 178.309 252.275 178.206C252.786 178.102 253.313 178.101 253.824 178.201C254.336 178.3 254.823 178.5 255.258 178.788C255.692 179.076 256.066 179.446 256.357 179.878C256.648 180.31 256.851 180.794 256.954 181.305C257.058 181.815 257.059 182.34 256.959 182.851C256.859 183.362 256.659 183.848 256.371 184.282L225.644 230.525C225.293 231.053 224.82 231.49 224.265 231.798C223.71 232.106 223.089 232.277 222.455 232.296L222.334 232.299Z" fill="#FCDB2C"/>
<path d="M309.062 49.7542C312.462 47.93 314.12 55.3617 316.381 57.5135C315.872 55.5996 316.78 51.6245 318.26 52.2377C319.186 52.6213 318.703 56.1767 319.523 58.8108C320.14 60.7865 319.067 63.782 319.067 63.782L326.683 76.4466L320.978 79.5089L314.332 66.3701C314.332 66.3701 310.355 63.7927 308.47 60.2917C306.225 56.1256 305.531 51.6492 309.062 49.7542Z" fill="#E0A8A4"/>
<path d="M365.651 63.255C372.566 67.4532 371.73 77.6359 374.668 85.1466C380.214 99.321 394.329 111.092 389.267 116.584C383.437 122.911 373.941 116.225 361.43 125.293C352.783 131.561 348.549 68.7267 348.549 68.7267C348.841 67.5189 349.352 66.3749 350.058 65.3516C352.558 61.7963 360.315 60.0149 365.651 63.255Z" fill="#263238"/>
<path d="M344.137 92.8849C357.129 99.9412 371.649 111.304 367.272 117.269C362.054 124.38 345.766 112.313 336.297 103.483C323.251 91.3176 314.299 68.7073 314.299 68.7073L320.887 63.9839C320.887 63.9839 334.057 87.4116 344.137 92.8849Z" fill="#009444"/>
<path d="M361.472 82.3076C361.904 86.0088 363.63 89.4391 366.346 91.9948C366.346 91.9948 366.346 95.7436 361.597 97.9925C356.849 100.241 354.331 96.7577 354.331 96.7577L352.785 88.5992C352.785 88.5992 356.525 82.7488 361.472 82.3076Z" fill="#CD968B"/>
<path d="M357.728 69.6043C359.139 71.8622 360.062 74.3892 360.439 77.0236C360.439 77.0236 363.023 73.912 365.11 76.0613C367.007 78.0147 365.837 81.314 362.692 82.4475C357.601 90.4958 349.274 89.9385 348.103 87.9381C344.027 80.9699 348.549 68.7268 348.549 68.7268C348.549 68.7268 354.049 66.2227 357.728 69.6043Z" fill="#E0A8A4"/>
<path d="M308.378 278.233L314.902 279.969L313.659 283.646L309.091 286.939L302.571 287.131L300.025 284.131C300.025 284.131 304.89 283.368 306.41 282.167C307.93 280.967 308.378 278.233 308.378 278.233Z" fill="#E0A8A4"/>
<path d="M300.027 284.129C302.148 285.232 304.519 285.767 306.908 285.682C309.297 285.597 311.624 284.896 313.661 283.646C314.011 285.283 313.945 286.981 313.469 288.585C313.203 289.792 312.735 290.946 312.086 291.998L310.18 291.491C310.18 291.491 310.497 290.174 310.805 288.9C307.968 288.88 304.091 289.872 300.342 288.875C291.705 286.576 292.722 283.714 300.027 284.129Z" fill="#030303"/>
<path d="M341.964 169.962H367.951C365.735 196.183 345.585 210.931 332.88 231.684C325.712 247.623 321.159 263.529 316.877 280.551C313.515 279.614 310.095 278.896 306.771 277.82C308.586 257.417 311.361 238.916 319.377 220.672C327.393 202.429 341.964 169.962 341.964 169.962Z" fill="#00001C"/>
<path d="M375.232 38.5416C375.99 35.5164 373.408 28.3514 377.258 28.0773C381.257 27.7925 383.069 31.9463 383.406 36.6631C383.69 40.6283 381.709 44.9295 381.709 44.9295L383.135 59.5821L376.673 60.0422L376.322 45.2752C376.322 45.2752 373.812 43.3193 373.271 41.3182C372.552 38.6544 370.24 35.909 370.816 35.09C371.743 33.7787 374.64 36.6524 375.232 38.5416Z" fill="#E0A8A4"/>
<path d="M339.751 115.28C341.574 106.941 354.332 96.758 354.332 96.758C354.332 96.758 359.588 97.6397 366.347 91.9951C374.122 98.7864 377.49 106.401 372.981 130.416C370.713 142.499 363.028 160.154 371.118 169.962H341.963C345.681 159.867 345.059 136.533 343.967 133.001C341.663 125.545 338.313 121.861 339.751 115.28Z" fill="#00AB5B"/>
<path d="M374.778 107.96C374.876 108.862 374.943 109.806 374.979 110.807C374.659 111.301 374.335 111.778 374.001 112.229C373.926 112.332 373.828 112.415 373.715 112.473C373.602 112.53 373.476 112.559 373.349 112.559C373.162 112.559 372.98 112.496 372.832 112.38C372.713 112.287 372.623 112.163 372.571 112.021C372.524 111.892 372.51 111.753 372.53 111.617C372.551 111.48 372.604 111.351 372.686 111.241C373.448 110.19 374.147 109.094 374.778 107.96Z" fill="#014F29"/>
<path d="M365.313 92.8084C365.654 92.5508 365.996 92.2865 366.346 91.9951L366.352 92.0009C366.627 92.2391 366.894 92.4783 367.151 92.7187C366.025 95.2705 365.048 97.7574 364.277 100.088C364.21 100.293 364.064 100.463 363.872 100.561C363.679 100.659 363.456 100.677 363.25 100.611C363.107 100.567 362.978 100.484 362.878 100.372C362.783 100.265 362.718 100.135 362.689 99.9955C362.66 99.8556 362.668 99.7105 362.713 99.575C363.421 97.4256 364.305 95.1438 365.313 92.8084Z" fill="#014F29"/>
<path d="M375.172 46.4438L383.268 46.9287C383.268 46.9287 387.782 70.8199 383.25 88.0581C379.962 100.57 372.636 119.452 364.423 116.217C357.532 113.501 363.739 96.1598 370.956 83.2704C376.553 73.2713 375.172 46.4438 375.172 46.4438Z" fill="#00AB5B"/>
<path d="M360.443 72.2425L360.438 77.0235C359.672 75.0709 358.791 73.1652 357.8 71.3164C356.342 68.8181 348.549 68.7267 348.549 68.7267L354.083 63.6436L360.443 72.2425Z" fill="#263238"/>
<path d="M421.457 248.189L424.387 242.117L427.773 244.025L430.155 249.121L429.122 255.551L425.693 257.485C425.693 257.485 425.854 252.571 424.958 250.856C424.063 249.142 421.457 248.189 421.457 248.189Z" fill="#E0A8A4"/>
<path d="M425.699 257.485C427.181 255.612 428.152 253.388 428.517 251.029C428.881 248.67 428.627 246.257 427.778 244.025C429.454 243.989 431.111 244.372 432.6 245.139C433.738 245.626 434.786 246.301 435.699 247.135C435.287 247.992 434.843 248.908 434.843 248.908L432.411 247.81C431.86 250.589 432.109 254.577 430.425 258.066C426.541 266.107 423.917 264.571 425.699 257.485Z" fill="#030303"/>
<path d="M387.676 219.524C399.682 227.532 425.374 240.342 425.374 240.342C423.815 243.504 422.258 246.479 420.794 249.808C420.794 249.808 383.13 238.509 370.318 225.339C356.121 210.745 349.916 189.608 345.617 169.965H371.119C382.511 182.544 383.306 216.632 387.676 219.524Z" fill="#14142E"/>
<path d="M460 290.954H0V292H460V290.954Z" fill="#263238"/>
</svg>
