<svg width="16" height="11" viewBox="0 0 16 11" fill="none" xmlns="http://www.w3.org/2000/svg">
<path d="M6.51852 5.33333L11.2593 0.592593C11.5865 0.265313 12.1172 0.265313 12.4444 0.592593C12.7717 0.919872 12.7717 1.4505 12.4444 1.77778L7.7037 6.51852L6.51852 5.33333Z" fill="#C4D3DD"/>
<path d="M5.33333 8.8889L1.77778 5.33335C1.4505 5.00607 0.919873 5.00607 0.592593 5.33335C0.265313 5.66063 0.265313 6.19125 0.592593 6.51853L4.14815 10.0741L5.33333 8.8889Z" fill="#C4D3DD"/>
<path d="M7.7037 7.70371L5.33333 5.33334C5.00605 5.00606 4.47543 5.00607 4.14815 5.33334C3.82087 5.66062 3.82087 6.19125 4.14815 6.51853L7.7037 10.0741L15.4074 2.37037C15.7347 2.04309 15.7347 1.51247 15.4074 1.18519C15.0801 0.857908 14.5495 0.857907 14.2222 1.18519L7.7037 7.70371Z" fill="#C4D3DD"/>
</svg>
