<svg width="26" height="16" viewBox="0 0 26 16" fill="none" xmlns="http://www.w3.org/2000/svg">
<path d="M26 0H0V16H26V0Z" fill="#CC092F"/>
<path d="M18 0H0V16H18V0Z" fill="#FFD200"/>
<path d="M8 0H0V16H8V0Z" fill="#0046AE"/>
<path d="M12.0684 3.25759C12.0111 3.25759 11.961 3.2722 11.9319 3.29492C11.9782 3.30843 12.012 3.3512 12.012 3.40322V3.53518H11.88C11.8283 3.53518 11.7855 3.50194 11.7717 3.456C11.749 3.48519 11.7344 3.53524 11.7344 3.59252C11.7344 3.64981 11.749 3.69987 11.7717 3.72903C11.7852 3.68263 11.828 3.64892 11.88 3.64892H12.012V4.28325C12.012 4.33311 11.9808 4.37448 11.9373 4.38972C12.0003 4.39828 12.0544 4.48276 12.0693 4.52897C12.0842 4.48287 12.1383 4.39828 12.2013 4.38972C12.1574 4.37475 12.1257 4.33343 12.1257 4.28325V3.64889H12.2577C12.3094 3.64889 12.3522 3.68213 12.366 3.72811C12.3887 3.69891 12.4033 3.64883 12.4033 3.59157C12.4033 3.53428 12.3887 3.48423 12.366 3.45506C12.3525 3.50144 12.3097 3.53513 12.2577 3.53513H12.1257V3.40318C12.1257 3.35149 12.1589 3.3087 12.2049 3.29487C12.1757 3.27218 12.1257 3.25757 12.0684 3.25757V3.25759Z" fill="black"/>
<path d="M12.0704 3.28493C12.0405 3.28493 12.0143 3.29051 11.9921 3.29766C12.0217 3.32338 12.0413 3.36066 12.0413 3.40324V3.53521C12.0413 3.53709 12.0407 3.53889 12.0403 3.54068V3.56161H12.0194C12.0176 3.56198 12.0158 3.56252 12.0139 3.56253H11.882C11.8399 3.56253 11.803 3.54328 11.7773 3.5143C11.7699 3.53668 11.7637 3.56225 11.7637 3.59258C11.7637 3.62241 11.7693 3.64869 11.7764 3.67084C11.8021 3.64125 11.8394 3.62172 11.882 3.62172H12.0412C12.0411 3.62445 12.0403 3.6271 12.0403 3.62988V3.64353C12.0407 3.64531 12.0412 3.6471 12.0412 3.64899V4.28332C12.0412 4.32452 12.02 4.35691 11.9921 4.38253C12.012 4.39485 12.0292 4.41035 12.044 4.42806C12.0571 4.44379 12.0623 4.45918 12.0713 4.47536C12.0803 4.45922 12.0855 4.44379 12.0986 4.42806C12.1131 4.41067 12.13 4.3957 12.1495 4.38345C12.1214 4.3579 12.1004 4.32469 12.1004 4.28334V3.62257H12.1222C12.124 3.62221 12.1258 3.62168 12.1277 3.62168H12.2597C12.3017 3.62168 12.3386 3.64093 12.3643 3.66989C12.3717 3.64753 12.378 3.62198 12.378 3.59164C12.378 3.56182 12.3724 3.53553 12.3652 3.51338C12.3395 3.54296 12.3022 3.5625 12.2597 3.5625H12.1277C12.1258 3.5625 12.124 3.56195 12.1222 3.56157H12.1013V3.54065C12.1009 3.53889 12.1004 3.53708 12.1004 3.53517V3.40322C12.1004 3.36114 12.1196 3.32433 12.1486 3.29857C12.1262 3.29121 12.1007 3.28491 12.0703 3.28491" fill="#F5D402"/>
<path d="M13.72 5.58195C13.6394 5.52468 13.5732 5.45995 13.5261 5.38443C13.4129 5.20269 13.3651 4.97958 13.3651 4.75284C13.3651 4.657 13.4724 4.54911 13.4724 4.4716C13.4724 4.35444 13.4615 4.28415 13.4615 4.28415C13.4996 4.28934 13.5662 4.35695 13.5662 4.35695C13.5662 4.35695 13.5639 4.1625 13.5024 4.12852C13.5024 4.12852 13.5273 4.10296 13.6171 4.10031C13.5919 4.03638 13.467 3.95834 13.467 3.95834C13.4732 3.94715 13.4848 3.93748 13.4997 3.92922C13.5311 3.91187 13.5752 3.90042 13.6089 3.89371C13.573 3.88627 13.5315 3.87485 13.4861 3.86003C13.3822 3.82619 13.26 3.77652 13.1457 3.72171C12.9371 3.62166 12.7783 3.61523 12.6907 3.61523C12.6271 3.61524 12.5335 3.61699 12.4787 3.65348C12.4284 3.68682 12.4325 3.73018 12.4149 3.74539C12.3735 3.78123 12.3026 3.77997 12.2684 3.77997C12.0473 3.77997 12.0391 4.01661 12.0391 4.01661C12.0391 4.01661 12.0956 3.93105 12.1956 3.93105C12.3618 3.93105 12.4877 4.02161 12.4877 4.05572C12.4877 4.06954 12.4706 4.0721 12.4695 4.0721C12.361 4.0721 12.1971 4.00959 12.11 4.00657V4.04934C12.3044 4.11695 12.5014 4.21267 12.5014 4.63453C12.5014 4.90019 12.4696 5.17124 12.3367 5.38445C12.2896 5.45995 12.2226 5.52456 12.1419 5.58196L12.9309 5.72418L13.72 5.58195Z" fill="black"/>
<path d="M12.9325 5.21014L12.1435 5.38793C12.1076 5.37708 11.9388 5.32464 11.8204 5.2587C11.6119 5.14258 11.5038 5.02704 11.2561 5.0157V4.82729C11.2561 4.72663 11.2926 4.63595 11.2926 4.5397C11.1881 4.5117 10.8983 4.1573 10.6309 4C10.2375 4.25483 9.93286 4.67316 9.93286 4.86553C9.93286 4.86553 9.94468 8.99904 9.93286 10.439C9.93286 10.522 9.88281 10.6393 9.88281 10.6393C10.0264 10.5785 10.2897 10.2183 10.3451 10.0814V10.1469C10.562 10.048 10.7209 9.78809 10.792 9.65364C10.7933 9.67307 10.7966 9.72187 10.7966 9.72187C10.9904 9.552 11.237 8.54786 11.237 8.54786L11.6481 8.95187C11.6481 8.95187 11.4995 9.25365 11.4415 9.3077C11.4415 9.3077 11.4804 9.31262 11.5243 9.31225C11.4973 9.35115 11.2906 9.64869 11.2258 9.76092C11.1652 9.86592 11.1224 9.81918 11.0292 9.81918C10.952 9.81918 10.7768 9.94229 10.748 9.99211C10.7178 10.0445 10.6953 10.1081 10.6953 10.1605C10.6953 10.2181 10.7563 10.297 10.7563 10.297C10.7628 10.2694 10.7744 10.2597 10.7744 10.2597C10.7744 10.2597 10.9347 10.4593 10.9583 10.4854C10.9767 10.5057 11.0586 10.5189 11.0875 10.4927C11.1598 10.427 11.2298 10.381 11.2941 10.2861C11.3272 10.2372 11.3298 10.1811 11.3678 10.1286C11.4951 9.95296 11.7485 9.61662 11.8065 9.53979C11.8104 9.56117 11.8137 9.57899 11.8174 9.60076C11.883 9.4682 12.1987 9.21488 12.1987 9.21488L12.529 9.36688C12.529 9.36688 11.9123 10.7844 11.365 11.0023C11.365 11.0023 11.6031 11.1035 11.8956 11.2554C11.9382 11.2775 11.9822 11.3013 12.0266 11.3255C12.0634 11.2811 12.1022 11.2319 12.1404 11.1807C12.3152 10.9468 12.4862 10.6756 12.4862 10.6756C12.4982 10.746 12.4058 10.9635 12.2496 11.2317C12.2189 11.2844 12.1869 11.3395 12.1513 11.3955C12.191 11.4182 12.2303 11.441 12.2696 11.4647C12.5593 11.639 12.8992 11.8159 13 12V11.5L12.9322 5.44617L12.9677 5.35728L12.9325 5.21014Z" fill="black"/>
<path d="M13.0214 11.5077C13 11.4999 12.6162 11.4212 12.3761 11.2962C12.6665 10.775 12.8103 9.95124 12.7428 9.78724C12.7428 9.78724 12.6236 10.2145 12.478 10.458C12.3431 10.6835 12.1771 10.9371 12.0166 11.1251C11.8845 11.0688 11.7565 11.0215 11.6471 10.9886C12.1281 10.618 12.62 9.39316 12.62 9.39316L12.1113 9.15743C12.1113 9.15743 11.921 9.37928 11.8592 9.42047C11.8592 9.42047 11.8328 9.31014 11.8174 9.27121C11.8174 9.27121 11.7445 9.32635 11.7046 9.32767C11.7046 9.32767 11.6926 9.25279 11.6836 9.20387C11.6334 9.23734 11.5498 9.23027 11.5498 9.23027C11.6232 9.19553 11.71 8.98271 11.71 8.98271L11.2243 8.33662C11.2243 8.33662 11.0537 9.15645 10.8594 9.32499V5.79469L11.0132 5.93755L11.2462 5.72004V5.55441L11.0396 5.74733V5.24769C11.0707 5.2006 11.0913 5.16545 11.1069 5.13757C11.1403 5.19587 11.2484 5.37453 11.3754 5.48433C11.3962 5.39939 11.5337 5.31867 11.5337 5.31867C11.5337 5.31867 11.583 5.45215 11.6584 5.48522C11.6849 5.4385 11.8432 5.33507 11.8432 5.33507C11.8432 5.33507 11.7078 5.35563 11.6529 5.40698C11.6058 5.39643 11.5938 5.21039 11.5938 5.21039C11.5938 5.21039 11.3945 5.30744 11.3599 5.37693C11.3219 5.36666 11.2628 5.21715 11.2397 5.15578C11.2745 5.15199 11.3236 5.1476 11.3881 5.1476C11.4449 5.1476 11.5176 5.17452 11.5938 5.21039C11.6775 5.24979 11.765 5.29965 11.8432 5.33507C11.9433 5.3804 12.0947 5.38963 12.1389 5.39151C12.0883 5.42707 12.0327 5.45953 11.9724 5.4898C11.9724 5.4898 12.2108 5.4876 12.3783 5.40424C12.438 5.3658 12.5 5.32751 12.553 5.28228C12.53 5.34616 12.4942 5.42164 12.4383 5.48614C12.6843 5.46532 12.8068 5.32486 12.8415 5.27773C12.8578 5.31995 12.8869 5.38772 12.9325 5.44609H13.0214V11.4905V11.5077Z" fill="#B07F55"/>
<path d="M11.1183 4.5578L11.1229 4.67065V5.00287C11.0337 4.97216 10.9215 4.82557 10.8672 4.74804V4.70253C10.8672 4.65972 10.8924 4.62845 10.9108 4.61152L10.8572 4.59243C10.8367 4.61577 10.8144 4.65044 10.8144 4.69526V4.72166L10.6542 4.89367L10.4968 4.65522V4.59698C10.4968 4.55773 10.527 4.51396 10.5523 4.48413L10.4995 4.46502C10.4729 4.49954 10.4449 4.54607 10.4449 4.58969V4.637C10.4079 4.67533 10.2638 4.82359 10.2638 4.82359C10.2638 4.82359 10.1915 4.66827 10.1719 4.6261C10.2822 4.4733 10.461 4.30221 10.6296 4.17944C10.6296 4.17944 10.9952 4.5151 11.1183 4.5578Z" fill="#B07F55"/>
<path d="M10.1938 4.88001V5.15398L10.0664 5.27228V4.86547C10.0664 4.82652 10.0827 4.77958 10.1101 4.72803L10.1938 4.88001Z" fill="#B07F55"/>
<path d="M10.5899 4.98565V5.15493L10.4434 5.29237V4.7627L10.5899 4.98565Z" fill="#B07F55"/>
<path d="M10.3907 5.29145L10.2441 5.15493V4.95655L10.3907 4.80273V5.29145Z" fill="#B07F55"/>
<path d="M11.0611 5.08568C11.0271 5.13377 10.938 5.25139 10.8418 5.30321V4.83813C10.8639 4.87484 10.9651 5.03857 11.0611 5.08568Z" fill="#B07F55"/>
<path d="M10.7891 4.86182V5.29138L10.6426 5.15487V5.00288L10.7891 4.86182Z" fill="#B07F55"/>
<path d="M10.1919 5.31958V5.74826L10.0645 5.62902V5.4388L10.1919 5.31958Z" fill="#B07F55"/>
<path d="M10.3907 5.45708V5.61088L10.2441 5.74737V5.32056L10.3907 5.45708Z" fill="#B07F55"/>
<path d="M10.5899 5.32056V5.7474L10.4434 5.60996V5.45798L10.5899 5.32056Z" fill="#B07F55"/>
<path d="M10.7891 5.45799V5.60997L10.6426 5.74739V5.32056L10.7891 5.45799Z" fill="#B07F55"/>
<path d="M10.9884 5.7483L10.8418 5.61086V5.468C10.8923 5.43715 10.9432 5.38046 10.9883 5.32056L10.9884 5.7483Z" fill="#B07F55"/>
<path d="M10.6156 5.93759L10.7704 5.79379V9.32499C10.7704 9.32499 10.7812 9.50021 10.7886 9.61439C10.7198 9.68394 10.4609 9.94566 10.4609 9.94566V5.79285L10.6156 5.93759Z" fill="#B07F55"/>
<path d="M10.3721 9.81368C10.3721 9.92719 10.1648 10.1919 10.0645 10.2523V5.79477L10.2173 5.93764L10.3721 5.79382V9.81368Z" fill="#B07F55"/>
<path d="M11.6594 9.43067L11.7723 9.3533C11.7723 9.3533 11.7798 9.39063 11.7896 9.4416C11.7412 9.50767 11.4637 9.88647 11.3263 10.0714C11.2921 10.1173 11.2635 10.2343 11.2635 10.2343C11.2635 10.2343 11.2134 10.2106 11.2134 10.1679C11.2134 10.1259 11.2189 10.0759 11.2189 10.0759C11.2189 10.0759 11.1816 10.1187 11.117 10.1187C11.117 10.0671 11.2168 10.0111 11.2207 9.93762C11.1446 9.99405 11.0785 9.96509 10.9905 9.99224C10.8946 10.0218 10.8679 10.062 10.8385 10.0605C10.8212 10.0596 10.8055 10.0297 10.8121 10.0113C10.8235 9.97958 10.9421 9.89165 11.025 9.87576C11.0449 9.87195 11.2011 9.90975 11.2326 9.86119C11.3622 9.66116 11.5727 9.33643 11.593 9.30514C11.6063 9.30194 11.6186 9.29855 11.6284 9.29236C11.6284 9.29236 11.6272 9.3946 11.6594 9.43067Z" fill="#D10429"/>
<path d="M10.9354 10.054C10.9417 10.0612 10.9411 10.0719 10.9345 10.0776L10.8835 10.1222C10.8769 10.1279 10.8662 10.1267 10.8599 10.1195C10.8536 10.1122 10.8541 10.1016 10.8608 10.0958L10.9118 10.0512C10.9151 10.0483 10.9194 10.0471 10.9236 10.0476C10.9278 10.0481 10.9323 10.0503 10.9354 10.054Z" fill="#D10429"/>
<path d="M11.0122 10.1076C11.0274 10.1252 11.0264 10.1501 11.0103 10.1641L10.8866 10.2723C10.8705 10.2864 10.8445 10.2835 10.8292 10.266C10.814 10.2484 10.8149 10.2226 10.8311 10.2087L10.9548 10.1013C10.9608 10.096 10.9691 10.0928 10.9767 10.0922C10.9893 10.0911 11.0026 10.0967 11.0122 10.1076Z" fill="#D10429"/>
<path d="M11.0825 10.1914C11.0977 10.2089 11.0967 10.2338 11.0806 10.2478L10.956 10.3561C10.9399 10.3701 10.9148 10.3673 10.8995 10.3497C10.8843 10.3322 10.8853 10.3064 10.9014 10.2924L11.0251 10.185C11.0312 10.1798 11.0385 10.1766 11.0461 10.1759C11.0587 10.1749 11.0729 10.1804 11.0825 10.1914Z" fill="#D10429"/>
<path d="M11.1246 10.258C11.1373 10.2569 11.1506 10.2615 11.1601 10.2725C11.1754 10.2901 11.1744 10.3159 11.1583 10.3298L11.0345 10.4373C11.0184 10.4513 10.9934 10.4484 10.9781 10.4309C10.9628 10.4133 10.9629 10.3884 10.979 10.3744L11.1037 10.2661C11.1097 10.2609 11.117 10.2586 11.1246 10.258Z" fill="#D10429"/>
<path d="M13.0714 5.21014L13.8604 5.38793C13.8963 5.37708 14.0651 5.32464 14.1835 5.2587C14.392 5.14258 14.5001 5.02704 14.7478 5.0157V4.82729C14.7478 4.72663 14.7114 4.63595 14.7114 4.5397C14.8158 4.5117 15.1056 4.1573 15.373 4C15.7664 4.25483 16.071 4.67316 16.071 4.86553C16.071 4.86553 16.0592 8.99904 16.071 10.439C16.071 10.522 16.1211 10.6393 16.1211 10.6393C15.9775 10.5785 15.7142 10.2183 15.6588 10.0814V10.1469C15.4419 10.048 15.283 9.78809 15.2119 9.65364C15.2106 9.67307 15.2073 9.72187 15.2073 9.72187C15.0136 9.552 14.7669 8.54786 14.7669 8.54786L14.3558 8.95187C14.3558 8.95187 14.5045 9.25365 14.5624 9.3077C14.5624 9.3077 14.5235 9.31262 14.4796 9.31225C14.5066 9.35115 14.7133 9.64869 14.7781 9.76092C14.8387 9.86592 14.8815 9.81918 14.9747 9.81918C15.0519 9.81918 15.2271 9.94229 15.2559 9.99211C15.2861 10.0445 15.3086 10.1081 15.3086 10.1605C15.3086 10.2181 15.2477 10.297 15.2477 10.297C15.2411 10.2694 15.2295 10.2597 15.2295 10.2597C15.2295 10.2597 15.0692 10.4593 15.0456 10.4854C15.0272 10.5057 14.9453 10.5189 14.9164 10.4927C14.8441 10.427 14.7741 10.381 14.7098 10.2861C14.6767 10.2372 14.6741 10.1811 14.6361 10.1286C14.5088 9.95296 14.2554 9.61662 14.1974 9.53979C14.1935 9.56117 14.1902 9.57899 14.1865 9.60076C14.1209 9.4682 13.8052 9.21488 13.8052 9.21488L13.4749 9.36688C13.4749 9.36688 14.0916 10.7844 14.6389 11.0023C14.6389 11.0023 14.4008 11.1035 14.1083 11.2554C14.0657 11.2775 14.0218 11.3013 13.9773 11.3255C13.9405 11.2811 13.9017 11.2319 13.8635 11.1807C13.6887 10.9468 13.5177 10.6756 13.5177 10.6756C13.5058 10.746 13.5981 10.9635 13.7543 11.2317C13.785 11.2844 13.817 11.3395 13.8526 11.3955C13.813 11.4182 13.7736 11.441 13.7343 11.4647C13.4446 11.639 13.1014 11.8159 13.0006 12V11.8456V11.6523L13.0717 5.44617L13.0362 5.35728L13.0714 5.21014Z" fill="black"/>
<path d="M13 11.4999C13 11.4999 13.4072 11.4212 13.6474 11.2962C13.357 10.775 13.2131 9.95124 13.2806 9.78724C13.2806 9.78724 13.3998 10.2145 13.5455 10.458C13.6803 10.6835 13.8463 10.9371 14.0068 11.1251C14.1389 11.0688 14.2669 11.0215 14.3764 10.9886C13.8953 10.618 13.4035 9.39316 13.4035 9.39316L13.9121 9.15743C13.9121 9.15743 14.1024 9.37928 14.1642 9.42047C14.1642 9.42047 14.1906 9.31014 14.2061 9.27121C14.2061 9.27121 14.279 9.32635 14.3189 9.32767C14.3189 9.32767 14.3308 9.25279 14.3398 9.20387C14.39 9.23734 14.4736 9.23027 14.4736 9.23027C14.4002 9.19553 14.3134 8.98271 14.3134 8.98271L14.7991 8.33662C14.7991 8.33662 14.9697 9.15645 15.1641 9.32499V5.79469L15.0103 5.93755L14.7773 5.72004V5.55441L14.9839 5.74733V5.24769C14.9527 5.2006 14.9321 5.16545 14.9165 5.13757C14.8831 5.19587 14.775 5.37453 14.6481 5.48433C14.6272 5.39939 14.4897 5.31867 14.4897 5.31867C14.4897 5.31867 14.4405 5.45215 14.3651 5.48522C14.3385 5.4385 14.1803 5.33507 14.1803 5.33507C14.1803 5.33507 14.3157 5.35563 14.3705 5.40698C14.4176 5.39643 14.4297 5.21039 14.4297 5.21039C14.4297 5.21039 14.6289 5.30744 14.6635 5.37693C14.7015 5.36666 14.7607 5.21715 14.7837 5.15578C14.7489 5.15199 14.6999 5.1476 14.6353 5.1476C14.5785 5.1476 14.5058 5.17452 14.4297 5.21039C14.346 5.24979 14.2585 5.29965 14.1803 5.33507C14.0802 5.3804 13.9287 5.38963 13.8845 5.39151C13.9351 5.42707 13.9907 5.45953 14.0511 5.4898C14.0511 5.4898 13.8127 5.4876 13.6452 5.40424C13.5854 5.3658 13.5234 5.32751 13.4704 5.28228C13.4934 5.34616 13.5292 5.42164 13.5851 5.48614C13.3392 5.46532 13.2167 5.32486 13.182 5.27773C13.1656 5.31995 13.1366 5.38772 13.091 5.44609H13.0021V11.4905L13 11.4999Z" fill="#B07F55"/>
<path d="M14.9051 4.5578L14.9006 4.67065V5.00287C14.9898 4.97216 15.1019 4.82557 15.1563 4.74804V4.70253C15.1563 4.65972 15.1311 4.62845 15.1126 4.61152L15.1663 4.59243C15.1868 4.61577 15.2091 4.65044 15.2091 4.69526V4.72166L15.3692 4.89367L15.5267 4.65522V4.59698C15.5267 4.55773 15.4965 4.51396 15.4711 4.48413L15.5239 4.46502C15.5506 4.49954 15.5785 4.54607 15.5785 4.58969V4.637C15.6156 4.67533 15.7597 4.82359 15.7597 4.82359C15.7597 4.82359 15.8319 4.66827 15.8516 4.6261C15.7413 4.4733 15.5624 4.30221 15.3938 4.17944C15.3938 4.17944 15.0282 4.5151 14.9051 4.5578Z" fill="#B07F55"/>
<path d="M15.8296 4.88001V5.15398L15.957 5.27228V4.86547C15.957 4.82652 15.9407 4.77958 15.9134 4.72803L15.8296 4.88001Z" fill="#B07F55"/>
<path d="M15.4336 4.98565V5.15493L15.5801 5.29237V4.7627L15.4336 4.98565Z" fill="#B07F55"/>
<path d="M15.6328 5.29145L15.7793 5.15493V4.95655L15.6328 4.80273V5.29145Z" fill="#B07F55"/>
<path d="M14.9623 5.08568C14.9963 5.13377 15.0855 5.25139 15.1816 5.30321V4.83813C15.1596 4.87484 15.0584 5.03857 14.9623 5.08568Z" fill="#B07F55"/>
<path d="M15.2343 4.86182V5.29138L15.3809 5.15487V5.00288L15.2343 4.86182Z" fill="#B07F55"/>
<path d="M15.8316 5.31958V5.74826L15.959 5.62902V5.4388L15.8316 5.31958Z" fill="#B07F55"/>
<path d="M15.6327 5.45708V5.61088L15.7793 5.74737V5.32056L15.6327 5.45708Z" fill="#B07F55"/>
<path d="M15.4336 5.32056V5.7474L15.5801 5.60996V5.45798L15.4336 5.32056Z" fill="#B07F55"/>
<path d="M15.2343 5.45799V5.60997L15.3809 5.74739V5.32056L15.2343 5.45799Z" fill="#B07F55"/>
<path d="M15.0351 5.7483L15.1816 5.61086V5.468C15.1311 5.43715 15.0803 5.38046 15.0351 5.32056L15.0351 5.7483Z" fill="#B07F55"/>
<path d="M15.4078 5.93759L15.2531 5.79379V9.32499C15.2531 9.32499 15.2423 9.50021 15.2349 9.61439C15.3037 9.68394 15.5625 9.94566 15.5625 9.94566V5.79285L15.4078 5.93759Z" fill="#B07F55"/>
<path d="M15.6514 9.81368C15.6514 9.92719 15.8586 10.1919 15.959 10.2523V5.79477L15.8061 5.93764L15.6514 5.79382V9.81368Z" fill="#B07F55"/>
<path d="M14.366 9.43067L14.2531 9.3533C14.2531 9.3533 14.2456 9.39063 14.2358 9.4416C14.2842 9.50767 14.5617 9.88647 14.6991 10.0714C14.7332 10.1173 14.7619 10.2343 14.7619 10.2343C14.7619 10.2343 14.8119 10.2106 14.8119 10.1679C14.8119 10.1259 14.8065 10.0759 14.8065 10.0759C14.8065 10.0759 14.8438 10.1187 14.9084 10.1187C14.9084 10.0671 14.8086 10.0111 14.8047 9.93762C14.8808 9.99405 14.9469 9.96509 15.0349 9.99224C15.1308 10.0218 15.1575 10.062 15.1869 10.0605C15.2042 10.0596 15.2199 10.0297 15.2133 10.0113C15.2018 9.97958 15.0833 9.89165 15.0004 9.87576C14.9805 9.87195 14.8243 9.90975 14.7928 9.86119C14.6632 9.66116 14.4527 9.33643 14.4324 9.30514C14.4191 9.30194 14.4068 9.29855 14.397 9.29236C14.397 9.29236 14.3982 9.3946 14.366 9.43067Z" fill="#D10429"/>
<path d="M15.09 10.054C15.0837 10.0612 15.0842 10.0719 15.0909 10.0776L15.1419 10.1222C15.1485 10.1279 15.1592 10.1267 15.1655 10.1195C15.1718 10.1122 15.1713 10.1016 15.1646 10.0958L15.1136 10.0512C15.1103 10.0483 15.106 10.0471 15.1018 10.0476C15.0976 10.0481 15.0931 10.0503 15.09 10.054Z" fill="#D10429"/>
<path d="M15.0132 10.1076C14.998 10.1252 14.999 10.1501 15.0151 10.1641L15.1388 10.2723C15.1549 10.2864 15.1809 10.2835 15.1962 10.266C15.2114 10.2484 15.2104 10.2226 15.1943 10.2087L15.0706 10.1013C15.0646 10.096 15.0563 10.0928 15.0487 10.0922C15.0361 10.0911 15.0228 10.0967 15.0132 10.1076Z" fill="#D10429"/>
<path d="M14.9429 10.1914C14.9277 10.2089 14.9286 10.2338 14.9448 10.2478L15.0694 10.3561C15.0855 10.3701 15.1106 10.3673 15.1259 10.3497C15.1411 10.3322 15.1401 10.3064 15.124 10.2924L15.0003 10.185C14.9942 10.1798 14.9869 10.1766 14.9793 10.1759C14.9667 10.1749 14.9525 10.1804 14.9429 10.1914Z" fill="#D10429"/>
<path d="M14.9008 10.258C14.8881 10.2569 14.8748 10.2615 14.8652 10.2725C14.85 10.2901 14.851 10.3159 14.8671 10.3298L14.9909 10.4373C15.007 10.4513 15.032 10.4484 15.0473 10.4309C15.0625 10.4133 15.0625 10.3884 15.0464 10.3744L14.9217 10.2661C14.9157 10.2609 14.9084 10.2586 14.9008 10.258Z" fill="#D10429"/>
<path d="M12.7495 3.67349C12.9532 3.67349 13.0965 3.76636 13.2893 3.85185C13.3398 3.87425 13.3862 3.8924 13.4276 3.90645C13.4016 3.92943 13.3815 3.95253 13.3757 3.97199C13.3757 3.97199 13.4621 3.98799 13.5013 4.0603C13.5013 4.0603 13.4191 4.06961 13.4057 4.11761C13.4517 4.12108 13.4974 4.17907 13.4977 4.23504L13.3812 4.19861C13.3812 4.19861 13.4094 4.32942 13.4094 4.47164C13.4094 4.54428 13.3047 4.62976 13.3047 4.75287C13.3047 5.13926 13.4021 5.28777 13.4713 5.40722C13.4984 5.45396 13.5204 5.50774 13.5659 5.54829C13.3665 5.4421 13.2183 5.30937 13.2183 5.18608V4.7192H13.1664V5.18608C13.1664 5.27549 13.1882 5.31714 13.1882 5.31714C13.2195 5.41606 13.2828 5.56874 13.322 5.63021C13.1385 5.53105 13.0453 5.40687 13.0453 5.36082V4.71918H12.9934V5.36991L13.0034 5.41449C12.9812 5.44792 12.9523 5.48749 12.9325 5.50095C12.9127 5.48751 12.8846 5.44786 12.8624 5.41449L12.8724 5.36991V4.71918H12.8205V5.36082C12.8205 5.40685 12.7273 5.53105 12.5438 5.63021C12.583 5.56872 12.6463 5.41606 12.6776 5.31714C12.6776 5.31714 12.6994 5.27551 12.6994 5.18608V4.7192H12.6476V5.18608C12.6476 5.30923 12.4999 5.44217 12.3008 5.54829C12.3459 5.5077 12.3676 5.45369 12.3945 5.40722C12.4702 5.27659 12.5638 5.11063 12.5638 4.63819C12.5638 4.46087 12.5376 4.34032 12.4919 4.25594C12.478 4.2281 12.4593 4.154 12.5656 4.154C12.6207 4.154 12.7467 4.25139 12.7467 4.25139C12.7467 4.25139 12.7415 4.17369 12.6776 4.12944C12.6669 4.12209 12.6494 4.099 12.6494 4.07754C12.6494 4.06147 12.6769 4.02181 12.6985 4.01201C12.7133 4.00529 12.4819 3.96497 12.4819 3.86003C12.4819 3.83818 12.4956 3.82362 12.5437 3.82362C12.6068 3.82362 12.7093 3.89916 12.8004 3.89916C12.8678 3.89916 12.8944 3.88277 12.9633 3.88277C13.0476 3.88277 13.2235 4.0424 13.2837 4.03656C13.2164 3.99434 13.1078 3.83452 12.9433 3.83452C12.8862 3.83452 12.8346 3.84726 12.7813 3.84726C12.713 3.84726 12.6458 3.78446 12.572 3.78446C12.5225 3.78446 12.4673 3.78721 12.4591 3.77443C12.4448 3.75212 12.4577 3.73917 12.4709 3.72074C12.496 3.68595 12.5663 3.67585 12.6357 3.67343C12.6565 3.6727 12.6772 3.67235 12.6967 3.67253C12.7161 3.67274 12.734 3.67349 12.7495 3.67349Z" fill="#B07F55"/>
<path d="M12.0879 3.92345C12.0879 3.92345 12.1309 3.84201 12.2396 3.84201C12.2851 3.84201 12.4351 3.83887 12.4351 3.83887C12.455 3.8908 12.5461 3.97757 12.5461 4.06781C12.5461 4.06781 12.4537 3.90111 12.1955 3.90111C12.1306 3.90111 12.0879 3.92344 12.0879 3.92344L12.0879 3.92345Z" fill="#CC092F"/>
<path d="M12.5073 4.09953C12.5073 4.09953 12.4523 4.15745 12.4403 4.18836C12.3859 4.16774 12.291 4.06995 12.291 4.06995C12.291 4.06995 12.3715 4.11692 12.5072 4.09953H12.5073Z" fill="#D10429"/>
<path d="M12.4209 3.94609C12.4209 3.94609 12.3574 3.92576 12.3574 3.90446C12.3574 3.87734 12.3882 3.87734 12.4066 3.89847C12.4193 3.91303 12.4208 3.94611 12.4208 3.94611L12.4209 3.94609Z" fill="black"/>
<path d="M12.6944 4.01971C12.7446 4.01971 12.7853 3.98754 12.7853 3.94784C12.7853 3.90815 12.7446 3.87598 12.6944 3.87598C12.6442 3.87598 12.6035 3.90815 12.6035 3.94784C12.6035 3.98754 12.6442 4.01971 12.6944 4.01971Z" fill="black"/>
<path d="M12.6941 4.0111C12.7291 4.0111 12.7574 3.98276 12.7574 3.94781C12.7574 3.91286 12.7291 3.88452 12.6941 3.88452C12.6592 3.88452 12.6309 3.91286 12.6309 3.94781C12.6309 3.98276 12.6592 4.0111 12.6941 4.0111Z" fill="#F5D402"/>
<path d="M12.6948 3.9745C12.7097 3.9745 12.7217 3.96247 12.7217 3.94764C12.7217 3.9328 12.7097 3.92078 12.6948 3.92078C12.68 3.92078 12.668 3.9328 12.668 3.94764C12.668 3.96247 12.68 3.9745 12.6948 3.9745Z" fill="black"/>
<path d="M11.5341 10.6807L11.2461 10.5236L11.1762 10.8441L11.4642 11.0012L11.5341 10.6807Z" fill="black"/>
<path d="M9.90453 7.44409L9.80078 7.49143L10.973 10.0589H11.0977L9.90453 7.44409ZM11.287 10.472L11.2023 10.5594L11.2551 10.6758L11.358 10.6285L11.287 10.472Z" fill="black"/>
<path d="M10.2695 9.46826C10.2695 9.46826 10.3683 9.6722 10.4433 9.70016C10.4045 9.68958 10.2785 9.73582 10.2785 9.73582C10.2785 9.73582 10.5007 9.9343 10.6892 9.94733C10.849 9.95833 10.9266 9.87857 10.9266 9.87857L10.8946 9.70926C10.8946 9.70926 10.7968 9.59119 10.6403 9.5367C10.4822 9.48163 10.2695 9.4683 10.2695 9.4683L10.2695 9.46826Z" fill="black"/>
<path d="M11.0138 9.10303C11.0138 9.10303 10.8774 9.21974 10.8401 9.35492C10.8028 9.49012 10.8645 9.64376 10.8645 9.64376L10.979 9.85746C10.979 9.85746 11.1378 9.77297 11.2053 9.64662C11.2729 9.52025 11.2481 9.34977 11.2481 9.34977C11.2481 9.34977 11.1223 9.39659 11.1063 9.41732C11.1329 9.27716 11.0138 9.10303 11.0138 9.10303H11.0138Z" fill="black"/>
<path d="M10.5761 9.04848C10.5761 9.04848 10.4211 9.10088 10.2705 9.09182C10.1271 9.08316 10.0078 8.96273 10.0078 8.96273C10.0078 8.96273 10.1267 8.88227 10.1854 8.89299C10.1208 8.8694 10.0272 8.7077 10.0272 8.7077C10.0272 8.7077 10.1603 8.66751 10.2782 8.71197C10.3961 8.75646 10.499 8.88565 10.499 8.88565L10.5762 9.04848H10.5761Z" fill="black"/>
<path d="M10.6274 8.29116C10.6274 8.29116 10.705 8.45172 10.6866 8.50753C10.7107 8.47037 10.8017 8.41251 10.8017 8.41251C10.8017 8.41251 10.8567 8.67249 10.8041 8.83306C10.7515 8.99361 10.5912 9.05475 10.5912 9.05475L10.4145 8.71098C10.4145 8.71098 10.3882 8.58362 10.4433 8.48276C10.4984 8.38191 10.6274 8.29114 10.6274 8.29114V8.29116Z" fill="black"/>
<path d="M9.61883 7.86601C9.61883 7.86601 9.78643 7.84841 9.93974 7.91192C10.0679 7.96513 10.1072 8.06184 10.1072 8.06184L10.1703 8.23107C10.1703 8.23107 9.98792 8.29948 9.84379 8.24718C9.69965 8.19482 9.59375 8.02177 9.59375 8.02177C9.59375 8.02177 9.69448 7.98356 9.73283 7.99789C9.67697 7.97318 9.61887 7.86601 9.61887 7.86601V7.86602L9.61883 7.86601Z" fill="black"/>
<path d="M10.1462 7.55192C10.1462 7.55192 10.2197 7.64637 10.2219 7.75501C10.2415 7.69725 10.3334 7.63341 10.3334 7.63341C10.3334 7.63341 10.4278 7.86194 10.4071 8.0242C10.3863 8.18648 10.2505 8.28246 10.2505 8.28246L10.081 7.96082C10.081 7.96082 10.0258 7.829 10.0421 7.72674C10.0583 7.62452 10.1462 7.55188 10.1462 7.55188V7.55192Z" fill="black"/>
<path d="M9.56573 6.93677C9.56573 6.93677 9.53534 7.11195 9.58704 7.21285C9.63323 7.3029 9.66263 7.32265 9.66263 7.32265C9.57456 7.26453 9.44141 7.25952 9.44141 7.25952C9.44141 7.25952 9.4888 7.45012 9.60206 7.53707C9.71533 7.62402 9.88998 7.6037 9.88998 7.6037C9.88998 7.6037 10.0048 7.45081 9.99682 7.2861C9.98884 7.12139 9.85801 6.94482 9.85801 6.94482C9.85801 6.94482 9.80642 7.05184 9.80187 7.13174C9.76848 7.04937 9.56569 6.93678 9.56569 6.93678L9.56573 6.93677Z" fill="black"/>
<path d="M10.9356 9.87144L10.9403 9.93431C11.0447 9.93529 11.0603 9.92489 11.087 9.95781C11.1049 9.97974 11.1473 9.99889 11.1899 9.97941C11.2326 9.95994 11.2517 9.90872 11.2322 9.86608C11.2128 9.82343 11.1731 9.81417 11.1349 9.82171C11.1115 9.82633 11.096 9.84505 11.0761 9.85532C11.0383 9.87491 10.9355 9.87146 10.9355 9.87146L10.9356 9.87144Z" fill="black"/>
<path d="M10.9257 9.82326L10.9765 9.86051C10.922 9.94965 10.905 9.95733 10.9187 9.99749C10.9279 10.0242 10.9217 10.0703 10.8825 10.0962C10.8434 10.1221 10.7898 10.1112 10.764 10.0721C10.7381 10.033 10.7513 9.99445 10.7779 9.96603C10.7943 9.94857 10.8183 9.9454 10.8375 9.93397C10.8742 9.91223 10.9257 9.82324 10.9257 9.82324L10.9257 9.82326Z" fill="black"/>
<path d="M10.5723 9.07665L10.577 9.13951C10.6815 9.14047 10.697 9.13009 10.7238 9.16299C10.7416 9.18491 10.784 9.20407 10.8266 9.18459C10.8693 9.16513 10.8884 9.11392 10.8689 9.07128C10.8495 9.02862 10.8098 9.01938 10.7716 9.02691C10.7482 9.03155 10.7327 9.05025 10.7129 9.06052C10.675 9.08009 10.5723 9.07666 10.5723 9.07666L10.5723 9.07665Z" fill="black"/>
<path d="M10.593 9.09888L10.6375 9.14363C10.5698 9.22318 10.5517 9.22814 10.5591 9.26994C10.564 9.2978 10.5507 9.34239 10.508 9.36186C10.4653 9.38133 10.4141 9.36223 10.3946 9.31956C10.3751 9.27691 10.3941 9.24088 10.4249 9.21695C10.4437 9.20228 10.468 9.20285 10.4887 9.19459C10.5283 9.17882 10.593 9.09889 10.593 9.09889V9.09888Z" fill="black"/>
<path d="M10.2188 8.33266L10.2235 8.39556C10.3279 8.39652 10.3435 8.38613 10.3703 8.41908C10.3881 8.44097 10.4305 8.46014 10.4732 8.44065C10.5158 8.42118 10.5349 8.36997 10.5155 8.32726C10.496 8.2846 10.4563 8.27536 10.4181 8.28289C10.3946 8.28754 10.3792 8.30624 10.3593 8.31652C10.3215 8.33611 10.2188 8.33265 10.2188 8.33265L10.2188 8.33266Z" fill="black"/>
<path d="M10.2493 8.31958L10.2937 8.3643C10.226 8.44385 10.208 8.44881 10.2153 8.4906C10.2202 8.51844 10.2069 8.56302 10.1642 8.58248C10.1216 8.60193 10.0703 8.58284 10.0509 8.5402C10.0314 8.49753 10.0504 8.46152 10.0811 8.43761C10.1 8.42291 10.1242 8.42352 10.145 8.41521C10.1846 8.39945 10.2493 8.31958 10.2493 8.31958Z" fill="black"/>
<path d="M9.84574 7.54738L9.85043 7.61024C9.95488 7.61121 9.97043 7.60081 9.99718 7.63372C10.015 7.65565 10.0574 7.6748 10.1001 7.65535C10.1427 7.63585 10.1618 7.58466 10.1424 7.54199C10.1229 7.49933 10.0832 7.49007 10.045 7.49762C10.0216 7.50226 10.0062 7.52098 9.98629 7.53124C9.94846 7.55081 9.8457 7.54738 9.8457 7.54738H9.84574Z" fill="black"/>
<path d="M9.87428 7.53418L9.91869 7.57893C9.85099 7.65849 9.83295 7.66343 9.84029 7.70524C9.8452 7.73308 9.83186 7.77767 9.78921 7.79714C9.74654 7.81661 9.69534 7.79751 9.67588 7.75484C9.65639 7.71219 9.67538 7.67614 9.70608 7.65225C9.72496 7.63758 9.74919 7.63815 9.76998 7.62984C9.80955 7.61409 9.87426 7.5342 9.87426 7.5342L9.87428 7.53418Z" fill="black"/>
<path d="M11.4657 10.7119L11.2871 10.6144L11.2438 10.8132L11.4224 10.9107L11.4657 10.7119Z" fill="#F5D402"/>
<path d="M10.5043 8.89041C10.4668 8.90594 10.4113 8.74294 10.3705 8.65365C10.3287 8.56201 10.2438 8.42076 10.2679 8.40974C10.2944 8.39765 10.3292 8.47182 10.372 8.5656C10.4148 8.65934 10.5393 8.87579 10.5043 8.89037V8.89041Z" fill="#F5D402"/>
<path d="M10.1204 8.03193C10.083 8.04752 10.042 7.94078 10.0012 7.85146C9.95938 7.75983 9.91863 7.6951 9.94276 7.68408C9.96925 7.67199 10.0084 7.75229 10.0426 7.82728C10.0758 7.89996 10.1555 8.01733 10.1204 8.03195L10.1204 8.03193Z" fill="#F5D402"/>
<path d="M11.0086 9.97843C10.9792 9.98629 10.8509 9.71778 10.7472 9.49058C10.6435 9.26339 10.5663 9.07957 10.5904 9.0686C10.6169 9.0565 10.7008 9.27111 10.8046 9.49833C10.9083 9.72554 11.0306 9.97251 11.0086 9.97843H11.0086Z" fill="#F5D402"/>
<path d="M9.61733 7.04333C9.61733 7.04333 9.61279 7.17135 9.65515 7.24396C9.69752 7.3166 9.79213 7.34556 9.79213 7.34556C9.79213 7.34556 9.79665 7.21758 9.75429 7.14497C9.71192 7.07233 9.61733 7.04333 9.61733 7.04333Z" fill="#097754"/>
<path d="M9.5293 7.33289C9.5293 7.33289 9.6405 7.33943 9.70473 7.38863C9.76891 7.43784 9.79378 7.54035 9.79378 7.54035C9.79378 7.54035 9.72007 7.54784 9.65589 7.49863C9.5917 7.44941 9.5293 7.33289 9.5293 7.33289Z" fill="#097754"/>
<path d="M9.87681 7.07446C9.87681 7.07446 9.83983 7.15926 9.84409 7.25068C9.84834 7.34211 9.9017 7.44511 9.9017 7.44511C9.9017 7.44511 9.94994 7.33535 9.94569 7.2439C9.94146 7.15247 9.88973 7.10035 9.87681 7.07446Z" fill="#097754"/>
<path d="M9.69141 7.89853C9.69141 7.89853 9.746 7.97477 9.83006 8.01634C9.91411 8.05788 10.0394 8.05943 10.0394 8.05943C10.0394 8.05943 9.97685 7.97833 9.89277 7.93676C9.80872 7.89521 9.69141 7.8985 9.69141 7.8985V7.89853Z" fill="#097754"/>
<path d="M9.71877 8.07568C9.71877 8.07568 9.75889 8.15426 9.83226 8.18794C9.90567 8.22164 10.0558 8.21887 10.0558 8.21887C10.0558 8.21887 9.9982 8.14545 9.92481 8.11175C9.85143 8.07803 9.71875 8.07568 9.71875 8.07568H9.71877Z" fill="#097754"/>
<path d="M10.1399 7.65649C10.1399 7.65649 10.0956 7.72979 10.0999 7.81056C10.1043 7.89136 10.1573 7.97964 10.1573 7.97964C10.1573 7.97964 10.1945 7.87843 10.1902 7.79765C10.1858 7.71685 10.1399 7.65649 10.1399 7.65649H10.1399Z" fill="#097754"/>
<path d="M10.3031 7.76025C10.3031 7.76025 10.2272 7.86213 10.2163 7.96686C10.2054 8.07158 10.2595 8.17918 10.2595 8.17918C10.2595 8.17918 10.3511 8.08712 10.362 7.9824C10.3729 7.87765 10.3031 7.76029 10.3031 7.76029V7.76025Z" fill="#097754"/>
<path d="M10.0938 8.72727C10.0938 8.72727 10.1029 8.76492 10.1346 8.80489C10.1663 8.84491 10.2206 8.88723 10.2206 8.88723C10.2206 8.88723 10.273 8.87038 10.3382 8.88448C10.4033 8.89861 10.49 8.95665 10.49 8.95665C10.49 8.95665 10.3967 8.81744 10.2998 8.76332C10.203 8.70922 10.0938 8.72725 10.0938 8.72725L10.0938 8.72727Z" fill="#097754"/>
<path d="M10.084 8.96648C10.084 8.96648 10.2048 8.91491 10.3042 8.92822C10.4037 8.94153 10.4934 9.02012 10.4934 9.02012C10.4934 9.02012 10.3589 9.06661 10.2595 9.05332C10.16 9.04001 10.084 8.96648 10.084 8.96648H10.084Z" fill="#097754"/>
<path d="M10.5968 8.40515C10.5968 8.40515 10.49 8.5183 10.4811 8.61649C10.4721 8.71467 10.5677 8.80618 10.5677 8.80618C10.5677 8.80618 10.563 8.7432 10.5794 8.70174C10.5959 8.66028 10.6309 8.61601 10.6309 8.61601C10.6309 8.61601 10.6458 8.56547 10.64 8.52493C10.632 8.46829 10.5968 8.40515 10.5968 8.40515Z" fill="#097754"/>
<path d="M10.7486 8.53613C10.7486 8.53613 10.648 8.63797 10.6214 8.74703C10.5948 8.85609 10.6422 8.97237 10.6422 8.97237C10.6422 8.97237 10.7337 8.90016 10.7603 8.79112C10.787 8.68206 10.7486 8.53613 10.7486 8.53613H10.7486Z" fill="#097754"/>
<path d="M11.0019 9.19362C11.0019 9.19362 11.0475 9.28882 11.0591 9.36843C11.0707 9.44802 11.0599 9.47558 11.0599 9.47558C11.0599 9.47558 11.0128 9.52192 10.9917 9.54918C10.9645 9.5842 10.9605 9.64831 10.9605 9.64831C10.9605 9.64831 10.8658 9.50758 10.8804 9.4047C10.895 9.30184 11.0019 9.1936 11.0019 9.1936V9.19362Z" fill="#097754"/>
<path d="M11.2009 9.41384C11.2009 9.41384 11.0797 9.49389 11.0316 9.57602C10.9835 9.6581 11.0084 9.74223 11.0084 9.74223C11.0084 9.74223 11.0948 9.73462 11.1429 9.65252C11.191 9.57042 11.2009 9.41382 11.2009 9.41382L11.2009 9.41384Z" fill="#097754"/>
<path d="M10.4043 9.75205C10.4043 9.75205 10.579 9.74728 10.6858 9.77354C10.7925 9.79975 10.8314 9.85698 10.8314 9.85698C10.8314 9.85698 10.7114 9.91319 10.6046 9.88695C10.4978 9.86074 10.4043 9.75203 10.4043 9.75203L10.4043 9.75205Z" fill="#097754"/>
<path d="M10.375 9.54464C10.375 9.54464 10.4538 9.66683 10.5557 9.71117C10.6961 9.77223 10.8587 9.74263 10.8587 9.74263C10.8587 9.74263 10.7704 9.63438 10.6488 9.5866C10.5273 9.53883 10.375 9.54466 10.375 9.54466V9.54464Z" fill="#097754"/>
<path d="M16.355 7.14562L16.3778 7.19383C16.3778 7.19383 16.3408 7.20653 16.324 7.23933C16.3073 7.27216 16.335 7.31853 16.335 7.31853C16.335 7.31853 16.1429 7.30176 16.1129 7.32126C16.0857 7.33887 16.1244 7.47191 16.1065 7.58429C16.0816 7.74091 16.0198 7.72776 16.0173 7.7581C16.0149 7.7876 16.041 7.83364 16.041 7.83364C16.041 7.83364 16.005 7.84498 15.9973 7.86004C15.9849 7.88426 16.0059 7.92893 15.9909 7.95832C15.9074 8.12228 15.784 8.36429 15.7024 8.52442C15.691 8.54677 15.6604 8.5553 15.6451 8.5854C15.6309 8.61317 15.6424 8.65365 15.6424 8.65365C15.6424 8.65365 15.5883 8.65688 15.5695 8.6937C15.5496 8.73281 15.5613 8.78561 15.5613 8.78561C15.5613 8.78561 15.5272 8.78999 15.5104 8.82293C15.4924 8.85815 15.5228 8.87662 15.515 8.8921C15.4053 9.10725 15.2761 9.36087 15.1973 9.51554C15.1683 9.57241 15.0669 9.58381 15.008 9.69938C14.9508 9.81149 15.0325 9.89414 15.0325 9.89414C15.0325 9.89414 14.9477 9.90182 14.9252 9.94603C14.9022 9.9911 14.9204 10.0595 14.9816 10.0907C15.0428 10.1219 15.1097 10.0967 15.1327 10.0516C15.1552 10.0074 15.1099 9.93419 15.1099 9.93419C15.1099 9.93419 15.2248 9.95074 15.2819 9.83862C15.3408 9.72304 15.2912 9.63522 15.3202 9.57833C15.399 9.42366 15.5282 9.17006 15.6378 8.95489C15.6457 8.93941 15.6781 8.95281 15.696 8.9176C15.7128 8.88465 15.696 8.8548 15.696 8.8548C15.696 8.8548 15.7462 8.83294 15.7661 8.79381C15.7849 8.75699 15.7561 8.711 15.7561 8.711C15.7561 8.711 15.7957 8.69692 15.8098 8.66915C15.8251 8.63905 15.8139 8.60959 15.8253 8.58721C15.9069 8.4271 16.0303 8.18508 16.1138 8.02115C16.1288 7.99172 16.177 7.98166 16.1893 7.95741C16.197 7.94237 16.1848 7.90646 16.1848 7.90646C16.1848 7.90646 16.2379 7.9012 16.2603 7.88187C16.2834 7.862 16.2365 7.81937 16.3486 7.70713C16.429 7.62664 16.5587 7.57928 16.557 7.54696C16.5551 7.51122 16.4287 7.36585 16.4287 7.36585C16.4287 7.36585 16.482 7.36135 16.4988 7.32855C16.5155 7.29574 16.5042 7.25755 16.5042 7.25755L16.557 7.24845L16.557 6.99817L16.355 7.14562ZM14.6103 10.6314C14.6024 10.647 14.6009 10.6683 14.6103 10.6869C14.6103 10.6869 14.5466 10.667 14.5248 10.6778C14.5042 10.688 14.5248 10.9882 14.5248 10.9882C14.5248 10.9882 14.7789 10.8278 14.775 10.8052C14.7709 10.7812 14.7177 10.7406 14.7177 10.7406C14.7383 10.7373 14.7543 10.7244 14.7623 10.7088C14.7707 10.6923 14.7718 10.6453 14.7141 10.6159C14.6924 10.6049 14.6732 10.6016 14.6576 10.6032C14.6317 10.6058 14.6156 10.6211 14.6103 10.6314Z" fill="black"/>
<path d="M16.4004 7.15575L16.5205 7.21674L16.5187 7.07202L16.4004 7.15575Z" fill="#F5D402"/>
<path d="M16.3537 7.24307C16.3383 7.27336 16.3533 7.31215 16.3874 7.32951C16.4215 7.34688 16.4611 7.33614 16.4765 7.30587C16.4919 7.27558 16.4769 7.23681 16.4428 7.21943C16.4301 7.21291 16.4166 7.21035 16.4037 7.21123C16.3823 7.21269 16.3634 7.22414 16.3537 7.24307Z" fill="#F5D402"/>
<path d="M16.1472 7.35315C16.1346 7.36133 16.1518 7.46951 16.1481 7.56154C16.1447 7.64833 16.1169 7.67277 16.1017 7.7026C16.0877 7.73014 16.0371 7.76267 16.0371 7.76267L16.079 7.80454C16.079 7.80454 16.1062 7.76212 16.149 7.678C16.1996 7.57882 16.1979 7.39911 16.2128 7.38953C16.2257 7.38119 16.3311 7.35493 16.3311 7.35493C16.3311 7.35493 16.2343 7.3497 16.1809 7.35041C16.1631 7.35063 16.1502 7.35125 16.1472 7.35315Z" fill="#F5D402"/>
<path d="M16.1577 7.8528C16.1577 7.8528 16.1717 7.81391 16.2205 7.7181C16.2794 7.60256 16.4051 7.51876 16.408 7.49785C16.4111 7.47631 16.3643 7.375 16.3643 7.375C16.3643 7.375 16.2535 7.39625 16.2378 7.41142C16.2226 7.42605 16.2293 7.57616 16.1704 7.69172C16.1217 7.78751 16.0977 7.82278 16.0977 7.82278L16.1577 7.8528Z" fill="#F5D402"/>
<path d="M16.4403 7.50615C16.4412 7.52373 16.2951 7.62812 16.2446 7.72728C16.2017 7.81139 16.1836 7.85836 16.1836 7.85836L16.2419 7.86746C16.2419 7.86746 16.2378 7.8076 16.2519 7.78008C16.2671 7.75027 16.2711 7.71376 16.3393 7.65996C16.4116 7.60291 16.5093 7.55304 16.5085 7.53799C16.5078 7.52408 16.3993 7.38965 16.3993 7.38965C16.3993 7.38965 16.4394 7.49084 16.4403 7.50615Z" fill="#F5D402"/>
<path d="M16.0139 8.15502C16.1017 7.98279 16.1285 7.97105 16.1396 7.94935C16.1515 7.92602 16.1486 7.89463 16.1095 7.8747C16.0949 7.86725 16.0823 7.86535 16.0713 7.86654C16.0529 7.86851 16.0396 7.88017 16.0322 7.89473C16.0211 7.91646 16.0271 7.94549 15.9393 8.11774L15.74 8.50815C15.74 8.50815 15.7191 8.54648 15.7582 8.56639C15.7973 8.58628 15.8146 8.54635 15.8146 8.54635L16.0139 8.15502Z" fill="#F5D402"/>
<path d="M15.6613 8.6028C15.6504 8.62415 15.6691 8.65549 15.7032 8.6729C15.7373 8.69025 15.7742 8.68696 15.7851 8.66561C15.796 8.64428 15.7765 8.61292 15.7423 8.59551C15.7253 8.58682 15.7079 8.5833 15.6932 8.58462C15.6784 8.5859 15.6667 8.59216 15.6613 8.6028Z" fill="#F5D402"/>
<path d="M15.5882 8.71389C15.5742 8.7415 15.5961 8.78115 15.6374 8.80222C15.6787 8.82325 15.7235 8.81797 15.7375 8.79036C15.7516 8.76273 15.7296 8.72311 15.6884 8.70204C15.6729 8.69419 15.6576 8.69001 15.6429 8.68931C15.6184 8.68816 15.597 8.69662 15.5882 8.71389Z" fill="#F5D402"/>
<path d="M15.5402 8.83757C15.5293 8.85889 15.548 8.89025 15.5821 8.90763C15.6162 8.92502 15.6532 8.9217 15.6641 8.90036C15.6749 8.87903 15.6563 8.84767 15.6222 8.83029C15.6051 8.82158 15.5868 8.81806 15.5721 8.81935C15.5574 8.82065 15.5457 8.82689 15.5402 8.83757Z" fill="#F5D402"/>
<path d="M15.5096 8.95597C15.5096 8.95597 15.2883 9.39151 15.2102 9.54477C15.1853 9.59373 15.0802 9.62423 15.0391 9.70496C14.9977 9.78616 15.0269 9.86218 15.081 9.8897C15.135 9.91723 15.2143 9.89722 15.2557 9.81599C15.2968 9.73529 15.2599 9.63195 15.2848 9.58301C15.3629 9.4297 15.5842 8.99419 15.5842 8.99419C15.5842 8.99419 15.606 8.95587 15.5669 8.93596C15.5572 8.93098 15.5487 8.93048 15.5415 8.93141C15.5199 8.93418 15.5096 8.95597 15.5096 8.95597Z" fill="#F5D402"/>
<path d="M14.9513 9.96698C14.9347 9.99951 14.9537 10.0429 14.994 10.0634C15.0344 10.084 15.0812 10.0741 15.0978 10.0416C15.1144 10.0091 15.0945 9.9657 15.0541 9.94514C15.039 9.93741 15.0235 9.93382 15.0086 9.93424C14.9838 9.93494 14.9617 9.94667 14.9513 9.96698Z" fill="#F5D402"/>
<path d="M14.6564 10.6323C14.6438 10.6327 14.6333 10.6367 14.6291 10.645C14.6206 10.6616 14.6381 10.6879 14.6683 10.7032C14.6984 10.7186 14.7299 10.7172 14.7384 10.7005C14.7469 10.6839 14.7293 10.6576 14.6992 10.6423C14.6842 10.6346 14.6691 10.6318 14.6564 10.6322V10.6323Z" fill="#F5D402"/>
<path d="M14.5527 10.7141V10.9289L14.7275 10.8033C14.7275 10.8033 14.7038 10.7615 14.6519 10.735C14.6001 10.7086 14.5527 10.7141 14.5527 10.7141V10.7141Z" fill="#F5D402"/>
<path d="M14.6654 5.93056C14.6654 5.81276 14.8201 5.69666 14.8201 5.69666H11.0469C11.0469 5.69666 11.2016 5.81274 11.2016 5.93056V8.7392C11.2016 8.81319 11.2245 8.86137 11.2608 8.90846C11.297 8.95918 11.3744 9.02926 11.4546 9.08138C11.7024 9.24233 12.1167 9.41203 12.4302 9.55465C12.6914 9.67347 12.7977 9.72142 12.9335 9.88956C13.0693 9.72142 13.1764 9.67349 13.4377 9.55465C13.7511 9.41205 14.1654 9.24233 14.4133 9.08138C14.4935 9.02926 14.5709 8.9592 14.6071 8.90846C14.6434 8.86137 14.6654 8.81319 14.6654 8.7392V5.93056Z" fill="#F5D402"/>
<path d="M11.2897 7.51962V5.93058C11.2897 5.84064 11.2441 5.78589 11.2441 5.78589H14.6207C14.6207 5.78589 14.5752 5.84066 14.5752 5.93058L14.5761 7.51962L12.9329 8.0174L11.2897 7.51962Z" fill="#D10429"/>
<path d="M14.5755 7.5196L13.558 7.50049H12.3066L11.2891 7.5196V8.73917C11.2891 8.80047 11.3527 8.94406 11.7196 9.12685C12.326 9.42904 12.7921 9.57012 12.9318 9.74209C13.0715 9.57012 13.5376 9.42902 14.144 9.12685C14.5109 8.94406 14.5745 8.80047 14.5745 8.73917L14.5755 7.5196Z" fill="#0B45BB"/>
<path d="M13.5334 7.45599C13.5334 7.45599 14.1204 7.30798 14.1204 6.68059C14.1204 6.19058 13.5319 5.94749 13.5152 5.83057C13.4577 6.03289 13.7117 6.31234 13.7117 6.64327C13.7117 7.07146 13.3959 7.09196 13.3959 7.09196C13.322 7.09196 13.2921 7.14472 13.2631 7.14472C13.2009 7.13824 13.1716 7.05916 13.1101 7.05916C13.0524 7.05916 13.0081 7.14835 12.9318 7.14835C12.8555 7.14835 12.8121 7.05916 12.7543 7.05916C12.6929 7.05916 12.6636 7.13824 12.6014 7.14472C12.5724 7.14472 12.5424 7.09196 12.4685 7.09196C12.4685 7.09196 12.1527 7.07146 12.1527 6.64327C12.1527 6.31234 12.4069 6.03286 12.3493 5.83057C12.3326 5.94749 11.7441 6.19056 11.7441 6.68059C11.7441 7.30798 12.3311 7.45599 12.3311 7.45599L12.1637 7.76086C12.1637 7.76086 12.4063 7.773 12.535 7.88283C12.6903 8.01524 12.6751 8.29579 12.6751 8.49988C12.6751 8.66068 12.6548 8.83036 12.5723 8.9003C12.4615 8.99424 12.3866 9.00119 12.3866 9.11146C12.3866 9.20344 12.4573 9.22188 12.5723 9.28257C12.7196 9.36031 12.7128 9.46458 12.9318 9.46458C13.1508 9.46458 13.1449 9.36033 13.2922 9.28257C13.4072 9.22188 13.4779 9.20344 13.4779 9.11146C13.4779 9.00119 13.4029 8.99424 13.2922 8.9003C13.2097 8.83033 13.1894 8.66066 13.1894 8.49988C13.1894 8.29579 13.1743 8.01524 13.3295 7.88283C13.4583 7.77302 13.7008 7.76086 13.7008 7.76086L13.5334 7.45599Z" fill="black"/>
<path d="M12.9315 5.87402L12.8296 6.16346L12.552 6.03148L12.6839 6.30908L12.3945 6.41191L12.6839 6.51475L12.552 6.79143L12.8296 6.65946L12.9315 6.94887L13.0344 6.65946L13.3119 6.79143L13.18 6.51475L13.4694 6.41191L13.18 6.30908L13.3119 6.03148L13.0344 6.16346L12.9315 5.87402Z" fill="black"/>
<path d="M12.3066 7.50048C12.3066 7.50048 11.9441 7.41188 11.8087 7.23291C11.5721 7.44582 11.2891 7.51959 11.2891 7.51959C11.2891 7.51959 11.5843 7.65289 11.8087 7.82267C11.9122 7.67447 12.3066 7.50048 12.3066 7.50048Z" fill="black"/>
<path d="M13.5566 7.50048C13.5566 7.50048 13.9511 7.67446 14.0545 7.82267C14.2789 7.65289 14.5741 7.51959 14.5741 7.51959C14.5741 7.51959 14.2911 7.4458 14.0545 7.23291C13.9191 7.41186 13.5566 7.50048 13.5566 7.50048Z" fill="black"/>
<path d="M12.4555 7.88623L12.3145 8.02728L12.4555 8.16835L12.5966 8.02728L12.4555 7.88623Z" fill="black"/>
<path d="M13.4106 7.88623L13.2695 8.02728L13.4106 8.16835L13.5517 8.02728L13.4106 7.88623Z" fill="black"/>
<path d="M12.4208 8.70995C12.4208 8.88816 12.4035 8.98206 12.4035 8.98206C12.4035 8.98206 12.6024 8.92352 12.642 8.72179C12.6606 8.62721 12.6813 8.27882 12.5856 8.21942L12.3262 8.16846C12.3542 8.23777 12.4208 8.45248 12.4208 8.70995Z" fill="black"/>
<path d="M13.2812 8.21943C13.1855 8.27881 13.2062 8.62722 13.2247 8.72182C13.2643 8.92356 13.4632 8.9821 13.4632 8.9821C13.4632 8.9821 13.4459 8.8882 13.4459 8.70998C13.4459 8.4525 13.5126 8.23776 13.5406 8.16846L13.2812 8.21943Z" fill="black"/>
<path d="M11.8077 8.22954C11.7183 8.25198 11.6642 8.34305 11.6867 8.43249C11.6901 8.44618 11.6958 8.45882 11.7021 8.47071C11.6891 8.46638 11.6755 8.4635 11.6612 8.46252C11.6554 8.46213 11.6495 8.46232 11.6439 8.46252C11.5593 8.46536 11.4887 8.53191 11.4828 8.61816C11.4765 8.71015 11.5464 8.78935 11.6385 8.79564C11.6522 8.79656 11.6655 8.79607 11.6785 8.79381C11.6706 8.80467 11.6637 8.81626 11.6585 8.82929C11.624 8.91486 11.6658 9.01331 11.7513 9.04775C11.8369 9.08215 11.9344 9.03955 11.9688 8.95401C11.9741 8.94094 11.977 8.92819 11.9788 8.91486C11.9867 8.92579 11.9962 8.93582 12.007 8.94489C12.0778 9.00405 12.1836 8.99468 12.2428 8.92396C12.3019 8.85324 12.2926 8.7483 12.2218 8.68915C12.2111 8.68019 12.1992 8.67315 12.1872 8.66732C12.2001 8.6632 12.2126 8.65751 12.2245 8.65004C12.3027 8.60106 12.3263 8.49699 12.2773 8.41886C12.2436 8.36515 12.1845 8.33754 12.1253 8.34151C12.0984 8.3433 12.0715 8.35167 12.0471 8.367C12.0351 8.37448 12.0245 8.38278 12.0152 8.39247C12.0152 8.37903 12.0141 8.3652 12.0107 8.35153C11.991 8.27326 11.9191 8.22166 11.8414 8.22501C11.8303 8.22549 11.8189 8.22675 11.8077 8.22954Z" fill="black"/>
<path d="M13.5821 8.71537C13.6001 8.88579 13.7386 9.02857 13.9097 9.06936C13.8805 9.0216 13.8611 8.96836 13.8551 8.91194C13.8336 8.70982 13.99 8.54608 14.2036 8.54608C14.2373 8.54608 14.2699 8.55024 14.3019 8.55794C14.2266 8.43445 14.0847 8.34862 13.9306 8.34863C13.7169 8.34864 13.5606 8.51329 13.5821 8.71537Z" fill="black"/>
<path d="M12.0679 6.64321C12.0679 6.96548 12.2398 7.15558 12.4693 7.15558C12.513 7.15558 12.5609 7.21474 12.6021 7.21474C12.6694 7.21474 12.7141 7.14011 12.7551 7.14011C12.8071 7.14011 12.8422 7.22201 12.9325 7.22201C13.0229 7.22201 13.0589 7.14011 13.1109 7.14011C13.1518 7.14011 13.1965 7.21474 13.2638 7.21474C13.305 7.21474 13.3529 7.15558 13.3967 7.15558C13.6262 7.15558 13.798 6.96548 13.798 6.64321C13.798 6.38038 13.5773 6.05992 13.6015 6.00793C13.6015 6.00793 14.0319 6.31672 14.0319 6.6805C14.0319 7.26651 13.4376 7.41133 13.4376 7.41133L13.5714 7.71256C13.5714 7.71256 13.3872 7.74018 13.2747 7.83089C13.1247 7.95186 13.1227 8.27873 13.1227 8.49979C13.1227 8.7602 13.1324 8.87055 13.2265 8.9412C13.3257 9.01574 13.4003 9.03179 13.4003 9.10776C13.4003 9.17394 13.3231 9.20102 13.2228 9.24518C13.1088 9.29544 13.0975 9.38262 12.9325 9.38262C12.7675 9.38262 12.7571 9.29544 12.6431 9.24518C12.5429 9.20102 12.4656 9.17396 12.4656 9.10776C12.4656 9.03179 12.5402 9.01574 12.6394 8.9412C12.7335 8.87055 12.7432 8.7602 12.7432 8.49979C12.7432 8.27873 12.7412 7.95186 12.5912 7.83089C12.4787 7.74015 12.2945 7.71256 12.2945 7.71256L12.4283 7.41133C12.4283 7.41133 11.834 7.26653 11.834 6.6805C11.834 6.31672 12.2645 6.00793 12.2645 6.00793C12.2886 6.05992 12.0679 6.38038 12.0679 6.64321ZM12.7077 9.06322C12.5909 9.06322 12.5166 9.08786 12.5166 9.12329C12.5166 9.15874 12.591 9.18246 12.7077 9.18246C12.7388 9.18246 12.7741 9.16434 12.7741 9.12329C12.7741 9.08225 12.7388 9.06322 12.7077 9.06322ZM13.1582 9.06322C13.1271 9.06322 13.0917 9.08226 13.0917 9.12329C13.0917 9.16434 13.1271 9.18246 13.1582 9.18246C13.2749 9.18246 13.3493 9.15876 13.3493 9.12329C13.3493 9.08785 13.2749 9.06322 13.1582 9.06322Z" fill="#FFD200"/>
<path d="M12.9349 6.06885L13.0004 6.25363L13.1769 6.16899L13.0932 6.34645L13.277 6.41199L13.0932 6.47752L13.1769 6.65407L13.0004 6.57034L12.934 6.75418L12.8684 6.57034L12.6919 6.65407L12.7756 6.47752L12.5918 6.41199L12.7756 6.34645L12.6919 6.16899L12.8684 6.25363L12.9349 6.06885Z" fill="#FFD200"/>
<path d="M12.1136 7.51157C12.1136 7.51157 11.8096 7.73728 11.8096 7.73728L11.806 7.74181L11.7996 7.73635L11.4629 7.52521C11.4629 7.52521 11.6778 7.45113 11.8042 7.32227C11.9238 7.45922 12.1136 7.51157 12.1136 7.51157Z" fill="#FFD200"/>
<path d="M14.4047 7.5252C14.4047 7.5252 14.1805 7.63684 14.0679 7.73635L14.0615 7.7418L14.0579 7.73727C13.9515 7.61512 13.7539 7.51156 13.7539 7.51156C13.7539 7.51156 13.9437 7.45921 14.0633 7.32227C14.1898 7.45112 14.4047 7.5252 14.4047 7.5252Z" fill="#FFD200"/>
<path d="M12.4574 7.95374L12.5312 8.02742L12.4574 8.10207L12.3828 8.02742L12.4574 7.95374Z" fill="#FFD200"/>
<path d="M13.4116 7.95374L13.4862 8.02742L13.4116 8.10207L13.3379 8.02742L13.4116 7.95374Z" fill="#FFD200"/>
<path d="M12.5572 8.27583C12.6087 8.34691 12.6 8.46182 12.6 8.6217C12.6 8.78289 12.479 8.84465 12.479 8.84465C12.479 8.4572 12.439 8.36405 12.418 8.2467L12.5572 8.27583Z" fill="#FFD200"/>
<path d="M13.4481 8.24658C13.4271 8.36394 13.3872 8.45707 13.3872 8.84446C13.3872 8.84446 13.2662 8.78271 13.2662 8.62153C13.2662 8.46167 13.2574 8.3468 13.3089 8.27572L13.4481 8.24658Z" fill="#FFD200"/>
<path d="M11.9826 8.39331C11.9862 8.40782 11.9866 8.42208 11.9853 8.4361C11.9842 8.44773 11.9811 8.45829 11.9771 8.46885C11.957 8.46149 11.9352 8.45791 11.9125 8.45791C11.8563 8.45791 11.8061 8.48262 11.7714 8.52164C11.7623 8.51361 11.7544 8.50472 11.7478 8.49434C11.7403 8.4828 11.734 8.47018 11.7305 8.45612C11.713 8.38656 11.7556 8.31611 11.8251 8.29868C11.8338 8.29647 11.8429 8.29539 11.8515 8.29504C11.9118 8.29245 11.9673 8.33247 11.9826 8.39331Z" fill="#FFD200"/>
<path d="M11.9147 8.7739C11.984 8.7739 12.0403 8.71767 12.0403 8.6483C12.0403 8.57894 11.984 8.52271 11.9147 8.52271C11.8453 8.52271 11.7891 8.57894 11.7891 8.6483C11.7891 8.71767 11.8453 8.7739 11.9147 8.7739Z" fill="#FFD200"/>
<path d="M14.1184 8.47893C13.9099 8.51926 13.7598 8.70344 13.7817 8.91855C13.7152 8.86351 13.6666 8.78937 13.6579 8.70739C13.641 8.54776 13.7569 8.42432 13.9318 8.42432C13.9987 8.42432 14.063 8.4448 14.1184 8.47893Z" fill="#FFD200"/>
</svg>
