<svg width="625" height="389" viewBox="0 0 625 389" fill="none" xmlns="http://www.w3.org/2000/svg">
<path d="M624.998 367.037C624.998 375.35 622.181 379.955 617.049 379.955H556.437C551.305 379.955 538.212 360.832 516.691 323.317C498.585 291.498 486.952 268.858 480.92 254.756C474.972 241.106 470.797 233.531 469.99 231.902C464.671 223.043 459.131 218.537 452.104 217.991C450.031 217.812 443.854 217.991 434.219 217.991C412.145 217.991 401.429 220.424 401.429 225.94C401.429 242.123 401.343 266.205 402.422 298.476C403.501 330.747 404.409 355.017 404.409 371.012C404.409 376.886 401.872 379.955 397.454 379.955C394.123 379.955 389.219 379.507 382.549 378.961C375.888 378.424 370.984 377.967 367.645 377.967C364.493 377.967 360.038 378.424 353.734 378.961C347.514 379.507 342.975 379.955 339.823 379.955C335.405 379.955 332.867 378.06 332.867 373.993C332.867 354.562 334.047 325.508 335.848 286.552C337.649 247.682 337.835 218.543 337.835 199.112C337.835 178.683 337.649 147.739 335.848 106.703C334.047 65.6585 332.867 34.8167 332.867 14.2944C332.867 10.4065 335.405 8.33251 339.823 8.33251C342.975 8.33251 347.251 8.78048 353.734 9.32615C360.216 9.8633 365.308 10.3198 368.638 10.3198C371.79 10.3198 376.245 9.8633 382.549 9.32615C388.854 8.78048 394.302 8.33251 397.454 8.33251C401.507 8.33251 403.416 10.1375 403.416 13.3007C403.416 28.3066 402.329 50.6775 401.429 80.8684C400.528 111.059 400.435 134.245 400.435 149.43C400.435 156.302 400.528 160.625 401.429 162.347C402.779 165.51 406.505 166.322 412.359 166.322C446.412 166.322 472.021 160.189 487.875 147.442C501.393 136.145 513.56 116.028 525.634 85.8366C534.462 62.1511 543.634 37.9799 552.462 14.2944C553.72 11.3102 556.18 9.42385 560.411 8.33251C563.292 7.61632 572.286 7.33887 588.233 7.33887C607.596 7.33887 618.043 9.86541 618.043 15.288C618.043 18.4512 613.231 32.6154 605.125 58.0146C595.669 87.6684 583.492 113.918 568.36 136.512C558.36 151.885 545.183 167.67 528.615 183.214C524.375 186.922 522.653 190.166 522.653 193.15C522.653 196.313 529.288 212.547 543.519 240.845C555.771 265.434 567.303 284.643 577.303 299.47C588.382 313.026 604.182 333.865 624.004 362.069C624.905 363.698 624.998 365.221 624.998 367.037Z" fill="#D6DCE2"/>
<path d="M360.692 195.137C360.692 247.588 343.501 292.468 310.016 330.273C275.17 369.425 231.655 388.897 179.849 388.897C127.856 388.897 85.3351 369.254 50.6758 330.273C17.1913 292.655 0 247.955 0 195.137C0 142.959 16.8252 96.9921 50.6758 59.0082C85.5139 19.668 128.392 0.383301 179.849 0.383301C231.476 0.383301 275.17 19.668 310.016 59.0082C343.68 96.813 360.692 142.772 360.692 195.137ZM297.099 194.144C297.099 159.512 285.789 129.406 264.309 103.722C241.739 76.503 213.879 62.9828 179.849 62.9828C146.178 62.9828 117.781 76.1362 95.3897 103.722C74.2671 129.491 63.5931 160.591 63.5931 195.137C63.5931 229.598 74.2671 259.79 95.3897 285.559C117.781 313.145 146.178 326.298 179.849 326.298C213.964 326.298 242.741 313.145 265.302 285.559C286.612 259.79 297.099 229.057 297.099 194.144Z" fill="#D6DCE2"/>
</svg>
