<svg width="619" height="385" viewBox="0 0 619 385" fill="none" xmlns="http://www.w3.org/2000/svg">
<path d="M618.335 362.414C618.335 370.625 615.551 375.173 610.481 375.173H550.595C545.525 375.173 532.59 356.284 511.326 319.229C493.438 287.799 481.944 265.436 475.984 251.507C470.108 238.024 465.983 230.542 465.185 228.933C459.93 220.183 454.456 215.731 447.514 215.192C445.466 215.016 439.362 215.192 429.843 215.192C408.034 215.192 397.446 217.595 397.446 223.044C397.446 239.029 397.362 262.816 398.428 294.692C399.494 326.568 400.391 350.54 400.391 366.34C400.391 372.142 397.884 375.173 393.519 375.173C390.229 375.173 385.383 374.73 378.793 374.191C372.212 373.661 367.366 373.21 364.067 373.21C360.953 373.21 356.552 373.661 350.323 374.191C344.179 374.73 339.693 375.173 336.579 375.173C332.214 375.173 329.707 373.301 329.707 369.284C329.707 350.091 330.873 321.393 332.652 282.914C334.432 244.52 334.616 215.737 334.616 196.544C334.616 176.366 334.432 145.801 332.652 105.267C330.873 64.7251 329.707 34.261 329.707 13.99C329.707 10.1497 332.214 8.1011 336.579 8.1011C339.693 8.1011 343.918 8.54359 350.323 9.08258C356.728 9.61315 361.759 10.0641 365.049 10.0641C368.164 10.0641 372.565 9.61315 378.793 9.08258C385.022 8.54359 390.405 8.1011 393.519 8.1011C397.523 8.1011 399.41 9.88403 399.41 13.0085C399.41 27.8307 398.336 49.9276 397.446 79.7488C396.556 109.57 396.464 132.472 396.464 147.471C396.464 154.258 396.556 158.529 397.446 160.23C398.781 163.354 402.461 164.156 408.245 164.156C441.89 164.156 467.192 158.098 482.856 145.508C496.212 134.349 508.233 114.477 520.162 84.6562C528.884 61.2607 537.947 37.3854 546.669 13.99C547.911 11.0424 550.342 9.17908 554.522 8.1011C557.368 7.39368 566.254 7.11963 582.011 7.11963C601.142 7.11963 611.462 9.61523 611.462 14.9714C611.462 18.0959 606.708 32.0866 598.7 57.1749C589.357 86.4655 577.327 112.394 562.376 134.711C552.496 149.896 539.476 165.488 523.107 180.841C518.918 184.504 517.217 187.708 517.217 190.656C517.217 193.78 523.772 209.815 537.833 237.766C549.938 262.054 561.331 281.028 571.212 295.673C582.158 309.064 597.768 329.647 617.353 357.506C618.243 359.115 618.335 360.62 618.335 362.414Z" fill="#ECEDF3"/>
<path d="M357.363 192.701C357.363 244.592 340.362 288.992 307.247 326.393C272.786 365.127 229.752 384.392 178.518 384.392C127.1 384.392 85.0484 364.959 50.7721 326.393C17.6576 289.178 0.65625 244.955 0.65625 192.701C0.65625 141.081 17.2956 95.6046 50.7721 58.0265C85.2253 19.1065 127.63 0.027832 178.518 0.027832C229.575 0.027832 272.786 19.1065 307.247 58.0265C340.538 95.4274 357.363 140.895 357.363 192.701ZM294.473 191.718C294.473 157.457 283.287 127.672 262.045 102.263C239.724 75.3344 212.172 61.9586 178.518 61.9586C145.219 61.9586 117.136 74.9715 94.9919 102.263C74.1028 127.756 63.5467 158.524 63.5467 192.701C63.5467 226.794 74.1028 256.663 94.9919 282.157C117.136 309.448 145.219 322.461 178.518 322.461C212.256 322.461 240.715 309.448 263.027 282.157C284.102 256.663 294.473 226.258 294.473 191.718Z" fill="#ECEDF3"/>
</svg>
