<svg width="182" height="188" viewBox="0 0 182 188" fill="none" xmlns="http://www.w3.org/2000/svg">
<path fill-rule="evenodd" clip-rule="evenodd" d="M0.855469 66.0089V186.409C0.855469 187.685 1.90346 188.734 3.17853 188.734H135.151C136.426 188.734 137.474 187.685 137.474 186.409V172.4L18.9106 16.3237H3.17853C1.90346 16.3237 0.855469 17.3732 0.855469 18.6604V66.0089Z" fill="#B1BECD"/>
<path fill-rule="evenodd" clip-rule="evenodd" d="M18.9111 16.3237V170.074C18.9111 171.351 19.9591 172.4 21.2342 172.4H58.252H137.474H153.206C154.481 172.4 155.529 171.35 155.529 170.074C155.529 90.1754 155.529 115.986 155.529 28.9479V27.4985C155.529 27.2821 155.497 27.1306 155.421 26.9791H136.599C131.456 26.9791 127.253 22.7709 127.253 17.6327L127.274 0.119065C127.091 0.0324388 126.907 0 126.669 0H124.93H21.2342C19.9591 0 18.9111 1.04947 18.9111 2.32564V16.3237Z" fill="#F9F7F7"/>
<path fill-rule="evenodd" clip-rule="evenodd" d="M101.579 0C119.429 18.4116 131.045 48.4411 131.045 82.3543C131.045 89.6995 130.504 96.8607 129.467 103.762C129.132 105.98 128.754 108.165 128.322 110.329C127.792 112.936 127.209 115.489 126.55 118.009C120.38 141.538 108.278 160.912 92.8486 172.4H137.473H153.205C154.48 172.4 155.528 171.351 155.528 170.075V144.004V109.485V28.9479V27.4985C155.528 27.2821 155.496 27.1306 155.42 26.9791L127.274 0.119065C127.09 0.0324388 126.906 0 126.669 0H124.929L101.579 0Z" fill="#EDEFF0"/>
<path fill-rule="evenodd" clip-rule="evenodd" d="M127.274 0.119141L127.252 17.6328C127.252 22.771 131.455 26.9792 136.598 26.9792H155.421C155.269 26.6655 154.913 26.3949 154.21 25.7137L128.765 1.42812C127.976 0.6706 127.619 0.292025 127.274 0.119141Z" fill="#B1BECD"/>
<path d="M109.457 150.13H59.4835C57.9117 150.13 56.6377 148.855 56.6377 147.282C56.6377 145.709 57.9117 144.434 59.4835 144.434H109.457C111.029 144.434 112.303 145.709 112.303 147.282C112.302 148.855 111.028 150.13 109.457 150.13Z" fill="#1D4859"/>
<path d="M109.457 133.092H59.4835C57.9117 133.092 56.6377 131.817 56.6377 130.244C56.6377 128.671 57.9117 127.396 59.4835 127.396H109.457C111.029 127.396 112.303 128.671 112.303 130.244C112.302 131.817 111.028 133.092 109.457 133.092Z" fill="#1D4859"/>
<path fill-rule="evenodd" clip-rule="evenodd" d="M51.7796 35.2654C67.9548 16.8756 95.9612 15.0907 114.33 31.2953C132.709 47.4893 134.481 75.5286 118.306 93.9184C102.12 112.319 74.1137 114.093 55.7449 97.8991C37.3764 81.6945 35.5938 53.6552 51.7796 35.2654Z" fill="#CCDFED"/>
<path d="M78.7383 80.7132H72.2011C63.7519 80.7132 59.3311 73.0223 59.3311 65.425C59.3311 61.5629 60.4107 57.9206 62.3711 55.1692C64.7177 51.8752 68.209 50.0608 72.2015 50.0608H77.604C79.1758 50.0608 80.4498 51.3359 80.4498 52.9088C80.4498 54.4817 79.1758 55.7568 77.604 55.7568H72.2015C70.0392 55.7568 68.2908 56.6717 67.0058 58.4757C65.7455 60.244 65.023 62.7772 65.023 65.4246C65.023 70.0446 67.2697 75.0169 72.2015 75.0169H78.7387C80.3105 75.0169 81.5844 76.292 81.5844 77.8649C81.5844 79.4378 80.3101 80.7132 78.7383 80.7132Z" fill="#F9F7F7"/>
<path d="M96.9951 80.718C96.9811 80.718 96.9667 80.7176 96.9523 80.7176C95.5128 80.7003 94.2415 79.775 93.6336 78.3035C93.6126 78.253 93.593 78.2014 93.575 78.1498L85.1472 53.8424C84.6322 52.3565 85.4181 50.7339 86.9029 50.2181C88.3892 49.7032 90.0093 50.4891 90.5246 51.9754L96.9929 70.6321L103.461 51.9754C103.977 50.4891 105.597 49.7021 107.083 50.2181C108.568 50.7339 109.354 52.3565 108.839 53.8424L100.411 78.1498C100.386 78.2235 100.357 78.2958 100.326 78.3669C99.6746 79.8418 98.432 80.718 96.9951 80.718Z" fill="#F9F7F7"/>
<path fill-rule="evenodd" clip-rule="evenodd" d="M127.252 111.54L136.89 100.582C138.943 98.2452 142.531 98.0182 144.854 100.074L179.948 131.012C182.271 133.068 182.499 136.659 180.445 138.985L170.807 149.943C168.754 152.28 165.178 152.507 162.844 150.451L127.76 119.513C125.426 117.457 125.199 113.877 127.252 111.54Z" fill="#FED9A8"/>
<path fill-rule="evenodd" clip-rule="evenodd" d="M138.349 107.462L155.529 122.606L173.444 138.4C175.767 140.455 175.994 144.036 173.962 146.362L178.846 140.812L180.445 138.984C182.498 136.659 182.272 133.067 179.948 131.012L178.846 130.038L155.529 109.485L144.854 100.074C142.531 98.0182 138.943 98.2452 136.89 100.582L132.071 106.056L130.386 107.97C132.439 105.645 136.026 105.418 138.349 107.462Z" fill="#F4C892"/>
<path fill-rule="evenodd" clip-rule="evenodd" d="M9.5752 16.3237V179.215C9.5752 180.492 10.6232 181.541 11.8983 181.541H48.9161H137.474V172.4H92.8492H58.2514H21.2336C19.9586 172.4 18.9106 171.351 18.9106 170.074V16.3237H9.5752Z" fill="#7991AD"/>
<path fill-rule="evenodd" clip-rule="evenodd" d="M118.306 93.9185C134.481 75.5286 132.709 47.4894 114.329 31.2954C104.302 22.4466 91.3903 18.9635 79.1048 20.6182C87.1979 21.8623 95.0315 25.3565 101.633 31.1763C120.002 47.3703 121.785 75.4096 105.598 93.8101C100.455 99.6624 94.1018 103.838 87.2407 106.283C84.3234 107.321 81.3195 108.046 78.2725 108.457C81.8706 109.009 85.5225 109.117 89.1424 108.782C100.002 107.776 110.526 102.767 118.306 93.9185Z" fill="#7991AD"/>
<path d="M133.953 103.919L122.256 93.6051C137.466 74.0758 135.017 45.7284 116.211 29.1588C106.758 20.8187 94.6258 16.6651 82.0513 17.465C69.4787 18.2641 57.9692 23.9173 49.6432 33.3836L49.6439 33.3828C32.4517 52.9161 34.3442 82.8166 53.8635 100.036C62.5512 107.696 73.4975 111.822 84.9708 111.821C85.9842 111.821 87.0038 111.789 88.0241 111.724C99.6479 110.985 110.362 106.095 118.496 97.8807L130.19 108.192C130.732 108.669 131.403 108.903 132.07 108.903C132.859 108.903 133.644 108.577 134.207 107.938C135.245 106.758 135.132 104.959 133.953 103.919ZM87.6633 106.039C76.6061 106.742 65.94 103.092 57.626 95.763C40.4611 80.62 38.7964 54.3254 53.9148 37.1479C53.9151 37.1476 53.9151 37.1472 53.9155 37.1472C61.2367 28.8233 71.3569 23.8525 82.4122 23.1499C83.3106 23.0927 84.2045 23.0643 85.0965 23.0643C95.1846 23.0643 104.811 26.6945 112.449 33.433C129.616 48.559 131.286 74.8466 116.173 92.0333C116.172 92.034 116.171 92.0347 116.171 92.0355C116.17 92.0366 116.169 92.0373 116.168 92.0384C108.843 100.364 98.7197 105.337 87.6633 106.039Z" fill="#1D4859"/>
</svg>
