<svg width="76" height="76" viewBox="0 0 76 76" fill="none" xmlns="http://www.w3.org/2000/svg">
<path d="M71.5566 61.2185C71.3746 62.7354 71.1712 64.2508 70.948 65.7678C48.9829 67.5722 27.0179 67.5722 5.05271 65.7678C4.82946 64.2509 4.6261 62.7354 4.44411 61.2185C2.84455 47.8887 2.83846 34.5588 4.42882 21.229C4.7545 18.5025 6.97186 16.3938 9.71053 16.1995C28.5698 14.869 47.4307 14.869 66.29 16.1995C69.0288 16.3937 71.246 18.5025 71.5717 21.229C73.1622 34.5588 73.1561 47.8887 71.5566 61.2185Z" fill="#617881"/>
<path d="M71.5558 61.2185C71.3738 62.7354 71.1705 64.2508 70.9472 65.7678C48.9822 67.5722 27.0171 67.5722 5.05195 65.7678C4.8287 64.2509 4.62534 62.7354 4.44336 61.2185C4.74766 61.1649 5.06116 61.1375 5.38074 61.1375H70.6184C70.938 61.1375 71.2515 61.1649 71.5558 61.2185Z" fill="#404A4A"/>
<path d="M65.5337 60.0442C64.526 60.1145 63.5182 60.1803 62.509 60.2429C54.3386 60.7491 46.127 61.0044 37.9995 61.0044C29.8719 61.0044 21.6602 60.7491 13.4899 60.2429C12.4807 60.1803 11.4729 60.1145 10.4652 60.0442C8.99566 47.4835 8.99418 34.8052 10.4637 22.2796C11.4715 22.2092 12.4807 22.1435 13.4899 22.0808C21.6434 21.5746 29.8719 21.3193 37.9995 21.3193C46.127 21.3193 54.3555 21.5746 62.509 22.0808C63.5182 22.1435 64.5275 22.2092 65.5352 22.2796C67.0049 34.8052 67.0033 47.4835 65.5337 60.0442Z" fill="#ADD9F3"/>
<path d="M70.6196 64.7249H5.38041C2.40884 64.7249 0 67.1337 0 70.1053C0 73.0768 2.40884 75.4857 5.38041 75.4857H70.6194C73.591 75.4857 75.9998 73.0768 75.9998 70.1053C76 67.1337 73.5912 64.7249 70.6196 64.7249Z" fill="#617881"/>
<path d="M9.79584 73.9099C10.7699 74.8839 12.1141 75.4864 13.6004 75.4864H5.38116C3.89485 75.4864 2.54912 74.8839 1.57507 73.9099C0.602508 72.9373 0 71.5916 0 70.1053C0 67.1341 2.4084 64.7256 5.38116 64.7256H13.6004C10.6293 64.7256 8.22077 67.134 8.22077 70.1053C8.22091 71.5916 8.82327 72.9373 9.79584 73.9099Z" fill="#404A4A"/>
<path d="M13.4902 38H62.5095V60.2434C54.3391 60.7495 46.1275 61.0049 37.9999 61.0049C29.8724 61.0049 21.6607 60.7495 13.4904 60.2434V38H13.4902Z" fill="white"/>
<path d="M37.9999 62.1512C29.8695 62.1512 21.5995 61.8943 13.4192 61.3875C12.3301 61.3198 11.338 61.2547 10.3855 61.1882C9.83534 61.1497 9.39033 60.7252 9.3262 60.1773C7.84747 47.5376 7.84702 34.7419 9.32472 22.1458C9.38914 21.5983 9.83401 21.1737 10.384 21.1354C11.3268 21.0697 12.3196 21.0045 13.4191 20.9361C21.5825 20.4293 29.8526 20.1724 37.9999 20.1724C46.1472 20.1724 54.4172 20.4293 62.5807 20.9361C63.68 21.0044 64.6729 21.0695 65.6158 21.1354C66.1657 21.1739 66.6106 21.5983 66.675 22.1458C68.1527 34.7419 68.1523 47.5376 66.6735 60.1773C66.6094 60.7252 66.1644 61.1497 65.6143 61.1882C64.6618 61.2547 63.6696 61.3198 62.5807 61.3875C54.4003 61.8943 46.1302 62.1512 37.9999 62.1512ZM65.5343 60.044H65.5358H65.5343ZM11.4968 58.965C12.153 59.009 12.8356 59.053 13.5613 59.0982C21.6943 59.602 29.9167 59.8574 37.9999 59.8574C46.083 59.8574 54.3054 59.602 62.4386 59.098C63.1643 59.0529 63.8468 59.009 64.5029 58.965C65.8171 47.1265 65.8175 35.1577 64.5047 23.3586C63.8522 23.3148 63.1691 23.2708 62.4383 23.2254C54.3221 22.7216 46.0998 22.4662 37.9997 22.4662C29.8996 22.4662 21.6774 22.7216 13.5611 23.2256C12.8304 23.271 12.1474 23.3149 11.4947 23.3587C10.1822 35.1577 10.1827 47.1267 11.4968 58.965Z" fill="#ADD9F3"/>
<path d="M62.5093 5.31384V40.3488H13.4902V5.31384C13.4902 2.6623 15.6387 0.513672 18.2903 0.513672H57.7093C60.3609 0.513672 62.5093 2.66216 62.5093 5.31384Z" fill="white"/>
<path d="M48.0997 40.635H27.8998C27.2662 40.635 26.7529 40.1215 26.7529 39.4881C26.7529 38.8548 27.2664 38.3413 27.8998 38.3413H48.0999C48.7334 38.3413 49.2467 38.8548 49.2467 39.4881C49.2467 40.1215 48.7333 40.635 48.0997 40.635Z" fill="#617881"/>
<path d="M33.355 51.7685H20.4056C19.7721 51.7685 19.2588 51.2551 19.2588 50.6217C19.2588 49.9883 19.7722 49.4749 20.4056 49.4749H33.355C33.9885 49.4749 34.5018 49.9883 34.5018 50.6217C34.502 51.2551 33.9885 51.7685 33.355 51.7685Z" fill="#617881"/>
<path d="M52.7791 57.3354H23.221C22.5875 57.3354 22.0742 56.822 22.0742 56.1886C22.0742 55.5552 22.5877 55.0417 23.221 55.0417H52.7793C53.4128 55.0417 53.9261 55.5552 53.9261 56.1886C53.9261 56.822 53.4126 57.3354 52.7791 57.3354Z" fill="#617881"/>
<path d="M55.5948 46.2019H20.4056C19.7721 46.2019 19.2588 45.6884 19.2588 45.055C19.2588 44.4217 19.7722 43.9082 20.4056 43.9082H55.5948C56.2283 43.9082 56.7416 44.4217 56.7416 45.055C56.7418 45.6884 56.2283 46.2019 55.5948 46.2019Z" fill="#617881"/>
<path d="M55.5948 23.9345H20.4056C19.7721 23.9345 19.2588 23.4211 19.2588 22.7877C19.2588 22.1543 19.7722 21.6409 20.4056 21.6409H55.5948C56.2283 21.6409 56.7416 22.1543 56.7416 22.7877C56.7416 23.4211 56.2283 23.9345 55.5948 23.9345Z" fill="#617881"/>
<path d="M37.0162 35.0683H20.4056C19.7721 35.0683 19.2588 34.5549 19.2588 33.9215C19.2588 33.2881 19.7722 32.7747 20.4056 32.7747H37.0162C37.6497 32.7747 38.163 33.2881 38.163 33.9215C38.163 34.5549 37.6497 35.0683 37.0162 35.0683Z" fill="#617881"/>
<path d="M55.5948 29.5014H20.4056C19.7721 29.5014 19.2588 28.988 19.2588 28.3546C19.2588 27.7212 19.7722 27.2078 20.4056 27.2078H55.5948C56.2283 27.2078 56.7416 27.7212 56.7416 28.3546C56.7418 28.9878 56.2283 29.5014 55.5948 29.5014Z" fill="#617881"/>
</svg>
