<svg width="24" height="24" viewBox="0 0 24 24" fill="none" xmlns="http://www.w3.org/2000/svg">
<path d="M7.2635 20.0038C6.37937 20.0038 5.49822 19.6476 4.85572 18.9455C4.26745 18.3027 3.96473 17.4694 4.00327 16.5988C4.04182 15.7284 4.41703 14.925 5.05984 14.3368L13.7599 6.37472C14.1555 6.01272 14.6685 5.82623 15.204 5.85015C15.7397 5.87387 16.2341 6.10479 16.596 6.50035C16.958 6.89591 17.1444 7.40873 17.1206 7.94441C17.0969 8.48009 16.866 8.97448 16.4704 9.33645L8.69589 16.4515L8.01825 15.7111L15.7928 8.59605C15.9906 8.41505 16.1061 8.16787 16.1179 7.90001C16.1298 7.63216 16.0366 7.37575 15.8556 7.17795C15.6746 6.98015 15.4275 6.86473 15.1596 6.85285C14.8914 6.84091 14.6353 6.93415 14.4376 7.11512L5.73751 15.0772C5.29246 15.4845 5.03274 16.0406 5.00604 16.6433C4.97934 17.2459 5.18892 17.8229 5.59618 18.2679C6.00342 18.7129 6.55961 18.9727 7.16223 18.9994C7.76479 19.0261 8.34185 18.8165 8.78682 18.4092L17.8571 10.1083C18.5493 9.47479 18.9534 8.60963 18.995 7.67221C19.0365 6.73478 18.7105 5.8373 18.077 5.14508C17.4435 4.45286 16.5783 4.04874 15.6409 4.00722C14.7033 3.96577 13.8059 4.2917 13.1138 4.92521L4.96897 12.3791L4.29134 11.6387L12.4361 4.18481C13.3262 3.3703 14.4802 2.95126 15.6853 3.00452C16.8905 3.05792 18.0029 3.57747 18.8174 4.46745C20.4988 6.30473 20.372 9.16736 18.5347 10.8487L9.46439 19.1496C8.83955 19.7214 8.05034 20.0037 7.2635 20.0038Z" fill="#263238" stroke="#263238" stroke-width="0.2"/>
</svg>
