<svg width="606" height="221" viewBox="0 0 606 221" fill="none" xmlns="http://www.w3.org/2000/svg">
<path d="M543.569 217.461C543.569 217.461 537.283 210.27 535.504 206.995L530.613 197.958L524.211 199.541L532.337 211.065L540.825 218.253L543.569 217.461Z" fill="#E0A8A4"/>
<path d="M503.083 40.8465C501.607 40.0063 499.837 39.9147 498.599 39.9879C498.871 39.7605 499.197 39.6059 499.545 39.5385C498.777 39.4238 497.064 40.1864 497.064 40.1864C486.386 36.069 484.708 51.8023 484.932 55.4578C485.156 59.1133 481.344 60.3062 475.788 63.1862C465.189 68.6811 464.258 76.0393 464.258 76.0393C464.34 76.088 464.427 76.1435 464.518 76.2066C465.044 75.315 466.127 73.6408 467.04 73.3881C467.005 73.4692 465.962 75.6932 465.572 76.9683C468.699 79.3487 474.548 84.6233 478.625 88.363C478.607 87.632 478.636 86.5942 478.903 86.0464L479.408 89.0816C481.589 91.0885 483.094 92.5011 483.094 92.5011C482.824 89.5472 496.443 73.9594 503.549 69.2911C505.279 66.7437 505.893 62.2411 505.939 61.8868C505.641 65.4562 505.031 67.4583 504.485 68.5856C510.5 63.043 506.998 43.0722 503.083 40.8465Z" fill="#163560"/>
<path d="M503.126 69.5225C503.162 69.5385 499.695 71.3396 497.088 70.6259C494.636 69.9567 493.033 66.7747 493.067 66.7673C494.106 66.5608 494.405 65.1326 494.383 58.9951L494.853 59.0869L502.747 60.6512C502.747 60.6512 502.568 63.1376 502.562 65.4796C502.557 67.4473 502.676 69.3125 503.126 69.5225Z" fill="#CD968B"/>
<path d="M494.199 43.4223C494.199 43.4223 498.094 39.2732 502.983 43.21C502.983 43.21 500.138 42.7175 494.199 43.4223Z" fill="#00AB5B"/>
<path d="M494.04 58.2278C494.04 58.2278 491.725 54.567 491.169 51.4368C490.773 49.2019 491.91 40.9183 500.228 42.1115C501.903 42.3442 503.505 42.9501 504.915 43.8846C506.721 45.1051 509.327 47.7402 506.413 54.9695L505.656 57.4112L494.04 58.2278Z" fill="#163560"/>
<path d="M534.215 203.836L530.03 203.965L525.5 204.103C525.5 204.103 515.037 192.446 509.168 173.758C509.031 173.324 508.886 172.884 508.734 172.439C505.522 163.067 498.864 151.303 495.355 140.654C494.796 138.957 494.295 137.361 493.845 135.85C493.701 135.366 493.56 134.891 493.427 134.423C490.841 125.431 490.092 119.528 489.402 113.22L514.74 113.423C514.74 113.423 518.832 156.494 534.215 203.836Z" fill="#80BDCC"/>
<path d="M512.964 116.097C512.964 116.097 502.117 121.612 489.222 117.552C489.07 117.505 490.073 67.6766 493.73 66.3051C494.571 67.3532 497.062 68.402 499.292 68.3518C501.861 68.2953 502.694 67.1949 502.56 65.9937C505.297 67.5178 507.481 68.9574 507.481 68.9574C509.808 73.0003 512.964 116.097 512.964 116.097Z" fill="#F1A34F"/>
<path d="M489.401 100.199C488.293 101.768 486.17 111.303 480.887 112.501C483.609 105.706 485.676 102.726 485.999 100.636C486.598 96.7345 486.611 92.6997 486.313 88.8932C488.081 85.7915 489.401 83.6647 489.401 83.6647C489.54 83.163 492.212 74.8962 493.068 82.2856C493.924 89.6751 490.639 98.4441 489.401 100.199Z" fill="#5F9AA8"/>
<path d="M504.225 62.8696C504.225 62.8696 493.773 63.0422 493.766 56.5267C493.759 50.0112 492.405 45.6452 499.078 45.2596C505.751 44.874 507.05 47.3586 507.581 49.5329C508.113 51.7072 506.944 62.6569 504.225 62.8696Z" fill="#E0A8A4"/>
<path d="M503.836 45.0999C503.836 45.0999 500.974 52.7438 496.582 53.8741C492.19 55.0044 490.285 53.8266 490.285 53.8266C492.452 51.9218 493.89 49.3226 494.353 46.4737C494.353 46.4737 501.677 41.4612 503.836 45.0999Z" fill="#163560"/>
<path d="M503.125 45.7205C503.125 45.7205 505.262 47.427 505.783 49.0863C506.305 50.7456 506.539 54.161 507.534 54.0449C507.534 54.0449 509.689 48.8493 507.266 45.9103C504.697 42.7936 503.125 45.7205 503.125 45.7205Z" fill="#163560"/>
<path d="M546.285 73.6831C546.285 73.6831 547.759 68.3688 553.597 69.1195C554.267 69.3295 556.225 70.1109 554.973 72.2086C554.05 73.7545 553.651 72.9567 552.2 75.0346C550.749 77.1125 549.174 77.582 547.375 77.3328L546.285 73.6831Z" fill="#E0A8A4"/>
<path d="M496.392 216.385C496.036 214.427 495.36 211.041 495.36 211.041L495.518 199.028H488.227L490.956 210.526C491.105 212.148 490.914 213.784 490.395 215.328C490.395 215.328 489.695 218.52 492.837 218.579C495.979 218.639 496.748 218.342 496.392 216.385Z" fill="#E0A8A4"/>
<path d="M496.69 220.141H490.156C489.83 218.431 490.395 215.332 490.395 215.332C493.951 218.781 496.178 215.246 496.178 215.246C496.708 216.594 496.697 219.637 496.69 220.141Z" fill="#233862"/>
<path d="M546.622 220.163H538.567C537.868 219.513 537.198 218.232 536.383 216.558C535.909 215.588 534.848 215.054 533.76 214.76V220.163H532.091L530.559 214.416C529.532 212.483 530.318 210.744 531.04 209.217C531.88 209.215 534.297 209.791 538.576 214.735C539.983 216.357 541.535 216.938 543.077 216.888C543.097 216.901 543.119 216.912 543.141 216.922C545.553 218.036 546.357 219.402 546.622 220.163Z" fill="#233862"/>
<path d="M546.284 73.683C546.284 73.683 539.423 77.5218 536.973 78.6289C535.576 79.2598 532.361 80.7663 530.095 81.8314C529.394 82.1607 528.604 82.2506 527.847 82.0873C527.09 81.924 526.408 81.5165 525.905 80.9274C522.185 76.5793 512.503 67.1489 502.559 65.9922C502.559 65.9922 508.606 80.9425 508.784 83.9682C508.962 86.994 509.495 133.446 509.495 133.446C509.495 133.446 509.139 135.582 513.229 134.692C517.32 133.802 518.387 132.912 518.387 132.912C518.387 132.912 514.475 104.258 515.542 94.2909C515.752 92.3264 515.56 90.1175 515.119 87.8369C521.177 91.5245 528.347 93.1638 528.347 93.1638C528.347 93.1638 533.706 90.8229 541.033 85.4515C543.333 83.7651 547.374 77.3327 547.374 77.3327L546.284 73.683Z" fill="#00AB5B"/>
<path d="M530.029 203.964L525.499 204.103C525.499 204.103 515.036 192.446 509.167 173.758C509.029 173.324 508.885 172.884 508.733 172.439C505.521 163.067 498.863 151.302 495.354 140.653C494.795 138.957 494.294 137.361 493.844 135.85C493.7 135.366 493.559 134.89 493.426 134.423L497.157 131.589C497.157 131.589 508.359 149.742 511.828 166.827C514.84 181.667 526.905 199.524 530.029 203.964Z" fill="#5F9AA8"/>
<path d="M497.547 168.419C497.611 176.727 497.191 195.827 496.11 203.735H492.097C489.879 203.735 488.773 203.703 488.773 203.703C486.061 189.954 484.131 178.578 482.726 168.775C481.574 160.73 480.549 153.834 479.761 147.896C478.968 141.921 478.417 136.918 478.219 132.691C478.189 132.026 478.166 131.378 478.154 130.75C478.141 130.118 478.138 129.504 478.143 128.908L500.036 126.772C499.761 141.329 497.511 163.59 497.547 168.419Z" fill="#80BDCC"/>
<path d="M492.096 203.735C489.878 203.735 488.772 203.703 488.772 203.703C486.06 189.954 484.131 178.578 482.725 168.775C481.573 160.73 480.549 153.834 479.761 147.896C478.968 141.921 478.416 136.919 478.219 132.691L486.252 137.42C486.252 137.42 481.125 139.231 483.081 152.935C485.037 166.639 489.373 201.795 492.096 203.735Z" fill="#5F9AA8"/>
<path d="M493.132 132.557C493.132 132.557 491.591 138.132 486.255 137.42C480.92 136.708 473.332 133.504 473.332 133.504C473.332 133.504 475.613 126.295 478.446 116.823C478.477 116.723 478.506 116.622 478.537 116.52C481.883 105.336 485.971 91.0982 488.004 81.8342C488.047 81.6366 488.089 81.4411 488.131 81.249C488.612 79.152 488.975 77.0296 489.219 74.8918L493.727 66.3037C493.727 66.3037 500.245 81.1209 500.601 84.8588C500.958 88.5966 493.132 132.557 493.132 132.557Z" fill="#00AB5B"/>
<path d="M487.806 84.3018L493.728 66.3042C493.713 66.3115 486.27 68.49 482.566 70.3622C482.566 70.3622 480.251 73.3492 478.818 80.2397C478.818 80.2397 477.305 96.7831 480.684 102.834C480.684 102.834 491.355 104.97 508.428 99.097V95.1814C508.428 95.1814 489.754 96.1603 485.931 96.6044L487.806 84.3018Z" fill="#E0A8A4"/>
<path d="M492.384 92.6891C492.149 98.6591 490.76 110.173 478.539 116.52C481.885 105.336 485.973 91.0985 488.006 81.8345C490.221 85.2389 492.504 89.5415 492.384 92.6891Z" fill="#009444"/>
<path d="M493.729 66.3042C493.729 66.3042 482.819 67.0616 480.21 72.8748C477.602 78.688 476.772 98.0292 480.092 103.724C480.092 103.724 484.663 105.027 492.747 103.514C492.845 103.496 492.945 103.477 493.045 103.457C493.045 103.457 495.623 97.1392 493.311 95.8933C493.311 95.8933 486.494 96.2494 487.205 93.9951C487.917 91.7407 493.729 66.3042 493.729 66.3042Z" fill="#00AB5B"/>
<path d="M506.512 96.2229C506.512 96.2229 508 94.4186 508.317 92.5766C508.634 90.7346 509.619 89.3684 512.187 89.0308C514.754 88.6932 515.858 88.6568 515.852 89.3808C515.845 90.1049 513.754 95.1621 510.069 98.1821C506.385 101.202 506.512 96.2229 506.512 96.2229Z" fill="#E0A8A4"/>
<path d="M494.816 119.043H480.348C476.473 119.043 473.332 122.187 473.332 126.064V132.123C473.332 136 476.473 139.144 480.348 139.144H494.816C498.691 139.144 501.832 136 501.832 132.123V126.064C501.832 122.187 498.691 119.043 494.816 119.043Z" fill="#2B478B"/>
<path d="M467.992 127.705V132.123C467.992 133.985 468.731 135.771 470.047 137.088C471.363 138.404 473.147 139.144 475.008 139.144H489.477C491.337 139.144 493.122 138.404 494.437 137.088C495.753 135.771 496.492 133.985 496.492 132.123V128.098L482.242 130.719L467.992 127.705Z" fill="#415783"/>
<path d="M496.492 126.064C496.492 124.202 495.753 122.416 494.438 121.1C493.122 119.783 491.337 119.043 489.477 119.043H475.008C473.147 119.043 471.363 119.783 470.047 121.1C468.731 122.416 467.992 124.202 467.992 126.064L482.242 129.094L496.492 126.064Z" fill="#415783"/>
<path d="M482.242 129.094L467.992 126.064V127.704L482.242 130.719L496.492 128.098V126.064L482.242 129.094Z" fill="#2B478B"/>
<path d="M491.271 95.8903C490.819 94.9131 487.984 95.3044 487.984 95.3044C494.566 96.882 498.724 126.065 498.724 126.065H500.037C497.609 106.765 491.723 96.8676 491.271 95.8903Z" fill="#2B478B"/>
<path d="M471.574 119.94L478.477 98.292L478.959 100.717L472.944 119.351L471.574 119.94Z" fill="#2B478B"/>
<path d="M206.083 98.2949C206.083 98.2949 203.43 97.4122 202.149 97.6777C200.867 97.9433 196.891 99.8002 196.802 100.198C196.748 100.423 196.748 100.658 196.802 100.883H206.083C206.083 100.883 208.157 100.479 208.511 99.2552C208.865 98.0312 206.083 98.2949 206.083 98.2949Z" fill="#E0A8A4"/>
<path d="M240.707 215.316C240.683 215.658 240.56 215.985 240.354 216.259C240.148 216.533 239.868 216.741 239.547 216.859C239.544 216.861 239.54 216.863 239.536 216.862C238.3 217.404 236.228 217.281 233.988 216.979C233.701 216.942 233.444 216.911 233.212 216.889C233.152 216.884 233.091 216.878 233.032 216.875C232.985 216.871 232.938 216.868 232.893 216.864C230.662 216.717 230.837 217.405 226.575 217.384C221.717 217.358 220.075 215.721 219.851 215.023C219.664 214.431 221.791 213.971 224.169 213.442C224.284 213.417 224.399 213.39 224.516 213.365C224.832 213.295 225.151 213.221 225.468 213.149C228.303 212.483 231.11 211.643 232.039 208.917C233.024 206.025 232.79 197.448 232.79 197.448H241.394C241.394 197.448 239.136 206.925 239.372 209.656C239.5 211.114 240.198 211.529 240.466 212.792C240.486 212.881 240.503 212.97 240.519 213.058C240.683 213.799 240.746 214.558 240.707 215.316Z" fill="#AD7041"/>
<path d="M250.723 122.598C249.997 126.677 248.961 130.893 248.061 135.277C246.616 142.327 245.525 149.815 246.642 157.879C246.79 159.012 246.869 160.152 246.879 161.294C247.096 175.546 240.733 201.376 240.733 201.376C240.733 201.376 239.004 202.122 236.108 201.979C234.617 201.905 232.328 200.943 232.328 200.943C232.328 200.943 231.726 184.928 231.689 163.392C231.663 147.78 228.6 127.226 227.981 115.147C227.607 107.838 228.42 98.0994 228.42 98.0994C228.42 98.0994 241.105 87.8917 245.662 93.1145C250.163 98.2752 253.44 107.338 250.723 122.598Z" fill="#2B478B"/>
<path d="M246.641 157.88C246.789 159.012 246.869 160.152 246.878 161.294C237.378 147.52 235.277 117.484 235.277 117.484L245.712 122.552C245.712 122.552 246.856 128.184 248.061 135.277C246.615 142.327 245.524 149.816 246.641 157.88Z" fill="#355493"/>
<path d="M268.157 215.316C268.132 215.658 268.009 215.985 267.803 216.259C267.598 216.533 267.317 216.741 266.996 216.859C266.993 216.861 266.989 216.863 266.986 216.862C265.75 217.404 263.677 217.281 261.437 216.979C261.151 216.942 260.893 216.911 260.662 216.889C260.601 216.884 260.54 216.878 260.481 216.875C260.435 216.871 260.387 216.868 260.342 216.864C258.112 216.717 258.286 217.405 254.024 217.384C249.166 217.358 247.524 215.721 247.301 215.023C247.113 214.431 249.24 213.971 251.619 213.442C251.733 213.417 251.848 213.39 251.965 213.365C252.282 213.295 252.6 213.221 252.917 213.149C255.752 212.483 258.559 211.643 259.488 208.917C260.473 206.025 259.066 197.58 259.066 197.58L267.036 196.914C267.036 196.914 266.542 206.538 266.778 209.269C266.907 210.728 267.647 211.529 267.915 212.793C267.935 212.882 267.953 212.97 267.968 213.059C268.132 213.799 268.195 214.559 268.157 215.316Z" fill="#AD7041"/>
<path d="M267.032 202.105C267.032 202.105 264.983 203.076 263.508 203.371C262.033 203.666 258.967 203.089 258.967 203.089C258.11 194.057 256.662 185.09 254.635 176.246C251.792 163.787 247.564 149.064 241.668 135.122C240.408 132.145 235.215 118.051 234.334 114.494C231.669 103.747 234.345 104.905 234.345 104.905L257.636 102.169C257.636 102.169 260.506 103.646 261.828 118.821C262.223 123.365 262.272 142.987 262.868 146.709C263.432 150.232 264.093 153.161 264.868 155.064C269.196 165.692 267.032 202.105 267.032 202.105Z" fill="#2B478B"/>
<path d="M268.156 215.316C268.131 215.658 268.008 215.985 267.802 216.259C267.596 216.533 267.316 216.741 266.995 216.859C266.992 216.861 266.988 216.863 266.985 216.862C265.677 217.329 263.636 217.23 261.441 216.966C261.154 216.932 260.896 216.907 260.662 216.889C260.601 216.884 260.54 216.878 260.481 216.875C260.435 216.871 260.387 216.868 260.342 216.864C258.112 216.717 258.286 217.405 254.024 217.384C249.166 217.358 247.524 215.721 247.301 215.023C247.113 214.431 249.24 213.971 251.619 213.442C253.908 214.516 256.439 214.965 258.957 214.745C262.229 214.431 265.568 213.119 267.915 212.792C267.934 212.881 267.952 212.97 267.967 213.058C268.131 213.799 268.194 214.559 268.156 215.316Z" fill="#B84C42"/>
<path d="M240.71 215.316C240.685 215.658 240.563 215.985 240.357 216.259C240.151 216.533 239.871 216.741 239.549 216.859C239.546 216.861 239.543 216.863 239.539 216.862C238.232 217.329 236.192 217.23 233.996 216.966C233.709 216.932 233.45 216.907 233.216 216.889C233.155 216.884 233.095 216.878 233.036 216.875C232.989 216.871 232.941 216.868 232.896 216.864C230.666 216.717 230.841 217.405 226.579 217.384C221.721 217.358 220.078 215.721 219.855 215.023C219.668 214.431 221.795 213.971 224.173 213.442C226.462 214.516 228.994 214.965 231.512 214.745C234.783 214.431 238.123 213.119 240.469 212.792C240.489 212.881 240.506 212.97 240.522 213.058C240.685 213.799 240.749 214.559 240.71 215.316Z" fill="#B84C42"/>
<path d="M231.396 32.3752C230.609 25.9455 232.616 15.6568 245.44 17.3009C258.263 18.9451 262.305 31.5568 259.718 37.1646C257.132 42.7724 263.441 44.1247 265.422 50.1543C267.124 55.3348 267.716 61.767 270.47 64.6536C279.348 73.9608 261.947 88.2729 251.459 85.2549C232.352 79.7577 229.891 78.9375 230.569 63.914C230.917 56.2165 236.901 53.2342 233.101 51.0071C223.922 45.6281 233.176 46.9234 231.396 32.3752Z" fill="#353535"/>
<path d="M250.237 49.2127L246.712 58.3468L239.079 58.7204L235.277 53.0224C239.589 49.7507 239.407 43.4897 239.195 41.3028C239.147 40.8103 239.099 40.5243 239.099 40.5243L248.641 37.6177C248.755 40.1422 248.897 42.1159 249.048 43.6602C249.582 49.0837 250.237 49.2127 250.237 49.2127Z" fill="#E0A8A4"/>
<path d="M235.247 48.8838C235.738 48.8838 244.065 47.1881 258.13 50.7887C258.13 50.7887 250.427 86.103 253.044 92.7589C254.635 96.8255 255.844 101.031 256.655 105.322L228.269 105.675C228.269 105.675 228.666 82.8287 227.358 74.7429C226.05 66.6572 235.247 48.8838 235.247 48.8838Z" fill="#E0A8A4"/>
<path d="M256.176 88.2743C256.591 92.949 260.955 103.631 260.011 105.906C259.022 108.296 257.647 109.506 254.64 110.198C252.567 110.676 249.719 110.906 245.687 111.107C237.135 111.532 227.971 110.457 226.724 106.388C226.126 104.436 226.357 96.8805 226.673 93.3926C227.328 86.175 225.955 75.8182 225.756 69.1161C225.591 63.5261 228.96 50.8054 228.96 50.8054C228.96 50.8054 230.48 49.8454 235.25 48.8843C235.25 48.8843 235.751 55.4918 239.197 56.0605C245.155 57.0446 249.956 51.5827 251.358 49.3844C251.358 49.3844 258.201 51.1123 260.209 53.4034C262.111 55.5726 259.509 71.6433 258.931 73.1844C258.431 74.5073 257.959 75.7984 257.548 77.0956C256.459 80.5174 255.794 83.9934 256.176 88.2743Z" fill="#B2CBFD"/>
<path d="M280.537 98.3174C280.537 98.3174 283.19 97.4425 284.472 97.7056C285.753 97.9686 289.73 99.8092 289.818 100.204C289.872 100.427 289.872 100.659 289.818 100.882H280.537C280.537 100.882 278.463 100.482 278.109 99.2694C277.756 98.0565 280.537 98.3174 280.537 98.3174Z" fill="#FFB27D"/>
<path d="M249.047 44.2645C245.566 41.9295 241.19 41.8141 239.194 41.907C239.146 41.4145 239.098 41.1288 239.098 41.1288L248.639 38.2222C248.754 40.7464 248.895 42.7199 249.047 44.2645Z" fill="#CD968B"/>
<path d="M236.606 41.1725C236.606 41.1725 248.028 43.4675 249.347 36.3278C250.666 29.188 253.029 24.6747 245.793 22.9071C238.556 21.1395 236.631 23.6013 235.612 25.8775C234.592 28.1537 233.669 40.3913 236.606 41.1725Z" fill="#E0A8A4"/>
<path d="M251.561 23.3803C249.628 21.2042 246.84 20.7807 244.807 20.8159C246.032 19.3292 241.104 16.0712 235.47 21.6281C233.042 24.022 233.409 28.7281 234.709 31.4587C234.709 31.4587 236.706 25.6064 240.34 24.3309C241.169 24.0209 241.941 23.5745 242.623 23.0101C243.066 24.1225 243.956 25.6966 245.747 27.6556C249.503 31.7653 248.771 40.0757 248.771 40.0757C248.771 40.0757 254.938 27.1826 251.561 23.3803Z" fill="#353535"/>
<path d="M240.165 37.6591C240.165 37.6591 239.859 38.5065 237.709 38.1218C237.709 38.1218 235.903 37.7991 236.069 36.8481C236.069 36.8483 237.911 36.3707 240.165 37.6591Z" fill="white"/>
<path d="M271.503 81.2203C267.182 64.5333 264.812 55.0057 261.272 52.1225C258.141 49.5727 251.389 49.3391 251.389 49.3391C251.293 51.347 251.371 53.3596 251.625 55.3538L243.32 71.1925C243.32 71.1925 239.064 79.6186 237.552 88.8344C236.41 79.6822 235.276 71.1925 235.276 71.1925C234.618 67.764 234.148 64.3022 233.867 60.8223C234.868 56.9578 234.764 52.9232 235.233 48.8833L234.711 48.9134C233.071 49.0281 227.958 49.5498 225.351 51.6915C221.811 54.6001 221.017 67.3734 215.12 81.0466C215.12 81.0466 207.974 93.0701 205.699 97.84C206.039 98.3078 206.475 98.6975 206.978 98.9832C207.564 99.2965 208.194 99.5208 208.846 99.6487C208.846 99.6487 221.736 86.9461 222.583 84.9377C222.862 84.277 224.422 81.9604 226.358 78.5528C226.358 78.5528 226.872 96.7026 225.745 104.535C225.627 105.344 225.756 106.171 226.115 106.906C226.475 107.641 227.047 108.25 227.759 108.654C235.72 113.154 259.569 125.412 264.007 113.507C264.504 112.172 255.789 89.4977 256.982 84.5896C257.363 83.0194 257.867 79.4389 258.376 75.2965C261.107 80.5371 263.673 84.2183 264.04 85.0773C264.887 87.068 277.777 99.6593 277.777 99.6593C278.429 99.5325 279.059 99.3102 279.646 98.9995C280.148 98.7172 280.584 98.3308 280.924 97.8662C278.649 93.1385 271.503 81.2203 271.503 81.2203Z" fill="#415783"/>
<path d="M250.945 49.2915L243.324 71.1927L250.944 63.983L250.368 61.7417C250.368 61.7417 252.119 61.8977 252.829 61.4383C253.54 60.9788 255.195 49.7813 255.195 49.7813C255.195 49.7813 253.644 49.5212 253.131 49.462C252.581 49.3989 250.945 49.2915 250.945 49.2915Z" fill="#2B478B"/>
<path d="M235.237 48.8833C235.237 48.8833 233.632 66.196 235.28 71.1925C235.28 71.1925 230.564 63.72 231.448 62.1731L233.157 61.0458C233.157 61.0458 229.857 60.6169 230.476 58.7201C231.094 56.8233 233.745 49.1291 233.745 49.1291L235.237 48.8833Z" fill="#2B478B"/>
<path d="M361.751 220.214H98.5664V160.496L361.751 159.9V220.214Z" fill="#415783"/>
<path d="M361.751 112.138H98.5664V127.755H361.751V112.138Z" fill="#415783"/>
<path d="M94.4091 112.139L365.566 112.139C368.341 112.139 370.59 109.888 370.59 107.111V105.91C370.59 103.133 368.341 100.882 365.566 100.882L94.4091 100.882C91.6344 100.882 89.3851 103.133 89.3851 105.91V107.111C89.3851 109.888 91.6344 112.139 94.4091 112.139Z" fill="#466AA5"/>
<path d="M248.379 72.2545L248.523 69.9086C248.534 69.7391 248.611 69.5807 248.738 69.4682C248.865 69.3558 249.032 69.2984 249.201 69.3089L254.441 69.6317C254.611 69.6421 254.769 69.7195 254.881 69.8468C254.994 69.974 255.051 70.1408 255.041 70.3104L254.896 72.656C254.886 72.8255 254.809 72.9839 254.682 73.0964C254.554 73.2089 254.388 73.2662 254.218 73.2557L248.979 72.9329C248.895 72.9278 248.813 72.9062 248.737 72.8693C248.662 72.8324 248.594 72.781 248.538 72.718C248.483 72.655 248.44 72.5816 248.413 72.5021C248.385 72.4226 248.374 72.3384 248.379 72.2545Z" fill="#2B478B"/>
<path d="M251.035 70.0593L249.328 69.9541L249.187 72.2441L250.894 72.3493L251.035 70.0593Z" fill="#E9F2FF"/>
<path d="M254.011 70.8177L251.886 70.6868C251.81 70.6819 251.74 70.6473 251.689 70.5903C251.639 70.5334 251.613 70.4589 251.618 70.383C251.623 70.3072 251.657 70.2363 251.714 70.186C251.771 70.1357 251.845 70.1099 251.921 70.1143L254.046 70.2453C254.122 70.2502 254.193 70.2849 254.243 70.3418C254.293 70.3988 254.319 70.4733 254.315 70.5492C254.31 70.625 254.275 70.6958 254.218 70.7461C254.161 70.7964 254.087 70.8221 254.011 70.8177Z" fill="#E9F2FF"/>
<path d="M254.14 71.6196L251.661 71.4668C251.632 71.4649 251.605 71.4518 251.586 71.4303C251.567 71.4088 251.557 71.3807 251.559 71.352C251.561 71.3233 251.574 71.2965 251.595 71.2774C251.617 71.2582 251.645 71.2483 251.673 71.2496L254.152 71.4023C254.181 71.4042 254.208 71.4175 254.227 71.4392C254.246 71.4609 254.256 71.4893 254.254 71.5182C254.252 71.5467 254.239 71.5734 254.218 71.5923C254.196 71.6113 254.168 71.6211 254.14 71.6196Z" fill="#E9F2FF"/>
<path d="M254.116 71.974L251.638 71.8212C251.609 71.8194 251.582 71.8064 251.563 71.7849C251.544 71.7634 251.534 71.7352 251.535 71.7065C251.537 71.6778 251.55 71.6509 251.572 71.6318C251.593 71.6126 251.621 71.6027 251.65 71.6041L254.129 71.757C254.158 71.7588 254.184 71.7719 254.204 71.7933C254.223 71.8148 254.233 71.843 254.231 71.8717C254.229 71.9004 254.216 71.9272 254.195 71.9463C254.173 71.9655 254.145 71.9754 254.116 71.974Z" fill="#E9F2FF"/>
<path opacity="0.9" d="M359.339 159.9L100.98 160.496V127.756H359.339V159.9Z" fill="#E2F1FB"/>
<path d="M238.281 17.843L240.165 12.3152C240.165 12.3152 251.481 11.1377 255.284 16.3014C255.284 16.3014 255.738 19.4928 254.628 21.2265C254.628 21.2265 244.33 19.0644 240.753 20.4691L238.281 17.843Z" fill="#415783"/>
<path d="M243.128 13.8097C243.128 13.8097 251.391 14.3534 254.469 16.4823C254.469 16.4823 249.535 15.3045 245.054 15.6216C245.054 15.6216 250.405 16.4455 255.367 18.2609C255.392 17.6064 255.364 16.951 255.283 16.3009C251.481 11.1372 240.165 12.3148 240.165 12.3148L238.281 17.8425L240.754 20.468C240.754 20.468 241.655 14.8062 243.128 13.8097Z" fill="#2B478B"/>
<path d="M190.968 100.883H164.434L154.805 83.7236H181.338L190.968 100.883Z" fill="#415783"/>
<path d="M181.338 83.7236H154.805L164.434 100.883H164.75L180.688 84.2698L190.148 100.883H190.968L181.338 83.7236Z" fill="#466AA5"/>
<path d="M305.171 100.883H278.637L269.008 83.7236H295.541L305.171 100.883Z" fill="#415783"/>
<path d="M295.541 83.7236H269.008L278.637 100.883H278.954L294.891 84.2698L304.352 100.883H305.171L295.541 83.7236Z" fill="#466AA5"/>
<path d="M167.94 97.7092C166.912 97.2261 164.897 97.9182 163.717 98.4094C163.165 98.6389 162.797 98.8225 162.797 98.8225L161.578 101.146H172.86C172.452 99.9133 169.346 98.3722 167.94 97.7092Z" fill="#E0A8A4"/>
<path d="M163.72 98.4094C162.379 96.8215 147.575 92.8124 146.186 91.8315C144.79 90.8465 144.392 78.3441 144.392 78.3441C142.807 62.7962 135.194 57.7579 135.076 57.6811L135.074 57.6797C135.074 57.6797 135.153 59.7853 135.281 62.9786C135.548 69.6164 136.036 80.9517 136.504 87.8263C136.746 91.3836 137.563 94.1375 138.522 96.2145C138.796 96.8082 139.103 97.3863 139.44 97.9463C140.138 99.1379 141.013 100.217 142.033 101.147H161.639C162.643 100.526 163.39 99.5636 163.743 98.4361C163.736 98.4265 163.729 98.4176 163.72 98.4094Z" fill="#415783"/>
<path d="M132.525 34.6755C132.525 34.6755 131.518 20.3047 112.871 25.7459C108.639 26.9806 109.19 39.7656 119.437 44.6338L132.525 34.6755Z" fill="#1F1F1F"/>
<path d="M125.069 53.6479C125.069 53.6479 132.369 54.9703 135.076 57.6796C137.783 60.3888 144.171 68.3805 140.152 95.0273C140.152 95.0273 139.831 103.058 130.805 103.832C121.78 104.606 125.069 53.6479 125.069 53.6479Z" fill="#2B478B"/>
<path d="M108.291 119.914C109.547 128.658 117.969 151.386 117.723 159.242C117.529 165.432 117.631 179.733 118.447 189.233C118.605 191.385 118.881 193.526 119.274 195.648C119.999 199.151 120.928 203.186 121.428 205.73C122.541 211.44 121.959 214.77 122.867 217.835C123.867 221.185 135.351 220.572 131.891 218.539C130.656 217.814 128.859 216.272 127.971 214.28C124.745 207.047 129.267 175.861 130.615 163.838C130.788 162.337 130.911 161.142 130.962 160.324C131.411 152.898 136.505 103.425 136.505 103.425C124.134 96.541 107.046 111.17 108.291 119.914Z" fill="#E0A8A4"/>
<path d="M108.29 119.914C109.546 128.658 117.968 151.386 117.722 159.242C117.528 165.432 117.631 179.733 118.447 189.233L130.614 163.838C130.788 162.337 130.91 161.142 130.961 160.324C131.41 152.898 136.632 103.406 136.632 103.406C124.261 96.5209 107.045 111.17 108.29 119.914Z" fill="#CD968B"/>
<path d="M135.132 105.033C135.132 105.033 124.507 153.909 123.3 161.247C122.093 168.585 112.417 203.138 114.526 211.796C115.77 216.903 117.939 218.414 117.939 218.414C118.449 219.351 110.045 221.211 109.366 217.627C108.505 213.077 108.324 206.69 107.061 195.862C104.888 177.219 109.199 166.609 110.244 158.818C111.289 151.027 106.735 126.261 109.262 117.797C113.686 102.985 123.537 96.9123 135.132 105.033Z" fill="#E0A8A4"/>
<path d="M137.989 148.158C136.017 148.95 133.971 149.542 131.88 149.923C131.875 149.926 131.869 149.927 131.863 149.927C129.718 150.329 127.551 150.599 125.373 150.736C122.454 150.922 119.527 150.952 116.605 150.825L115.83 141.774L115.013 145.051L113.614 150.662C112.322 150.571 111.159 150.466 110.176 150.363C108.064 150.146 106.775 149.947 106.775 149.947C104.396 130.311 107.247 117.934 110.473 110.622V110.621C111.306 108.699 112.318 106.859 113.496 105.127C114.003 104.39 114.475 103.781 114.888 103.288C115.226 102.886 115.526 102.563 115.773 102.309C116.013 102.057 116.268 101.819 116.536 101.597C117.637 102.021 118.722 102.377 119.779 102.676C120.535 102.89 121.276 103.075 122.004 103.231C122.015 103.235 122.027 103.237 122.04 103.239C122.539 103.348 123.029 103.444 123.512 103.528C123.692 103.56 123.87 103.59 124.047 103.618C124.615 103.709 125.169 103.784 125.711 103.846C128.266 104.144 130.846 104.17 133.406 103.923C134.448 103.827 135.482 103.665 136.503 103.438C136.588 103.418 136.632 103.406 136.632 103.406L136.647 103.906L136.906 112.442L137.989 148.158Z" fill="#2C3A64"/>
<path d="M119.678 220.214H109.636C108.861 218.805 107.829 214.588 107.04 213.707C106.984 213.645 106.922 213.572 106.859 213.49L106.778 220.214H105.876C105.853 218.782 105.743 213.769 105.25 210.953C104.713 209.928 104.329 208.934 104.497 208.513C104.845 207.641 108.062 205.7 108.062 205.7C108.062 205.7 110.441 217.609 111.566 217.893C114.249 218.569 116.947 218.318 117.712 218.226C117.852 218.207 119.06 218.747 119.514 219.467C119.591 219.574 119.645 219.695 119.673 219.824C119.701 219.952 119.703 220.085 119.678 220.214Z" fill="#2C3A64"/>
<path d="M133.119 220.214H123.077C122.311 218.823 121.293 214.694 120.509 213.745L120.431 220.214H119.528C119.526 220.023 119.52 219.77 119.515 219.467C119.475 217.631 119.351 213.976 118.994 211.507C118.306 210.303 117.74 209.009 117.939 208.513C118.286 207.641 121.43 205.716 121.43 205.716C121.43 205.716 121.443 205.822 121.478 205.992C121.481 206.017 121.487 206.043 121.492 206.07C121.498 206.103 121.505 206.139 121.512 206.177C121.518 206.204 121.523 206.23 121.529 206.259C121.987 208.563 123.849 217.6 125.008 217.891C128.069 218.662 131.149 218.227 131.357 218.197C131.361 218.196 131.365 218.195 131.368 218.195C131.368 218.195 133.366 219.167 133.119 220.214Z" fill="#2C3A64"/>
<path d="M138.525 96.2145C138.19 98.0553 137.848 99.6433 137.558 100.887C137.537 100.976 137.517 101.062 137.497 101.147C137.09 102.866 136.8 103.857 136.8 103.857C136.749 103.875 136.699 103.891 136.648 103.907C136.625 103.916 136.602 103.923 136.579 103.93C136.535 103.944 136.493 103.958 136.45 103.971C135.76 104.193 135.083 104.387 134.421 104.551C131.25 105.364 127.958 105.597 124.704 105.24C123.362 105.086 122.035 104.822 120.735 104.45C120.471 104.374 120.216 104.297 119.971 104.216C119.959 104.213 119.947 104.21 119.936 104.205C119.303 103.999 118.736 103.783 118.24 103.574C117.381 103.228 116.555 102.804 115.774 102.306C115.772 102.305 115.771 102.303 115.769 102.302C115.914 101.927 116.025 101.54 116.099 101.145C116.295 100.073 116.413 98.9873 116.453 97.8977C116.567 95.6715 116.532 92.8861 116.411 89.8248C116.409 89.7357 116.405 89.6465 116.402 89.5572C116.246 85.7188 115.961 81.462 115.664 77.329C115.436 74.1545 115.204 71.0544 115.017 68.2726C114.96 67.4194 114.907 66.5973 114.862 65.8115C114.603 61.423 114.532 58.1886 114.922 57.3395C115.514 56.0511 117.348 55.2682 119.3 54.7946C119.58 54.7257 119.863 54.664 120.144 54.6082C120.182 54.6002 120.06 54.2924 120.099 54.2844C120.369 54.2325 120.798 54.4857 121.062 54.445C121.175 54.4262 121.287 54.409 121.398 54.3929C122.605 54.2159 123.821 54.1075 125.04 54.0682C125.099 54.0654 125.131 54.0654 125.131 54.0654C126.172 54.608 127.172 55.226 128.123 55.9143C128.256 56.0088 129.976 54.8893 130.114 54.9919C132.705 56.926 134.624 59.6252 135.6 62.7089C137.099 67.5819 139.303 69.9928 139.763 74.8035C140.511 82.6208 139.548 90.6003 138.525 96.2145Z" fill="#00AB5B"/>
<path d="M109.176 104.735C112.912 105.501 118.873 105.112 123.293 103.846C124.604 103.5 125.864 102.981 127.039 102.303C130.989 99.8721 132.908 81.8734 132.224 75.0602C131.55 68.2569 120.098 54.2856 120.098 54.2856C117.291 56.3695 116.056 61.2188 114.371 67.5827C110.319 82.8956 109.176 104.735 109.176 104.735Z" fill="#2B478B"/>
<path d="M109.176 104.735C112.912 105.501 118.873 105.113 123.293 103.846C125.083 101.274 126.314 98.354 126.906 95.2758C128.917 85.3467 120.986 74.5701 114.371 67.583C110.319 82.8959 109.176 104.735 109.176 104.735Z" fill="#415783"/>
<path d="M132.964 89.6125L124.162 83.2554C123.636 82.878 122.983 82.724 122.344 82.8272C121.705 82.9304 121.133 83.2824 120.753 83.8062L110.936 97.4171C110.559 97.9433 110.405 98.5974 110.508 99.2366C110.611 99.8758 110.963 100.448 111.486 100.829L120.288 107.186C120.814 107.563 121.467 107.717 122.106 107.614C122.745 107.511 123.317 107.159 123.697 106.635L133.514 93.0243C133.892 92.4982 134.045 91.8441 133.942 91.2048C133.839 90.5656 133.487 89.9931 132.964 89.6125Z" fill="#FFA412"/>
<path d="M125.164 96.4301C125.164 96.4301 129.467 95.9941 129.999 96.7202C130.531 97.4463 130.047 100.252 127.63 100.542C125.212 100.832 122.457 98.8488 122.457 98.8488L125.164 96.4301Z" fill="#E0A8A4"/>
<path d="M120.097 54.2861C120.097 54.2861 112.45 55.1874 109.132 62.0825C105.815 68.9776 102.242 86.726 103.135 88.386C104.028 90.0459 114.746 98.9838 123.55 100.133C123.55 100.133 125.464 97.7071 125.337 95.5365C125.337 95.5365 113.47 88.1308 112.45 86.0875C111.429 84.0443 121.508 67.062 121.381 64.1255C121.254 61.189 120.097 54.2861 120.097 54.2861Z" fill="#2B478B"/>
<path d="M128.719 31.8243C128.719 31.8243 133.204 32.3751 133.46 37.5563C133.46 37.5563 135.423 29.3438 128.319 29.5093C121.214 29.6748 128.719 31.8243 128.719 31.8243Z" fill="#1F1F1F"/>
<path d="M130.113 54.9932C130.113 54.9877 129.708 50.6595 129.803 49.5448V49.543C129.854 48.9692 129.912 48.6321 129.912 48.6321L129.803 48.5995L120.821 45.8613C120.817 45.9322 120.815 46.005 120.812 46.0759C120.697 48.5049 120.557 50.3885 120.407 51.852C120.388 52.0429 120.368 52.2265 120.348 52.4028C120.267 53.1461 120.181 53.7681 120.098 54.2863C121.517 54.922 122.975 55.4663 124.463 55.9158C127.686 56.854 129.082 56.4794 129.679 55.9158C130.181 55.4428 130.124 55.0659 130.113 54.9932Z" fill="#E0A8A4"/>
<path d="M129.096 48.599V49.545C129.096 49.545 123.922 49.6035 120.41 51.851C120.56 50.3891 120.699 48.5045 120.815 46.0752L129.096 48.599Z" fill="#CD968B"/>
<path d="M131.574 49.2494C131.574 49.2494 120.691 51.4367 119.434 44.633C118.177 37.8292 115.925 33.5293 122.821 31.845C129.718 30.1607 131.551 32.5064 132.522 34.6754C133.493 36.8444 134.373 48.5051 131.574 49.2494Z" fill="#E0A8A4"/>
<path d="M127.878 30.3358C127.878 30.3358 130.955 34.1939 125.341 37.7216C119.727 41.2492 120.158 48.3038 121.648 50.2881C121.648 50.2881 110.473 39.3749 115.65 32.8713C120.827 26.3678 127.878 30.3358 127.878 30.3358Z" fill="#1F1F1F"/>
<path d="M330.822 203.655C330.822 204.542 330.56 205.409 330.068 206.146C329.575 206.883 328.876 207.458 328.057 207.797C327.239 208.136 326.338 208.225 325.469 208.052C324.6 207.879 323.802 207.452 323.175 206.825C322.549 206.198 322.122 205.4 321.949 204.53C321.777 203.661 321.865 202.759 322.204 201.94C322.543 201.121 323.118 200.421 323.854 199.928C324.591 199.436 325.457 199.173 326.343 199.173C327.531 199.173 328.67 199.645 329.51 200.486C330.35 201.326 330.822 202.467 330.822 203.655Z" fill="#009444"/>
<path d="M332.584 203.655C332.584 204.542 332.321 205.409 331.829 206.146C331.337 206.883 330.637 207.458 329.819 207.797C329 208.136 328.1 208.225 327.231 208.052C326.362 207.879 325.564 207.452 324.937 206.826C324.311 206.199 323.884 205.4 323.711 204.53C323.538 203.661 323.627 202.759 323.966 201.94C324.305 201.121 324.879 200.421 325.616 199.928C326.352 199.436 327.219 199.173 328.105 199.173C328.693 199.173 329.275 199.289 329.819 199.514C330.362 199.739 330.856 200.069 331.272 200.486C331.688 200.902 332.018 201.396 332.243 201.94C332.468 202.484 332.584 203.067 332.584 203.655Z" fill="#00AB5B"/>
<path d="M356.187 220.082C358.661 220.082 360.666 218.075 360.666 215.6C360.666 213.124 358.661 211.117 356.187 211.117C353.713 211.117 351.707 213.124 351.707 215.6C351.707 218.075 353.713 220.082 356.187 220.082Z" fill="#009444"/>
<path d="M357.948 220.082C360.422 220.082 362.428 218.075 362.428 215.6C362.428 213.124 360.422 211.117 357.948 211.117C355.474 211.117 353.469 213.124 353.469 215.6C353.469 218.075 355.474 220.082 357.948 220.082Z" fill="#00AB5B"/>
<path d="M322.824 198.795L327.781 203.408C328.282 203.875 328.862 204.248 329.494 204.511L362.869 218.4L369.071 213.935L322.824 198.795Z" fill="#009444"/>
<path d="M393.095 148.717L391.506 147.619C398.822 137.021 412.967 116.143 414.132 112.979C414.866 110.986 414.871 109.321 414.146 108.031C412.984 105.962 410.275 105.41 410.248 105.404L410.146 105.379L402.735 103.088C394.25 99.7036 390.617 106.371 390.467 106.657L390.417 106.742L370.611 136.689L369 135.622L388.782 105.712C389.65 104.223 390.843 102.949 392.271 101.985C394.457 100.513 398.163 99.1966 403.414 101.278L410.67 103.518C411.161 103.623 414.304 104.387 415.821 107.068C416.844 108.877 416.886 111.091 415.944 113.648C414.404 117.828 393.964 147.458 393.095 148.717Z" fill="#009444"/>
<path d="M390.858 141.186L407.256 152.452C407.256 152.452 411.575 156.82 406.617 165.546C402.254 173.224 378.893 216.785 378.893 216.785C378.893 216.785 374.029 225.849 355.09 214.505L390.858 141.186Z" fill="#009444"/>
<path d="M395.472 157.897L368.969 206.534C367.492 209.245 365.062 211.31 362.15 212.33C359.238 213.35 356.052 213.252 353.208 212.055L336.532 205.037L336.12 204.864L325.676 200.469C324.654 200.04 323.694 199.477 322.821 198.795C322.621 198.64 322.428 198.479 322.241 198.313C320.033 196.359 318.591 193.684 318.17 190.765C317.75 187.846 318.378 184.872 319.944 182.373L348.241 137.095C349.708 134.748 351.915 132.956 354.513 132.003C357.11 131.05 359.951 130.99 362.587 131.832L365.645 132.808L366.374 133.042H366.375L366.988 133.239L377.21 136.504L378.464 136.905L388.327 140.058C389.82 140.533 391.211 141.285 392.425 142.276C392.501 142.339 392.578 142.402 392.654 142.469L393.122 142.891C395.111 144.783 396.419 147.28 396.845 149.994C397.27 152.708 396.787 155.486 395.472 157.897Z" fill="#00AB5B"/>
<path d="M364.569 211.177C362.882 212.218 360.971 212.841 358.995 212.994C357.018 213.146 355.034 212.824 353.208 212.055L336.532 205.036L336.119 204.864L325.675 200.468C324.654 200.039 323.694 199.476 322.82 198.794C322.621 198.639 322.427 198.478 322.24 198.312C319.146 195.572 316.857 189.423 318.78 184.764C318.78 184.764 354.159 199.369 361.027 203.654C364.569 205.866 364.569 209.006 364.569 211.177Z" fill="#009444"/>
<path d="M366.986 133.238C366.895 133.252 357.169 134.652 354.387 138.351C351.529 142.153 323.396 188.676 323.113 189.146C322.452 190.735 322.127 192.444 322.158 194.165C322.189 195.887 322.576 197.583 323.294 199.147L322.819 198.794C322.62 198.639 322.426 198.478 322.239 198.312C320.097 193.018 322.423 188.969 322.528 188.793C323.688 186.872 350.965 141.769 353.841 137.941C356.364 134.587 363.399 133.18 365.643 132.808L366.372 133.042H366.374L366.986 133.238Z" fill="#009444"/>
<path d="M378.466 136.905C377.034 137.181 371.422 138.589 367.975 144.149C363.932 150.671 338.127 199.565 337.867 200.057L337.849 200.092L337.823 200.121C337.804 200.144 336.044 202.625 336.953 205.212L336.535 205.036L336.122 204.864C335.342 202.174 337.033 200.005 337.28 199.705C338.079 198.193 363.384 150.26 367.394 143.791C370.365 138.999 374.881 137.163 377.212 136.504L378.466 136.905Z" fill="#009444"/>
<path d="M393.118 142.892C391.705 143.084 390.329 143.489 389.036 144.093C386.322 145.395 384.044 147.456 382.477 150.028C378.437 156.545 353.561 205.638 353.31 206.131L353.292 206.17L353.264 206.201C353.246 206.224 351.78 209.251 352.689 211.838L351.638 211.396C351.062 209.141 352.455 206.106 352.72 205.788C353.515 204.218 377.887 156.136 381.897 149.667C385.669 143.585 391.261 142.449 392.421 142.277C392.498 142.34 392.575 142.404 392.65 142.47L393.118 142.892Z" fill="#009444"/>
<path d="M401.754 203.367C401.754 203.367 398.196 206.667 398.891 209.012C399.585 211.357 402.796 212.92 403.23 215.785C403.663 218.651 405.399 220.215 406.961 220.215H414.408C414.408 220.215 415.558 218.198 412.78 217.59C410.001 216.983 408.956 213.615 409.129 210.489C409.303 207.362 408.869 203.194 408.869 203.194L402.968 201.805L401.754 203.367Z" fill="#233862"/>
<path d="M466.256 220.209H446.481C446.349 220.186 446.219 220.147 446.096 220.093C444.778 219.434 445.189 214.388 445.348 212.824C445.379 212.534 445.4 212.364 445.4 212.364C445.4 212.364 452.344 206.807 453.298 211.063C453.327 211.195 453.363 211.326 453.401 211.453C454.602 215.434 459.991 217.244 463.104 217.748C465.477 218.135 466.095 219.515 466.256 220.209Z" fill="#233862"/>
<path d="M462.279 106.279C462.279 106.279 461.224 119.444 459.985 135.268C458.301 156.763 456.276 183.167 456.075 188.169C455.729 196.855 454.339 210.748 454.339 210.748C454.339 210.748 451.043 214.049 444.446 212.658C444.446 212.658 438.568 192.824 436.889 171.84C436.863 171.495 436.837 171.149 436.811 170.803C435.249 149.44 432.82 104.456 432.82 104.456L462.279 106.279Z" fill="#2B478B"/>
<path d="M462.283 106.279C462.283 106.279 461.228 119.444 459.99 135.268L436.893 171.841C436.867 171.496 436.841 171.15 436.815 170.804C435.253 149.441 432.824 104.457 432.824 104.457L462.283 106.279Z" fill="#233862"/>
<path d="M457.465 107.843C457.465 107.843 438.461 155.518 425.965 177.923C413.469 200.327 409.564 206.58 409.564 206.58C409.564 206.58 402.405 203.714 401.754 201.76C401.754 201.76 406.532 158.507 414.901 147.963C419.629 142.005 425.184 124.125 425.444 117.873C425.704 111.62 427.136 99.2456 427.136 99.2456L457.465 107.843Z" fill="#2B478B"/>
<path d="M476.685 94.6807L477.771 96.8474C477.771 96.8474 483.295 97.6199 481.775 103.382C481.775 103.382 480.955 105.753 479.432 105.003C477.909 104.253 478.659 104.316 476.476 103.307C474.293 102.297 473.03 100.358 473.518 98.5789L473.168 96.6929L476.685 94.6807Z" fill="#E0A8A4"/>
<path d="M447.716 34.2512C448.562 29.2585 448.588 26.2993 448.588 26.2993L438.946 18.5229C439.304 29.2158 432.457 34.3584 432.457 34.3584C432.457 34.3584 445.306 40.6878 452.733 38.3435C451.325 36.6839 449.625 35.2969 447.716 34.2512Z" fill="#E0A8A4"/>
<path d="M450.86 26.123C450.86 26.123 438.593 28.1624 437.442 20.4982C436.29 12.8341 433.932 7.93586 441.715 6.30985C449.498 4.68385 451.462 7.37864 452.469 9.84416C453.476 12.3097 454.021 25.3951 450.86 26.123Z" fill="#E0A8A4"/>
<path d="M437.523 21.0272C437.523 21.0272 437.771 10.7607 448.948 9.11314C456.603 7.98446 451.967 1.58278 451.092 0.568848C451.092 0.568848 445.24 1.68651 439.25 3.00154C426.679 5.76335 436.195 19.5006 437.523 21.0272Z" fill="#233862"/>
<path d="M475.395 97.6927C476.492 96.5147 477.451 95.2142 478.252 93.8168C478.252 93.8168 464.315 76.4884 463.182 74.6915C462.049 72.8945 453.585 44.0711 453.585 44.0711L432.18 39.7319C432.18 39.7319 450.046 76.6193 453.006 81.1159C457.897 88.5468 472.53 99.6069 472.53 99.6069C473.601 99.1637 474.575 98.5132 475.395 97.6927Z" fill="#A53D38"/>
<path d="M463.102 107.376C462.886 107.566 462.61 107.671 462.323 107.674C459.534 107.637 451.402 109.187 444.521 108.479C438.718 107.922 433.585 106.202 428.071 103.729C427.339 103.4 425.654 102.5 425.692 101.681C425.717 100.784 425.807 99.4838 425.917 97.8456C426.307 92.1503 426.988 82.3544 426.325 71.0526C426.205 68.9481 426.143 66.8608 426.135 64.8056C426.078 49.4886 429.061 35.9407 435.16 31.381C435.681 31.0076 438.931 32.6474 441.869 34.0978C444.584 35.4381 446.483 35.4071 449.048 34.8878L452.429 37.3358C455.553 40.2385 458.975 44.1839 460.462 50.175C461.727 55.2731 462.47 64.4662 462.879 73.9932C463.065 78.3101 463.214 82.6651 463.252 86.7961V86.9441C463.289 87.3536 463.288 87.8011 463.288 88.2107C463.438 98.8159 463.288 107.226 463.102 107.376Z" fill="#B64C41"/>
<path d="M425.914 97.8454C426.304 92.1501 426.984 82.3541 426.321 71.0524C426.202 68.9479 426.139 66.8606 426.132 64.8054C428.672 58.638 430.749 54.1655 430.749 54.1655H437.152C437.152 54.1655 441.847 86.2556 425.914 97.8454Z" fill="#A53D38"/>
<path d="M413.456 99.8403L412.24 101.937C412.24 101.937 414.622 106.984 408.972 108.869C408.972 108.869 406.541 109.483 406.335 107.797C406.128 106.111 406.485 106.774 406.133 104.393C405.78 102.012 406.709 99.8917 408.463 99.3251L409.848 97.9985L413.456 99.8403Z" fill="#E0A8A4"/>
<path d="M410.232 100.414C411.818 100.687 413.431 100.777 415.038 100.681C415.038 100.681 421.884 79.5183 422.764 77.5849C423.645 75.6516 443.099 52.7702 443.099 52.7702L434.995 32.4751C434.995 32.4751 413.955 67.6462 411.818 72.5882C408.288 80.7548 407.062 99.0648 407.062 99.0648C408.02 99.7187 409.097 100.177 410.232 100.414Z" fill="#B64C41"/>
<path d="M448.095 31.8061C446.464 28.7486 443.836 26.3416 440.648 24.9849C440.648 24.9849 443.72 26.8154 448.592 26.2992C448.592 26.2992 448.34 30.1525 448.095 31.8061Z" fill="#CD968B"/>
<path d="M89.8228 179.035H77.6393C75.4793 179.032 73.4085 178.173 71.8811 176.644C70.3538 175.116 69.4946 173.044 69.4922 170.882V127.128C69.4946 124.967 70.3537 122.894 71.8811 121.366C73.4084 119.837 75.4793 118.978 77.6393 118.975H89.8228C91.9828 118.978 94.0536 119.837 95.581 121.366C97.1083 122.894 97.9675 124.967 97.9699 127.128V170.882C97.9675 173.044 97.1083 175.116 95.581 176.644C94.0536 178.173 91.9828 179.032 89.8228 179.035ZM77.6393 121.149C76.0553 121.151 74.5367 121.782 73.4167 122.902C72.2967 124.023 71.6667 125.543 71.6649 127.128V170.882C71.6667 172.467 72.2967 173.987 73.4167 175.108C74.5368 176.228 76.0553 176.859 77.6393 176.861H89.8228C91.4068 176.859 92.9253 176.228 94.0453 175.108C95.1653 173.987 95.7954 172.467 95.7972 170.882V127.128C95.7954 125.543 95.1654 124.023 94.0454 122.902C92.9254 121.782 91.4068 121.151 89.8228 121.149H77.6393Z" fill="#009444"/>
<path d="M92.3175 212.951H90.464C89.9603 212.947 89.4607 213.043 88.9942 213.234C88.5276 213.424 88.1033 213.704 87.7457 214.06C87.3881 214.415 87.1043 214.837 86.9106 215.302C86.7169 215.768 86.6172 216.267 86.6172 216.771C86.6172 217.275 86.7169 217.774 86.9106 218.24C87.1043 218.705 87.3881 219.128 87.7457 219.483C88.1033 219.838 88.5276 220.119 88.9942 220.309C89.4607 220.499 89.9603 220.595 90.464 220.591H92.3175C92.8213 220.595 93.3208 220.499 93.7874 220.309C94.2539 220.119 94.6782 219.838 95.0358 219.483C95.3934 219.128 95.6772 218.705 95.8709 218.24C96.0646 217.774 96.1644 217.275 96.1644 216.771C96.1644 216.267 96.0646 215.768 95.8709 215.302C95.6772 214.837 95.3934 214.415 95.0358 214.06C94.6782 213.704 94.2539 213.424 93.7874 213.234C93.3208 213.043 92.8213 212.947 92.3175 212.951Z" fill="#009444"/>
<path d="M92.3172 220.591C94.4255 220.591 96.1345 218.881 96.1345 216.771C96.1345 214.661 94.4255 212.951 92.3172 212.951C90.209 212.951 88.5 214.661 88.5 216.771C88.5 218.881 90.209 220.591 92.3172 220.591Z" fill="#00AB5B"/>
<path d="M68.7779 212.951H66.9244C65.9172 212.959 64.9538 213.365 64.2443 214.081C63.5348 214.796 63.1367 215.763 63.1367 216.771C63.1367 217.779 63.5348 218.746 64.2443 219.462C64.9538 220.177 65.9172 220.583 66.9244 220.591H68.7779C69.2816 220.595 69.7812 220.499 70.2477 220.309C70.7143 220.119 71.1386 219.838 71.4962 219.483C71.8538 219.128 72.1376 218.705 72.3313 218.24C72.525 217.774 72.6247 217.275 72.6247 216.771C72.6247 216.267 72.525 215.768 72.3313 215.302C72.1376 214.837 71.8538 214.415 71.4962 214.06C71.1386 213.704 70.7143 213.424 70.2477 213.234C69.7812 213.043 69.2816 212.947 68.7779 212.951Z" fill="#009444"/>
<path d="M68.7782 220.591C70.8864 220.591 72.5954 218.881 72.5954 216.771C72.5954 214.661 70.8864 212.951 68.7782 212.951C66.67 212.951 64.9609 214.661 64.9609 216.771C64.9609 218.881 66.67 220.591 68.7782 220.591Z" fill="#00AB5B"/>
<path d="M97.1685 143.705H73.8139C66.7024 143.705 60.9375 149.474 60.9375 156.59V201.477C60.9375 208.594 66.7024 214.363 73.8139 214.363H97.1685C104.28 214.363 110.045 208.594 110.045 201.477V156.59C110.045 149.474 104.28 143.705 97.1685 143.705Z" fill="#009444"/>
<path d="M86.8482 143.705H63.4936C56.3821 143.705 50.6172 149.474 50.6172 156.59V201.477C50.6172 208.594 56.3821 214.363 63.4936 214.363H86.8482C93.9596 214.363 99.7246 208.594 99.7246 201.477V156.59C99.7246 149.474 93.9596 143.705 86.8482 143.705Z" fill="#00AB5B"/>
<g opacity="0.4">
<path opacity="0.4" d="M77.796 204.039H54.4413C53.2715 204.039 52.1072 204.199 50.9805 204.514C51.6613 207.321 53.265 209.819 55.5343 211.605C57.8036 213.391 60.6067 214.362 63.4938 214.363H86.8485C88.0183 214.363 89.1827 214.203 90.3094 213.888C89.6286 211.081 88.0249 208.583 85.7556 206.797C83.4863 205.011 80.6831 204.04 77.796 204.039Z" fill="#D86713"/>
</g>
<path d="M92.8269 144.429H93.9875V143.705H70.3522C67.663 144.621 65.3274 146.356 63.6722 148.666C62.017 150.977 61.125 153.747 61.1211 156.59V201.477C61.1251 204.32 62.0171 207.091 63.6723 209.401C65.3275 211.712 67.6631 213.446 70.3522 214.363H93.9875V213.638H92.8269C89.6051 213.634 86.5162 212.352 84.2381 210.072C81.9599 207.793 80.6784 204.701 80.6747 201.477V156.59C80.6784 153.366 81.9599 150.275 84.238 147.995C86.5162 145.715 89.6051 144.433 92.8269 144.429ZM86.7305 213.638H74.7224C71.5006 213.634 68.4118 212.352 66.1336 210.072C63.8554 207.793 62.5739 204.701 62.5703 201.477V156.59C62.5739 153.366 63.8554 150.275 66.1336 147.995C68.4117 145.715 71.5006 144.433 74.7224 144.429H86.7314C84.4777 145.562 82.5826 147.299 81.2575 149.446C79.9324 151.593 79.2294 154.067 79.227 156.59V201.477C79.2293 204.001 79.9322 206.474 81.2571 208.622C82.582 210.769 84.4769 212.506 86.7305 213.638Z" fill="#009444"/>
<path d="M604.592 220.591H1.41137C1.32245 220.591 1.23441 220.573 1.15226 220.539C1.07011 220.505 0.995466 220.455 0.932596 220.392C0.869725 220.33 0.819858 220.255 0.785847 220.173C0.751836 220.09 0.734345 220.002 0.734375 219.913C0.734375 219.734 0.805702 219.561 0.932662 219.434C1.05962 219.307 1.23182 219.236 1.41137 219.236H604.592C604.681 219.236 604.769 219.253 604.851 219.287C604.933 219.321 605.008 219.371 605.071 219.434C605.134 219.497 605.183 219.572 605.217 219.654C605.251 219.736 605.269 219.824 605.269 219.913C605.269 220.002 605.251 220.09 605.217 220.173C605.183 220.255 605.134 220.329 605.071 220.392C605.008 220.455 604.933 220.505 604.851 220.539C604.769 220.573 604.681 220.591 604.592 220.591Z" fill="#283250"/>
</svg>
