<svg width="20" height="20" viewBox="0 0 20 20" fill="none" xmlns="http://www.w3.org/2000/svg">
<path d="M8.87319 2.22211C12.6346 2.22211 15.7769 4.9186 16.4831 8.48263L17.9582 6.6345L18.8906 7.38235L16.5028 10.3738C16.3864 10.5192 16.2133 10.5982 16.0366 10.5982C15.9465 10.5982 15.8551 10.5778 15.7698 10.5354L12.1881 8.74047L12.7223 7.67012L15.3543 8.98877C14.866 5.83935 12.1505 3.41868 8.87319 3.41868C5.25267 3.41868 2.30674 6.37123 2.30674 9.99989C2.30674 13.6285 5.25267 16.5811 8.87319 16.5811V17.7777C4.59427 17.7777 1.11285 14.2884 1.11285 9.99989C1.11285 5.71135 4.59427 2.22211 8.87319 2.22211Z" fill="white" stroke="white"/>
</svg>
