<svg width="16" height="16" viewBox="0 0 16 16" fill="none" xmlns="http://www.w3.org/2000/svg">
<path d="M11.8333 1C10.0586 1 8.59278 2.64844 8 3.42644C7.40722 2.64844 5.94141 1 4.16666 1C1.86916 1 0 3.11231 0 5.70834C0 7.12469 0.562187 8.44469 1.54622 9.348C1.56053 9.37275 1.57812 9.39553 1.59862 9.41603L7.76466 15.5693C7.82975 15.6341 7.91472 15.6667 8 15.6667C8.08528 15.6667 8.17056 15.6341 8.23569 15.569L14.6068 9.20022L14.6725 9.13641C14.7246 9.08725 14.7761 9.03744 14.8337 8.97366C14.8577 8.94991 14.8776 8.92319 14.8929 8.89422C15.6074 8.01922 16 6.89062 16 5.70834C16 3.11231 14.1309 1 11.8333 1Z" fill="#77CCF9"/>
</svg>
