<svg width="76" height="76" viewBox="0 0 76 76" fill="none" xmlns="http://www.w3.org/2000/svg">
<g clip-path="url(#clip0)">
<path d="M0 39.382V48.9145C0 49.8893 0.797555 50.6868 1.77234 50.6868H6.76474H21.4482H49.2487H63.9322H70.6316C71.6064 50.6868 72.404 49.8893 72.404 48.9145V41.1074C72.404 40.5307 72.3802 39.9552 72.3355 39.382H0Z" fill="#FD4848"/>
<path d="M5.19724 48.9145V39.382H0V48.9145C0 49.8893 0.797555 50.6868 1.77234 50.6868H6.76474H6.96959C5.9948 50.687 5.19724 49.8894 5.19724 48.9145Z" fill="#DC4955"/>
<path d="M57.4744 35.729C56.9023 35.2696 56.1904 35.019 55.4565 35.019H0V39.6834H62.3245L57.4744 35.729Z" fill="#407093"/>
<path d="M0 35.019H5.19724V39.6834H0V35.019Z" fill="#365E7D"/>
<path d="M70.9834 33.2846L67.6979 22.0842H0V35.3203H55.4567C56.1904 35.3203 56.9023 35.5707 57.4746 36.0302L63.0482 40.5065C63.6203 40.9661 64.3322 41.2165 65.0661 41.2165H72.4041V41.1075C72.4041 38.4357 71.9227 35.7858 70.9834 33.2846Z" fill="white"/>
<path d="M62.6721 36.0303C62.0999 35.5709 61.3881 35.3203 60.6543 35.3203H55.457C56.1908 35.3203 56.9027 35.5707 57.4749 36.0303L63.0486 40.5066C63.6206 40.9661 64.3326 41.2166 65.0664 41.2166H70.2637C69.5298 41.2166 68.818 40.9661 68.2458 40.5066L62.6721 36.0303Z" fill="#CCDFED"/>
<path d="M0 22.0842H5.19724V35.3203H0V22.0842Z" fill="#CCDFED"/>
<path d="M1.77234 17.9713C0.797555 17.9713 0 18.7689 0 19.7437V22.3854H67.7864L67.4224 21.1446C66.7054 19.2357 64.88 17.9713 62.8407 17.9713H1.77234Z" fill="#407093"/>
<path d="M6.96959 17.9713H1.77234C0.797555 17.9713 0 18.7689 0 19.7437V22.3854H5.19724V19.7437C5.19724 18.7689 5.9948 17.9713 6.96959 17.9713Z" fill="#365E7D"/>
<path d="M52.0234 35.3202H55.4562C55.7448 35.3202 56.0295 35.3603 56.3041 35.4352V22.3855H52.0234V35.3202Z" fill="#CCDFED"/>
<path d="M37.7578 22.3855H42.0384V35.3202H37.7578V22.3855Z" fill="#CCDFED"/>
<path d="M23.5 22.3855H27.7806V35.3202H23.5V22.3855Z" fill="#CCDFED"/>
<path d="M9.23438 22.3855H13.515V35.3202H9.23438V22.3855Z" fill="#CCDFED"/>
<path d="M52.0234 22.3855H54.6848V35.3202H52.0234V22.3855Z" fill="#407093"/>
<path d="M37.7617 22.3855H40.423V35.3202H37.7617V22.3855Z" fill="#407093"/>
<path d="M23.4961 22.3855H26.1574V35.3202H23.4961V22.3855Z" fill="#407093"/>
<path d="M9.23438 22.3855H11.8957V35.3202H9.23438V22.3855Z" fill="#407093"/>
<path d="M73.7932 30.7226L72.3174 26.1125H68.5477C67.9237 26.1125 67.418 25.6067 67.418 24.9828C67.418 24.3588 67.9238 23.853 68.5477 23.853H73.142C73.6333 23.853 74.0683 24.1705 74.218 24.6384L75.9454 30.0338C76.1355 30.628 75.8081 31.2641 75.2137 31.4544C74.6233 31.6432 73.9848 31.3208 73.7932 30.7226Z" fill="white"/>
<path d="M56.5917 58.0286C60.6464 58.0286 63.9334 54.7417 63.9334 50.6869C63.9334 46.6322 60.6464 43.3452 56.5917 43.3452C52.537 43.3452 49.25 46.6322 49.25 50.6869C49.25 54.7417 52.537 58.0286 56.5917 58.0286Z" fill="#665E68"/>
<path d="M53.207 50.6869C53.207 47.3181 55.477 44.4812 58.5702 43.6172C57.9406 43.4413 57.2775 43.3452 56.5917 43.3452C52.537 43.3452 49.25 46.6322 49.25 50.6869C49.25 54.7416 52.537 58.0286 56.5917 58.0286C57.2775 58.0286 57.9406 57.9326 58.5702 57.7567C55.477 56.8927 53.207 54.0557 53.207 50.6869Z" fill="#554E56"/>
<path d="M56.5888 54.3578C58.6162 54.3578 60.2597 52.7143 60.2597 50.687C60.2597 48.6596 58.6162 47.0161 56.5888 47.0161C54.5615 47.0161 52.918 48.6596 52.918 50.687C52.918 52.7143 54.5615 54.3578 56.5888 54.3578Z" fill="white"/>
<path d="M56.8789 50.6871C56.8789 49.3885 57.5537 48.2484 58.5713 47.5959C58.0002 47.2295 57.3216 47.0164 56.5927 47.0164C54.5654 47.0164 52.9219 48.6599 52.9219 50.6872C52.9219 52.7146 54.5654 54.3581 56.5927 54.3581C57.3216 54.3581 58.0002 54.1448 58.5713 53.7784C57.5537 53.1257 56.8789 51.9856 56.8789 50.6871Z" fill="#ADD9F3"/>
<path d="M14.1073 58.0286C18.1621 58.0286 21.4491 54.7417 21.4491 50.6869C21.4491 46.6322 18.1621 43.3452 14.1073 43.3452C10.0526 43.3452 6.76562 46.6322 6.76562 50.6869C6.76562 54.7417 10.0526 58.0286 14.1073 58.0286Z" fill="#665E68"/>
<path d="M10.7227 50.6869C10.7227 47.3181 12.9926 44.4812 16.0859 43.6172C15.4562 43.4413 14.7931 43.3452 14.1073 43.3452C10.0526 43.3452 6.76562 46.6322 6.76562 50.6869C6.76562 54.7416 10.0526 58.0286 14.1073 58.0286C14.7931 58.0286 15.4562 57.9326 16.0859 57.7567C12.9926 56.8927 10.7227 54.0557 10.7227 50.6869Z" fill="#554E56"/>
<path d="M14.1045 54.3578C16.1318 54.3578 17.7753 52.7143 17.7753 50.687C17.7753 48.6596 16.1318 47.0161 14.1045 47.0161C12.0771 47.0161 10.4336 48.6596 10.4336 50.687C10.4336 52.7143 12.0771 54.3578 14.1045 54.3578Z" fill="white"/>
<path d="M14.3906 50.6871C14.3906 49.3885 15.0654 48.2484 16.083 47.5959C15.5119 47.2295 14.8333 47.0164 14.1045 47.0164C12.0771 47.0164 10.4336 48.6599 10.4336 50.6872C10.4336 52.7146 12.0771 54.3581 14.1045 54.3581C14.8333 54.3581 15.5119 54.1448 16.083 53.7784C15.0654 53.1257 14.3906 51.9856 14.3906 50.6871Z" fill="#ADD9F3"/>
</g>
<defs>
<clipPath id="clip0">
<rect width="76" height="76" fill="white"/>
</clipPath>
</defs>
</svg>
