<svg width="76" height="76" viewBox="0 0 76 76" fill="none" xmlns="http://www.w3.org/2000/svg">
<g clip-path="url(#clip0)">
<path d="M52.4534 49.4482C52.4268 49.6656 52.4137 49.8844 52.4141 50.1034C52.4141 53.36 55.054 56 58.3106 56C61.5672 56 64.2072 53.36 64.2072 50.1034C64.2075 49.8844 64.1944 49.6656 64.1679 49.4482" fill="#365E7D"/>
<path d="M35.4182 49.4482C35.3917 49.6656 35.3786 49.8844 35.3789 50.1034C35.3789 53.36 38.0189 56 41.2755 56C44.5321 56 47.172 53.36 47.172 50.1034C47.1724 49.8844 47.1593 49.6656 47.1327 49.4482" fill="#365E7D"/>
<path d="M58.3085 58.3104C54.33 58.3061 51.1059 55.082 51.1016 51.1035C51.1016 51.0865 51.1016 49.3227 51.1514 48.9716L53.7511 49.3044L52.4512 49.138L53.7537 49.2769C53.7314 49.5612 53.7223 50.9017 53.7223 51.1035C53.7223 53.6364 55.7756 55.6897 58.3085 55.6897C60.8413 55.6897 62.8947 53.6364 62.8947 51.1035C62.8947 50.9017 62.8855 49.5612 62.8632 49.2769L65.4656 48.9716C65.5154 49.3227 65.5154 51.0865 65.5154 51.1035C65.511 55.082 62.2869 58.3061 58.3085 58.3104Z" fill="#407093"/>
<path d="M41.2772 58.3104C37.2987 58.3061 34.0746 55.082 34.0703 51.1035C34.0703 51.0865 34.0703 49.3227 34.1201 48.9716L36.7198 49.3044L35.42 49.138L36.7225 49.2769C36.7002 49.5612 36.691 50.9017 36.691 51.1035C36.691 53.6364 38.7443 55.6897 41.2772 55.6897C43.8101 55.6897 45.8634 53.6364 45.8634 51.1035C45.8634 50.9017 45.8542 49.5612 45.832 49.2769L48.4343 48.9716C48.4841 49.3227 48.4841 51.0865 48.4841 51.1035C48.4798 55.082 45.2557 58.3061 41.2772 58.3104Z" fill="#407093"/>
<path d="M75.6175 38.5455C76.4454 41.2421 75.9127 44.1601 74.1808 46.416C72.4489 48.672 69.7214 50.0007 66.8239 50H2.31053C1.58674 50 0 48.4302 0 47.7273V36L75.6175 38.5455Z" fill="#FD4848"/>
<path d="M76 39H0V13.6667C0.00433977 12.1957 1.18122 11.0044 2.63432 11H53.1078C56.1934 11.0005 60.2879 12.4014 62 15V16L63.5 18.5L71 31L72.1012 32.3333L72.9705 33.6667L74.8277 36.4933C75.3423 37.2636 75.7376 38.1089 76 39Z" fill="white"/>
<path d="M71.5 32.1035H51.9332C50.4876 32.0992 49.3168 30.9284 49.3125 29.4828V20.3104C49.3168 18.8648 50.4876 17.694 51.9332 17.6897H62.9532L63.818 19L71 30.5L71.5 32.1035Z" fill="#CCDFED"/>
<path d="M72.5647 33.0345H51.931C49.7627 33.028 48.0065 31.2718 48 29.1034V19.931C48.0065 17.7627 49.7627 16.0065 51.931 16H62.0731L63.5 18.5L51.931 18.6207C51.2074 18.6207 50.6207 19.2074 50.6207 19.931V29.1034C50.6207 29.8271 51.2074 30.4138 51.931 30.4138H71L72.5647 33.0345Z" fill="#407093"/>
<path d="M39.3087 17.6897H30.1363C28.6889 17.6897 27.5156 18.863 27.5156 20.3104V29.4828C27.5156 30.9302 28.6889 32.1035 30.1363 32.1035H39.3087C40.7561 32.1035 41.9294 30.9302 41.9294 29.4828V20.3104C41.9294 18.863 40.7561 17.6897 39.3087 17.6897Z" fill="#CCDFED"/>
<path d="M18.3478 17.6897H9.17538C7.72801 17.6897 6.55469 18.863 6.55469 20.3104V41.2759C6.55469 42.7233 7.72801 43.8966 9.17538 43.8966H18.3478C19.7952 43.8966 20.9685 42.7233 20.9685 41.2759V20.3104C20.9685 18.863 19.7952 17.6897 18.3478 17.6897Z" fill="#CCDFED"/>
<path d="M18.3456 16H9.17322C7.00486 16.0065 5.24866 17.7627 5.24219 19.931V39H7.86288V19.931C7.86288 19.2074 8.44954 18.6207 9.17322 18.6207H18.3456C19.0693 18.6207 19.656 19.2074 19.656 19.931V39H22.2767V19.931C22.2702 17.7627 20.514 16.0065 18.3456 16Z" fill="#407093"/>
<path d="M22.2767 39V41.2758C22.2702 43.4442 20.514 45.2004 18.3456 45.2069H9.17322C7.00486 45.2004 5.24866 43.4442 5.24219 41.2758V39H7.86288V41.2758C7.86288 41.9995 8.44954 42.5862 9.17322 42.5862H18.3456C19.0693 42.5862 19.656 41.9995 19.656 41.2758V39H22.2767Z" fill="#DC4955"/>
<path d="M15.7258 24.2414H11.7947C11.071 24.2414 10.4844 23.6548 10.4844 22.9311C10.4844 22.2074 11.071 21.6207 11.7947 21.6207H15.7258C16.4494 21.6207 17.0361 22.2074 17.0361 22.9311C17.0361 23.6548 16.4494 24.2414 15.7258 24.2414Z" fill="#407093"/>
<path d="M15.7258 29.4829H11.7947C11.071 29.4829 10.4844 28.8962 10.4844 28.1725C10.4844 27.4488 11.071 26.8622 11.7947 26.8622H15.7258C16.4494 26.8622 17.0361 27.4488 17.0361 28.1725C17.0361 28.8962 16.4494 29.4829 15.7258 29.4829Z" fill="#407093"/>
<path d="M39.3105 33.0345H30.1381C27.967 33.0345 26.207 31.2745 26.207 29.1034V19.931C26.207 17.76 27.967 16 30.1381 16H39.3105C41.4815 16 43.2415 17.76 43.2415 19.931V29.1034C43.2415 31.2745 41.4815 33.0345 39.3105 33.0345ZM30.1381 18.6207C29.4144 18.6207 28.8277 19.2074 28.8277 19.931V29.1034C28.8277 29.8271 29.4144 30.4138 30.1381 30.4138H39.3105C40.0342 30.4138 40.6208 29.8271 40.6208 29.1034V19.931C40.6208 19.2074 40.0342 18.6207 39.3105 18.6207H30.1381Z" fill="#407093"/>
<path d="M76 61L0 61C1.44847e-07 59.3431 1.34315 58 3 58L73 58C74.6569 58 76 59.3431 76 61Z" fill="#407093"/>
<path d="M0 61L76 61C76 62.6569 74.6569 64 73 64L3 64C1.34315 64 -2.89694e-07 62.6569 0 61Z" fill="#365E7D"/>
<path d="M0 13C0 11.8954 0.895431 11 2 11H3V39H0V13Z" fill="#CCDFED"/>
<path d="M0 39H3V50H2C0.895431 50 0 49.1046 0 48V39Z" fill="#DC4955"/>
</g>
<defs>
<clipPath id="clip0">
<rect width="76" height="76" fill="white"/>
</clipPath>
</defs>
</svg>
