<svg width="76" height="76" viewBox="0 0 76 76" fill="none" xmlns="http://www.w3.org/2000/svg">
<path d="M16.8749 55.6099L6.47082 47.4265C5.90248 46.999 5.71641 46.2443 6.05752 45.7503C7.72507 43.3353 10.9374 42.5105 14.0937 43.687L23.5032 49.0246L16.8749 55.6099Z" fill="#407093"/>
<path d="M20.3633 59.1013L28.5682 69.5269C28.9957 70.0952 29.7504 70.2813 30.2443 69.9402L30.8646 69.5118C32.9073 68.1014 33.6049 65.3843 32.6098 62.7146L26.9701 52.4944L20.3633 59.1013Z" fill="#365E7D"/>
<path d="M17.4803 45.6089L11.5938 51.4573L16.8733 55.61L23.5016 49.0245L17.4803 45.6089Z" fill="#365E7D"/>
<path d="M19.6942 23.5596C18.3876 22.253 18.2842 20.171 19.4515 18.7386C21.1211 16.6898 23.2129 14.4083 24.4677 13.1535C26.1844 11.4369 26.3344 11.642 28.1684 10.5178C28.4384 10.3522 28.7869 10.3921 29.0109 10.6161L32.6379 14.2431C32.8618 14.467 32.9016 14.8155 32.7362 15.0855C31.6119 16.9196 31.817 17.0694 30.1004 18.7861C28.8456 20.0409 26.5642 22.1327 24.5153 23.8023C23.0828 24.9694 21.0007 24.8662 19.6942 23.5596Z" fill="white"/>
<path d="M52.4364 56.3042C51.1298 54.9976 51.0264 52.9157 52.1937 51.4833C53.8633 49.4344 55.9551 47.153 57.2099 45.8982C58.9266 44.1815 59.0764 44.3866 60.9106 43.2624C61.1806 43.0968 61.5291 43.1367 61.7531 43.3607L65.3801 46.9877C65.604 47.2116 65.6438 47.5601 65.4784 47.8301C64.3541 49.6642 64.5592 49.8141 62.8426 51.5308C61.5878 52.7856 59.3064 54.8774 57.2575 56.547C55.825 57.7142 53.743 57.6108 52.4364 56.3042Z" fill="white"/>
<path d="M36.0752 35.9275L48.9112 23.0915L9.14784 10.5982C8.32903 10.3891 7.51501 10.5882 6.97333 11.1299L3.61389 14.4893C2.48884 15.6144 2.97173 17.6768 4.55998 18.5296L36.0752 35.9275Z" fill="#407093"/>
<path d="M39.9279 20.2686L28.4688 31.7277L36.0764 35.9274L48.9125 23.0914L39.9279 20.2686Z" fill="#365E7D"/>
<path d="M40.0742 39.9249L52.9103 27.0889L65.4036 66.8523C65.6126 67.6711 65.4136 68.4851 64.8719 69.0268L61.5125 72.3862C60.3874 73.5113 58.325 73.0284 57.4722 71.4401L40.0742 39.9249Z" fill="#365E7D"/>
<path d="M64.303 21.6925L42.7387 43.2567C39.1203 46.8751 35.2734 50.2501 31.246 53.3396L20.9861 61.2102C18.6109 63.0324 15.786 63.2528 14.2678 61.7346C12.7495 60.2163 12.9699 57.3914 14.7921 55.0162L22.6627 44.7563C25.7522 40.7289 29.1271 36.8822 32.7457 33.2637L54.31 11.6995C57.2579 8.7516 60.6436 6.29545 64.2203 4.60917C67.3004 3.15709 70.5744 2.24736 72.1647 3.83767C73.755 5.42798 72.8453 8.70197 71.3932 11.7821C69.707 15.3591 67.2509 18.7446 64.303 21.6925Z" fill="white"/>
<path d="M72.1622 3.83805C71.6025 3.27833 70.8336 3.02923 69.9385 3.00366C70.0029 4.65987 69.2847 6.76041 68.3336 8.77782C66.6474 12.3545 64.1913 15.7402 61.2432 18.6881L39.6791 40.2523C36.0607 43.8707 32.2138 47.2457 28.1864 50.3351L17.9265 58.2057C16.4158 59.3647 14.7235 59.8745 13.3008 59.7022C13.4077 60.4918 13.7264 61.1957 14.2653 61.7347C15.7836 63.2529 18.6085 63.0325 20.9837 61.2104L31.2435 53.3398C35.271 50.2502 39.1177 46.8753 42.7362 43.2568L64.3005 21.6928C67.2484 18.7449 69.7046 15.3592 71.3909 11.7825C72.8428 8.70235 73.7525 5.42836 72.1622 3.83805Z" fill="#CCDFED"/>
<path d="M66.0858 17.5626L65.3494 18.299C64.6655 18.9828 57.0156 11.3329 57.6995 10.649L58.4358 9.91266C58.9 9.4485 59.5812 9.30222 60.1361 9.54762C62.9004 10.7704 65.228 13.0982 66.4509 15.8625C66.6961 16.4172 66.5499 17.0984 66.0858 17.5626Z" fill="#ADD9F4"/>
<path d="M16.5918 60.4303C16.3294 60.4303 16.0669 60.3302 15.8667 60.1299C15.4663 59.7295 15.4663 59.0802 15.8667 58.6799L24.8212 49.7254C25.2217 49.3249 25.871 49.3249 26.2713 49.7254C26.6717 50.1258 26.6717 50.7751 26.2713 51.1754L17.3168 60.1299C17.1166 60.3301 16.8543 60.4303 16.5918 60.4303Z" fill="#FD4848"/>
</svg>
