<svg width="30" height="30" viewBox="0 0 30 30" fill="none" xmlns="http://www.w3.org/2000/svg">
<path d="M15 27.5C8.09625 27.5 2.5 21.9037 2.5 15C2.5 8.09625 8.09625 2.5 15 2.5C21.9037 2.5 27.5 8.09625 27.5 15C27.5 21.9037 21.9037 27.5 15 27.5ZM13.75 18.75V21.25H16.25V18.75H13.75ZM16.25 16.6937C17.2546 16.391 18.117 15.7374 18.6802 14.8522C19.2434 13.9669 19.4699 12.9088 19.3184 11.8706C19.167 10.8323 18.6476 9.88305 17.855 9.19557C17.0624 8.50809 16.0492 8.12817 15 8.125C13.9886 8.12492 13.0083 8.47519 12.226 9.11624C11.4437 9.75729 10.9075 10.6495 10.7088 11.6412L13.1613 12.1325C13.2308 11.7843 13.3979 11.463 13.643 11.206C13.888 10.949 14.201 10.7669 14.5455 10.6809C14.89 10.5948 15.2519 10.6084 15.589 10.72C15.9261 10.8315 16.2246 11.0365 16.4498 11.3111C16.6749 11.5857 16.8175 11.9186 16.8609 12.2711C16.9042 12.6235 16.8466 12.981 16.6947 13.302C16.5428 13.623 16.3029 13.8942 16.0029 14.0842C15.7029 14.2741 15.3551 14.375 15 14.375C14.6685 14.375 14.3505 14.5067 14.1161 14.7411C13.8817 14.9755 13.75 15.2935 13.75 15.625V17.5H16.25V16.6937Z" fill="#00B0F3"/>
</svg>
