<svg width="280" height="92" viewBox="0 0 280 92" fill="none" xmlns="http://www.w3.org/2000/svg">
<g clip-path="url(#clip0)">
<path d="M23.6868 67.2141C18.6002 67.3956 13.5526 66.2676 9.03149 63.9389C5.15551 61.7841 2.01145 58.5288 0 54.5877L11.3906 49.3663C12.6065 51.6185 14.4416 53.4791 16.6809 54.7301C19.0197 56.0168 21.6589 56.6637 24.3302 56.6051C26.6874 56.7364 29.0228 56.0945 30.9787 54.7776C31.6909 54.2969 32.2784 53.6547 32.6926 52.9037C33.1069 52.1528 33.3362 51.3145 33.3617 50.4581C33.3729 50.0272 33.2841 49.5996 33.1023 49.2085C32.9204 48.8175 32.6504 48.4735 32.3132 48.2034C31.486 47.5561 30.561 47.0434 29.5728 46.6844C28.2882 46.2136 26.9645 45.8562 25.617 45.6164L20.8511 44.667C18.4681 44.2161 16.2757 43.6465 14.0596 43.0294C11.9512 42.4347 9.94339 41.5308 8.10213 40.3475C6.3599 39.2527 4.8926 37.7751 3.81277 36.0279C2.65216 34.0179 2.0824 31.7233 2.16851 29.4062C2.17279 27.3658 2.68885 25.3589 3.66979 23.5677C4.73329 21.6459 6.18577 19.9648 7.93532 18.631C9.91239 17.1074 12.1482 15.9498 14.5362 15.2134C17.3196 14.3471 20.2227 13.9226 23.1387 13.9555C27.7684 13.7929 32.3626 14.8143 36.4834 16.9222C39.9522 18.8164 42.8547 21.5926 44.8953 24.968L34.434 29.9046C33.3303 28.1108 31.7568 26.6503 29.8826 25.68C27.8005 24.607 25.4825 24.0686 23.1387 24.1136C20.8614 23.9472 18.5924 24.5309 16.6809 25.7749C16.0537 26.1966 15.5365 26.761 15.1718 27.4213C14.8072 28.0817 14.6056 28.819 14.5838 29.5723C14.5838 31.2337 15.6085 32.4441 17.6817 33.1561C20.6621 34.1399 23.7026 34.9326 26.7847 35.5295C29.012 35.9412 31.2155 36.472 33.3855 37.1197C35.5119 37.7469 37.5468 38.6485 39.4383 39.8016C41.216 40.892 42.7231 42.3687 43.8468 44.1211C45.0363 46.1213 45.6236 48.4197 45.5387 50.7429C45.5115 52.6692 45.0813 54.5688 44.2757 56.3203C43.3446 58.375 41.9885 60.2109 40.2962 61.7079C38.3119 63.4668 36.0061 64.8286 33.5047 65.7189C30.3499 66.8051 27.0233 67.3117 23.6868 67.2141Z" fill="black"/>
<path d="M82.6415 67.2141C79.2114 67.2544 75.8081 66.6087 72.633 65.3154C69.7523 64.1606 67.2171 62.2893 65.2696 59.8804V91.5175H53.0449V14.0504H65.2458V21.8588C67.2081 19.3995 69.7218 17.4323 72.5853 16.1153C75.6995 14.656 79.1048 13.9176 82.5462 13.9555C85.8785 13.9574 89.1821 14.5688 92.2926 15.7593C95.4051 16.9245 98.2558 18.6909 100.681 20.957C103.171 23.3278 105.163 26.1675 106.543 29.3113C108.09 32.8832 108.853 36.7429 108.783 40.6323C108.815 44.5021 108.002 48.3325 106.4 51.8584C104.988 55.0077 102.963 57.8472 100.442 60.2127C98.0085 62.467 95.1603 64.2319 92.0543 65.4104C89.0529 66.5765 85.8631 67.1878 82.6415 67.2141ZM80.6398 55.9643C84.874 56.0047 88.9584 54.4048 92.0304 51.5023C93.4881 50.1018 94.6471 48.4227 95.4381 46.5657C96.2836 44.6022 96.7058 42.4838 96.6772 40.3475C96.6985 38.2679 96.2846 36.2068 95.4619 34.2953C94.6573 32.5014 93.4984 30.8871 92.0543 29.5486C89.6964 27.4075 86.7829 25.9678 83.6448 25.3931C80.5066 24.8183 77.2695 25.1315 74.3011 26.2971C72.4391 27.0398 70.7456 28.1473 69.3212 29.5538C67.8967 30.9602 66.7702 32.6372 66.0083 34.4852C65.215 36.3716 64.8098 38.3973 64.8168 40.4424C64.8022 42.519 65.2075 44.5772 66.0083 46.4945C66.7808 48.3326 67.8967 50.0078 69.2968 51.4311C70.7198 52.8672 72.4229 53.9979 74.3011 54.7539C76.3147 55.5645 78.4679 55.9757 80.6398 55.9643Z" fill="black"/>
<path d="M141.978 67.2141C138.28 67.2449 134.612 66.5513 131.183 65.173C124.597 62.5465 119.326 57.4251 116.528 50.9327C115.116 47.6431 114.389 44.1028 114.389 40.5254C114.389 36.9481 115.116 33.4078 116.528 30.1182C117.911 26.902 119.918 23.9889 122.432 21.5455C124.947 19.1021 127.921 17.1762 131.183 15.8779C134.61 14.4914 138.278 13.7898 141.978 13.813C149.254 13.7632 156.263 16.5385 161.518 21.5503C164.026 23.9619 166.034 26.8407 167.428 30.0232C168.842 33.3122 169.571 36.8527 169.571 40.4305C169.571 44.0083 168.842 47.5488 167.428 50.8378C166.038 54.0224 164.03 56.9019 161.518 59.3107C156.268 64.3311 149.256 67.1079 141.978 67.0479V67.2141ZM141.978 55.7032C144.071 55.7235 146.147 55.3198 148.078 54.5165C149.907 53.7531 151.573 52.6495 152.987 51.265C154.4 49.8751 155.522 48.2193 156.287 46.394C157.052 44.5687 157.445 42.6102 157.443 40.6322C157.458 38.6383 157.071 36.6618 156.305 34.8193C155.54 32.9768 154.412 31.3057 152.987 29.9046C151.567 28.5334 149.902 27.4386 148.078 26.6768C146.146 25.8766 144.071 25.473 141.978 25.4901C139.87 25.4756 137.78 25.879 135.83 26.6768C134.003 27.411 132.341 28.5008 130.941 29.8823C129.542 31.2637 128.433 32.9092 127.68 34.7225C126.882 36.5908 126.477 38.602 126.488 40.6322C126.483 42.6312 126.888 44.6101 127.68 46.447C128.423 48.2778 129.527 49.9416 130.927 51.3399C132.326 52.7382 133.994 53.8426 135.83 54.5877C137.784 55.3648 139.874 55.744 141.978 55.7032Z" fill="black"/>
<path d="M252.404 67.2141C248.706 67.2449 245.038 66.5513 241.609 65.173C235.023 62.5465 229.752 57.4251 226.953 50.9327C225.542 47.6431 224.814 44.1028 224.814 40.5254C224.814 36.9481 225.542 33.4078 226.953 30.1182C228.337 26.902 230.344 23.9889 232.858 21.5455C235.373 19.1021 238.346 17.1762 241.609 15.8779C245.036 14.4914 248.704 13.7898 252.404 13.813C259.679 13.7632 266.689 16.5385 271.944 21.5503C274.452 23.9619 276.46 26.8407 277.854 30.0232C279.268 33.3122 279.997 36.8527 279.997 40.4305C279.997 44.0083 279.268 47.5488 277.854 50.8378C276.464 54.0224 274.455 56.9019 271.944 59.3107C266.694 64.3311 259.681 67.1079 252.404 67.0479V67.2141ZM252.404 55.7032C254.497 55.7235 256.572 55.3198 258.504 54.5165C260.331 53.7602 261.997 52.6648 263.413 51.2887C264.826 49.8988 265.947 48.2431 266.712 46.4178C267.477 44.5924 267.871 42.6339 267.869 40.656C267.883 38.6621 267.496 36.6855 266.731 34.843C265.966 33.0005 264.837 31.3294 263.413 29.9283C261.993 28.5571 260.328 27.4624 258.504 26.7005C256.571 25.9003 254.496 25.4967 252.404 25.5138C250.295 25.4994 248.206 25.9028 246.255 26.7005C244.428 27.4348 242.766 28.5245 241.367 29.906C239.968 31.2875 238.859 32.933 238.106 34.7462C237.308 36.6146 236.902 38.6257 236.914 40.656C236.909 42.6549 237.314 44.6338 238.106 46.4707C238.851 48.2972 239.956 49.9564 241.356 51.3505C242.756 52.7446 244.422 53.8453 246.255 54.5877C248.209 55.3648 250.3 55.744 252.404 55.7032Z" fill="black"/>
<path d="M206.318 37.001L226.907 14.0504H212.156L189.47 39.6354L177.174 51.8821V67.1192H189.47V53.6146L197.93 44.2635L213.872 67.1192H227.622L206.318 37.001Z" fill="black"/>
<path d="M189.47 24.9442V0H177.174V37.1671L189.47 24.9442Z" fill="#F5CA19"/>
</g>
<defs>
<clipPath id="clip0">
<rect width="280" height="91.5175" fill="white"/>
</clipPath>
</defs>
</svg>
