<svg width="26" height="15" viewBox="0 0 26 15" fill="none" xmlns="http://www.w3.org/2000/svg">
<path d="M28.5 0H0V1.15385H28.5V0Z" fill="#B01820"/>
<path d="M28.5 13.8461H0V14.9999H28.5V13.8461Z" fill="#B01820"/>
<path d="M28.5 11.5386H0V12.6924H28.5V11.5386Z" fill="#B01820"/>
<path d="M28.5 9.23083H0V10.3847H28.5V9.23083Z" fill="#B01820"/>
<path d="M28.5 6.92297H0V8.07682H28.5V6.92297Z" fill="#B01820"/>
<path d="M28.5 4.61536H0V5.7692H28.5V4.61536Z" fill="#B01820"/>
<path d="M28.5 2.30786H0V3.46171H28.5V2.30786Z" fill="#B01820"/>
<path d="M28.5 12.6923H0V13.8461H28.5V12.6923Z" fill="white"/>
<path d="M28.5 10.3848H0V11.5386H28.5V10.3848Z" fill="white"/>
<path d="M28.5 8.0769H0V9.23075H28.5V8.0769Z" fill="white"/>
<path d="M28.5 5.76929H0V6.92314H28.5V5.76929Z" fill="white"/>
<path d="M28.5 3.46155H0V4.61539H28.5V3.46155Z" fill="white"/>
<path d="M28.5 1.15393H0V2.30778H28.5V1.15393Z" fill="white"/>
<path d="M11.4 0H0V8.07693H11.4V0Z" fill="#002A70"/>
<path d="M0.94914 0.345703L0.845472 0.664903H0.509766L0.781347 0.862266L0.677559 1.18147L0.94914 0.984222L1.22072 1.18147L1.11693 0.862266L1.38863 0.664903H1.05293L0.94914 0.345703Z" fill="white"/>
<path d="M2.84953 0.345703L2.74586 0.664903H2.41016L2.68174 0.862266L2.57795 1.18147L2.84953 0.984222L3.12111 1.18147L3.01732 0.862266L3.28902 0.664903H2.95332L2.84953 0.345703Z" fill="white"/>
<path d="M4.74992 0.345703L4.64625 0.664903H4.31055L4.58213 0.862266L4.47834 1.18147L4.74992 0.984222L5.0215 1.18147L4.91772 0.862266L5.18942 0.664903H4.85371L4.74992 0.345703Z" fill="white"/>
<path d="M6.64836 0.345703L6.54469 0.664903H6.20898L6.48057 0.862266L6.37678 1.18147L6.64836 0.984222L6.91994 1.18147L6.81615 0.862266L7.08785 0.664903H6.75215L6.64836 0.345703Z" fill="white"/>
<path d="M8.54875 0.345703L8.44508 0.664903H8.10938L8.38096 0.862266L8.27717 1.18147L8.54875 0.984222L8.82033 1.18147L8.71654 0.862266L8.98824 0.664903H8.65254L8.54875 0.345703Z" fill="white"/>
<path d="M10.1776 1.18147L10.4491 0.984222L10.7207 1.18147L10.6169 0.862266L10.8886 0.664903H10.5529L10.4491 0.345703L10.3455 0.664903H10.0098L10.2813 0.862266L10.1776 1.18147Z" fill="white"/>
<path d="M0.94914 1.96106L0.845472 2.28026H0.509766L0.781347 2.47762L0.677559 2.79694L0.94914 2.59958L1.22072 2.79694L1.11693 2.47762L1.38863 2.28026H1.05293L0.94914 1.96106Z" fill="white"/>
<path d="M2.84953 1.96106L2.74586 2.28026H2.41016L2.68174 2.47762L2.57795 2.79694L2.84953 2.59958L3.12111 2.79694L3.01732 2.47762L3.28902 2.28026H2.95332L2.84953 1.96106Z" fill="white"/>
<path d="M4.74992 1.96106L4.64625 2.28026H4.31055L4.58213 2.47762L4.47834 2.79694L4.74992 2.59958L5.0215 2.79694L4.91772 2.47762L5.18942 2.28026H4.85371L4.74992 1.96106Z" fill="white"/>
<path d="M6.64836 1.96106L6.54469 2.28026H6.20898L6.48057 2.47762L6.37678 2.79694L6.64836 2.59958L6.91994 2.79694L6.81615 2.47762L7.08785 2.28026H6.75215L6.64836 1.96106Z" fill="white"/>
<path d="M8.54875 1.96106L8.44508 2.28026H8.10938L8.38096 2.47762L8.27717 2.79694L8.54875 2.59958L8.82033 2.79694L8.71654 2.47762L8.98824 2.28026H8.65254L8.54875 1.96106Z" fill="white"/>
<path d="M10.4491 1.96106L10.3455 2.28026H10.0098L10.2813 2.47762L10.1776 2.79694L10.4491 2.59958L10.7207 2.79694L10.6169 2.47762L10.8886 2.28026H10.5529L10.4491 1.96106Z" fill="white"/>
<path d="M0.94914 3.57642L0.845472 3.89573H0.509766L0.781347 4.09298L0.677559 4.4123L0.94914 4.21493L1.22072 4.4123L1.11693 4.09298L1.38863 3.89573H1.05293L0.94914 3.57642Z" fill="white"/>
<path d="M2.84953 3.57642L2.74586 3.89573H2.41016L2.68174 4.09298L2.57795 4.4123L2.84953 4.21493L3.12111 4.4123L3.01732 4.09298L3.28902 3.89573H2.95332L2.84953 3.57642Z" fill="white"/>
<path d="M4.74992 3.57642L4.64625 3.89573H4.31055L4.58213 4.09298L4.47834 4.4123L4.74992 4.21493L5.0215 4.4123L4.91772 4.09298L5.18942 3.89573H4.85371L4.74992 3.57642Z" fill="white"/>
<path d="M6.64836 3.57642L6.54469 3.89573H6.20898L6.48057 4.09298L6.37678 4.4123L6.64836 4.21493L6.91994 4.4123L6.81615 4.09298L7.08785 3.89573H6.75215L6.64836 3.57642Z" fill="white"/>
<path d="M8.54875 3.57642L8.44508 3.89573H8.10938L8.38096 4.09298L8.27717 4.4123L8.54875 4.21493L8.82033 4.4123L8.71654 4.09298L8.98824 3.89573H8.65254L8.54875 3.57642Z" fill="white"/>
<path d="M10.4491 3.57642L10.3455 3.89573H10.0098L10.2813 4.09298L10.1776 4.4123L10.4491 4.21493L10.7207 4.4123L10.6169 4.09298L10.8886 3.89573H10.5529L10.4491 3.57642Z" fill="white"/>
<path d="M0.94914 5.19189L0.845472 5.51121H0.509766L0.781347 5.70858L0.677559 6.02778L0.94914 5.83053L1.22072 6.02778L1.11693 5.70858L1.38863 5.51121H1.05293L0.94914 5.19189Z" fill="white"/>
<path d="M2.84953 5.19189L2.74586 5.51121H2.41016L2.68174 5.70858L2.57795 6.02778L2.84953 5.83053L3.12111 6.02778L3.01732 5.70858L3.28902 5.51121H2.95332L2.84953 5.19189Z" fill="white"/>
<path d="M4.74992 5.19189L4.64625 5.51121H4.31055L4.58213 5.70858L4.47834 6.02778L4.74992 5.83053L5.0215 6.02778L4.91772 5.70858L5.18942 5.51121H4.85371L4.74992 5.19189Z" fill="white"/>
<path d="M6.64836 5.19189L6.54469 5.51121H6.20898L6.48057 5.70858L6.37678 6.02778L6.64836 5.83053L6.91994 6.02778L6.81615 5.70858L7.08785 5.51121H6.75215L6.64836 5.19189Z" fill="white"/>
<path d="M8.54875 5.19189L8.44508 5.51121H8.10938L8.38096 5.70858L8.27717 6.02778L8.54875 5.83053L8.82033 6.02778L8.71654 5.70858L8.98824 5.51121H8.65254L8.54875 5.19189Z" fill="white"/>
<path d="M10.4491 5.19189L10.3455 5.51121H10.0098L10.2813 5.70858L10.1776 6.02778L10.4491 5.83053L10.7207 6.02778L10.6169 5.70858L10.8886 5.51121H10.5529L10.4491 5.19189Z" fill="white"/>
<path d="M1.05293 7.12657L0.94914 6.80737L0.845472 7.12657H0.509766L0.781347 7.32393L0.677559 7.64313L0.94914 7.44589L1.22072 7.64313L1.11693 7.32393L1.38863 7.12657H1.05293Z" fill="white"/>
<path d="M2.95332 7.12657L2.84953 6.80737L2.74586 7.12657H2.41016L2.68174 7.32393L2.57795 7.64313L2.84953 7.44589L3.12111 7.64313L3.01732 7.32393L3.28902 7.12657H2.95332Z" fill="white"/>
<path d="M4.85371 7.12657L4.74992 6.80737L4.64625 7.12657H4.31055L4.58213 7.32393L4.47834 7.64313L4.74992 7.44589L5.0215 7.64313L4.91772 7.32393L5.18942 7.12657H4.85371Z" fill="white"/>
<path d="M6.75215 7.12657L6.64836 6.80737L6.54469 7.12657H6.20898L6.48057 7.32393L6.37678 7.64313L6.64836 7.44589L6.91994 7.64313L6.81615 7.32393L7.08785 7.12657H6.75215Z" fill="white"/>
<path d="M8.65254 7.12657L8.54875 6.80737L8.44508 7.12657H8.10938L8.38096 7.32393L8.27717 7.64313L8.54875 7.44589L8.82033 7.64313L8.71654 7.32393L8.98824 7.12657H8.65254Z" fill="white"/>
<path d="M10.5529 7.12657L10.4491 6.80737L10.3455 7.12657H10.0098L10.2813 7.32393L10.1776 7.64313L10.4491 7.44589L10.7207 7.64313L10.6169 7.32393L10.8886 7.12657H10.5529Z" fill="white"/>
<path d="M1.89836 1.15332L1.79469 1.47264H1.45898L1.73057 1.67L1.62678 1.9892L1.89836 1.79184L2.16994 1.9892L2.06615 1.67L2.33785 1.47264H2.00215L1.89836 1.15332Z" fill="white"/>
<path d="M3.79875 1.15332L3.69508 1.47264H3.35938L3.63096 1.67L3.52717 1.9892L3.79875 1.79184L4.07033 1.9892L3.96654 1.67L4.23824 1.47264H3.90254L3.79875 1.15332Z" fill="white"/>
<path d="M5.69914 1.15332L5.59547 1.47264H5.25977L5.53135 1.67L5.42756 1.9892L5.69914 1.79184L5.97072 1.9892L5.86693 1.67L6.13863 1.47264H5.80293L5.69914 1.15332Z" fill="white"/>
<path d="M7.59953 1.15332L7.49586 1.47264H7.16016L7.43174 1.67L7.32795 1.9892L7.59953 1.79184L7.87111 1.9892L7.76732 1.67L8.03902 1.47264H7.70332L7.59953 1.15332Z" fill="white"/>
<path d="M9.49992 1.15332L9.39625 1.47264H9.06055L9.33213 1.67L9.22834 1.9892L9.49992 1.79184L9.7715 1.9892L9.66772 1.67L9.93942 1.47264H9.60371L9.49992 1.15332Z" fill="white"/>
<path d="M1.89836 2.76868L1.79469 3.088H1.45898L1.73057 3.28536L1.62678 3.60456L1.89836 3.40731L2.16994 3.60456L2.06615 3.28536L2.33785 3.088H2.00215L1.89836 2.76868Z" fill="white"/>
<path d="M3.79875 2.76868L3.69508 3.088H3.35938L3.63096 3.28536L3.52717 3.60456L3.79875 3.40731L4.07033 3.60456L3.96654 3.28536L4.23824 3.088H3.90254L3.79875 2.76868Z" fill="white"/>
<path d="M5.69914 2.76868L5.59547 3.088H5.25977L5.53135 3.28536L5.42756 3.60456L5.69914 3.40731L5.97072 3.60456L5.86693 3.28536L6.13863 3.088H5.80293L5.69914 2.76868Z" fill="white"/>
<path d="M7.59953 2.76868L7.49586 3.088H7.16016L7.43174 3.28536L7.32795 3.60456L7.59953 3.40731L7.87111 3.60456L7.76732 3.28536L8.03902 3.088H7.70332L7.59953 2.76868Z" fill="white"/>
<path d="M9.49992 2.76868L9.39625 3.088H9.06055L9.33213 3.28536L9.22834 3.60456L9.49992 3.40731L9.7715 3.60456L9.66772 3.28536L9.93942 3.088H9.60371L9.49992 2.76868Z" fill="white"/>
<path d="M1.89836 4.38416L1.79469 4.70335H1.45898L1.73057 4.90072L1.62678 5.21992L1.89836 5.02267L2.16994 5.22004L2.06615 4.90072L2.33785 4.70335H2.00215L1.89836 4.38416Z" fill="white"/>
<path d="M3.79875 4.38416L3.69508 4.70335H3.35938L3.63096 4.90072L3.52717 5.21992L3.79875 5.02267L4.07033 5.22004L3.96654 4.90072L4.23824 4.70335H3.90254L3.79875 4.38416Z" fill="white"/>
<path d="M5.69914 4.38416L5.59547 4.70335H5.25977L5.53135 4.90072L5.42756 5.21992L5.69914 5.02267L5.97072 5.22004L5.86693 4.90072L6.13863 4.70335H5.80293L5.69914 4.38416Z" fill="white"/>
<path d="M7.59953 4.38416L7.49586 4.70335H7.16016L7.43174 4.90072L7.32795 5.21992L7.59953 5.02267L7.87111 5.22004L7.76732 4.90072L8.03902 4.70335H7.70332L7.59953 4.38416Z" fill="white"/>
<path d="M9.49992 4.38416L9.39625 4.70335H9.06055L9.33213 4.90072L9.22834 5.21992L9.49992 5.02267L9.7715 5.22004L9.66772 4.90072L9.93942 4.70335H9.60371L9.49992 4.38416Z" fill="white"/>
<path d="M2.00215 6.31895L1.89836 5.99963L1.79469 6.31895H1.45898L1.73057 6.5162L1.62678 6.83551L1.89836 6.63815L2.16994 6.83551L2.06615 6.5162L2.33785 6.31895H2.00215Z" fill="white"/>
<path d="M3.90254 6.31895L3.79875 5.99963L3.69508 6.31895H3.35938L3.63096 6.5162L3.52717 6.83551L3.79875 6.63815L4.07033 6.83551L3.96654 6.5162L4.23824 6.31895H3.90254Z" fill="white"/>
<path d="M5.80293 6.31895L5.69914 5.99963L5.59547 6.31895H5.25977L5.53135 6.5162L5.42756 6.83551L5.69914 6.63815L5.97072 6.83551L5.86693 6.5162L6.13863 6.31895H5.80293Z" fill="white"/>
<path d="M7.70332 6.31895L7.59953 5.99963L7.49586 6.31895H7.16016L7.43174 6.5162L7.32795 6.83551L7.59953 6.63815L7.87111 6.83551L7.76732 6.5162L8.03902 6.31895H7.70332Z" fill="white"/>
<path d="M9.60371 6.31895L9.49992 5.99963L9.39625 6.31895H9.06055L9.33213 6.5162L9.22834 6.83551L9.49992 6.63815L9.7715 6.83551L9.66772 6.5162L9.93942 6.31895H9.60371Z" fill="white"/>
</svg>
