<svg width="137" height="137" viewBox="0 0 137 137" fill="none" xmlns="http://www.w3.org/2000/svg">
<g clip-path="url(#clip0)">
<path d="M134.929 111.64L78.5961 14.6765C76.0061 10.3058 72.2829 7.71582 68.3979 7.71582C64.351 7.71582 60.6279 10.3058 58.1997 14.6765L2.1907 111.64C-0.399318 116.011 -0.723069 120.543 1.38132 123.943C3.32383 127.342 7.37072 129.285 12.5508 129.285H124.569C129.587 129.285 133.634 127.342 135.738 123.943C137.681 120.543 137.357 116.011 134.929 111.64ZM129.587 120.543C128.778 121.838 126.997 122.486 124.407 122.486H12.3889C9.79886 122.486 7.85635 121.676 7.20885 120.543C6.39947 119.248 6.72322 117.306 8.01823 115.04L64.0273 18.0759C65.3223 15.8096 66.941 14.5146 68.3979 14.5146C69.8548 14.5146 71.4736 15.8096 72.7686 18.0759L128.778 115.04C130.073 117.306 130.396 119.248 129.587 120.543Z" fill="white"/>
<path d="M68.3974 39.6055C66.4549 39.6055 64.998 41.0624 64.998 43.0049V88.0064C64.998 89.9489 66.4549 91.4058 68.3974 91.4058C70.3399 91.4058 71.7968 89.9489 71.7968 88.0064V43.0049C71.7968 41.0624 70.3399 39.6055 68.3974 39.6055Z" fill="white"/>
<path d="M68.3976 110.992C71.7055 110.992 74.387 108.311 74.387 105.003C74.387 101.695 71.7055 99.0137 68.3976 99.0137C65.0898 99.0137 62.4082 101.695 62.4082 105.003C62.4082 108.311 65.0898 110.992 68.3976 110.992Z" fill="white"/>
</g>
<defs>
<clipPath id="clip0">
<rect width="137" height="137" fill="white"/>
</clipPath>
</defs>
</svg>
