<svg width="87" height="36" viewBox="0 0 87 36" fill="none" xmlns="http://www.w3.org/2000/svg">
<rect width="87" height="36" rx="8" fill="#D9E8F2"/>
<path d="M28.89 24L27.27 15H28.8L30.042 21.84H30.132L31.77 16.8H33.21L34.848 21.84H34.938L36.18 15H37.71L36.09 24H34.11L32.526 19.14H32.454L30.87 24H28.89ZM39.8763 24L38.2563 15H39.7863L41.0283 21.84H41.1183L42.7563 16.8H44.1963L45.8343 21.84H45.9243L47.1663 15H48.6963L47.0763 24H45.0963L43.5123 19.14H43.4403L41.8563 24H39.8763ZM50.8627 24L49.2427 15H50.7727L52.0147 21.84H52.1047L53.7427 16.8H55.1827L56.8207 21.84H56.9107L58.1527 15H59.6827L58.0627 24H56.0827L54.4987 19.14H54.4267L52.8427 24H50.8627Z" fill="#7B8A99"/>
</svg>
